<svg width="68" height="78" viewBox="0 0 68 78" fill="none" xmlns="http://www.w3.org/2000/svg">
<g filter="url(#filter0_d_333_2)">
<rect x="4" y="3" width="60" height="60" rx="5" fill="#00FF00" fill-opacity="0.15" shape-rendering="crispEdges"/>
</g>
<path d="M8.70455 76V70.1818H9.40909V75.375H12.1136V76H8.70455ZM14.9432 76.0909C14.5227 76.0909 14.16 75.9981 13.8551 75.8125C13.5521 75.625 13.3182 75.3636 13.1534 75.0284C12.9905 74.6913 12.9091 74.2992 12.9091 73.8523C12.9091 73.4053 12.9905 73.0114 13.1534 72.6705C13.3182 72.3277 13.5473 72.0606 13.8409 71.8693C14.1364 71.6761 14.4811 71.5795 14.875 71.5795C15.1023 71.5795 15.3267 71.6174 15.5483 71.6932C15.7699 71.7689 15.9716 71.892 16.1534 72.0625C16.3352 72.2311 16.4801 72.4545 16.5881 72.733C16.696 73.0114 16.75 73.3542 16.75 73.7614V74.0455H13.3864V73.4659H16.0682C16.0682 73.2197 16.0189 73 15.9205 72.8068C15.8239 72.6136 15.6856 72.4612 15.5057 72.3494C15.3277 72.2377 15.1174 72.1818 14.875 72.1818C14.608 72.1818 14.3769 72.2481 14.1818 72.3807C13.9886 72.5114 13.84 72.6818 13.7358 72.892C13.6316 73.1023 13.5795 73.3277 13.5795 73.5682V73.9545C13.5795 74.2841 13.6364 74.5634 13.75 74.7926C13.8655 75.0199 14.0256 75.1932 14.2301 75.3125C14.4347 75.4299 14.6723 75.4886 14.9432 75.4886C15.1193 75.4886 15.2784 75.464 15.4205 75.4148C15.5644 75.3636 15.6884 75.2879 15.7926 75.1875C15.8968 75.0852 15.9773 74.9583 16.0341 74.8068L16.6818 74.9886C16.6136 75.2083 16.4991 75.4015 16.3381 75.5682C16.1771 75.733 15.9782 75.8617 15.7415 75.9545C15.5047 76.0455 15.2386 76.0909 14.9432 76.0909ZM21.2053 71.6364L19.5916 76H18.9098L17.2962 71.6364H18.0234L19.228 75.1136H19.2734L20.478 71.6364H21.2053ZM23.2415 76.1023C22.965 76.1023 22.714 76.0502 22.4886 75.946C22.2633 75.84 22.0843 75.6875 21.9517 75.4886C21.8191 75.2879 21.7528 75.0455 21.7528 74.7614C21.7528 74.5114 21.8021 74.3087 21.9006 74.1534C21.9991 73.9962 22.1307 73.8731 22.2955 73.7841C22.4602 73.6951 22.642 73.6288 22.8409 73.5852C23.0417 73.5398 23.2434 73.5038 23.446 73.4773C23.7112 73.4432 23.9261 73.4176 24.0909 73.4006C24.2576 73.3816 24.3788 73.3504 24.4545 73.3068C24.5322 73.2633 24.571 73.1875 24.571 73.0795V73.0568C24.571 72.7765 24.4943 72.5587 24.3409 72.4034C24.1894 72.2481 23.9593 72.1705 23.6506 72.1705C23.3305 72.1705 23.0795 72.2405 22.8977 72.3807C22.7159 72.5208 22.5881 72.6705 22.5142 72.8295L21.8778 72.6023C21.9915 72.3371 22.143 72.1307 22.3324 71.983C22.5237 71.8333 22.732 71.7292 22.9574 71.6705C23.1847 71.6098 23.4081 71.5795 23.6278 71.5795C23.768 71.5795 23.929 71.5966 24.1108 71.6307C24.2945 71.6629 24.4716 71.7301 24.642 71.8324C24.8144 71.9347 24.9574 72.089 25.071 72.2955C25.1847 72.5019 25.2415 72.7784 25.2415 73.125V76H24.571V75.4091H24.5369C24.4915 75.5038 24.4157 75.6051 24.3097 75.7131C24.2036 75.821 24.0625 75.9129 23.8864 75.9886C23.7102 76.0644 23.4953 76.1023 23.2415 76.1023ZM23.3438 75.5C23.6089 75.5 23.8324 75.4479 24.0142 75.3438C24.1979 75.2396 24.3362 75.1051 24.429 74.9403C24.5237 74.7756 24.571 74.6023 24.571 74.4205V73.8068C24.5426 73.8409 24.4801 73.8722 24.3835 73.9006C24.2888 73.9271 24.179 73.9508 24.054 73.9716C23.9309 73.9905 23.8106 74.0076 23.6932 74.0227C23.5777 74.036 23.4839 74.0473 23.4119 74.0568C23.2377 74.0795 23.0748 74.1165 22.9233 74.1676C22.7737 74.2169 22.6525 74.2917 22.5597 74.392C22.4688 74.4905 22.4233 74.625 22.4233 74.7955C22.4233 75.0284 22.5095 75.2045 22.6818 75.3239C22.8561 75.4413 23.0767 75.5 23.3438 75.5ZM27.1357 73.375V76H26.4652V71.6364H27.1129V72.3182H27.1697C27.272 72.0966 27.4273 71.9186 27.6357 71.7841C27.844 71.6477 28.1129 71.5795 28.4425 71.5795C28.7379 71.5795 28.9964 71.6402 29.218 71.7614C29.4396 71.8807 29.612 72.0625 29.7351 72.3068C29.8582 72.5492 29.9197 72.8561 29.9197 73.2273V76H29.2493V73.2727C29.2493 72.9299 29.1603 72.6629 28.9822 72.4716C28.8042 72.2784 28.5599 72.1818 28.2493 72.1818C28.0353 72.1818 27.844 72.2282 27.6754 72.321C27.5088 72.4138 27.3771 72.5492 27.2805 72.7273C27.1839 72.9053 27.1357 73.1212 27.1357 73.375ZM33.0426 71.6364V72.2045H30.7812V71.6364H33.0426ZM31.4403 70.5909H32.1108V74.75C32.1108 74.9394 32.1383 75.0814 32.1932 75.1761C32.25 75.2689 32.322 75.3314 32.4091 75.3636C32.4981 75.3939 32.5919 75.4091 32.6903 75.4091C32.7642 75.4091 32.8248 75.4053 32.8722 75.3977C32.9195 75.3883 32.9574 75.3807 32.9858 75.375L33.1222 75.9773C33.0767 75.9943 33.0133 76.0114 32.9318 76.0284C32.8504 76.0473 32.7472 76.0568 32.6222 76.0568C32.4328 76.0568 32.2472 76.0161 32.0653 75.9347C31.8854 75.8532 31.7358 75.7292 31.6165 75.5625C31.4991 75.3958 31.4403 75.1856 31.4403 74.9318V70.5909ZM35.3352 76.1023C35.0587 76.1023 34.8078 76.0502 34.5824 75.946C34.357 75.84 34.178 75.6875 34.0455 75.4886C33.9129 75.2879 33.8466 75.0455 33.8466 74.7614C33.8466 74.5114 33.8958 74.3087 33.9943 74.1534C34.0928 73.9962 34.2244 73.8731 34.3892 73.7841C34.554 73.6951 34.7358 73.6288 34.9347 73.5852C35.1354 73.5398 35.3371 73.5038 35.5398 73.4773C35.8049 73.4432 36.0199 73.4176 36.1847 73.4006C36.3513 73.3816 36.4725 73.3504 36.5483 73.3068C36.6259 73.2633 36.6648 73.1875 36.6648 73.0795V73.0568C36.6648 72.7765 36.5881 72.5587 36.4347 72.4034C36.2831 72.2481 36.053 72.1705 35.7443 72.1705C35.4242 72.1705 35.1733 72.2405 34.9915 72.3807C34.8097 72.5208 34.6818 72.6705 34.608 72.8295L33.9716 72.6023C34.0852 72.3371 34.2367 72.1307 34.4261 71.983C34.6174 71.8333 34.8258 71.7292 35.0511 71.6705C35.2784 71.6098 35.5019 71.5795 35.7216 71.5795C35.8617 71.5795 36.0227 71.5966 36.2045 71.6307C36.3883 71.6629 36.5653 71.7301 36.7358 71.8324C36.9081 71.9347 37.0511 72.089 37.1648 72.2955C37.2784 72.5019 37.3352 72.7784 37.3352 73.125V76H36.6648V75.4091H36.6307C36.5852 75.5038 36.5095 75.6051 36.4034 75.7131C36.2973 75.821 36.1563 75.9129 35.9801 75.9886C35.804 76.0644 35.589 76.1023 35.3352 76.1023ZM35.4375 75.5C35.7027 75.5 35.9261 75.4479 36.108 75.3438C36.2917 75.2396 36.4299 75.1051 36.5227 74.9403C36.6174 74.7756 36.6648 74.6023 36.6648 74.4205V73.8068C36.6364 73.8409 36.5739 73.8722 36.4773 73.9006C36.3826 73.9271 36.2727 73.9508 36.1477 73.9716C36.0246 73.9905 35.9044 74.0076 35.7869 74.0227C35.6714 74.036 35.5777 74.0473 35.5057 74.0568C35.3314 74.0795 35.1686 74.1165 35.017 74.1676C34.8674 74.2169 34.7462 74.2917 34.6534 74.392C34.5625 74.4905 34.517 74.625 34.517 74.7955C34.517 75.0284 34.6032 75.2045 34.7756 75.3239C34.9498 75.4413 35.1705 75.5 35.4375 75.5ZM38.5589 76V71.6364H39.2067V72.3182H39.2635C39.3544 72.0852 39.5012 71.9044 39.7038 71.7756C39.9065 71.6449 40.1499 71.5795 40.4339 71.5795C40.7218 71.5795 40.9614 71.6449 41.1527 71.7756C41.3459 71.9044 41.4964 72.0852 41.6044 72.3182H41.6499C41.7616 72.0928 41.9292 71.9138 42.1527 71.7812C42.3762 71.6468 42.6442 71.5795 42.9567 71.5795C43.3468 71.5795 43.666 71.7017 43.9141 71.946C44.1622 72.1884 44.2862 72.5663 44.2862 73.0795V76H43.6158V73.0795C43.6158 72.7576 43.5277 72.5275 43.3516 72.3892C43.1754 72.2509 42.968 72.1818 42.7294 72.1818C42.4226 72.1818 42.1849 72.2746 42.0163 72.4602C41.8478 72.6439 41.7635 72.8769 41.7635 73.1591V76H41.0817V73.0114C41.0817 72.7633 41.0012 72.5634 40.8402 72.4119C40.6792 72.2585 40.4718 72.1818 40.218 72.1818C40.0438 72.1818 39.8809 72.2282 39.7294 72.321C39.5798 72.4138 39.4586 72.5426 39.3658 72.7074C39.2749 72.8703 39.2294 73.0587 39.2294 73.2727V76H38.5589ZM47.3416 76.0909C46.9212 76.0909 46.5585 75.9981 46.2536 75.8125C45.9505 75.625 45.7166 75.3636 45.5518 75.0284C45.389 74.6913 45.3075 74.2992 45.3075 73.8523C45.3075 73.4053 45.389 73.0114 45.5518 72.6705C45.7166 72.3277 45.9458 72.0606 46.2393 71.8693C46.5348 71.6761 46.8795 71.5795 47.2734 71.5795C47.5007 71.5795 47.7251 71.6174 47.9467 71.6932C48.1683 71.7689 48.37 71.892 48.5518 72.0625C48.7337 72.2311 48.8786 72.4545 48.9865 72.733C49.0945 73.0114 49.1484 73.3542 49.1484 73.7614V74.0455H45.7848V73.4659H48.4666C48.4666 73.2197 48.4174 73 48.3189 72.8068C48.2223 72.6136 48.084 72.4612 47.9041 72.3494C47.7261 72.2377 47.5159 72.1818 47.2734 72.1818C47.0064 72.1818 46.7753 72.2481 46.5803 72.3807C46.3871 72.5114 46.2384 72.6818 46.1342 72.892C46.0301 73.1023 45.978 73.3277 45.978 73.5682V73.9545C45.978 74.2841 46.0348 74.5634 46.1484 74.7926C46.264 75.0199 46.424 75.1932 46.6286 75.3125C46.8331 75.4299 47.0708 75.4886 47.3416 75.4886C47.5178 75.4886 47.6768 75.464 47.8189 75.4148C47.9628 75.3636 48.0869 75.2879 48.1911 75.1875C48.2952 75.0852 48.3757 74.9583 48.4325 74.8068L49.0803 74.9886C49.0121 75.2083 48.8975 75.4015 48.7365 75.5682C48.5755 75.733 48.3767 75.8617 48.1399 75.9545C47.9032 76.0455 47.6371 76.0909 47.3416 76.0909ZM50.8388 73.375V76H50.1683V71.6364H50.8161V72.3182H50.8729C50.9751 72.0966 51.1304 71.9186 51.3388 71.7841C51.5471 71.6477 51.8161 71.5795 52.1456 71.5795C52.4411 71.5795 52.6996 71.6402 52.9212 71.7614C53.1428 71.8807 53.3151 72.0625 53.4382 72.3068C53.5613 72.5492 53.6229 72.8561 53.6229 73.2273V76H52.9524V73.2727C52.9524 72.9299 52.8634 72.6629 52.6854 72.4716C52.5073 72.2784 52.263 72.1818 51.9524 72.1818C51.7384 72.1818 51.5471 72.2282 51.3786 72.321C51.2119 72.4138 51.0803 72.5492 50.9837 72.7273C50.8871 72.9053 50.8388 73.1212 50.8388 73.375ZM56.7457 71.6364V72.2045H54.4844V71.6364H56.7457ZM55.1435 70.5909H55.8139V74.75C55.8139 74.9394 55.8414 75.0814 55.8963 75.1761C55.9531 75.2689 56.0251 75.3314 56.1122 75.3636C56.2012 75.3939 56.295 75.4091 56.3935 75.4091C56.4673 75.4091 56.5279 75.4053 56.5753 75.3977C56.6226 75.3883 56.6605 75.3807 56.6889 75.375L56.8253 75.9773C56.7798 75.9943 56.7164 76.0114 56.6349 76.0284C56.5535 76.0473 56.4503 76.0568 56.3253 76.0568C56.1359 76.0568 55.9503 76.0161 55.7685 75.9347C55.5885 75.8532 55.4389 75.7292 55.3196 75.5625C55.2022 75.3958 55.1435 75.1856 55.1435 74.9318V70.5909ZM59.4801 76.0909C59.0862 76.0909 58.7405 75.9972 58.4432 75.8097C58.1477 75.6222 57.9167 75.3598 57.75 75.0227C57.5852 74.6856 57.5028 74.2917 57.5028 73.8409C57.5028 73.3864 57.5852 72.9896 57.75 72.6506C57.9167 72.3116 58.1477 72.0483 58.4432 71.8608C58.7405 71.6733 59.0862 71.5795 59.4801 71.5795C59.8741 71.5795 60.2188 71.6733 60.5142 71.8608C60.8116 72.0483 61.0426 72.3116 61.2074 72.6506C61.3741 72.9896 61.4574 73.3864 61.4574 73.8409C61.4574 74.2917 61.3741 74.6856 61.2074 75.0227C61.0426 75.3598 60.8116 75.6222 60.5142 75.8097C60.2188 75.9972 59.8741 76.0909 59.4801 76.0909ZM59.4801 75.4886C59.7794 75.4886 60.0256 75.4119 60.2188 75.2585C60.4119 75.1051 60.5549 74.9034 60.6477 74.6534C60.7405 74.4034 60.7869 74.1326 60.7869 73.8409C60.7869 73.5492 60.7405 73.2775 60.6477 73.0256C60.5549 72.7737 60.4119 72.5701 60.2188 72.4148C60.0256 72.2595 59.7794 72.1818 59.4801 72.1818C59.1809 72.1818 58.9347 72.2595 58.7415 72.4148C58.5483 72.5701 58.4053 72.7737 58.3125 73.0256C58.2197 73.2775 58.1733 73.5492 58.1733 73.8409C58.1733 74.1326 58.2197 74.4034 58.3125 74.6534C58.4053 74.9034 58.5483 75.1051 58.7415 75.2585C58.9347 75.4119 59.1809 75.4886 59.4801 75.4886Z" fill="black"/>
<path d="M19 25.3721V42.9193C19 43.9389 19.5085 44.9018 20.3594 45.2586C24.7396 47.0994 29.1198 45.842 33.5 44.5846C37.5177 43.4348 41.5354 42.2793 45.5481 43.5141C46.7061 43.8709 48 42.976 48 41.6223V24.0693C48 23.0498 47.4915 22.0869 46.6406 21.7301C42.2604 19.9006 37.8802 21.158 33.5 22.4154C29.4823 23.5652 25.4646 24.715 21.4519 23.4803C20.2889 23.1234 19 24.0184 19 25.3721ZM33.5 38.9375C31.2747 38.9375 29.4722 36.502 29.4722 33.5C29.4722 30.498 31.2747 28.0625 33.5 28.0625C35.7253 28.0625 37.5278 30.498 37.5278 33.5C37.5278 36.502 35.7253 38.9375 33.5 38.9375ZM22.2222 38.9375C23.9995 38.9375 25.4444 40.5631 25.4444 42.5625H22.2222V38.9375ZM25.4444 27.1563C25.4444 29.1557 23.9995 30.7813 22.2222 30.7813V27.1563H25.4444ZM44.7778 36.2188V39.8438H41.5556C41.5556 37.8443 43.0005 36.2188 44.7778 36.2188ZM41.5556 24.4375H44.7778V28.0625C43.0005 28.0625 41.5556 26.4369 41.5556 24.4375Z" fill="#00BF00"/>
<defs>
<filter id="filter0_d_333_2" x="0" y="0" width="68" height="68" filterUnits="userSpaceOnUse" color-interpolation-filters="sRGB">
<feFlood flood-opacity="0" result="BackgroundImageFix"/>
<feColorMatrix in="SourceAlpha" type="matrix" values="0 0 0 0 0 0 0 0 0 0 0 0 0 0 0 0 0 0 127 0" result="hardAlpha"/>
<feOffset dy="1"/>
<feGaussianBlur stdDeviation="2"/>
<feComposite in2="hardAlpha" operator="out"/>
<feColorMatrix type="matrix" values="0 0 0 0 0 0 0 0 0 0 0 0 0 0 0 0 0 0 0.25 0"/>
<feBlend mode="normal" in2="BackgroundImageFix" result="effect1_dropShadow_333_2"/>
<feBlend mode="normal" in="SourceGraphic" in2="effect1_dropShadow_333_2" result="shape"/>
</filter>
</defs>
</svg>
