<svg width="298" height="68" viewBox="0 0 298 68" fill="none" xmlns="http://www.w3.org/2000/svg">
<g filter="url(#filter0_d_338_2)">
<rect x="4" y="4" width="290" height="60" rx="5" fill="white" fill-opacity="0.15" shape-rendering="crispEdges"/>
</g>
<path d="M108.761 41V26.4545H110.523V39.4375H117.284V41H108.761ZM124.358 41.2273C123.307 41.2273 122.4 40.9953 121.638 40.5312C120.88 40.0625 120.295 39.4091 119.884 38.571C119.476 37.7282 119.273 36.7481 119.273 35.6307C119.273 34.5133 119.476 33.5284 119.884 32.6761C120.295 31.8191 120.868 31.1515 121.602 30.6733C122.341 30.1903 123.203 29.9489 124.188 29.9489C124.756 29.9489 125.317 30.0436 125.871 30.233C126.425 30.4223 126.929 30.7301 127.384 31.1562C127.838 31.5777 128.2 32.1364 128.47 32.8324C128.74 33.5284 128.875 34.3854 128.875 35.4034V36.1136H120.466V34.6648H127.17C127.17 34.0492 127.047 33.5 126.801 33.017C126.56 32.5341 126.214 32.1529 125.764 31.8736C125.319 31.5942 124.794 31.4545 124.188 31.4545C123.52 31.4545 122.942 31.6203 122.455 31.9517C121.972 32.2784 121.6 32.7045 121.339 33.2301C121.079 33.7557 120.949 34.3191 120.949 34.9205V35.8864C120.949 36.7102 121.091 37.4086 121.375 37.9815C121.664 38.5497 122.064 38.983 122.575 39.2812C123.087 39.5748 123.681 39.7216 124.358 39.7216C124.798 39.7216 125.196 39.66 125.551 39.5369C125.911 39.4091 126.221 39.2197 126.482 38.9688C126.742 38.7131 126.943 38.3958 127.085 38.017L128.705 38.4716C128.534 39.0208 128.248 39.5038 127.845 39.9205C127.443 40.3324 126.946 40.6544 126.354 40.8864C125.762 41.1136 125.097 41.2273 124.358 41.2273ZM140.013 30.0909L135.979 41H134.275L130.24 30.0909H132.059L135.07 38.7841H135.184L138.195 30.0909H140.013ZM145.104 41.2557C144.412 41.2557 143.785 41.1255 143.222 40.8651C142.658 40.5999 142.211 40.2188 141.879 39.7216C141.548 39.2197 141.382 38.6136 141.382 37.9034C141.382 37.2784 141.505 36.7718 141.751 36.3835C141.998 35.9905 142.327 35.6828 142.739 35.4602C143.151 35.2377 143.605 35.072 144.102 34.9631C144.604 34.8494 145.108 34.7595 145.615 34.6932C146.278 34.608 146.815 34.544 147.227 34.5014C147.644 34.4541 147.947 34.3759 148.136 34.267C148.33 34.1581 148.428 33.9687 148.428 33.6989V33.642C148.428 32.9413 148.236 32.3968 147.852 32.0085C147.473 31.6203 146.898 31.4261 146.126 31.4261C145.326 31.4261 144.699 31.6013 144.244 31.9517C143.79 32.3021 143.47 32.6761 143.286 33.0739L141.695 32.5057C141.979 31.8428 142.357 31.3267 142.831 30.9574C143.309 30.5833 143.83 30.3229 144.393 30.1761C144.962 30.0246 145.52 29.9489 146.07 29.9489C146.42 29.9489 146.822 29.9915 147.277 30.0767C147.736 30.1572 148.179 30.3253 148.605 30.581C149.036 30.8366 149.393 31.2225 149.678 31.7386C149.962 32.2547 150.104 32.946 150.104 33.8125V41H148.428V39.5227H148.342C148.229 39.7595 148.039 40.0128 147.774 40.2827C147.509 40.5526 147.156 40.7822 146.716 40.9716C146.276 41.161 145.738 41.2557 145.104 41.2557ZM145.359 39.75C146.022 39.75 146.581 39.6198 147.036 39.3594C147.495 39.099 147.84 38.7628 148.072 38.3509C148.309 37.9389 148.428 37.5057 148.428 37.0511V35.517C148.357 35.6023 148.2 35.6804 147.959 35.7514C147.722 35.8177 147.447 35.8769 147.135 35.929C146.827 35.9763 146.527 36.0189 146.233 36.0568C145.944 36.09 145.71 36.1184 145.53 36.142C145.094 36.1989 144.687 36.2912 144.308 36.419C143.934 36.5421 143.631 36.7292 143.399 36.9801C143.172 37.2263 143.058 37.5625 143.058 37.9886C143.058 38.571 143.274 39.0114 143.705 39.3097C144.14 39.6032 144.692 39.75 145.359 39.75ZM154.839 34.4375V41H153.163V30.0909H154.782V31.7955H154.924C155.18 31.2415 155.568 30.7964 156.089 30.4602C156.61 30.1193 157.282 29.9489 158.106 29.9489C158.845 29.9489 159.491 30.1004 160.045 30.4034C160.599 30.7017 161.03 31.1562 161.338 31.767C161.645 32.3731 161.799 33.1402 161.799 34.0682V41H160.123V34.1818C160.123 33.3248 159.901 32.6572 159.456 32.179C159.011 31.696 158.4 31.4545 157.623 31.4545C157.088 31.4545 156.61 31.5705 156.189 31.8026C155.772 32.0346 155.443 32.3731 155.201 32.8182C154.96 33.2633 154.839 33.803 154.839 34.4375ZM169.607 30.0909V31.5114H163.953V30.0909H169.607ZM165.601 27.4773H167.277V37.875C167.277 38.3485 167.346 38.7036 167.483 38.9403C167.625 39.1723 167.805 39.3286 168.023 39.4091C168.245 39.4848 168.48 39.5227 168.726 39.5227C168.911 39.5227 169.062 39.5133 169.18 39.4943C169.299 39.4706 169.393 39.4517 169.464 39.4375L169.805 40.9432C169.692 40.9858 169.533 41.0284 169.33 41.071C169.126 41.1184 168.868 41.142 168.555 41.142C168.082 41.142 167.618 41.0402 167.163 40.8366C166.714 40.633 166.339 40.3229 166.041 39.9062C165.748 39.4896 165.601 38.964 165.601 38.3295V27.4773ZM175.338 41.2557C174.647 41.2557 174.019 41.1255 173.456 40.8651C172.893 40.5999 172.445 40.2188 172.114 39.7216C171.782 39.2197 171.616 38.6136 171.616 37.9034C171.616 37.2784 171.74 36.7718 171.986 36.3835C172.232 35.9905 172.561 35.6828 172.973 35.4602C173.385 35.2377 173.839 35.072 174.337 34.9631C174.839 34.8494 175.343 34.7595 175.849 34.6932C176.512 34.608 177.05 34.544 177.462 34.5014C177.878 34.4541 178.181 34.3759 178.371 34.267C178.565 34.1581 178.662 33.9687 178.662 33.6989V33.642C178.662 32.9413 178.47 32.3968 178.087 32.0085C177.708 31.6203 177.133 31.4261 176.361 31.4261C175.561 31.4261 174.933 31.6013 174.479 31.9517C174.024 32.3021 173.705 32.6761 173.52 33.0739L171.929 32.5057C172.213 31.8428 172.592 31.3267 173.065 30.9574C173.544 30.5833 174.064 30.3229 174.628 30.1761C175.196 30.0246 175.755 29.9489 176.304 29.9489C176.654 29.9489 177.057 29.9915 177.511 30.0767C177.971 30.1572 178.413 30.3253 178.839 30.581C179.27 30.8366 179.628 31.2225 179.912 31.7386C180.196 32.2547 180.338 32.946 180.338 33.8125V41H178.662V39.5227H178.577C178.463 39.7595 178.274 40.0128 178.009 40.2827C177.743 40.5526 177.391 40.7822 176.95 40.9716C176.51 41.161 175.973 41.2557 175.338 41.2557ZM175.594 39.75C176.257 39.75 176.815 39.6198 177.27 39.3594C177.729 39.099 178.075 38.7628 178.307 38.3509C178.544 37.9389 178.662 37.5057 178.662 37.0511V35.517C178.591 35.6023 178.435 35.6804 178.193 35.7514C177.956 35.8177 177.682 35.8769 177.369 35.929C177.062 35.9763 176.761 36.0189 176.467 36.0568C176.179 36.09 175.944 36.1184 175.764 36.142C175.329 36.1989 174.921 36.2912 174.543 36.419C174.169 36.5421 173.866 36.7292 173.634 36.9801C173.406 37.2263 173.293 37.5625 173.293 37.9886C173.293 38.571 173.508 39.0114 173.939 39.3097C174.375 39.6032 174.926 39.75 175.594 39.75ZM183.397 41V30.0909H185.017V31.7386H185.13C185.329 31.1989 185.689 30.7609 186.21 30.4247C186.731 30.0885 187.318 29.9205 187.971 29.9205C188.094 29.9205 188.248 29.9228 188.433 29.9276C188.618 29.9323 188.757 29.9394 188.852 29.9489V31.6534C188.795 31.6392 188.665 31.6179 188.461 31.5895C188.262 31.5563 188.052 31.5398 187.829 31.5398C187.299 31.5398 186.825 31.651 186.409 31.8736C185.997 32.0914 185.67 32.3944 185.429 32.7827C185.192 33.1662 185.074 33.6042 185.074 34.0966V41H183.397Z" fill="black"/>
<path d="M263.513 48.0327C264.336 48.8496 265.671 48.8496 266.493 48.0327L277.017 37.5762C277.839 36.7594 277.839 35.4327 277.017 34.6158C276.195 33.7989 274.86 33.7989 274.037 34.6158L267.105 41.5105V21.4604C267.105 20.3037 266.164 19.3692 265 19.3692C263.836 19.3692 262.895 20.3037 262.895 21.4604V41.5039L255.963 34.6224C255.14 33.8055 253.805 33.8055 252.983 34.6224C252.161 35.4393 252.161 36.7659 252.983 37.5828L263.507 48.0393L263.513 48.0327Z" fill="#FF0509"/>
<defs>
<filter id="filter0_d_338_2" x="0" y="0" width="298" height="68" filterUnits="userSpaceOnUse" color-interpolation-filters="sRGB">
<feFlood flood-opacity="0" result="BackgroundImageFix"/>
<feColorMatrix in="SourceAlpha" type="matrix" values="0 0 0 0 0 0 0 0 0 0 0 0 0 0 0 0 0 0 127 0" result="hardAlpha"/>
<feOffset/>
<feGaussianBlur stdDeviation="2"/>
<feComposite in2="hardAlpha" operator="out"/>
<feColorMatrix type="matrix" values="0 0 0 0 1 0 0 0 0 0.0208333 0 0 0 0 0.0371528 0 0 0 0.25 0"/>
<feBlend mode="normal" in2="BackgroundImageFix" result="effect1_dropShadow_338_2"/>
<feBlend mode="normal" in="SourceGraphic" in2="effect1_dropShadow_338_2" result="shape"/>
</filter>
</defs>
</svg>
