<svg width="298" height="68" viewBox="0 0 298 68" fill="none" xmlns="http://www.w3.org/2000/svg">
<g filter="url(#filter0_d_23_381)">
<rect x="4" y="3" width="290" height="60" rx="5" fill="#EB9900" fill-opacity="0.15" shape-rendering="crispEdges"/>
</g>
<path d="M105.761 40V25.4545H110.676C111.813 25.4545 112.745 25.6487 113.474 26.0369C114.204 26.4205 114.743 26.9484 115.094 27.6207C115.444 28.2931 115.619 29.0578 115.619 29.9148C115.619 30.7718 115.444 31.5317 115.094 32.1946C114.743 32.8575 114.206 33.3783 113.482 33.7571C112.757 34.1312 111.831 34.3182 110.705 34.3182H106.727V32.7273H110.648C111.424 32.7273 112.049 32.6136 112.523 32.3864C113.001 32.1591 113.347 31.8371 113.56 31.4205C113.777 30.9991 113.886 30.4972 113.886 29.9148C113.886 29.3324 113.777 28.8234 113.56 28.3878C113.342 27.9522 112.994 27.616 112.516 27.3793C112.037 27.1378 111.405 27.017 110.619 27.017H107.523V40H105.761ZM112.608 33.4659L116.188 40H114.142L110.619 33.4659H112.608ZM122.784 40.2273C121.733 40.2273 120.826 39.9953 120.064 39.5312C119.306 39.0625 118.721 38.4091 118.309 37.571C117.902 36.7282 117.699 35.7481 117.699 34.6307C117.699 33.5133 117.902 32.5284 118.309 31.6761C118.721 30.8191 119.294 30.1515 120.028 29.6733C120.767 29.1903 121.628 28.9489 122.613 28.9489C123.181 28.9489 123.743 29.0436 124.297 29.233C124.85 29.4223 125.355 29.7301 125.809 30.1562C126.264 30.5777 126.626 31.1364 126.896 31.8324C127.166 32.5284 127.301 33.3854 127.301 34.4034V35.1136H118.892V33.6648H125.596C125.596 33.0492 125.473 32.5 125.227 32.017C124.985 31.5341 124.64 31.1529 124.19 30.8736C123.745 30.5942 123.219 30.4545 122.613 30.4545C121.946 30.4545 121.368 30.6203 120.88 30.9517C120.397 31.2784 120.026 31.7045 119.765 32.2301C119.505 32.7557 119.375 33.3191 119.375 33.9205V34.8864C119.375 35.7102 119.517 36.4086 119.801 36.9815C120.09 37.5497 120.49 37.983 121.001 38.2812C121.512 38.5748 122.107 38.7216 122.784 38.7216C123.224 38.7216 123.622 38.66 123.977 38.5369C124.337 38.4091 124.647 38.2197 124.907 37.9688C125.168 37.7131 125.369 37.3958 125.511 37.017L127.13 37.4716C126.96 38.0208 126.673 38.5038 126.271 38.9205C125.868 39.3324 125.371 39.6544 124.779 39.8864C124.188 40.1136 123.522 40.2273 122.784 40.2273ZM134.282 40.2273C133.26 40.2273 132.379 39.9858 131.64 39.5028C130.902 39.0199 130.333 38.3546 129.936 37.5071C129.538 36.6596 129.339 35.6913 129.339 34.6023C129.339 33.4943 129.543 32.5166 129.95 31.669C130.362 30.8168 130.935 30.1515 131.669 29.6733C132.407 29.1903 133.269 28.9489 134.254 28.9489C135.021 28.9489 135.712 29.0909 136.328 29.375C136.943 29.6591 137.448 30.0568 137.841 30.5682C138.234 31.0795 138.477 31.6761 138.572 32.358H136.896C136.768 31.8608 136.484 31.4205 136.044 31.0369C135.608 30.6487 135.021 30.4545 134.282 30.4545C133.629 30.4545 133.056 30.625 132.564 30.9659C132.076 31.3021 131.695 31.7779 131.42 32.3935C131.15 33.0043 131.015 33.7216 131.015 34.5455C131.015 35.3883 131.148 36.1222 131.413 36.7472C131.683 37.3722 132.062 37.8575 132.549 38.2031C133.042 38.5488 133.619 38.7216 134.282 38.7216C134.718 38.7216 135.113 38.6458 135.468 38.4943C135.824 38.3428 136.124 38.125 136.37 37.8409C136.617 37.5568 136.792 37.2159 136.896 36.8182H138.572C138.477 37.4621 138.243 38.0421 137.869 38.5582C137.5 39.0696 137.01 39.4768 136.399 39.7798C135.793 40.0781 135.087 40.2273 134.282 40.2273ZM145.596 40.2273C144.545 40.2273 143.638 39.9953 142.876 39.5312C142.118 39.0625 141.534 38.4091 141.122 37.571C140.715 36.7282 140.511 35.7481 140.511 34.6307C140.511 33.5133 140.715 32.5284 141.122 31.6761C141.534 30.8191 142.107 30.1515 142.841 29.6733C143.579 29.1903 144.441 28.9489 145.426 28.9489C145.994 28.9489 146.555 29.0436 147.109 29.233C147.663 29.4223 148.167 29.7301 148.622 30.1562C149.076 30.5777 149.439 31.1364 149.708 31.8324C149.978 32.5284 150.113 33.3854 150.113 34.4034V35.1136H141.704V33.6648H148.409C148.409 33.0492 148.286 32.5 148.039 32.017C147.798 31.5341 147.452 31.1529 147.002 30.8736C146.557 30.5942 146.032 30.4545 145.426 30.4545C144.758 30.4545 144.181 30.6203 143.693 30.9517C143.21 31.2784 142.838 31.7045 142.578 32.2301C142.317 32.7557 142.187 33.3191 142.187 33.9205V34.8864C142.187 35.7102 142.329 36.4086 142.613 36.9815C142.902 37.5497 143.302 37.983 143.814 38.2812C144.325 38.5748 144.919 38.7216 145.596 38.7216C146.037 38.7216 146.434 38.66 146.789 38.5369C147.149 38.4091 147.459 38.2197 147.72 37.9688C147.98 37.7131 148.181 37.3958 148.324 37.017L149.943 37.4716C149.772 38.0208 149.486 38.5038 149.083 38.9205C148.681 39.3324 148.184 39.6544 147.592 39.8864C147 40.1136 146.335 40.2273 145.596 40.2273ZM152.89 40V25.4545H154.566V30.8239H154.708C154.832 30.6345 155.002 30.393 155.22 30.0994C155.442 29.8011 155.76 29.536 156.172 29.304C156.588 29.0672 157.152 28.9489 157.862 28.9489C158.78 28.9489 159.59 29.1785 160.291 29.6378C160.992 30.0971 161.538 30.7481 161.931 31.5909C162.324 32.4337 162.521 33.428 162.521 34.5739C162.521 35.7292 162.324 36.7306 161.931 37.5781C161.538 38.4209 160.994 39.0743 160.298 39.5384C159.602 39.9976 158.799 40.2273 157.89 40.2273C157.19 40.2273 156.628 40.1113 156.207 39.8793C155.786 39.6425 155.461 39.375 155.234 39.0767C155.007 38.7737 154.832 38.5227 154.708 38.3239H154.51V40H152.89ZM154.538 34.5455C154.538 35.3693 154.659 36.0961 154.9 36.7259C155.142 37.3509 155.494 37.8409 155.958 38.196C156.422 38.5464 156.991 38.7216 157.663 38.7216C158.364 38.7216 158.949 38.5369 159.417 38.1676C159.891 37.7936 160.246 37.2917 160.483 36.6619C160.724 36.0275 160.845 35.322 160.845 34.5455C160.845 33.7784 160.726 33.0871 160.49 32.4716C160.258 31.8513 159.905 31.3613 159.431 31.0014C158.963 30.6368 158.373 30.4545 157.663 30.4545C156.981 30.4545 156.408 30.6274 155.944 30.973C155.48 31.3139 155.13 31.7921 154.893 32.4077C154.656 33.0185 154.538 33.7311 154.538 34.5455ZM169.659 40.2273C168.608 40.2273 167.701 39.9953 166.939 39.5312C166.181 39.0625 165.596 38.4091 165.184 37.571C164.777 36.7282 164.574 35.7481 164.574 34.6307C164.574 33.5133 164.777 32.5284 165.184 31.6761C165.596 30.8191 166.169 30.1515 166.903 29.6733C167.642 29.1903 168.503 28.9489 169.488 28.9489C170.056 28.9489 170.618 29.0436 171.172 29.233C171.725 29.4223 172.23 29.7301 172.684 30.1562C173.139 30.5777 173.501 31.1364 173.771 31.8324C174.041 32.5284 174.176 33.3854 174.176 34.4034V35.1136H165.767V33.6648H172.471C172.471 33.0492 172.348 32.5 172.102 32.017C171.86 31.5341 171.515 31.1529 171.065 30.8736C170.62 30.5942 170.094 30.4545 169.488 30.4545C168.821 30.4545 168.243 30.6203 167.755 30.9517C167.272 31.2784 166.901 31.7045 166.64 32.2301C166.38 32.7557 166.25 33.3191 166.25 33.9205V34.8864C166.25 35.7102 166.392 36.4086 166.676 36.9815C166.965 37.5497 167.365 37.983 167.876 38.2812C168.387 38.5748 168.982 38.7216 169.659 38.7216C170.099 38.7216 170.497 38.66 170.852 38.5369C171.212 38.4091 171.522 38.2197 171.782 37.9688C172.043 37.7131 172.244 37.3958 172.386 37.017L174.005 37.4716C173.835 38.0208 173.548 38.5038 173.146 38.9205C172.743 39.3324 172.246 39.6544 171.654 39.8864C171.063 40.1136 170.397 40.2273 169.659 40.2273ZM176.725 40V29.0909H178.345V30.7386H178.458C178.657 30.1989 179.017 29.7609 179.538 29.4247C180.059 29.0885 180.646 28.9205 181.299 28.9205C181.422 28.9205 181.576 28.9228 181.761 28.9276C181.946 28.9323 182.085 28.9394 182.18 28.9489V30.6534C182.123 30.6392 181.993 30.6179 181.789 30.5895C181.591 30.5563 181.38 30.5398 181.157 30.5398C180.627 30.5398 180.154 30.651 179.737 30.8736C179.325 31.0914 178.998 31.3944 178.757 31.7827C178.52 32.1662 178.402 32.6042 178.402 33.0966V40H176.725Z" fill="black"/>
<defs>
<filter id="filter0_d_23_381" x="0" y="0" width="298" height="68" filterUnits="userSpaceOnUse" color-interpolation-filters="sRGB">
<feFlood flood-opacity="0" result="BackgroundImageFix"/>
<feColorMatrix in="SourceAlpha" type="matrix" values="0 0 0 0 0 0 0 0 0 0 0 0 0 0 0 0 0 0 127 0" result="hardAlpha"/>
<feOffset dy="1"/>
<feGaussianBlur stdDeviation="2"/>
<feComposite in2="hardAlpha" operator="out"/>
<feColorMatrix type="matrix" values="0 0 0 0 0 0 0 0 0 0 0 0 0 0 0 0 0 0 0.25 0"/>
<feBlend mode="normal" in2="BackgroundImageFix" result="effect1_dropShadow_23_381"/>
<feBlend mode="normal" in="SourceGraphic" in2="effect1_dropShadow_23_381" result="shape"/>
</filter>
</defs>
</svg>
