<svg width="298" height="68" viewBox="0 0 298 68" fill="none" xmlns="http://www.w3.org/2000/svg">
<g filter="url(#filter0_d_37_190)">
<rect x="4" y="3" width="290" height="60" rx="5" fill="#FF0509"/>
</g>
<path d="M121.098 31.5469H117.987C117.93 31.1444 117.814 30.7869 117.639 30.4744C117.464 30.1572 117.239 29.8873 116.964 29.6648C116.69 29.4422 116.373 29.2718 116.013 29.1534C115.658 29.035 115.272 28.9759 114.855 28.9759C114.102 28.9759 113.446 29.1629 112.888 29.5369C112.329 29.9062 111.896 30.446 111.588 31.1562C111.28 31.8617 111.126 32.7187 111.126 33.7273C111.126 34.7642 111.28 35.6354 111.588 36.3409C111.901 37.0464 112.336 37.5791 112.895 37.9389C113.454 38.2988 114.1 38.4787 114.834 38.4787C115.246 38.4787 115.627 38.4242 115.977 38.3153C116.332 38.2064 116.647 38.0478 116.922 37.8395C117.196 37.6264 117.424 37.3684 117.604 37.0653C117.788 36.7623 117.916 36.4167 117.987 36.0284L121.098 36.0426C121.018 36.7102 120.816 37.3542 120.494 37.9744C120.177 38.59 119.749 39.1416 119.209 39.6293C118.674 40.1122 118.035 40.4957 117.291 40.7798C116.553 41.0592 115.717 41.1989 114.784 41.1989C113.487 41.1989 112.327 40.9053 111.304 40.3182C110.286 39.7311 109.481 38.8812 108.889 37.7685C108.302 36.6558 108.009 35.3087 108.009 33.7273C108.009 32.1411 108.307 30.7917 108.903 29.679C109.5 28.5663 110.31 27.7187 111.332 27.1364C112.355 26.5492 113.506 26.2557 114.784 26.2557C115.627 26.2557 116.408 26.3741 117.128 26.6108C117.852 26.8475 118.494 27.1932 119.053 27.6477C119.611 28.0975 120.066 28.6491 120.416 29.3026C120.771 29.956 120.999 30.7041 121.098 31.5469ZM126.357 41.206C125.661 41.206 125.041 41.0852 124.496 40.8438C123.952 40.5975 123.521 40.2353 123.204 39.7571C122.891 39.2741 122.735 38.6728 122.735 37.9531C122.735 37.3471 122.846 36.8381 123.069 36.4261C123.291 36.0142 123.594 35.6828 123.978 35.4318C124.362 35.1809 124.797 34.9915 125.285 34.8636C125.777 34.7358 126.293 34.6458 126.833 34.5938C127.468 34.5275 127.979 34.4659 128.367 34.4091C128.755 34.3475 129.037 34.2576 129.212 34.1392C129.388 34.0208 129.475 33.8456 129.475 33.6136V33.571C129.475 33.1212 129.333 32.7732 129.049 32.527C128.77 32.2808 128.372 32.1577 127.856 32.1577C127.311 32.1577 126.878 32.2784 126.556 32.5199C126.234 32.7566 126.021 33.0549 125.917 33.4148L123.119 33.1875C123.261 32.5246 123.54 31.9517 123.957 31.4688C124.373 30.9811 124.911 30.607 125.569 30.3466C126.232 30.0814 126.999 29.9489 127.87 29.9489C128.476 29.9489 129.056 30.0199 129.61 30.1619C130.169 30.304 130.664 30.5241 131.094 30.8224C131.53 31.1207 131.873 31.5043 132.124 31.973C132.375 32.437 132.501 32.9934 132.501 33.642V41H129.631V39.4872H129.546C129.371 39.8281 129.137 40.1288 128.843 40.3892C128.549 40.6449 128.197 40.8461 127.785 40.9929C127.373 41.1349 126.897 41.206 126.357 41.206ZM127.224 39.1179C127.669 39.1179 128.062 39.0303 128.403 38.8551C128.744 38.6752 129.011 38.4337 129.205 38.1307C129.399 37.8277 129.496 37.4844 129.496 37.1009V35.9432C129.402 36.0047 129.272 36.0616 129.106 36.1136C128.945 36.161 128.763 36.206 128.559 36.2486C128.355 36.2865 128.152 36.322 127.948 36.3551C127.745 36.3835 127.56 36.4096 127.394 36.4332C127.039 36.4853 126.729 36.5682 126.464 36.6818C126.199 36.7955 125.993 36.9493 125.846 37.1435C125.699 37.3329 125.626 37.5696 125.626 37.8537C125.626 38.2656 125.775 38.5805 126.073 38.7983C126.376 39.0114 126.76 39.1179 127.224 39.1179ZM137.874 34.6932V41H134.848V30.0909H137.732V32.0156H137.859C138.101 31.3812 138.506 30.8793 139.074 30.5099C139.642 30.1359 140.331 29.9489 141.141 29.9489C141.898 29.9489 142.559 30.1146 143.122 30.446C143.686 30.7775 144.124 31.2509 144.436 31.8665C144.749 32.4773 144.905 33.2064 144.905 34.054V41H141.879V34.5938C141.884 33.9261 141.714 33.4053 141.368 33.0312C141.022 32.6525 140.546 32.4631 139.94 32.4631C139.533 32.4631 139.173 32.5507 138.861 32.7259C138.553 32.901 138.312 33.1567 138.136 33.4929C137.966 33.8243 137.878 34.2244 137.874 34.6932ZM152.218 41.2131C151.101 41.2131 150.14 40.9763 149.335 40.5028C148.535 40.0246 147.919 39.3617 147.488 38.5142C147.062 37.6667 146.849 36.6913 146.849 35.5881C146.849 34.4706 147.065 33.4905 147.495 32.6477C147.931 31.8002 148.549 31.1397 149.349 30.6662C150.149 30.188 151.101 29.9489 152.204 29.9489C153.156 29.9489 153.989 30.1217 154.704 30.4673C155.419 30.813 155.985 31.2983 156.402 31.9233C156.818 32.5483 157.048 33.2822 157.091 34.125H154.235C154.155 33.5805 153.942 33.1425 153.596 32.8111C153.255 32.4749 152.808 32.3068 152.254 32.3068C151.785 32.3068 151.376 32.4347 151.025 32.6903C150.68 32.9413 150.41 33.3082 150.216 33.7912C150.021 34.2741 149.924 34.8589 149.924 35.5455C149.924 36.2415 150.019 36.8333 150.208 37.321C150.403 37.8087 150.675 38.1804 151.025 38.4361C151.376 38.6918 151.785 38.8196 152.254 38.8196C152.6 38.8196 152.91 38.7486 153.184 38.6065C153.464 38.4645 153.693 38.2585 153.873 37.9886C154.058 37.714 154.179 37.3849 154.235 37.0014H157.091C157.043 37.8348 156.816 38.5687 156.409 39.2031C156.006 39.8329 155.45 40.3253 154.74 40.6804C154.029 41.0355 153.189 41.2131 152.218 41.2131ZM163.999 41.2131C162.877 41.2131 161.911 40.9858 161.102 40.5312C160.297 40.072 159.676 39.4233 159.241 38.5852C158.805 37.7424 158.587 36.7457 158.587 35.5952C158.587 34.473 158.805 33.4882 159.241 32.6406C159.676 31.7931 160.29 31.1326 161.08 30.6591C161.876 30.1856 162.808 29.9489 163.879 29.9489C164.598 29.9489 165.268 30.0649 165.888 30.2969C166.513 30.5241 167.058 30.8674 167.522 31.3267C167.991 31.786 168.355 32.3636 168.616 33.0597C168.876 33.7509 169.006 34.5606 169.006 35.4886V36.3196H159.795V34.4446H166.158C166.158 34.009 166.064 33.6231 165.874 33.2869C165.685 32.9508 165.422 32.688 165.086 32.4986C164.754 32.3045 164.369 32.2074 163.928 32.2074C163.469 32.2074 163.062 32.3139 162.707 32.527C162.356 32.7353 162.082 33.017 161.883 33.3722C161.684 33.7225 161.582 34.1132 161.577 34.544V36.3267C161.577 36.8665 161.677 37.3329 161.876 37.7259C162.079 38.1188 162.366 38.4219 162.735 38.6349C163.104 38.848 163.542 38.9545 164.049 38.9545C164.385 38.9545 164.693 38.9072 164.972 38.8125C165.252 38.7178 165.491 38.5758 165.69 38.3864C165.888 38.197 166.04 37.965 166.144 37.6903L168.942 37.875C168.8 38.5473 168.509 39.1345 168.069 39.6364C167.633 40.1335 167.07 40.5218 166.379 40.8011C165.692 41.0758 164.899 41.2131 163.999 41.2131ZM174.006 26.4545V41H170.981V26.4545H174.006ZM179.541 41.206C178.845 41.206 178.225 41.0852 177.68 40.8438C177.136 40.5975 176.705 40.2353 176.387 39.7571C176.075 39.2741 175.919 38.6728 175.919 37.9531C175.919 37.3471 176.03 36.8381 176.252 36.4261C176.475 36.0142 176.778 35.6828 177.162 35.4318C177.545 35.1809 177.981 34.9915 178.468 34.8636C178.961 34.7358 179.477 34.6458 180.017 34.5938C180.651 34.5275 181.163 34.4659 181.551 34.4091C181.939 34.3475 182.221 34.2576 182.396 34.1392C182.571 34.0208 182.659 33.8456 182.659 33.6136V33.571C182.659 33.1212 182.517 32.7732 182.233 32.527C181.953 32.2808 181.556 32.1577 181.039 32.1577C180.495 32.1577 180.062 32.2784 179.74 32.5199C179.418 32.7566 179.205 33.0549 179.1 33.4148L176.302 33.1875C176.444 32.5246 176.724 31.9517 177.14 31.4688C177.557 30.9811 178.094 30.607 178.752 30.3466C179.415 30.0814 180.182 29.9489 181.054 29.9489C181.66 29.9489 182.24 30.0199 182.794 30.1619C183.352 30.304 183.847 30.5241 184.278 30.8224C184.714 31.1207 185.057 31.5043 185.308 31.973C185.559 32.437 185.684 32.9934 185.684 33.642V41H182.815V39.4872H182.73C182.555 39.8281 182.32 40.1288 182.027 40.3892C181.733 40.6449 181.38 40.8461 180.968 40.9929C180.556 41.1349 180.081 41.206 179.541 41.206ZM180.407 39.1179C180.852 39.1179 181.245 39.0303 181.586 38.8551C181.927 38.6752 182.195 38.4337 182.389 38.1307C182.583 37.8277 182.68 37.4844 182.68 37.1009V35.9432C182.585 36.0047 182.455 36.0616 182.289 36.1136C182.128 36.161 181.946 36.206 181.743 36.2486C181.539 36.2865 181.335 36.322 181.132 36.3551C180.928 36.3835 180.743 36.4096 180.578 36.4332C180.223 36.4853 179.913 36.5682 179.647 36.6818C179.382 36.7955 179.176 36.9493 179.029 37.1435C178.883 37.3329 178.809 37.5696 178.809 37.8537C178.809 38.2656 178.958 38.5805 179.257 38.7983C179.56 39.0114 179.943 39.1179 180.407 39.1179ZM188.032 41V30.0909H190.965V31.9943H191.078C191.277 31.3172 191.611 30.8059 192.08 30.4602C192.549 30.1098 193.088 29.9347 193.699 29.9347C193.851 29.9347 194.014 29.9441 194.189 29.9631C194.364 29.982 194.518 30.008 194.651 30.0412V32.7259C194.509 32.6832 194.312 32.6454 194.061 32.6122C193.81 32.5791 193.581 32.5625 193.373 32.5625C192.927 32.5625 192.53 32.6596 192.179 32.8537C191.834 33.0431 191.559 33.3082 191.355 33.6491C191.157 33.9901 191.057 34.383 191.057 34.8281V41H188.032Z" fill="white"/>
<defs>
<filter id="filter0_d_37_190" x="0" y="0" width="298" height="68" filterUnits="userSpaceOnUse" color-interpolation-filters="sRGB">
<feFlood flood-opacity="0" result="BackgroundImageFix"/>
<feColorMatrix in="SourceAlpha" type="matrix" values="0 0 0 0 0 0 0 0 0 0 0 0 0 0 0 0 0 0 127 0" result="hardAlpha"/>
<feOffset dy="1"/>
<feGaussianBlur stdDeviation="2"/>
<feComposite in2="hardAlpha" operator="out"/>
<feColorMatrix type="matrix" values="0 0 0 0 0 0 0 0 0 0 0 0 0 0 0 0 0 0 0.25 0"/>
<feBlend mode="normal" in2="BackgroundImageFix" result="effect1_dropShadow_37_190"/>
<feBlend mode="normal" in="SourceGraphic" in2="effect1_dropShadow_37_190" result="shape"/>
</filter>
</defs>
</svg>
