<svg width="298" height="68" viewBox="0 0 298 68" fill="none" xmlns="http://www.w3.org/2000/svg">
<g filter="url(#filter0_d_44_264)">
<rect x="4" y="3" width="290" height="60" rx="5" fill="#FF0509"/>
</g>
<path d="M73.098 30.5469H69.9872C69.9304 30.1444 69.8144 29.7869 69.6392 29.4744C69.464 29.1572 69.2391 28.8873 68.9645 28.6648C68.6899 28.4422 68.3726 28.2718 68.0128 28.1534C67.6577 28.035 67.2718 27.9759 66.8551 27.9759C66.1023 27.9759 65.4465 28.1629 64.8878 28.5369C64.3291 28.9062 63.8958 29.446 63.5881 30.1562C63.2803 30.8617 63.1264 31.7187 63.1264 32.7273C63.1264 33.7642 63.2803 34.6354 63.5881 35.3409C63.9006 36.0464 64.3362 36.5791 64.8949 36.9389C65.4536 37.2988 66.0999 37.4787 66.8338 37.4787C67.2457 37.4787 67.6269 37.4242 67.9773 37.3153C68.3324 37.2064 68.6473 37.0478 68.9219 36.8395C69.1965 36.6264 69.4238 36.3684 69.6037 36.0653C69.7884 35.7623 69.9162 35.4167 69.9872 35.0284L73.098 35.0426C73.0175 35.7102 72.8163 36.3542 72.4943 36.9744C72.1771 37.59 71.7486 38.1416 71.2088 38.6293C70.6738 39.1122 70.0346 39.4957 69.2912 39.7798C68.5526 40.0592 67.7169 40.1989 66.7841 40.1989C65.4867 40.1989 64.3267 39.9053 63.304 39.3182C62.286 38.7311 61.4811 37.8812 60.8892 36.7685C60.3021 35.6558 60.0085 34.3087 60.0085 32.7273C60.0085 31.1411 60.3068 29.7917 60.9034 28.679C61.5 27.5663 62.3097 26.7187 63.3324 26.1364C64.3551 25.5492 65.5057 25.2557 66.7841 25.2557C67.6269 25.2557 68.4081 25.3741 69.1278 25.6108C69.8523 25.8475 70.4938 26.1932 71.0526 26.6477C71.6113 27.0975 72.0658 27.6491 72.4162 28.3026C72.7713 28.956 72.9986 29.7041 73.098 30.5469ZM78.3572 40.206C77.6612 40.206 77.041 40.0852 76.4964 39.8438C75.9519 39.5975 75.5211 39.2353 75.2038 38.7571C74.8913 38.2741 74.7351 37.6728 74.7351 36.9531C74.7351 36.3471 74.8464 35.8381 75.0689 35.4261C75.2914 35.0142 75.5945 34.6828 75.978 34.4318C76.3615 34.1809 76.7971 33.9915 77.2848 33.8636C77.7772 33.7358 78.2933 33.6458 78.8331 33.5938C79.4676 33.5275 79.9789 33.4659 80.3672 33.4091C80.7554 33.3475 81.0372 33.2576 81.2124 33.1392C81.3875 33.0208 81.4751 32.8456 81.4751 32.6136V32.571C81.4751 32.1212 81.3331 31.7732 81.049 31.527C80.7696 31.2808 80.3719 31.1577 79.8558 31.1577C79.3113 31.1577 78.8781 31.2784 78.5561 31.5199C78.2341 31.7566 78.0211 32.0549 77.9169 32.4148L75.1186 32.1875C75.2607 31.5246 75.54 30.9517 75.9567 30.4688C76.3733 29.9811 76.9107 29.607 77.5689 29.3466C78.2318 29.0814 78.9988 28.9489 79.87 28.9489C80.4761 28.9489 81.0561 29.0199 81.6101 29.1619C82.1688 29.304 82.6636 29.5241 83.0945 29.8224C83.5301 30.1207 83.8733 30.5043 84.1243 30.973C84.3752 31.437 84.5007 31.9934 84.5007 32.642V40H81.6314V38.4872H81.5462C81.371 38.8281 81.1366 39.1288 80.843 39.3892C80.5495 39.6449 80.1967 39.8461 79.7848 39.9929C79.3729 40.1349 78.897 40.206 78.3572 40.206ZM79.2237 38.1179C79.6688 38.1179 80.0618 38.0303 80.4027 37.8551C80.7436 37.6752 81.0111 37.4337 81.2053 37.1307C81.3994 36.8277 81.4964 36.4844 81.4964 36.1009V34.9432C81.4018 35.0047 81.2715 35.0616 81.1058 35.1136C80.9448 35.161 80.7625 35.206 80.5589 35.2486C80.3554 35.2865 80.1518 35.322 79.9482 35.3551C79.7446 35.3835 79.5599 35.4096 79.3942 35.4332C79.0391 35.4853 78.7289 35.5682 78.4638 35.6818C78.1986 35.7955 77.9927 35.9493 77.8459 36.1435C77.6991 36.3329 77.6257 36.5696 77.6257 36.8537C77.6257 37.2656 77.7749 37.5805 78.0732 37.7983C78.3762 38.0114 78.7597 38.1179 79.2237 38.1179ZM89.8736 33.6932V40H86.848V29.0909H89.7315V31.0156H89.8594C90.1009 30.3812 90.5057 29.8793 91.0739 29.5099C91.642 29.1359 92.331 28.9489 93.1406 28.9489C93.8982 28.9489 94.5587 29.1146 95.1222 29.446C95.6856 29.7775 96.1236 30.2509 96.4361 30.8665C96.7486 31.4773 96.9048 32.2064 96.9048 33.054V40H93.8793V33.5938C93.884 32.9261 93.7135 32.4053 93.3679 32.0312C93.0223 31.6525 92.5464 31.4631 91.9403 31.4631C91.5331 31.4631 91.1733 31.5507 90.8608 31.7259C90.553 31.901 90.3116 32.1567 90.1364 32.4929C89.9659 32.8243 89.8783 33.2244 89.8736 33.6932ZM104.218 40.2131C103.101 40.2131 102.14 39.9763 101.335 39.5028C100.535 39.0246 99.9192 38.3617 99.4883 37.5142C99.0621 36.6667 98.8491 35.6913 98.8491 34.5881C98.8491 33.4706 99.0645 32.4905 99.4954 31.6477C99.931 30.8002 100.549 30.1397 101.349 29.6662C102.149 29.188 103.101 28.9489 104.204 28.9489C105.156 28.9489 105.989 29.1217 106.704 29.4673C107.419 29.813 107.985 30.2983 108.402 30.9233C108.818 31.5483 109.048 32.2822 109.091 33.125H106.235C106.155 32.5805 105.942 32.1425 105.596 31.8111C105.255 31.4749 104.808 31.3068 104.254 31.3068C103.785 31.3068 103.376 31.4347 103.025 31.6903C102.68 31.9413 102.41 32.3082 102.216 32.7912C102.021 33.2741 101.924 33.8589 101.924 34.5455C101.924 35.2415 102.019 35.8333 102.208 36.321C102.403 36.8087 102.675 37.1804 103.025 37.4361C103.376 37.6918 103.785 37.8196 104.254 37.8196C104.6 37.8196 104.91 37.7486 105.184 37.6065C105.464 37.4645 105.693 37.2585 105.873 36.9886C106.058 36.714 106.179 36.3849 106.235 36.0014H109.091C109.043 36.8348 108.816 37.5687 108.409 38.2031C108.006 38.8329 107.45 39.3253 106.74 39.6804C106.029 40.0355 105.189 40.2131 104.218 40.2131ZM115.999 40.2131C114.877 40.2131 113.911 39.9858 113.102 39.5312C112.297 39.072 111.676 38.4233 111.241 37.5852C110.805 36.7424 110.587 35.7457 110.587 34.5952C110.587 33.473 110.805 32.4882 111.241 31.6406C111.676 30.7931 112.29 30.1326 113.08 29.6591C113.876 29.1856 114.808 28.9489 115.879 28.9489C116.598 28.9489 117.268 29.0649 117.888 29.2969C118.513 29.5241 119.058 29.8674 119.522 30.3267C119.991 30.786 120.355 31.3636 120.616 32.0597C120.876 32.7509 121.006 33.5606 121.006 34.4886V35.3196H111.795V33.4446H118.158C118.158 33.009 118.064 32.6231 117.874 32.2869C117.685 31.9508 117.422 31.688 117.086 31.4986C116.754 31.3045 116.369 31.2074 115.928 31.2074C115.469 31.2074 115.062 31.3139 114.707 31.527C114.356 31.7353 114.082 32.017 113.883 32.3722C113.684 32.7225 113.582 33.1132 113.577 33.544V35.3267C113.577 35.8665 113.677 36.3329 113.876 36.7259C114.079 37.1188 114.366 37.4219 114.735 37.6349C115.104 37.848 115.542 37.9545 116.049 37.9545C116.385 37.9545 116.693 37.9072 116.972 37.8125C117.252 37.7178 117.491 37.5758 117.69 37.3864C117.888 37.197 118.04 36.965 118.144 36.6903L120.942 36.875C120.8 37.5473 120.509 38.1345 120.069 38.6364C119.633 39.1335 119.07 39.5218 118.379 39.8011C117.692 40.0758 116.899 40.2131 115.999 40.2131ZM126.006 25.4545V40H122.981V25.4545H126.006ZM131.541 40.206C130.845 40.206 130.225 40.0852 129.68 39.8438C129.136 39.5975 128.705 39.2353 128.387 38.7571C128.075 38.2741 127.919 37.6728 127.919 36.9531C127.919 36.3471 128.03 35.8381 128.252 35.4261C128.475 35.0142 128.778 34.6828 129.162 34.4318C129.545 34.1809 129.981 33.9915 130.468 33.8636C130.961 33.7358 131.477 33.6458 132.017 33.5938C132.651 33.5275 133.163 33.4659 133.551 33.4091C133.939 33.3475 134.221 33.2576 134.396 33.1392C134.571 33.0208 134.659 32.8456 134.659 32.6136V32.571C134.659 32.1212 134.517 31.7732 134.233 31.527C133.953 31.2808 133.556 31.1577 133.039 31.1577C132.495 31.1577 132.062 31.2784 131.74 31.5199C131.418 31.7566 131.205 32.0549 131.1 32.4148L128.302 32.1875C128.444 31.5246 128.724 30.9517 129.14 30.4688C129.557 29.9811 130.094 29.607 130.752 29.3466C131.415 29.0814 132.182 28.9489 133.054 28.9489C133.66 28.9489 134.24 29.0199 134.794 29.1619C135.352 29.304 135.847 29.5241 136.278 29.8224C136.714 30.1207 137.057 30.5043 137.308 30.973C137.559 31.437 137.684 31.9934 137.684 32.642V40H134.815V38.4872H134.73C134.555 38.8281 134.32 39.1288 134.027 39.3892C133.733 39.6449 133.38 39.8461 132.968 39.9929C132.556 40.1349 132.081 40.206 131.541 40.206ZM132.407 38.1179C132.852 38.1179 133.245 38.0303 133.586 37.8551C133.927 37.6752 134.195 37.4337 134.389 37.1307C134.583 36.8277 134.68 36.4844 134.68 36.1009V34.9432C134.585 35.0047 134.455 35.0616 134.289 35.1136C134.128 35.161 133.946 35.206 133.743 35.2486C133.539 35.2865 133.335 35.322 133.132 35.3551C132.928 35.3835 132.743 35.4096 132.578 35.4332C132.223 35.4853 131.913 35.5682 131.647 35.6818C131.382 35.7955 131.176 35.9493 131.029 36.1435C130.883 36.3329 130.809 36.5696 130.809 36.8537C130.809 37.2656 130.958 37.5805 131.257 37.7983C131.56 38.0114 131.943 38.1179 132.407 38.1179ZM140.032 40V29.0909H142.965V30.9943H143.078C143.277 30.3172 143.611 29.8059 144.08 29.4602C144.549 29.1098 145.088 28.9347 145.699 28.9347C145.851 28.9347 146.014 28.9441 146.189 28.9631C146.364 28.982 146.518 29.008 146.651 29.0412V31.7259C146.509 31.6832 146.312 31.6454 146.061 31.6122C145.81 31.5791 145.581 31.5625 145.373 31.5625C144.927 31.5625 144.53 31.6596 144.179 31.8537C143.834 32.0431 143.559 32.3082 143.355 32.6491C143.157 32.9901 143.057 33.383 143.057 33.8281V40H140.032ZM157.773 40.2131C156.656 40.2131 155.694 39.9763 154.89 39.5028C154.089 39.0246 153.474 38.3617 153.043 37.5142C152.617 36.6667 152.404 35.6913 152.404 34.5881C152.404 33.4706 152.619 32.4905 153.05 31.6477C153.486 30.8002 154.104 30.1397 154.904 29.6662C155.704 29.188 156.656 28.9489 157.759 28.9489C158.711 28.9489 159.544 29.1217 160.259 29.4673C160.974 29.813 161.54 30.2983 161.956 30.9233C162.373 31.5483 162.603 32.2822 162.645 33.125H159.79C159.71 32.5805 159.497 32.1425 159.151 31.8111C158.81 31.4749 158.363 31.3068 157.809 31.3068C157.34 31.3068 156.93 31.4347 156.58 31.6903C156.234 31.9413 155.964 32.3082 155.77 32.7912C155.576 33.2741 155.479 33.8589 155.479 34.5455C155.479 35.2415 155.574 35.8333 155.763 36.321C155.957 36.8087 156.23 37.1804 156.58 37.4361C156.93 37.6918 157.34 37.8196 157.809 37.8196C158.154 37.8196 158.464 37.7486 158.739 37.6065C159.018 37.4645 159.248 37.2585 159.428 36.9886C159.613 36.714 159.733 36.3849 159.79 36.0014H162.645C162.598 36.8348 162.371 37.5687 161.963 38.2031C161.561 38.8329 161.005 39.3253 160.294 39.6804C159.584 40.0355 158.744 40.2131 157.773 40.2131ZM169.511 40.2131C168.408 40.2131 167.454 39.9787 166.649 39.5099C165.849 39.0365 165.231 38.3783 164.795 37.5355C164.36 36.688 164.142 35.7055 164.142 34.5881C164.142 33.4612 164.36 32.4763 164.795 31.6335C165.231 30.786 165.849 30.1278 166.649 29.6591C167.454 29.1856 168.408 28.9489 169.511 28.9489C170.615 28.9489 171.566 29.1856 172.366 29.6591C173.171 30.1278 173.792 30.786 174.227 31.6335C174.663 32.4763 174.881 33.4612 174.881 34.5881C174.881 35.7055 174.663 36.688 174.227 37.5355C173.792 38.3783 173.171 39.0365 172.366 39.5099C171.566 39.9787 170.615 40.2131 169.511 40.2131ZM169.526 37.8693C170.027 37.8693 170.446 37.7273 170.783 37.4432C171.119 37.1544 171.372 36.7614 171.543 36.2642C171.718 35.767 171.805 35.2012 171.805 34.5668C171.805 33.9323 171.718 33.3665 171.543 32.8693C171.372 32.3722 171.119 31.9792 170.783 31.6903C170.446 31.4015 170.027 31.2571 169.526 31.2571C169.019 31.2571 168.593 31.4015 168.247 31.6903C167.906 31.9792 167.648 32.3722 167.473 32.8693C167.303 33.3665 167.217 33.9323 167.217 34.5668C167.217 35.2012 167.303 35.767 167.473 36.2642C167.648 36.7614 167.906 37.1544 168.247 37.4432C168.593 37.7273 169.019 37.8693 169.526 37.8693ZM176.905 40V25.4545H179.93V30.9233H180.023C180.155 30.6297 180.347 30.3314 180.598 30.0284C180.854 29.7206 181.185 29.465 181.592 29.2614C182.004 29.053 182.516 28.9489 183.126 28.9489C183.922 28.9489 184.656 29.1572 185.328 29.5739C186 29.9858 186.538 30.6084 186.94 31.4418C187.343 32.2704 187.544 33.3097 187.544 34.5597C187.544 35.7765 187.348 36.804 186.955 37.642C186.566 38.4754 186.036 39.1075 185.364 39.5384C184.696 39.9645 183.948 40.1776 183.119 40.1776C182.532 40.1776 182.033 40.0805 181.621 39.8864C181.214 39.6922 180.88 39.4484 180.619 39.1548C180.359 38.8565 180.16 38.5559 180.023 38.2528H179.888V40H176.905ZM179.866 34.5455C179.866 35.1941 179.956 35.7599 180.136 36.2429C180.316 36.7259 180.577 37.1023 180.918 37.3722C181.259 37.6373 181.673 37.7699 182.161 37.7699C182.653 37.7699 183.07 37.6349 183.411 37.3651C183.751 37.0904 184.009 36.7116 184.185 36.2287C184.365 35.741 184.455 35.1799 184.455 34.5455C184.455 33.9157 184.367 33.3617 184.192 32.8835C184.017 32.4053 183.759 32.0312 183.418 31.7614C183.077 31.4915 182.658 31.3565 182.161 31.3565C181.668 31.3565 181.251 31.4867 180.911 31.7472C180.574 32.0076 180.316 32.3769 180.136 32.8551C179.956 33.3333 179.866 33.8968 179.866 34.5455ZM189.563 40V29.0909H192.496V30.9943H192.61C192.809 30.3172 193.142 29.8059 193.611 29.4602C194.08 29.1098 194.62 28.9347 195.23 28.9347C195.382 28.9347 195.545 28.9441 195.721 28.9631C195.896 28.982 196.05 29.008 196.182 29.0412V31.7259C196.04 31.6832 195.844 31.6454 195.593 31.6122C195.342 31.5791 195.112 31.5625 194.904 31.5625C194.459 31.5625 194.061 31.6596 193.711 31.8537C193.365 32.0431 193.09 32.3082 192.887 32.6491C192.688 32.9901 192.588 33.383 192.588 33.8281V40H189.563ZM200.545 40.206C199.849 40.206 199.228 40.0852 198.684 39.8438C198.139 39.5975 197.709 39.2353 197.391 38.7571C197.079 38.2741 196.923 37.6728 196.923 36.9531C196.923 36.3471 197.034 35.8381 197.256 35.4261C197.479 35.0142 197.782 34.6828 198.165 34.4318C198.549 34.1809 198.985 33.9915 199.472 33.8636C199.965 33.7358 200.481 33.6458 201.021 33.5938C201.655 33.5275 202.166 33.4659 202.555 33.4091C202.943 33.3475 203.225 33.2576 203.4 33.1392C203.575 33.0208 203.663 32.8456 203.663 32.6136V32.571C203.663 32.1212 203.521 31.7732 203.237 31.527C202.957 31.2808 202.559 31.1577 202.043 31.1577C201.499 31.1577 201.066 31.2784 200.744 31.5199C200.422 31.7566 200.209 32.0549 200.104 32.4148L197.306 32.1875C197.448 31.5246 197.728 30.9517 198.144 30.4688C198.561 29.9811 199.098 29.607 199.756 29.3466C200.419 29.0814 201.186 28.9489 202.058 28.9489C202.664 28.9489 203.244 29.0199 203.798 29.1619C204.356 29.304 204.851 29.5241 205.282 29.8224C205.718 30.1207 206.061 30.5043 206.312 30.973C206.563 31.437 206.688 31.9934 206.688 32.642V40H203.819V38.4872H203.734C203.558 38.8281 203.324 39.1288 203.031 39.3892C202.737 39.6449 202.384 39.8461 201.972 39.9929C201.56 40.1349 201.085 40.206 200.545 40.206ZM201.411 38.1179C201.856 38.1179 202.249 38.0303 202.59 37.8551C202.931 37.6752 203.199 37.4337 203.393 37.1307C203.587 36.8277 203.684 36.4844 203.684 36.1009V34.9432C203.589 35.0047 203.459 35.0616 203.293 35.1136C203.132 35.161 202.95 35.206 202.746 35.2486C202.543 35.2865 202.339 35.322 202.136 35.3551C201.932 35.3835 201.747 35.4096 201.582 35.4332C201.227 35.4853 200.916 35.5682 200.651 35.6818C200.386 35.7955 200.18 35.9493 200.033 36.1435C199.887 36.3329 199.813 36.5696 199.813 36.8537C199.813 37.2656 199.962 37.5805 200.261 37.7983C200.564 38.0114 200.947 38.1179 201.411 38.1179ZM212.061 33.6932V40H209.036V29.0909H211.919V31.0156H212.047C212.288 30.3812 212.693 29.8793 213.261 29.5099C213.83 29.1359 214.518 28.9489 215.328 28.9489C216.086 28.9489 216.746 29.1146 217.31 29.446C217.873 29.7775 218.311 30.2509 218.624 30.8665C218.936 31.4773 219.092 32.2064 219.092 33.054V40H216.067V33.5938C216.071 32.9261 215.901 32.4053 215.555 32.0312C215.21 31.6525 214.734 31.4631 214.128 31.4631C213.721 31.4631 213.361 31.5507 213.048 31.7259C212.741 31.901 212.499 32.1567 212.324 32.4929C212.153 32.8243 212.066 33.2244 212.061 33.6932ZM226.406 40.2131C225.288 40.2131 224.327 39.9763 223.522 39.5028C222.722 39.0246 222.107 38.3617 221.676 37.5142C221.25 36.6667 221.037 35.6913 221.037 34.5881C221.037 33.4706 221.252 32.4905 221.683 31.6477C222.118 30.8002 222.736 30.1397 223.537 29.6662C224.337 29.188 225.288 28.9489 226.392 28.9489C227.343 28.9489 228.177 29.1217 228.892 29.4673C229.607 29.813 230.172 30.2983 230.589 30.9233C231.006 31.5483 231.235 32.2822 231.278 33.125H228.423C228.342 32.5805 228.129 32.1425 227.784 31.8111C227.443 31.4749 226.995 31.3068 226.441 31.3068C225.973 31.3068 225.563 31.4347 225.213 31.6903C224.867 31.9413 224.597 32.3082 224.403 32.7912C224.209 33.2741 224.112 33.8589 224.112 34.5455C224.112 35.2415 224.207 35.8333 224.396 36.321C224.59 36.8087 224.862 37.1804 225.213 37.4361C225.563 37.6918 225.973 37.8196 226.441 37.8196C226.787 37.8196 227.097 37.7486 227.372 37.6065C227.651 37.4645 227.881 37.2585 228.061 36.9886C228.245 36.714 228.366 36.3849 228.423 36.0014H231.278C231.231 36.8348 231.003 37.5687 230.596 38.2031C230.194 38.8329 229.637 39.3253 228.927 39.6804C228.217 40.0355 227.377 40.2131 226.406 40.2131ZM225.696 39.9432H227.088L226.974 40.5611C227.462 40.6368 227.859 40.8191 228.167 41.108C228.48 41.3968 228.638 41.7898 228.643 42.2869C228.648 42.9924 228.321 43.5535 227.663 43.9702C227.005 44.3916 226.082 44.6023 224.893 44.6023L224.865 43.2528C225.461 43.2528 225.928 43.1795 226.264 43.0327C226.605 42.8906 226.782 42.6681 226.797 42.3651C226.806 42.0762 226.695 41.8561 226.463 41.7045C226.231 41.553 225.868 41.4465 225.376 41.3849L225.696 39.9432ZM236.326 40.206C235.63 40.206 235.01 40.0852 234.465 39.8438C233.921 39.5975 233.49 39.2353 233.173 38.7571C232.86 38.2741 232.704 37.6728 232.704 36.9531C232.704 36.3471 232.815 35.8381 233.038 35.4261C233.26 35.0142 233.563 34.6828 233.947 34.4318C234.33 34.1809 234.766 33.9915 235.254 33.8636C235.746 33.7358 236.262 33.6458 236.802 33.5938C237.436 33.5275 237.948 33.4659 238.336 33.4091C238.724 33.3475 239.006 33.2576 239.181 33.1392C239.356 33.0208 239.444 32.8456 239.444 32.6136V32.571C239.444 32.1212 239.302 31.7732 239.018 31.527C238.738 31.2808 238.341 31.1577 237.825 31.1577C237.28 31.1577 236.847 31.2784 236.525 31.5199C236.203 31.7566 235.99 32.0549 235.886 32.4148L233.087 32.1875C233.229 31.5246 233.509 30.9517 233.925 30.4688C234.342 29.9811 234.879 29.607 235.538 29.3466C236.201 29.0814 236.968 28.9489 237.839 28.9489C238.445 28.9489 239.025 29.0199 239.579 29.1619C240.138 29.304 240.632 29.5241 241.063 29.8224C241.499 30.1207 241.842 30.5043 242.093 30.973C242.344 31.437 242.469 31.9934 242.469 32.642V40H239.6V38.4872H239.515C239.34 38.8281 239.105 39.1288 238.812 39.3892C238.518 39.6449 238.165 39.8461 237.754 39.9929C237.342 40.1349 236.866 40.206 236.326 40.206ZM237.192 38.1179C237.638 38.1179 238.031 38.0303 238.371 37.8551C238.712 37.6752 238.98 37.4337 239.174 37.1307C239.368 36.8277 239.465 36.4844 239.465 36.1009V34.9432C239.371 35.0047 239.24 35.0616 239.075 35.1136C238.914 35.161 238.731 35.206 238.528 35.2486C238.324 35.2865 238.121 35.322 237.917 35.3551C237.713 35.3835 237.529 35.4096 237.363 35.4332C237.008 35.4853 236.698 35.5682 236.433 35.6818C236.167 35.7955 235.961 35.9493 235.815 36.1435C235.668 36.3329 235.594 36.5696 235.594 36.8537C235.594 37.2656 235.744 37.5805 236.042 37.7983C236.345 38.0114 236.728 38.1179 237.192 38.1179Z" fill="white"/>
<defs>
<filter id="filter0_d_44_264" x="0" y="0" width="298" height="68" filterUnits="userSpaceOnUse" color-interpolation-filters="sRGB">
<feFlood flood-opacity="0" result="BackgroundImageFix"/>
<feColorMatrix in="SourceAlpha" type="matrix" values="0 0 0 0 0 0 0 0 0 0 0 0 0 0 0 0 0 0 127 0" result="hardAlpha"/>
<feOffset dy="1"/>
<feGaussianBlur stdDeviation="2"/>
<feComposite in2="hardAlpha" operator="out"/>
<feColorMatrix type="matrix" values="0 0 0 0 0 0 0 0 0 0 0 0 0 0 0 0 0 0 0.25 0"/>
<feBlend mode="normal" in2="BackgroundImageFix" result="effect1_dropShadow_44_264"/>
<feBlend mode="normal" in="SourceGraphic" in2="effect1_dropShadow_44_264" result="shape"/>
</filter>
</defs>
</svg>
