<svg width="68" height="78" viewBox="0 0 68 78" fill="none" xmlns="http://www.w3.org/2000/svg">
<g filter="url(#filter0_d_16_63)">
<rect x="4" y="3" width="60" height="60" rx="5" fill="#dc3545" fill-opacity="0.15" shape-rendering="crispEdges"/>
</g>
<path d="M20.7045 76V70.1818H24.2159V70.8068H21.4091V72.7727H24.0341V73.3977H21.4091V75.375H24.2614V76H20.7045ZM26.0653 73.375V76H25.3949V71.6364H26.0426V72.3182H26.0994C26.2017 72.0966 26.357 71.9186 26.5653 71.7841C26.7737 71.6477 27.0426 71.5795 27.3722 71.5795C27.6676 71.5795 27.9261 71.6402 28.1477 71.7614C28.3693 71.8807 28.5417 72.0625 28.6648 72.3068C28.7879 72.5492 28.8494 72.8561 28.8494 73.2273V76H28.179V73.2727C28.179 72.9299 28.09 72.6629 27.9119 72.4716C27.7339 72.2784 27.4896 72.1818 27.179 72.1818C26.965 72.1818 26.7737 72.2282 26.6051 72.321C26.4384 72.4138 26.3068 72.5492 26.2102 72.7273C26.1136 72.9053 26.0653 73.1212 26.0653 73.375ZM33.4865 71.6364L31.8729 76H31.1911L29.5774 71.6364H30.3047L31.5092 75.1136H31.5547L32.7592 71.6364H33.4865ZM34.3714 76V71.6364H35.0419V76H34.3714ZM34.7124 70.9091C34.5817 70.9091 34.469 70.8646 34.3743 70.7756C34.2815 70.6866 34.2351 70.5795 34.2351 70.4545C34.2351 70.3295 34.2815 70.2225 34.3743 70.1335C34.469 70.0445 34.5817 70 34.7124 70C34.843 70 34.9548 70.0445 35.0476 70.1335C35.1423 70.2225 35.1896 70.3295 35.1896 70.4545C35.1896 70.5795 35.1423 70.6866 35.0476 70.7756C34.9548 70.8646 34.843 70.9091 34.7124 70.9091ZM37.554 76.1023C37.2775 76.1023 37.0265 76.0502 36.8011 75.946C36.5758 75.84 36.3968 75.6875 36.2642 75.4886C36.1316 75.2879 36.0653 75.0455 36.0653 74.7614C36.0653 74.5114 36.1146 74.3087 36.2131 74.1534C36.3116 73.9962 36.4432 73.8731 36.608 73.7841C36.7727 73.6951 36.9545 73.6288 37.1534 73.5852C37.3542 73.5398 37.5559 73.5038 37.7585 73.4773C38.0237 73.4432 38.2386 73.4176 38.4034 73.4006C38.5701 73.3816 38.6913 73.3504 38.767 73.3068C38.8447 73.2633 38.8835 73.1875 38.8835 73.0795V73.0568C38.8835 72.7765 38.8068 72.5587 38.6534 72.4034C38.5019 72.2481 38.2718 72.1705 37.9631 72.1705C37.643 72.1705 37.392 72.2405 37.2102 72.3807C37.0284 72.5208 36.9006 72.6705 36.8267 72.8295L36.1903 72.6023C36.304 72.3371 36.4555 72.1307 36.6449 71.983C36.8362 71.8333 37.0445 71.7292 37.2699 71.6705C37.4972 71.6098 37.7206 71.5795 37.9403 71.5795C38.0805 71.5795 38.2415 71.5966 38.4233 71.6307C38.607 71.6629 38.7841 71.7301 38.9545 71.8324C39.1269 71.9347 39.2699 72.089 39.3835 72.2955C39.4972 72.5019 39.554 72.7784 39.554 73.125V76H38.8835V75.4091H38.8494C38.804 75.5038 38.7282 75.6051 38.6222 75.7131C38.5161 75.821 38.375 75.9129 38.1989 75.9886C38.0227 76.0644 37.8078 76.1023 37.554 76.1023ZM37.6562 75.5C37.9214 75.5 38.1449 75.4479 38.3267 75.3438C38.5104 75.2396 38.6487 75.1051 38.7415 74.9403C38.8362 74.7756 38.8835 74.6023 38.8835 74.4205V73.8068C38.8551 73.8409 38.7926 73.8722 38.696 73.9006C38.6013 73.9271 38.4915 73.9508 38.3665 73.9716C38.2434 73.9905 38.1231 74.0076 38.0057 74.0227C37.8902 74.036 37.7964 74.0473 37.7244 74.0568C37.5502 74.0795 37.3873 74.1165 37.2358 74.1676C37.0862 74.2169 36.965 74.2917 36.8722 74.392C36.7813 74.4905 36.7358 74.625 36.7358 74.7955C36.7358 75.0284 36.822 75.2045 36.9943 75.3239C37.1686 75.4413 37.3892 75.5 37.6562 75.5ZM40.7777 76V71.6364H41.4254V72.2955H41.4709C41.5504 72.0795 41.6944 71.9044 41.9027 71.7699C42.111 71.6354 42.3459 71.5682 42.6072 71.5682C42.6565 71.5682 42.718 71.5691 42.7919 71.571C42.8658 71.5729 42.9216 71.5758 42.9595 71.5795V72.2614C42.9368 72.2557 42.8847 72.2472 42.8033 72.2358C42.7237 72.2225 42.6394 72.2159 42.5504 72.2159C42.3383 72.2159 42.1489 72.2604 41.9822 72.3494C41.8175 72.4366 41.6868 72.5578 41.5902 72.7131C41.4955 72.8665 41.4482 73.0417 41.4482 73.2386V76H40.7777Z" fill="black"/>
<path d="M46.2137 18.3173C46.7858 18.7137 47.086 19.3989 46.9784 20.0842L43.3533 43.6418C43.2684 44.1911 42.9342 44.6724 42.4471 44.9442C41.9599 45.2161 41.3765 45.25 40.8611 45.0348L34.0868 42.2204L30.2068 46.4166C29.7027 46.9659 28.9097 47.1471 28.2131 46.8753C27.5164 46.6035 27.0632 45.9296 27.0632 45.1821V40.4479C27.0632 40.2214 27.1482 40.0062 27.3011 39.842L36.7942 29.4846C37.1228 29.1278 37.1114 28.5785 36.7716 28.2387C36.4317 27.8989 35.8823 27.8763 35.5255 28.1991L24.0046 38.4319L19.0031 35.9289C18.4027 35.6288 18.0176 35.0285 18.0006 34.3603C17.9836 33.6921 18.3348 33.0692 18.9125 32.7351L44.2879 18.2381C44.894 17.8926 45.6416 17.9266 46.2137 18.3173Z" fill="#dc3545"/>
<defs>
<filter id="filter0_d_16_63" x="0" y="0" width="68" height="68" filterUnits="userSpaceOnUse" color-interpolation-filters="sRGB">
<feFlood flood-opacity="0" result="BackgroundImageFix"/>
<feColorMatrix in="SourceAlpha" type="matrix" values="0 0 0 0 0 0 0 0 0 0 0 0 0 0 0 0 0 0 127 0" result="hardAlpha"/>
<feOffset dy="1"/>
<feGaussianBlur stdDeviation="2"/>
<feComposite in2="hardAlpha" operator="out"/>
<feColorMatrix type="matrix" values="0 0 0 0 0 0 0 0 0 0 0 0 0 0 0 0 0 0 0.25 0"/>
<feBlend mode="normal" in2="BackgroundImageFix" result="effect1_dropShadow_16_63"/>
<feBlend mode="normal" in="SourceGraphic" in2="effect1_dropShadow_16_63" result="shape"/>
</filter>
</defs>
</svg>
