<svg width="68" height="78" viewBox="0 0 68 78" fill="none" xmlns="http://www.w3.org/2000/svg">
<g filter="url(#filter0_d_19_66)">
<rect x="4" y="3" width="60" height="60" rx="5" fill="#EB9900" fill-opacity="0.15" shape-rendering="crispEdges"/>
</g>
<path d="M17.7045 76V70.1818H19.6705C20.125 70.1818 20.4981 70.2595 20.7898 70.4148C21.0814 70.5682 21.2973 70.7794 21.4375 71.0483C21.5777 71.3172 21.6477 71.6231 21.6477 71.9659C21.6477 72.3087 21.5777 72.6127 21.4375 72.8778C21.2973 73.143 21.0824 73.3513 20.7926 73.5028C20.5028 73.6525 20.1326 73.7273 19.6818 73.7273H18.0909V73.0909H19.6591C19.9697 73.0909 20.2197 73.0455 20.4091 72.9545C20.6004 72.8636 20.7386 72.7348 20.8239 72.5682C20.911 72.3996 20.9545 72.1989 20.9545 71.9659C20.9545 71.733 20.911 71.5294 20.8239 71.3551C20.7367 71.1809 20.5975 71.0464 20.4062 70.9517C20.215 70.8551 19.9621 70.8068 19.6477 70.8068H18.4091V76H17.7045ZM20.4432 73.3864L21.875 76H21.0568L19.6477 73.3864H20.4432ZM24.5135 76.0909C24.093 76.0909 23.7304 75.9981 23.4254 75.8125C23.1224 75.625 22.8885 75.3636 22.7237 75.0284C22.5608 74.6913 22.4794 74.2992 22.4794 73.8523C22.4794 73.4053 22.5608 73.0114 22.7237 72.6705C22.8885 72.3277 23.1177 72.0606 23.4112 71.8693C23.7067 71.6761 24.0514 71.5795 24.4453 71.5795C24.6726 71.5795 24.897 71.6174 25.1186 71.6932C25.3402 71.7689 25.5419 71.892 25.7237 72.0625C25.9055 72.2311 26.0504 72.4545 26.1584 72.733C26.2663 73.0114 26.3203 73.3542 26.3203 73.7614V74.0455H22.9567V73.4659H25.6385C25.6385 73.2197 25.5893 73 25.4908 72.8068C25.3942 72.6136 25.2559 72.4612 25.076 72.3494C24.898 72.2377 24.6877 72.1818 24.4453 72.1818C24.1783 72.1818 23.9472 72.2481 23.7521 72.3807C23.5589 72.5114 23.4103 72.6818 23.3061 72.892C23.2019 73.1023 23.1499 73.3277 23.1499 73.5682V73.9545C23.1499 74.2841 23.2067 74.5634 23.3203 74.7926C23.4358 75.0199 23.5959 75.1932 23.8004 75.3125C24.005 75.4299 24.2427 75.4886 24.5135 75.4886C24.6896 75.4886 24.8487 75.464 24.9908 75.4148C25.1347 75.3636 25.2588 75.2879 25.3629 75.1875C25.4671 75.0852 25.5476 74.9583 25.6044 74.8068L26.2521 74.9886C26.1839 75.2083 26.0694 75.4015 25.9084 75.5682C25.7474 75.733 25.5485 75.8617 25.3118 75.9545C25.075 76.0455 24.8089 76.0909 24.5135 76.0909ZM29.1129 76.0909C28.7038 76.0909 28.3516 75.9943 28.0561 75.8011C27.7607 75.608 27.5334 75.3419 27.3743 75.0028C27.2152 74.6638 27.1357 74.2765 27.1357 73.8409C27.1357 73.3977 27.2171 73.0066 27.38 72.6676C27.5447 72.3267 27.7739 72.0606 28.0675 71.8693C28.3629 71.6761 28.7076 71.5795 29.1016 71.5795C29.4084 71.5795 29.6849 71.6364 29.9311 71.75C30.1773 71.8636 30.379 72.0227 30.5362 72.2273C30.6934 72.4318 30.791 72.6705 30.8288 72.9432H30.1584C30.1072 72.7443 29.9936 72.5682 29.8175 72.4148C29.6432 72.2595 29.4084 72.1818 29.1129 72.1818C28.8516 72.1818 28.6224 72.25 28.4254 72.3864C28.2304 72.5208 28.0779 72.7112 27.968 72.9574C27.8601 73.2017 27.8061 73.4886 27.8061 73.8182C27.8061 74.1553 27.8591 74.4489 27.9652 74.6989C28.0732 74.9489 28.2247 75.143 28.4197 75.2812C28.6167 75.4195 28.8478 75.4886 29.1129 75.4886C29.2872 75.4886 29.4453 75.4583 29.5874 75.3977C29.7294 75.3371 29.8497 75.25 29.9482 75.1364C30.0466 75.0227 30.1167 74.8864 30.1584 74.7273H30.8288C30.791 74.9848 30.6972 75.2169 30.5476 75.4233C30.3999 75.6278 30.2038 75.7907 29.9595 75.9119C29.7171 76.0312 29.4349 76.0909 29.1129 76.0909ZM33.6385 76.0909C33.218 76.0909 32.8554 75.9981 32.5504 75.8125C32.2474 75.625 32.0135 75.3636 31.8487 75.0284C31.6858 74.6913 31.6044 74.2992 31.6044 73.8523C31.6044 73.4053 31.6858 73.0114 31.8487 72.6705C32.0135 72.3277 32.2427 72.0606 32.5362 71.8693C32.8317 71.6761 33.1764 71.5795 33.5703 71.5795C33.7976 71.5795 34.022 71.6174 34.2436 71.6932C34.4652 71.7689 34.6669 71.892 34.8487 72.0625C35.0305 72.2311 35.1754 72.4545 35.2834 72.733C35.3913 73.0114 35.4453 73.3542 35.4453 73.7614V74.0455H32.0817V73.4659H34.7635C34.7635 73.2197 34.7143 73 34.6158 72.8068C34.5192 72.6136 34.3809 72.4612 34.201 72.3494C34.023 72.2377 33.8127 72.1818 33.5703 72.1818C33.3033 72.1818 33.0722 72.2481 32.8771 72.3807C32.6839 72.5114 32.5353 72.6818 32.4311 72.892C32.3269 73.1023 32.2749 73.3277 32.2749 73.5682V73.9545C32.2749 74.2841 32.3317 74.5634 32.4453 74.7926C32.5608 75.0199 32.7209 75.1932 32.9254 75.3125C33.13 75.4299 33.3677 75.4886 33.6385 75.4886C33.8146 75.4886 33.9737 75.464 34.1158 75.4148C34.2597 75.3636 34.3838 75.2879 34.4879 75.1875C34.5921 75.0852 34.6726 74.9583 34.7294 74.8068L35.3771 74.9886C35.3089 75.2083 35.1944 75.4015 35.0334 75.5682C34.8724 75.733 34.6735 75.8617 34.4368 75.9545C34.2 76.0455 33.9339 76.0909 33.6385 76.0909ZM36.5561 76V70.1818H37.2266V72.3295H37.2834C37.3326 72.2538 37.4008 72.1572 37.4879 72.0398C37.5769 71.9205 37.7038 71.8144 37.8686 71.7216C38.0353 71.6269 38.2607 71.5795 38.5447 71.5795C38.9122 71.5795 39.236 71.6714 39.5163 71.8551C39.7966 72.0388 40.0154 72.2992 40.1726 72.6364C40.3298 72.9735 40.4084 73.3712 40.4084 73.8295C40.4084 74.2917 40.3298 74.6922 40.1726 75.0312C40.0154 75.3684 39.7976 75.6297 39.5192 75.8153C39.2408 75.9991 38.9197 76.0909 38.5561 76.0909C38.2758 76.0909 38.0514 76.0445 37.8828 75.9517C37.7143 75.857 37.5845 75.75 37.4936 75.6307C37.4027 75.5095 37.3326 75.4091 37.2834 75.3295H37.2038V76H36.5561ZM37.2152 73.8182C37.2152 74.1477 37.2635 74.4384 37.3601 74.6903C37.4567 74.9403 37.5978 75.1364 37.7834 75.2784C37.969 75.4186 38.1963 75.4886 38.4652 75.4886C38.7455 75.4886 38.9794 75.4148 39.1669 75.267C39.3563 75.1174 39.4983 74.9167 39.593 74.6648C39.6896 74.411 39.7379 74.1288 39.7379 73.8182C39.7379 73.5114 39.6906 73.2348 39.5959 72.9886C39.5031 72.7405 39.362 72.5445 39.1726 72.4006C38.9851 72.2547 38.7493 72.1818 38.4652 72.1818C38.1925 72.1818 37.9633 72.2509 37.7777 72.3892C37.5921 72.5256 37.4519 72.7169 37.3572 72.9631C37.2625 73.2074 37.2152 73.4924 37.2152 73.8182ZM43.2635 76.0909C42.843 76.0909 42.4804 75.9981 42.1754 75.8125C41.8724 75.625 41.6385 75.3636 41.4737 75.0284C41.3108 74.6913 41.2294 74.2992 41.2294 73.8523C41.2294 73.4053 41.3108 73.0114 41.4737 72.6705C41.6385 72.3277 41.8677 72.0606 42.1612 71.8693C42.4567 71.6761 42.8014 71.5795 43.1953 71.5795C43.4226 71.5795 43.647 71.6174 43.8686 71.6932C44.0902 71.7689 44.2919 71.892 44.4737 72.0625C44.6555 72.2311 44.8004 72.4545 44.9084 72.733C45.0163 73.0114 45.0703 73.3542 45.0703 73.7614V74.0455H41.7067V73.4659H44.3885C44.3885 73.2197 44.3393 73 44.2408 72.8068C44.1442 72.6136 44.0059 72.4612 43.826 72.3494C43.648 72.2377 43.4377 72.1818 43.1953 72.1818C42.9283 72.1818 42.6972 72.2481 42.5021 72.3807C42.3089 72.5114 42.1603 72.6818 42.0561 72.892C41.9519 73.1023 41.8999 73.3277 41.8999 73.5682V73.9545C41.8999 74.2841 41.9567 74.5634 42.0703 74.7926C42.1858 75.0199 42.3459 75.1932 42.5504 75.3125C42.755 75.4299 42.9927 75.4886 43.2635 75.4886C43.4396 75.4886 43.5987 75.464 43.7408 75.4148C43.8847 75.3636 44.0088 75.2879 44.1129 75.1875C44.2171 75.0852 44.2976 74.9583 44.3544 74.8068L45.0021 74.9886C44.9339 75.2083 44.8194 75.4015 44.6584 75.5682C44.4974 75.733 44.2985 75.8617 44.0618 75.9545C43.825 76.0455 43.5589 76.0909 43.2635 76.0909ZM46.0902 76V71.6364H46.7379V72.2955H46.7834C46.8629 72.0795 47.0069 71.9044 47.2152 71.7699C47.4235 71.6354 47.6584 71.5682 47.9197 71.5682C47.969 71.5682 48.0305 71.5691 48.1044 71.571C48.1783 71.5729 48.2341 71.5758 48.272 71.5795V72.2614C48.2493 72.2557 48.1972 72.2472 48.1158 72.2358C48.0362 72.2225 47.9519 72.2159 47.8629 72.2159C47.6508 72.2159 47.4614 72.2604 47.2947 72.3494C47.13 72.4366 46.9993 72.5578 46.9027 72.7131C46.808 72.8665 46.7607 73.0417 46.7607 73.2386V76H46.0902Z" fill="black"/>
<path d="M35.3125 19.8125C35.3125 18.81 34.5025 18 33.5 18C32.4975 18 31.6875 18.81 31.6875 19.8125V33.5592L27.5301 29.4018C26.8221 28.6938 25.6723 28.6938 24.9643 29.4018C24.2563 30.1098 24.2563 31.2596 24.9643 31.9676L32.2143 39.2176C32.9223 39.9256 34.0721 39.9256 34.7801 39.2176L42.0301 31.9676C42.7381 31.2596 42.7381 30.1098 42.0301 29.4018C41.3221 28.6938 40.1723 28.6938 39.4643 29.4018L35.3125 33.5592V19.8125ZM22.625 37.9375C20.6256 37.9375 19 39.5631 19 41.5625V43.375C19 45.3744 20.6256 47 22.625 47H44.375C46.3744 47 48 45.3744 48 43.375V41.5625C48 39.5631 46.3744 37.9375 44.375 37.9375H38.626L36.0602 40.5033C34.6441 41.9193 32.3502 41.9193 30.9342 40.5033L28.374 37.9375H22.625ZM43.4688 41.1094C43.8293 41.1094 44.175 41.2526 44.43 41.5075C44.6849 41.7625 44.8281 42.1082 44.8281 42.4688C44.8281 42.8293 44.6849 43.175 44.43 43.43C44.175 43.6849 43.8293 43.8281 43.4688 43.8281C43.1082 43.8281 42.7625 43.6849 42.5075 43.43C42.2526 43.175 42.1094 42.8293 42.1094 42.4688C42.1094 42.1082 42.2526 41.7625 42.5075 41.5075C42.7625 41.2526 43.1082 41.1094 43.4688 41.1094Z" fill="#EB9900"/>
<defs>
<filter id="filter0_d_19_66" x="0" y="0" width="68" height="68" filterUnits="userSpaceOnUse" color-interpolation-filters="sRGB">
<feFlood flood-opacity="0" result="BackgroundImageFix"/>
<feColorMatrix in="SourceAlpha" type="matrix" values="0 0 0 0 0 0 0 0 0 0 0 0 0 0 0 0 0 0 127 0" result="hardAlpha"/>
<feOffset dy="1"/>
<feGaussianBlur stdDeviation="2"/>
<feComposite in2="hardAlpha" operator="out"/>
<feColorMatrix type="matrix" values="0 0 0 0 0 0 0 0 0 0 0 0 0 0 0 0 0 0 0.25 0"/>
<feBlend mode="normal" in2="BackgroundImageFix" result="effect1_dropShadow_19_66"/>
<feBlend mode="normal" in="SourceGraphic" in2="effect1_dropShadow_19_66" result="shape"/>
</filter>
</defs>
</svg>
