<svg width="298" height="68" viewBox="0 0 298 68" fill="none" xmlns="http://www.w3.org/2000/svg">
<g filter="url(#filter0_d_336_2)">
<rect x="4" y="4" width="290" height="60" rx="5" fill="white" fill-opacity="0.15" shape-rendering="crispEdges"/>
</g>
<path d="M109.25 39H104.761V24.4545H109.449C110.86 24.4545 112.067 24.7457 113.071 25.3281C114.075 25.9058 114.844 26.7367 115.379 27.821C115.914 28.9006 116.182 30.1932 116.182 31.6989C116.182 33.214 115.912 34.5185 115.372 35.6122C114.832 36.7012 114.046 37.5393 113.014 38.1264C111.982 38.7088 110.727 39 109.25 39ZM106.523 37.4375H109.136C110.339 37.4375 111.336 37.2055 112.126 36.7415C112.917 36.2775 113.507 35.617 113.895 34.7599C114.283 33.9029 114.477 32.8826 114.477 31.6989C114.477 30.5246 114.286 29.5137 113.902 28.6662C113.518 27.8139 112.946 27.1605 112.183 26.706C111.421 26.2467 110.472 26.017 109.335 26.017H106.523V37.4375ZM123.483 39.2273C122.432 39.2273 121.525 38.9953 120.763 38.5312C120.005 38.0625 119.42 37.4091 119.009 36.571C118.601 35.7282 118.398 34.7481 118.398 33.6307C118.398 32.5133 118.601 31.5284 119.009 30.6761C119.42 29.8191 119.993 29.1515 120.727 28.6733C121.466 28.1903 122.328 27.9489 123.312 27.9489C123.881 27.9489 124.442 28.0436 124.996 28.233C125.55 28.4223 126.054 28.7301 126.509 29.1562C126.963 29.5777 127.325 30.1364 127.595 30.8324C127.865 31.5284 128 32.3854 128 33.4034V34.1136H119.591V32.6648H126.295C126.295 32.0492 126.172 31.5 125.926 31.017C125.685 30.5341 125.339 30.1529 124.889 29.8736C124.444 29.5942 123.919 29.4545 123.312 29.4545C122.645 29.4545 122.067 29.6203 121.58 29.9517C121.097 30.2784 120.725 30.7045 120.464 31.2301C120.204 31.7557 120.074 32.3191 120.074 32.9205V33.8864C120.074 34.7102 120.216 35.4086 120.5 35.9815C120.789 36.5497 121.189 36.983 121.7 37.2812C122.212 37.5748 122.806 37.7216 123.483 37.7216C123.923 37.7216 124.321 37.66 124.676 37.5369C125.036 37.4091 125.346 37.2197 125.607 36.9688C125.867 36.7131 126.068 36.3958 126.21 36.017L127.83 36.4716C127.659 37.0208 127.373 37.5038 126.97 37.9205C126.568 38.3324 126.071 38.6544 125.479 38.8864C124.887 39.1136 124.222 39.2273 123.483 39.2273ZM130.55 43.0909V28.0909H132.169V29.8239H132.368C132.491 29.6345 132.661 29.393 132.879 29.0994C133.102 28.8011 133.419 28.536 133.831 28.304C134.248 28.0672 134.811 27.9489 135.521 27.9489C136.44 27.9489 137.25 28.1785 137.95 28.6378C138.651 29.0971 139.198 29.7481 139.591 30.5909C139.984 31.4337 140.18 32.428 140.18 33.5739C140.18 34.7292 139.984 35.7306 139.591 36.5781C139.198 37.4209 138.653 38.0743 137.957 38.5384C137.261 38.9976 136.459 39.2273 135.55 39.2273C134.849 39.2273 134.288 39.1113 133.866 38.8793C133.445 38.6425 133.121 38.375 132.893 38.0767C132.666 37.7737 132.491 37.5227 132.368 37.3239H132.226V43.0909H130.55ZM132.197 33.5455C132.197 34.3693 132.318 35.0961 132.56 35.7259C132.801 36.3509 133.154 36.8409 133.618 37.196C134.082 37.5464 134.65 37.7216 135.322 37.7216C136.023 37.7216 136.608 37.5369 137.077 37.1676C137.55 36.7936 137.905 36.2917 138.142 35.6619C138.384 35.0275 138.504 34.322 138.504 33.5455C138.504 32.7784 138.386 32.0871 138.149 31.4716C137.917 30.8513 137.564 30.3613 137.091 30.0014C136.622 29.6368 136.033 29.4545 135.322 29.4545C134.641 29.4545 134.068 29.6274 133.604 29.973C133.14 30.3139 132.789 30.7921 132.553 31.4077C132.316 32.0185 132.197 32.7311 132.197 33.5455ZM147.169 39.2273C146.184 39.2273 145.32 38.9929 144.577 38.5241C143.838 38.0554 143.26 37.3996 142.844 36.5568C142.432 35.714 142.226 34.7292 142.226 33.6023C142.226 32.4659 142.432 31.474 142.844 30.6264C143.26 29.7789 143.838 29.1207 144.577 28.652C145.32 28.1832 146.184 27.9489 147.169 27.9489C148.154 27.9489 149.016 28.1832 149.754 28.652C150.498 29.1207 151.075 29.7789 151.487 30.6264C151.904 31.474 152.112 32.4659 152.112 33.6023C152.112 34.7292 151.904 35.714 151.487 36.5568C151.075 37.3996 150.498 38.0554 149.754 38.5241C149.016 38.9929 148.154 39.2273 147.169 39.2273ZM147.169 37.7216C147.917 37.7216 148.533 37.5298 149.016 37.1463C149.499 36.7628 149.856 36.2585 150.088 35.6335C150.32 35.0085 150.436 34.3314 150.436 33.6023C150.436 32.8731 150.32 32.1937 150.088 31.5639C149.856 30.9342 149.499 30.4252 149.016 30.0369C148.533 29.6487 147.917 29.4545 147.169 29.4545C146.421 29.4545 145.805 29.6487 145.322 30.0369C144.839 30.4252 144.482 30.9342 144.25 31.5639C144.018 32.1937 143.902 32.8731 143.902 33.6023C143.902 34.3314 144.018 35.0085 144.25 35.6335C144.482 36.2585 144.839 36.7628 145.322 37.1463C145.805 37.5298 146.421 37.7216 147.169 37.7216ZM162.398 30.5341L160.892 30.9602C160.798 30.7093 160.658 30.4654 160.473 30.2287C160.293 29.9872 160.047 29.7884 159.735 29.6321C159.422 29.4759 159.022 29.3977 158.534 29.3977C157.867 29.3977 157.31 29.5516 156.865 29.8594C156.425 30.1624 156.205 30.5483 156.205 31.017C156.205 31.4337 156.356 31.7628 156.659 32.0043C156.962 32.2457 157.436 32.447 158.08 32.608L159.699 33.0057C160.675 33.2424 161.401 33.6046 161.88 34.0923C162.358 34.5753 162.597 35.1979 162.597 35.9602C162.597 36.5852 162.417 37.1439 162.057 37.6364C161.702 38.1288 161.205 38.517 160.566 38.8011C159.926 39.0852 159.183 39.2273 158.336 39.2273C157.223 39.2273 156.302 38.9858 155.573 38.5028C154.844 38.0199 154.382 37.3144 154.188 36.3864L155.779 35.9886C155.93 36.5758 156.217 37.0161 156.638 37.3097C157.064 37.6032 157.621 37.75 158.307 37.75C159.088 37.75 159.709 37.5843 160.168 37.2528C160.632 36.9167 160.864 36.5142 160.864 36.0455C160.864 35.6667 160.731 35.3494 160.466 35.0938C160.201 34.8333 159.794 34.6392 159.245 34.5114L157.426 34.0852C156.427 33.8485 155.694 33.4815 155.225 32.9844C154.761 32.4825 154.529 31.8551 154.529 31.1023C154.529 30.4867 154.702 29.9422 155.047 29.4688C155.398 28.9953 155.873 28.6236 156.475 28.3537C157.081 28.0838 157.767 27.9489 158.534 27.9489C159.614 27.9489 160.462 28.1856 161.077 28.6591C161.697 29.1326 162.138 29.7576 162.398 30.5341ZM165.12 39V28.0909H166.796V39H165.12ZM165.972 26.2727C165.646 26.2727 165.364 26.1615 165.127 25.9389C164.895 25.7164 164.779 25.4489 164.779 25.1364C164.779 24.8239 164.895 24.5563 165.127 24.3338C165.364 24.1113 165.646 24 165.972 24C166.299 24 166.578 24.1113 166.81 24.3338C167.047 24.5563 167.165 24.8239 167.165 25.1364C167.165 25.4489 167.047 25.7164 166.81 25.9389C166.578 26.1615 166.299 26.2727 165.972 26.2727ZM174.61 28.0909V29.5114H168.957V28.0909H174.61ZM170.605 25.4773H172.281V35.875C172.281 36.3485 172.35 36.7036 172.487 36.9403C172.629 37.1723 172.809 37.3286 173.027 37.4091C173.249 37.4848 173.484 37.5227 173.73 37.5227C173.914 37.5227 174.066 37.5133 174.184 37.4943C174.303 37.4706 174.397 37.4517 174.468 37.4375L174.809 38.9432C174.696 38.9858 174.537 39.0284 174.333 39.071C174.13 39.1184 173.872 39.142 173.559 39.142C173.086 39.142 172.622 39.0402 172.167 38.8366C171.717 38.633 171.343 38.3229 171.045 37.9062C170.752 37.4896 170.605 36.964 170.605 36.3295V25.4773ZM180.342 39.2557C179.651 39.2557 179.023 39.1255 178.46 38.8651C177.896 38.5999 177.449 38.2188 177.118 37.7216C176.786 37.2197 176.62 36.6136 176.62 35.9034C176.62 35.2784 176.743 34.7718 176.99 34.3835C177.236 33.9905 177.565 33.6828 177.977 33.4602C178.389 33.2377 178.843 33.072 179.341 32.9631C179.842 32.8494 180.347 32.7595 180.853 32.6932C181.516 32.608 182.054 32.544 182.466 32.5014C182.882 32.4541 183.185 32.3759 183.375 32.267C183.569 32.1581 183.666 31.9687 183.666 31.6989V31.642C183.666 30.9413 183.474 30.3968 183.091 30.0085C182.712 29.6203 182.136 29.4261 181.365 29.4261C180.565 29.4261 179.937 29.6013 179.483 29.9517C179.028 30.3021 178.708 30.6761 178.524 31.0739L176.933 30.5057C177.217 29.8428 177.596 29.3267 178.069 28.9574C178.547 28.5833 179.068 28.3229 179.632 28.1761C180.2 28.0246 180.759 27.9489 181.308 27.9489C181.658 27.9489 182.061 27.9915 182.515 28.0767C182.975 28.1572 183.417 28.3253 183.843 28.581C184.274 28.8366 184.632 29.2225 184.916 29.7386C185.2 30.2547 185.342 30.946 185.342 31.8125V39H183.666V37.5227H183.581C183.467 37.7595 183.278 38.0128 183.012 38.2827C182.747 38.5526 182.395 38.7822 181.954 38.9716C181.514 39.161 180.976 39.2557 180.342 39.2557ZM180.598 37.75C181.261 37.75 181.819 37.6198 182.274 37.3594C182.733 37.099 183.079 36.7628 183.311 36.3509C183.547 35.9389 183.666 35.5057 183.666 35.0511V33.517C183.595 33.6023 183.439 33.6804 183.197 33.7514C182.96 33.8177 182.686 33.8769 182.373 33.929C182.065 33.9763 181.765 34.0189 181.471 34.0568C181.182 34.09 180.948 34.1184 180.768 34.142C180.333 34.1989 179.925 34.2912 179.547 34.419C179.172 34.5421 178.869 34.7292 178.637 34.9801C178.41 35.2263 178.297 35.5625 178.297 35.9886C178.297 36.571 178.512 37.0114 178.943 37.3097C179.378 37.6032 179.93 37.75 180.598 37.75ZM188.401 39V28.0909H190.021V29.7386H190.134C190.333 29.1989 190.693 28.7609 191.214 28.4247C191.735 28.0885 192.322 27.9205 192.975 27.9205C193.098 27.9205 193.252 27.9228 193.437 27.9276C193.621 27.9323 193.761 27.9394 193.856 27.9489V29.6534C193.799 29.6392 193.669 29.6179 193.465 29.5895C193.266 29.5563 193.056 29.5398 192.833 29.5398C192.303 29.5398 191.829 29.651 191.413 29.8736C191.001 30.0914 190.674 30.3944 190.433 30.7827C190.196 31.1662 190.077 31.6042 190.077 32.0966V39H188.401Z" fill="black"/>
<path d="M266.486 20.9835C265.664 20.1666 264.329 20.1666 263.507 20.9835L252.983 31.4398C252.161 32.2567 252.161 33.5834 252.983 34.4003C253.805 35.2172 255.14 35.2172 255.963 34.4003L262.895 27.5056V47.5557C262.895 48.7124 263.836 49.647 265 49.647C266.164 49.647 267.105 48.7124 267.105 47.5557V27.5122L274.037 34.3937C274.86 35.2106 276.195 35.2106 277.017 34.3937C277.839 33.5768 277.839 32.2502 277.017 31.4333L266.493 20.9769L266.486 20.9835Z" fill="#00BF00"/>
<defs>
<filter id="filter0_d_336_2" x="0" y="0" width="298" height="68" filterUnits="userSpaceOnUse" color-interpolation-filters="sRGB">
<feFlood flood-opacity="0" result="BackgroundImageFix"/>
<feColorMatrix in="SourceAlpha" type="matrix" values="0 0 0 0 0 0 0 0 0 0 0 0 0 0 0 0 0 0 127 0" result="hardAlpha"/>
<feOffset/>
<feGaussianBlur stdDeviation="2"/>
<feComposite in2="hardAlpha" operator="out"/>
<feColorMatrix type="matrix" values="0 0 0 0 0 0 0 0 0 0.74902 0 0 0 0 0 0 0 0 0.25 0"/>
<feBlend mode="normal" in2="BackgroundImageFix" result="effect1_dropShadow_336_2"/>
<feBlend mode="normal" in="SourceGraphic" in2="effect1_dropShadow_336_2" result="shape"/>
</filter>
</defs>
</svg>
