<svg width="223" height="50" viewBox="0 0 223 50" fill="none" xmlns="http://www.w3.org/2000/svg">
<g filter="url(#filter0_d_68_3)">
<rect x="4" y="3" width="215" height="42" rx="5" fill="#FF0509"/>
</g>
<path d="M23.7614 31V16.4545H28.6761C29.8125 16.4545 30.7453 16.6487 31.4744 17.0369C32.2036 17.4205 32.7434 17.9484 33.0938 18.6207C33.4441 19.2931 33.6193 20.0578 33.6193 20.9148C33.6193 21.7718 33.4441 22.5317 33.0938 23.1946C32.7434 23.8575 32.206 24.3783 31.4815 24.7571C30.7571 25.1312 29.8314 25.3182 28.7045 25.3182H24.7273V23.7273H28.6477C29.4242 23.7273 30.0492 23.6136 30.5227 23.3864C31.0009 23.1591 31.3466 22.8371 31.5597 22.4205C31.7775 21.9991 31.8864 21.4972 31.8864 20.9148C31.8864 20.3324 31.7775 19.8234 31.5597 19.3878C31.3419 18.9522 30.9938 18.616 30.5156 18.3793C30.0374 18.1378 29.4053 18.017 28.6193 18.017H25.5227V31H23.7614ZM30.608 24.4659L34.1875 31H32.142L28.6193 24.4659H30.608ZM40.7837 31.2273C39.7326 31.2273 38.8259 30.9953 38.0636 30.5312C37.306 30.0625 36.7212 29.4091 36.3093 28.571C35.9021 27.7282 35.6985 26.7481 35.6985 25.6307C35.6985 24.5133 35.9021 23.5284 36.3093 22.6761C36.7212 21.8191 37.2942 21.1515 38.0281 20.6733C38.7667 20.1903 39.6284 19.9489 40.6133 19.9489C41.1815 19.9489 41.7425 20.0436 42.2965 20.233C42.8505 20.4223 43.3548 20.7301 43.8093 21.1562C44.2638 21.5777 44.6261 22.1364 44.896 22.8324C45.1658 23.5284 45.3008 24.3854 45.3008 25.4034V26.1136H36.8917V24.6648H43.5962C43.5962 24.0492 43.4731 23.5 43.2269 23.017C42.9854 22.5341 42.6398 22.1529 42.19 21.8736C41.7449 21.5942 41.2193 21.4545 40.6133 21.4545C39.9457 21.4545 39.368 21.6203 38.8803 21.9517C38.3974 22.2784 38.0257 22.7045 37.7653 23.2301C37.5049 23.7557 37.3746 24.3191 37.3746 24.9205V25.8864C37.3746 26.7102 37.5167 27.4086 37.8008 27.9815C38.0896 28.5497 38.4897 28.983 39.0011 29.2812C39.5124 29.5748 40.1067 29.7216 40.7837 29.7216C41.2241 29.7216 41.6218 29.66 41.9769 29.5369C42.3368 29.4091 42.6469 29.2197 42.9073 28.9688C43.1677 28.7131 43.369 28.3958 43.511 28.017L45.1303 28.4716C44.9599 29.0208 44.6734 29.5038 44.271 29.9205C43.8685 30.3324 43.3713 30.6544 42.7795 30.8864C42.1876 31.1136 41.5224 31.2273 40.7837 31.2273ZM52.2823 31.2273C51.2596 31.2273 50.3789 30.9858 49.6403 30.5028C48.9016 30.0199 48.3335 29.3546 47.9357 28.5071C47.538 27.6596 47.3391 26.6913 47.3391 25.6023C47.3391 24.4943 47.5427 23.5166 47.9499 22.669C48.3619 21.8168 48.9348 21.1515 49.6687 20.6733C50.4073 20.1903 51.2691 19.9489 52.2539 19.9489C53.021 19.9489 53.7122 20.0909 54.3278 20.375C54.9433 20.6591 55.4476 21.0568 55.8406 21.5682C56.2335 22.0795 56.4774 22.6761 56.5721 23.358H54.896C54.7681 22.8608 54.484 22.4205 54.0437 22.0369C53.6081 21.6487 53.021 21.4545 52.2823 21.4545C51.6289 21.4545 51.056 21.625 50.5636 21.9659C50.0759 22.3021 49.6947 22.7779 49.4201 23.3935C49.1502 24.0043 49.0153 24.7216 49.0153 25.5455C49.0153 26.3883 49.1478 27.1222 49.413 27.7472C49.6829 28.3722 50.0617 28.8575 50.5494 29.2031C51.0418 29.5488 51.6194 29.7216 52.2823 29.7216C52.7179 29.7216 53.1133 29.6458 53.4684 29.4943C53.8235 29.3428 54.1242 29.125 54.3704 28.8409C54.6166 28.5568 54.7918 28.2159 54.896 27.8182H56.5721C56.4774 28.4621 56.243 29.0421 55.869 29.5582C55.4996 30.0696 55.0096 30.4768 54.3988 30.7798C53.7927 31.0781 53.0872 31.2273 52.2823 31.2273ZM63.5962 31.2273C62.5451 31.2273 61.6384 30.9953 60.8761 30.5312C60.1185 30.0625 59.5337 29.4091 59.1218 28.571C58.7146 27.7282 58.511 26.7481 58.511 25.6307C58.511 24.5133 58.7146 23.5284 59.1218 22.6761C59.5337 21.8191 60.1067 21.1515 60.8406 20.6733C61.5792 20.1903 62.4409 19.9489 63.4258 19.9489C63.994 19.9489 64.555 20.0436 65.109 20.233C65.663 20.4223 66.1673 20.7301 66.6218 21.1562C67.0763 21.5777 67.4386 22.1364 67.7085 22.8324C67.9783 23.5284 68.1133 24.3854 68.1133 25.4034V26.1136H59.7042V24.6648H66.4087C66.4087 24.0492 66.2856 23.5 66.0394 23.017C65.7979 22.5341 65.4523 22.1529 65.0025 21.8736C64.5574 21.5942 64.0318 21.4545 63.4258 21.4545C62.7582 21.4545 62.1805 21.6203 61.6928 21.9517C61.2099 22.2784 60.8382 22.7045 60.5778 23.2301C60.3174 23.7557 60.1871 24.3191 60.1871 24.9205V25.8864C60.1871 26.7102 60.3292 27.4086 60.6133 27.9815C60.9021 28.5497 61.3022 28.983 61.8136 29.2812C62.3249 29.5748 62.9192 29.7216 63.5962 29.7216C64.0366 29.7216 64.4343 29.66 64.7894 29.5369C65.1493 29.4091 65.4594 29.2197 65.7198 28.9688C65.9802 28.7131 66.1815 28.3958 66.3235 28.017L67.9428 28.4716C67.7724 29.0208 67.4859 29.5038 67.0835 29.9205C66.681 30.3324 66.1838 30.6544 65.592 30.8864C65.0001 31.1136 64.3349 31.2273 63.5962 31.2273ZM70.8903 31V16.4545H72.5664V21.8239H72.7085C72.8316 21.6345 73.002 21.393 73.2198 21.0994C73.4424 20.8011 73.7596 20.536 74.1715 20.304C74.5882 20.0672 75.1516 19.9489 75.8619 19.9489C76.7804 19.9489 77.5901 20.1785 78.2908 20.6378C78.9916 21.0971 79.5385 21.7481 79.9315 22.5909C80.3245 23.4337 80.521 24.428 80.521 25.5739C80.521 26.7292 80.3245 27.7306 79.9315 28.5781C79.5385 29.4209 78.994 30.0743 78.2979 30.5384C77.6019 30.9976 76.7994 31.2273 75.8903 31.2273C75.1895 31.2273 74.6284 31.1113 74.207 30.8793C73.7856 30.6425 73.4613 30.375 73.234 30.0767C73.0067 29.7737 72.8316 29.5227 72.7085 29.3239H72.5096V31H70.8903ZM72.538 25.5455C72.538 26.3693 72.6587 27.0961 72.9002 27.7259C73.1417 28.3509 73.4944 28.8409 73.9585 29.196C74.4225 29.5464 74.9906 29.7216 75.663 29.7216C76.3638 29.7216 76.9485 29.5369 77.4173 29.1676C77.8907 28.7936 78.2459 28.2917 78.4826 27.6619C78.7241 27.0275 78.8448 26.322 78.8448 25.5455C78.8448 24.7784 78.7264 24.0871 78.4897 23.4716C78.2577 22.8513 77.9049 22.3613 77.4315 22.0014C76.9627 21.6368 76.3732 21.4545 75.663 21.4545C74.9812 21.4545 74.4083 21.6274 73.9442 21.973C73.4802 22.3139 73.1299 22.7921 72.8931 23.4077C72.6564 24.0185 72.538 24.7311 72.538 25.5455ZM87.6587 31.2273C86.6076 31.2273 85.7009 30.9953 84.9386 30.5312C84.181 30.0625 83.5962 29.4091 83.1843 28.571C82.7771 27.7282 82.5735 26.7481 82.5735 25.6307C82.5735 24.5133 82.7771 23.5284 83.1843 22.6761C83.5962 21.8191 84.1692 21.1515 84.9031 20.6733C85.6417 20.1903 86.5034 19.9489 87.4883 19.9489C88.0565 19.9489 88.6175 20.0436 89.1715 20.233C89.7255 20.4223 90.2298 20.7301 90.6843 21.1562C91.1388 21.5777 91.5011 22.1364 91.771 22.8324C92.0408 23.5284 92.1758 24.3854 92.1758 25.4034V26.1136H83.7667V24.6648H90.4712C90.4712 24.0492 90.3481 23.5 90.1019 23.017C89.8604 22.5341 89.5148 22.1529 89.065 21.8736C88.6199 21.5942 88.0943 21.4545 87.4883 21.4545C86.8207 21.4545 86.243 21.6203 85.7553 21.9517C85.2724 22.2784 84.9007 22.7045 84.6403 23.2301C84.3799 23.7557 84.2496 24.3191 84.2496 24.9205V25.8864C84.2496 26.7102 84.3917 27.4086 84.6758 27.9815C84.9646 28.5497 85.3647 28.983 85.8761 29.2812C86.3874 29.5748 86.9817 29.7216 87.6587 29.7216C88.0991 29.7216 88.4968 29.66 88.8519 29.5369C89.2118 29.4091 89.5219 29.2197 89.7823 28.9688C90.0427 28.7131 90.244 28.3958 90.386 28.017L92.0053 28.4716C91.8349 29.0208 91.5484 29.5038 91.146 29.9205C90.7435 30.3324 90.2463 30.6544 89.6545 30.8864C89.0626 31.1136 88.3974 31.2273 87.6587 31.2273ZM94.7255 31V20.0909H96.3448V21.7386H96.4585C96.6573 21.1989 97.0172 20.7609 97.538 20.4247C98.0588 20.0885 98.646 19.9205 99.2994 19.9205C99.4225 19.9205 99.5763 19.9228 99.761 19.9276C99.9457 19.9323 100.085 19.9394 100.18 19.9489V21.6534C100.123 21.6392 99.993 21.6179 99.7894 21.5895C99.5906 21.5563 99.3799 21.5398 99.1573 21.5398C98.627 21.5398 98.1535 21.651 97.7369 21.8736C97.3249 22.0914 96.9982 22.3944 96.7567 22.7827C96.52 23.1662 96.4016 23.6042 96.4016 24.0966V31H94.7255ZM112.224 31.2273C111.239 31.2273 110.375 30.9929 109.631 30.5241C108.893 30.0554 108.315 29.3996 107.898 28.5568C107.487 27.714 107.281 26.7292 107.281 25.6023C107.281 24.4659 107.487 23.474 107.898 22.6264C108.315 21.7789 108.893 21.1207 109.631 20.652C110.375 20.1832 111.239 19.9489 112.224 19.9489C113.209 19.9489 114.07 20.1832 114.809 20.652C115.552 21.1207 116.13 21.7789 116.542 22.6264C116.959 23.474 117.167 24.4659 117.167 25.6023C117.167 26.7292 116.959 27.714 116.542 28.5568C116.13 29.3996 115.552 30.0554 114.809 30.5241C114.07 30.9929 113.209 31.2273 112.224 31.2273ZM112.224 29.7216C112.972 29.7216 113.587 29.5298 114.07 29.1463C114.553 28.7628 114.911 28.2585 115.143 27.6335C115.375 27.0085 115.491 26.3314 115.491 25.6023C115.491 24.8731 115.375 24.1937 115.143 23.5639C114.911 22.9342 114.553 22.4252 114.07 22.0369C113.587 21.6487 112.972 21.4545 112.224 21.4545C111.476 21.4545 110.86 21.6487 110.377 22.0369C109.894 22.4252 109.537 22.9342 109.305 23.5639C109.073 24.1937 108.957 24.8731 108.957 25.6023C108.957 26.3314 109.073 27.0085 109.305 27.6335C109.537 28.2585 109.894 28.7628 110.377 29.1463C110.86 29.5298 111.476 29.7216 112.224 29.7216ZM129.47 31.2273C128.561 31.2273 127.758 30.9976 127.062 30.5384C126.366 30.0743 125.822 29.4209 125.429 28.5781C125.036 27.7306 124.839 26.7292 124.839 25.5739C124.839 24.428 125.036 23.4337 125.429 22.5909C125.822 21.7481 126.368 21.0971 127.069 20.6378C127.77 20.1785 128.58 19.9489 129.498 19.9489C130.208 19.9489 130.77 20.0672 131.181 20.304C131.598 20.536 131.915 20.8011 132.133 21.0994C132.356 21.393 132.529 21.6345 132.652 21.8239H132.794V16.4545H134.47V31H132.85V29.3239H132.652C132.529 29.5227 132.353 29.7737 132.126 30.0767C131.899 30.375 131.574 30.6425 131.153 30.8793C130.732 31.1113 130.171 31.2273 129.47 31.2273ZM129.697 29.7216C130.369 29.7216 130.938 29.5464 131.402 29.196C131.866 28.8409 132.218 28.3509 132.46 27.7259C132.701 27.0961 132.822 26.3693 132.822 25.5455C132.822 24.7311 132.704 24.0185 132.467 23.4077C132.23 22.7921 131.88 22.3139 131.416 21.973C130.952 21.6274 130.379 21.4545 129.697 21.4545C128.987 21.4545 128.395 21.6368 127.922 22.0014C127.453 22.3613 127.1 22.8513 126.863 23.4716C126.631 24.0871 126.515 24.7784 126.515 25.5455C126.515 26.322 126.634 27.0275 126.87 27.6619C127.112 28.2917 127.467 28.7936 127.936 29.1676C128.409 29.5369 128.996 29.7216 129.697 29.7216ZM137.772 31V20.0909H139.449V31H137.772ZM138.625 18.2727C138.298 18.2727 138.016 18.1615 137.779 17.9389C137.547 17.7164 137.431 17.4489 137.431 17.1364C137.431 16.8239 137.547 16.5563 137.779 16.3338C138.016 16.1113 138.298 16 138.625 16C138.951 16 139.231 16.1113 139.463 16.3338C139.699 16.5563 139.818 16.8239 139.818 17.1364C139.818 17.4489 139.699 17.7164 139.463 17.9389C139.231 18.1615 138.951 18.2727 138.625 18.2727ZM144.195 24.4375V31H142.518V20.0909H144.138V21.7955H144.28C144.536 21.2415 144.924 20.7964 145.445 20.4602C145.965 20.1193 146.638 19.9489 147.462 19.9489C148.2 19.9489 148.847 20.1004 149.401 20.4034C149.955 20.7017 150.385 21.1562 150.693 21.767C151.001 22.3731 151.155 23.1402 151.155 24.0682V31H149.479V24.1818C149.479 23.3248 149.256 22.6572 148.811 22.179C148.366 21.696 147.755 21.4545 146.979 21.4545C146.444 21.4545 145.965 21.5705 145.544 21.8026C145.127 22.0346 144.798 22.3731 144.557 22.8182C144.315 23.2633 144.195 23.803 144.195 24.4375ZM155.894 24.4375V31H154.218V16.4545H155.894V21.7955H156.036C156.292 21.232 156.675 20.7846 157.186 20.4531C157.703 20.117 158.389 19.9489 159.246 19.9489C159.989 19.9489 160.641 20.098 161.199 20.3963C161.758 20.6899 162.191 21.142 162.499 21.7528C162.811 22.3589 162.968 23.1307 162.968 24.0682V31H161.292V24.1818C161.292 23.3153 161.067 22.6454 160.617 22.1719C160.172 21.6937 159.554 21.4545 158.763 21.4545C158.214 21.4545 157.721 21.5705 157.286 21.8026C156.855 22.0346 156.514 22.3731 156.263 22.8182C156.017 23.2633 155.894 23.803 155.894 24.4375ZM170.608 31.2273C169.557 31.2273 168.65 30.9953 167.888 30.5312C167.13 30.0625 166.545 29.4091 166.134 28.571C165.726 27.7282 165.523 26.7481 165.523 25.6307C165.523 24.5133 165.726 23.5284 166.134 22.6761C166.545 21.8191 167.118 21.1515 167.852 20.6733C168.591 20.1903 169.453 19.9489 170.438 19.9489C171.006 19.9489 171.567 20.0436 172.121 20.233C172.675 20.4223 173.179 20.7301 173.634 21.1562C174.088 21.5777 174.45 22.1364 174.72 22.8324C174.99 23.5284 175.125 24.3854 175.125 25.4034V26.1136H166.716V24.6648H173.42C173.42 24.0492 173.297 23.5 173.051 23.017C172.81 22.5341 172.464 22.1529 172.014 21.8736C171.569 21.5942 171.044 21.4545 170.438 21.4545C169.77 21.4545 169.192 21.6203 168.705 21.9517C168.222 22.2784 167.85 22.7045 167.589 23.2301C167.329 23.7557 167.199 24.3191 167.199 24.9205V25.8864C167.199 26.7102 167.341 27.4086 167.625 27.9815C167.914 28.5497 168.314 28.983 168.825 29.2812C169.337 29.5748 169.931 29.7216 170.608 29.7216C171.048 29.7216 171.446 29.66 171.801 29.5369C172.161 29.4091 172.471 29.2197 172.732 28.9688C172.992 28.7131 173.193 28.3958 173.335 28.017L174.955 28.4716C174.784 29.0208 174.498 29.5038 174.095 29.9205C173.693 30.3324 173.196 30.6544 172.604 30.8864C172.012 31.1136 171.347 31.2273 170.608 31.2273ZM177.675 31V20.0909H179.351V31H177.675ZM178.527 18.2727C178.2 18.2727 177.919 18.1615 177.682 17.9389C177.45 17.7164 177.334 17.4489 177.334 17.1364C177.334 16.8239 177.45 16.5563 177.682 16.3338C177.919 16.1113 178.2 16 178.527 16C178.854 16 179.133 16.1113 179.365 16.3338C179.602 16.5563 179.72 16.8239 179.72 17.1364C179.72 17.4489 179.602 17.7164 179.365 17.9389C179.133 18.1615 178.854 18.2727 178.527 18.2727ZM182.421 31V20.0909H184.04V21.7386H184.154C184.353 21.1989 184.712 20.7609 185.233 20.4247C185.754 20.0885 186.341 19.9205 186.995 19.9205C187.118 19.9205 187.272 19.9228 187.456 19.9276C187.641 19.9323 187.781 19.9394 187.875 19.9489V21.6534C187.819 21.6392 187.688 21.6179 187.485 21.5895C187.286 21.5563 187.075 21.5398 186.853 21.5398C186.322 21.5398 185.849 21.651 185.432 21.8736C185.02 22.0914 184.694 22.3944 184.452 22.7827C184.215 23.1662 184.097 23.6042 184.097 24.0966V31H182.421ZM193.962 31.2273C192.977 31.2273 192.113 30.9929 191.37 30.5241C190.631 30.0554 190.053 29.3996 189.637 28.5568C189.225 27.714 189.019 26.7292 189.019 25.6023C189.019 24.4659 189.225 23.474 189.637 22.6264C190.053 21.7789 190.631 21.1207 191.37 20.652C192.113 20.1832 192.977 19.9489 193.962 19.9489C194.947 19.9489 195.809 20.1832 196.547 20.652C197.291 21.1207 197.868 21.7789 198.28 22.6264C198.697 23.474 198.905 24.4659 198.905 25.6023C198.905 26.7292 198.697 27.714 198.28 28.5568C197.868 29.3996 197.291 30.0554 196.547 30.5241C195.809 30.9929 194.947 31.2273 193.962 31.2273ZM193.962 29.7216C194.71 29.7216 195.326 29.5298 195.809 29.1463C196.292 28.7628 196.649 28.2585 196.881 27.6335C197.113 27.0085 197.229 26.3314 197.229 25.6023C197.229 24.8731 197.113 24.1937 196.881 23.5639C196.649 22.9342 196.292 22.4252 195.809 22.0369C195.326 21.6487 194.71 21.4545 193.962 21.4545C193.214 21.4545 192.598 21.6487 192.115 22.0369C191.632 22.4252 191.275 22.9342 191.043 23.5639C190.811 24.1937 190.695 24.8731 190.695 25.6023C190.695 26.3314 190.811 27.0085 191.043 27.6335C191.275 28.2585 191.632 28.7628 192.115 29.1463C192.598 29.5298 193.214 29.7216 193.962 29.7216Z" fill="black"/>
<defs>
<filter id="filter0_d_68_3" x="0" y="0" width="223" height="50" filterUnits="userSpaceOnUse" color-interpolation-filters="sRGB">
<feFlood flood-opacity="0" result="BackgroundImageFix"/>
<feColorMatrix in="SourceAlpha" type="matrix" values="0 0 0 0 0 0 0 0 0 0 0 0 0 0 0 0 0 0 127 0" result="hardAlpha"/>
<feOffset dy="1"/>
<feGaussianBlur stdDeviation="2"/>
<feComposite in2="hardAlpha" operator="out"/>
<feColorMatrix type="matrix" values="0 0 0 0 0 0 0 0 0 0 0 0 0 0 0 0 0 0 0.25 0"/>
<feBlend mode="normal" in2="BackgroundImageFix" result="effect1_dropShadow_68_3"/>
<feBlend mode="normal" in="SourceGraphic" in2="effect1_dropShadow_68_3" result="shape"/>
</filter>
</defs>
</svg>
