<svg width="298" height="68" viewBox="0 0 298 68" fill="none" xmlns="http://www.w3.org/2000/svg">
<g filter="url(#filter0_d_44_384)">
<rect x="4" y="3" width="290" height="60" rx="5" fill="#FF0509"/>
</g>
<path d="M60.098 30.5469H56.9872C56.9304 30.1444 56.8144 29.7869 56.6392 29.4744C56.464 29.1572 56.2391 28.8873 55.9645 28.6648C55.6899 28.4422 55.3726 28.2718 55.0128 28.1534C54.6577 28.035 54.2718 27.9759 53.8551 27.9759C53.1023 27.9759 52.4465 28.1629 51.8878 28.5369C51.3291 28.9062 50.8958 29.446 50.5881 30.1562C50.2803 30.8617 50.1264 31.7187 50.1264 32.7273C50.1264 33.7642 50.2803 34.6354 50.5881 35.3409C50.9006 36.0464 51.3362 36.5791 51.8949 36.9389C52.4536 37.2988 53.0999 37.4787 53.8338 37.4787C54.2457 37.4787 54.6269 37.4242 54.9773 37.3153C55.3324 37.2064 55.6473 37.0478 55.9219 36.8395C56.1965 36.6264 56.4238 36.3684 56.6037 36.0653C56.7884 35.7623 56.9162 35.4167 56.9872 35.0284L60.098 35.0426C60.0175 35.7102 59.8163 36.3542 59.4943 36.9744C59.1771 37.59 58.7486 38.1416 58.2088 38.6293C57.6738 39.1122 57.0346 39.4957 56.2912 39.7798C55.5526 40.0592 54.7169 40.1989 53.7841 40.1989C52.4867 40.1989 51.3267 39.9053 50.304 39.3182C49.286 38.7311 48.4811 37.8812 47.8892 36.7685C47.3021 35.6558 47.0085 34.3087 47.0085 32.7273C47.0085 31.1411 47.3068 29.7917 47.9034 28.679C48.5 27.5663 49.3097 26.7187 50.3324 26.1364C51.3551 25.5492 52.5057 25.2557 53.7841 25.2557C54.6269 25.2557 55.4081 25.3741 56.1278 25.6108C56.8523 25.8475 57.4938 26.1932 58.0526 26.6477C58.6113 27.0975 59.0658 27.6491 59.4162 28.3026C59.7713 28.956 59.9986 29.7041 60.098 30.5469ZM65.3572 40.206C64.6612 40.206 64.041 40.0852 63.4964 39.8438C62.9519 39.5975 62.5211 39.2353 62.2038 38.7571C61.8913 38.2741 61.7351 37.6728 61.7351 36.9531C61.7351 36.3471 61.8464 35.8381 62.0689 35.4261C62.2914 35.0142 62.5945 34.6828 62.978 34.4318C63.3615 34.1809 63.7971 33.9915 64.2848 33.8636C64.7772 33.7358 65.2933 33.6458 65.8331 33.5938C66.4676 33.5275 66.9789 33.4659 67.3672 33.4091C67.7554 33.3475 68.0372 33.2576 68.2124 33.1392C68.3875 33.0208 68.4751 32.8456 68.4751 32.6136V32.571C68.4751 32.1212 68.3331 31.7732 68.049 31.527C67.7696 31.2808 67.3719 31.1577 66.8558 31.1577C66.3113 31.1577 65.8781 31.2784 65.5561 31.5199C65.2341 31.7566 65.0211 32.0549 64.9169 32.4148L62.1186 32.1875C62.2607 31.5246 62.54 30.9517 62.9567 30.4688C63.3733 29.9811 63.9107 29.607 64.5689 29.3466C65.2318 29.0814 65.9988 28.9489 66.87 28.9489C67.4761 28.9489 68.0561 29.0199 68.6101 29.1619C69.1688 29.304 69.6636 29.5241 70.0945 29.8224C70.5301 30.1207 70.8733 30.5043 71.1243 30.973C71.3752 31.437 71.5007 31.9934 71.5007 32.642V40H68.6314V38.4872H68.5462C68.371 38.8281 68.1366 39.1288 67.843 39.3892C67.5495 39.6449 67.1967 39.8461 66.7848 39.9929C66.3729 40.1349 65.897 40.206 65.3572 40.206ZM66.2237 38.1179C66.6688 38.1179 67.0618 38.0303 67.4027 37.8551C67.7436 37.6752 68.0111 37.4337 68.2053 37.1307C68.3994 36.8277 68.4964 36.4844 68.4964 36.1009V34.9432C68.4018 35.0047 68.2715 35.0616 68.1058 35.1136C67.9448 35.161 67.7625 35.206 67.5589 35.2486C67.3554 35.2865 67.1518 35.322 66.9482 35.3551C66.7446 35.3835 66.5599 35.4096 66.3942 35.4332C66.0391 35.4853 65.7289 35.5682 65.4638 35.6818C65.1986 35.7955 64.9927 35.9493 64.8459 36.1435C64.6991 36.3329 64.6257 36.5696 64.6257 36.8537C64.6257 37.2656 64.7749 37.5805 65.0732 37.7983C65.3762 38.0114 65.7597 38.1179 66.2237 38.1179ZM76.8736 33.6932V40H73.848V29.0909H76.7315V31.0156H76.8594C77.1009 30.3812 77.5057 29.8793 78.0739 29.5099C78.642 29.1359 79.331 28.9489 80.1406 28.9489C80.8982 28.9489 81.5587 29.1146 82.1222 29.446C82.6856 29.7775 83.1236 30.2509 83.4361 30.8665C83.7486 31.4773 83.9048 32.2064 83.9048 33.054V40H80.8793V33.5938C80.884 32.9261 80.7135 32.4053 80.3679 32.0312C80.0223 31.6525 79.5464 31.4631 78.9403 31.4631C78.5331 31.4631 78.1733 31.5507 77.8608 31.7259C77.553 31.901 77.3116 32.1567 77.1364 32.4929C76.9659 32.8243 76.8783 33.2244 76.8736 33.6932ZM91.2184 40.2131C90.101 40.2131 89.1398 39.9763 88.3349 39.5028C87.5347 39.0246 86.9192 38.3617 86.4883 37.5142C86.0621 36.6667 85.8491 35.6913 85.8491 34.5881C85.8491 33.4706 86.0645 32.4905 86.4954 31.6477C86.931 30.8002 87.5489 30.1397 88.3491 29.6662C89.1493 29.188 90.101 28.9489 91.2042 28.9489C92.1559 28.9489 92.9892 29.1217 93.7042 29.4673C94.4192 29.813 94.985 30.2983 95.4016 30.9233C95.8183 31.5483 96.0479 32.2822 96.0906 33.125H93.2354C93.1549 32.5805 92.9419 32.1425 92.5962 31.8111C92.2553 31.4749 91.8079 31.3068 91.2539 31.3068C90.7852 31.3068 90.3756 31.4347 90.0252 31.6903C89.6796 31.9413 89.4097 32.3082 89.2156 32.7912C89.0214 33.2741 88.9244 33.8589 88.9244 34.5455C88.9244 35.2415 89.0191 35.8333 89.2085 36.321C89.4026 36.8087 89.6748 37.1804 90.0252 37.4361C90.3756 37.6918 90.7852 37.8196 91.2539 37.8196C91.5996 37.8196 91.9097 37.7486 92.1843 37.6065C92.4637 37.4645 92.6933 37.2585 92.8732 36.9886C93.0579 36.714 93.1786 36.3849 93.2354 36.0014H96.0906C96.0432 36.8348 95.8159 37.5687 95.4087 38.2031C95.0063 38.8329 94.4499 39.3253 93.7397 39.6804C93.0295 40.0355 92.189 40.2131 91.2184 40.2131ZM102.999 40.2131C101.877 40.2131 100.911 39.9858 100.102 39.5312C99.2966 39.072 98.6764 38.4233 98.2408 37.5852C97.8052 36.7424 97.5874 35.7457 97.5874 34.5952C97.5874 33.473 97.8052 32.4882 98.2408 31.6406C98.6764 30.7931 99.2895 30.1326 100.08 29.6591C100.876 29.1856 101.808 28.9489 102.879 28.9489C103.598 28.9489 104.268 29.0649 104.888 29.2969C105.513 29.5241 106.058 29.8674 106.522 30.3267C106.991 30.786 107.355 31.3636 107.616 32.0597C107.876 32.7509 108.006 33.5606 108.006 34.4886V35.3196H98.7947V33.4446H105.158C105.158 33.009 105.064 32.6231 104.874 32.2869C104.685 31.9508 104.422 31.688 104.086 31.4986C103.754 31.3045 103.369 31.2074 102.928 31.2074C102.469 31.2074 102.062 31.3139 101.707 31.527C101.356 31.7353 101.082 32.017 100.883 32.3722C100.684 32.7225 100.582 33.1132 100.577 33.544V35.3267C100.577 35.8665 100.677 36.3329 100.876 36.7259C101.079 37.1188 101.366 37.4219 101.735 37.6349C102.104 37.848 102.542 37.9545 103.049 37.9545C103.385 37.9545 103.693 37.9072 103.972 37.8125C104.252 37.7178 104.491 37.5758 104.69 37.3864C104.888 37.197 105.04 36.965 105.144 36.6903L107.942 36.875C107.8 37.5473 107.509 38.1345 107.069 38.6364C106.633 39.1335 106.07 39.5218 105.379 39.8011C104.692 40.0758 103.899 40.2131 102.999 40.2131ZM113.006 25.4545V40H109.981V25.4545H113.006ZM118.541 40.206C117.845 40.206 117.225 40.0852 116.68 39.8438C116.136 39.5975 115.705 39.2353 115.387 38.7571C115.075 38.2741 114.919 37.6728 114.919 36.9531C114.919 36.3471 115.03 35.8381 115.252 35.4261C115.475 35.0142 115.778 34.6828 116.162 34.4318C116.545 34.1809 116.981 33.9915 117.468 33.8636C117.961 33.7358 118.477 33.6458 119.017 33.5938C119.651 33.5275 120.163 33.4659 120.551 33.4091C120.939 33.3475 121.221 33.2576 121.396 33.1392C121.571 33.0208 121.659 32.8456 121.659 32.6136V32.571C121.659 32.1212 121.517 31.7732 121.233 31.527C120.953 31.2808 120.556 31.1577 120.039 31.1577C119.495 31.1577 119.062 31.2784 118.74 31.5199C118.418 31.7566 118.205 32.0549 118.1 32.4148L115.302 32.1875C115.444 31.5246 115.724 30.9517 116.14 30.4688C116.557 29.9811 117.094 29.607 117.752 29.3466C118.415 29.0814 119.182 28.9489 120.054 28.9489C120.66 28.9489 121.24 29.0199 121.794 29.1619C122.352 29.304 122.847 29.5241 123.278 29.8224C123.714 30.1207 124.057 30.5043 124.308 30.973C124.559 31.437 124.684 31.9934 124.684 32.642V40H121.815V38.4872H121.73C121.555 38.8281 121.32 39.1288 121.027 39.3892C120.733 39.6449 120.38 39.8461 119.968 39.9929C119.556 40.1349 119.081 40.206 118.541 40.206ZM119.407 38.1179C119.852 38.1179 120.245 38.0303 120.586 37.8551C120.927 37.6752 121.195 37.4337 121.389 37.1307C121.583 36.8277 121.68 36.4844 121.68 36.1009V34.9432C121.585 35.0047 121.455 35.0616 121.289 35.1136C121.128 35.161 120.946 35.206 120.743 35.2486C120.539 35.2865 120.335 35.322 120.132 35.3551C119.928 35.3835 119.743 35.4096 119.578 35.4332C119.223 35.4853 118.913 35.5682 118.647 35.6818C118.382 35.7955 118.176 35.9493 118.029 36.1435C117.883 36.3329 117.809 36.5696 117.809 36.8537C117.809 37.2656 117.958 37.5805 118.257 37.7983C118.56 38.0114 118.943 38.1179 119.407 38.1179ZM127.032 40V29.0909H129.965V30.9943H130.078C130.277 30.3172 130.611 29.8059 131.08 29.4602C131.549 29.1098 132.088 28.9347 132.699 28.9347C132.851 28.9347 133.014 28.9441 133.189 28.9631C133.364 28.982 133.518 29.008 133.651 29.0412V31.7259C133.509 31.6832 133.312 31.6454 133.061 31.6122C132.81 31.5791 132.581 31.5625 132.373 31.5625C131.927 31.5625 131.53 31.6596 131.179 31.8537C130.834 32.0431 130.559 32.3082 130.355 32.6491C130.157 32.9901 130.057 33.383 130.057 33.8281V40H127.032ZM147.584 40.206C146.888 40.206 146.268 40.0852 145.723 39.8438C145.179 39.5975 144.748 39.2353 144.43 38.7571C144.118 38.2741 143.962 37.6728 143.962 36.9531C143.962 36.3471 144.073 35.8381 144.295 35.4261C144.518 35.0142 144.821 34.6828 145.205 34.4318C145.588 34.1809 146.024 33.9915 146.511 33.8636C147.004 33.7358 147.52 33.6458 148.06 33.5938C148.694 33.5275 149.205 33.4659 149.594 33.4091C149.982 33.3475 150.264 33.2576 150.439 33.1392C150.614 33.0208 150.702 32.8456 150.702 32.6136V32.571C150.702 32.1212 150.56 31.7732 150.276 31.527C149.996 31.2808 149.598 31.1577 149.082 31.1577C148.538 31.1577 148.105 31.2784 147.783 31.5199C147.461 31.7566 147.248 32.0549 147.143 32.4148L144.345 32.1875C144.487 31.5246 144.767 30.9517 145.183 30.4688C145.6 29.9811 146.137 29.607 146.795 29.3466C147.458 29.0814 148.225 28.9489 149.097 28.9489C149.703 28.9489 150.283 29.0199 150.837 29.1619C151.395 29.304 151.89 29.5241 152.321 29.8224C152.757 30.1207 153.1 30.5043 153.351 30.973C153.602 31.437 153.727 31.9934 153.727 32.642V40H150.858V38.4872H150.773C150.598 38.8281 150.363 39.1288 150.07 39.3892C149.776 39.6449 149.423 39.8461 149.011 39.9929C148.599 40.1349 148.124 40.206 147.584 40.206ZM148.45 38.1179C148.895 38.1179 149.288 38.0303 149.629 37.8551C149.97 37.6752 150.238 37.4337 150.432 37.1307C150.626 36.8277 150.723 36.4844 150.723 36.1009V34.9432C150.628 35.0047 150.498 35.0616 150.332 35.1136C150.171 35.161 149.989 35.206 149.786 35.2486C149.582 35.2865 149.378 35.322 149.175 35.3551C148.971 35.3835 148.786 35.4096 148.621 35.4332C148.266 35.4853 147.955 35.5682 147.69 35.6818C147.425 35.7955 147.219 35.9493 147.072 36.1435C146.926 36.3329 146.852 36.5696 146.852 36.8537C146.852 37.2656 147.001 37.5805 147.3 37.7983C147.603 38.0114 147.986 38.1179 148.45 38.1179ZM159.1 25.4545V40H156.075V25.4545H159.1ZM167.326 29.0909V31.3636H160.757V29.0909H167.326ZM162.248 26.4773H165.274V36.6477C165.274 36.9271 165.316 37.1449 165.402 37.3011C165.487 37.4527 165.605 37.5592 165.757 37.6207C165.913 37.6823 166.093 37.7131 166.297 37.7131C166.439 37.7131 166.581 37.7012 166.723 37.6776C166.865 37.6491 166.974 37.6278 167.049 37.6136L167.525 39.8651C167.374 39.9124 167.161 39.9669 166.886 40.0284C166.611 40.0947 166.278 40.1349 165.885 40.1491C165.155 40.1776 164.516 40.0805 163.967 39.858C163.422 39.6354 162.999 39.2898 162.696 38.821C162.393 38.3523 162.243 37.7604 162.248 37.0455V26.4773ZM174.152 40.2131C173.029 40.2131 172.064 39.9858 171.254 39.5312C170.449 39.072 169.829 38.4233 169.393 37.5852C168.958 36.7424 168.74 35.7457 168.74 34.5952C168.74 33.473 168.958 32.4882 169.393 31.6406C169.829 30.7931 170.442 30.1326 171.233 29.6591C172.028 29.1856 172.961 28.9489 174.031 28.9489C174.751 28.9489 175.421 29.0649 176.041 29.2969C176.666 29.5241 177.21 29.8674 177.674 30.3267C178.143 30.786 178.508 31.3636 178.768 32.0597C179.029 32.7509 179.159 33.5606 179.159 34.4886V35.3196H169.947V33.4446H176.311C176.311 33.009 176.216 32.6231 176.027 32.2869C175.837 31.9508 175.574 31.688 175.238 31.4986C174.907 31.3045 174.521 31.2074 174.081 31.2074C173.621 31.2074 173.214 31.3139 172.859 31.527C172.509 31.7353 172.234 32.017 172.035 32.3722C171.836 32.7225 171.734 33.1132 171.73 33.544V35.3267C171.73 35.8665 171.829 36.3329 172.028 36.7259C172.232 37.1188 172.518 37.4219 172.887 37.6349C173.257 37.848 173.695 37.9545 174.201 37.9545C174.538 37.9545 174.845 37.9072 175.125 37.8125C175.404 37.7178 175.643 37.5758 175.842 37.3864C176.041 37.197 176.192 36.965 176.297 36.6903L179.095 36.875C178.953 37.5473 178.662 38.1345 178.221 38.6364C177.786 39.1335 177.222 39.5218 176.531 39.8011C175.844 40.0758 175.051 40.2131 174.152 40.2131ZM181.133 40V29.0909H184.066V30.9943H184.18C184.379 30.3172 184.713 29.8059 185.181 29.4602C185.65 29.1098 186.19 28.9347 186.801 28.9347C186.952 28.9347 187.116 28.9441 187.291 28.9631C187.466 28.982 187.62 29.008 187.752 29.0412V31.7259C187.61 31.6832 187.414 31.6454 187.163 31.6122C186.912 31.5791 186.682 31.5625 186.474 31.5625C186.029 31.5625 185.631 31.6596 185.281 31.8537C184.935 32.0431 184.661 32.3082 184.457 32.6491C184.258 32.9901 184.159 33.383 184.159 33.8281V40H181.133ZM192.115 40.206C191.419 40.206 190.799 40.0852 190.254 39.8438C189.71 39.5975 189.279 39.2353 188.962 38.7571C188.649 38.2741 188.493 37.6728 188.493 36.9531C188.493 36.3471 188.604 35.8381 188.827 35.4261C189.049 35.0142 189.352 34.6828 189.736 34.4318C190.119 34.1809 190.555 33.9915 191.043 33.8636C191.535 33.7358 192.051 33.6458 192.591 33.5938C193.225 33.5275 193.737 33.4659 194.125 33.4091C194.513 33.3475 194.795 33.2576 194.97 33.1392C195.145 33.0208 195.233 32.8456 195.233 32.6136V32.571C195.233 32.1212 195.091 31.7732 194.807 31.527C194.527 31.2808 194.13 31.1577 193.614 31.1577C193.069 31.1577 192.636 31.2784 192.314 31.5199C191.992 31.7566 191.779 32.0549 191.675 32.4148L188.876 32.1875C189.018 31.5246 189.298 30.9517 189.714 30.4688C190.131 29.9811 190.669 29.607 191.327 29.3466C191.99 29.0814 192.757 28.9489 193.628 28.9489C194.234 28.9489 194.814 29.0199 195.368 29.1619C195.927 29.304 196.421 29.5241 196.852 29.8224C197.288 30.1207 197.631 30.5043 197.882 30.973C198.133 31.437 198.259 31.9934 198.259 32.642V40H195.389V38.4872H195.304C195.129 38.8281 194.894 39.1288 194.601 39.3892C194.307 39.6449 193.955 39.8461 193.543 39.9929C193.131 40.1349 192.655 40.206 192.115 40.206ZM192.982 38.1179C193.427 38.1179 193.82 38.0303 194.161 37.8551C194.501 37.6752 194.769 37.4337 194.963 37.1307C195.157 36.8277 195.254 36.4844 195.254 36.1009V34.9432C195.16 35.0047 195.029 35.0616 194.864 35.1136C194.703 35.161 194.52 35.206 194.317 35.2486C194.113 35.2865 193.91 35.322 193.706 35.3551C193.502 35.3835 193.318 35.4096 193.152 35.4332C192.797 35.4853 192.487 35.5682 192.222 35.6818C191.956 35.7955 191.75 35.9493 191.604 36.1435C191.457 36.3329 191.384 36.5696 191.384 36.8537C191.384 37.2656 191.533 37.5805 191.831 37.7983C192.134 38.0114 192.518 38.1179 192.982 38.1179ZM205.535 40.2131C204.417 40.2131 203.456 39.9763 202.651 39.5028C201.851 39.0246 201.236 38.3617 200.805 37.5142C200.379 36.6667 200.165 35.6913 200.165 34.5881C200.165 33.4706 200.381 32.4905 200.812 31.6477C201.247 30.8002 201.865 30.1397 202.665 29.6662C203.466 29.188 204.417 28.9489 205.521 28.9489C206.472 28.9489 207.306 29.1217 208.021 29.4673C208.736 29.813 209.301 30.2983 209.718 30.9233C210.135 31.5483 210.364 32.2822 210.407 33.125H207.552C207.471 32.5805 207.258 32.1425 206.913 31.8111C206.572 31.4749 206.124 31.3068 205.57 31.3068C205.102 31.3068 204.692 31.4347 204.342 31.6903C203.996 31.9413 203.726 32.3082 203.532 32.7912C203.338 33.2741 203.241 33.8589 203.241 34.5455C203.241 35.2415 203.335 35.8333 203.525 36.321C203.719 36.8087 203.991 37.1804 204.342 37.4361C204.692 37.6918 205.102 37.8196 205.57 37.8196C205.916 37.8196 206.226 37.7486 206.501 37.6065C206.78 37.4645 207.01 37.2585 207.19 36.9886C207.374 36.714 207.495 36.3849 207.552 36.0014H210.407C210.36 36.8348 210.132 37.5687 209.725 38.2031C209.323 38.8329 208.766 39.3253 208.056 39.6804C207.346 40.0355 206.505 40.2131 205.535 40.2131ZM204.825 39.9432H206.217L206.103 40.5611C206.591 40.6368 206.988 40.8191 207.296 41.108C207.609 41.3968 207.767 41.7898 207.772 42.2869C207.777 42.9924 207.45 43.5535 206.792 43.9702C206.134 44.3916 205.21 44.6023 204.022 44.6023L203.994 43.2528C204.59 43.2528 205.057 43.1795 205.393 43.0327C205.734 42.8906 205.911 42.6681 205.925 42.3651C205.935 42.0762 205.824 41.8561 205.592 41.7045C205.36 41.553 204.997 41.4465 204.505 41.3849L204.825 39.9432ZM215.455 40.206C214.759 40.206 214.139 40.0852 213.594 39.8438C213.05 39.5975 212.619 39.2353 212.301 38.7571C211.989 38.2741 211.833 37.6728 211.833 36.9531C211.833 36.3471 211.944 35.8381 212.167 35.4261C212.389 35.0142 212.692 34.6828 213.076 34.4318C213.459 34.1809 213.895 33.9915 214.382 33.8636C214.875 33.7358 215.391 33.6458 215.931 33.5938C216.565 33.5275 217.077 33.4659 217.465 33.4091C217.853 33.3475 218.135 33.2576 218.31 33.1392C218.485 33.0208 218.573 32.8456 218.573 32.6136V32.571C218.573 32.1212 218.431 31.7732 218.147 31.527C217.867 31.2808 217.47 31.1577 216.953 31.1577C216.409 31.1577 215.976 31.2784 215.654 31.5199C215.332 31.7566 215.119 32.0549 215.015 32.4148L212.216 32.1875C212.358 31.5246 212.638 30.9517 213.054 30.4688C213.471 29.9811 214.008 29.607 214.667 29.3466C215.329 29.0814 216.096 28.9489 216.968 28.9489C217.574 28.9489 218.154 29.0199 218.708 29.1619C219.266 29.304 219.761 29.5241 220.192 29.8224C220.628 30.1207 220.971 30.5043 221.222 30.973C221.473 31.437 221.598 31.9934 221.598 32.642V40H218.729V38.4872H218.644C218.469 38.8281 218.234 39.1288 217.941 39.3892C217.647 39.6449 217.294 39.8461 216.882 39.9929C216.471 40.1349 215.995 40.206 215.455 40.206ZM216.321 38.1179C216.766 38.1179 217.159 38.0303 217.5 37.8551C217.841 37.6752 218.109 37.4337 218.303 37.1307C218.497 36.8277 218.594 36.4844 218.594 36.1009V34.9432C218.499 35.0047 218.369 35.0616 218.203 35.1136C218.042 35.161 217.86 35.206 217.657 35.2486C217.453 35.2865 217.249 35.322 217.046 35.3551C216.842 35.3835 216.658 35.4096 216.492 35.4332C216.137 35.4853 215.827 35.5682 215.561 35.6818C215.296 35.7955 215.09 35.9493 214.944 36.1435C214.797 36.3329 214.723 36.5696 214.723 36.8537C214.723 37.2656 214.873 37.5805 215.171 37.7983C215.474 38.0114 215.857 38.1179 216.321 38.1179ZM215.05 27.7486L213.367 27.7273C213.367 26.8229 213.589 26.1293 214.034 25.6463C214.484 25.1634 215.031 24.9195 215.675 24.9148C216.007 24.9148 216.291 24.9692 216.527 25.0781C216.769 25.1823 216.984 25.3054 217.174 25.4474C217.368 25.5895 217.552 25.715 217.728 25.8239C217.903 25.928 218.092 25.9801 218.296 25.9801C218.57 25.9754 218.779 25.8736 218.921 25.6747C219.068 25.4711 219.141 25.206 219.141 24.8793L220.796 24.929C220.786 25.8239 220.559 26.5152 220.114 27.0028C219.669 27.4858 219.127 27.7296 218.488 27.7344C218.132 27.7344 217.834 27.6823 217.593 27.5781C217.356 27.4692 217.148 27.3461 216.968 27.2088C216.788 27.0668 216.613 26.9413 216.442 26.8324C216.272 26.7235 216.08 26.669 215.867 26.669C215.621 26.669 215.422 26.7661 215.27 26.9602C215.123 27.1544 215.05 27.4171 215.05 27.7486ZM228.875 40.2131C227.771 40.2131 226.817 39.9787 226.012 39.5099C225.212 39.0365 224.594 38.3783 224.159 37.5355C223.723 36.688 223.505 35.7055 223.505 34.5881C223.505 33.4612 223.723 32.4763 224.159 31.6335C224.594 30.786 225.212 30.1278 226.012 29.6591C226.817 29.1856 227.771 28.9489 228.875 28.9489C229.978 28.9489 230.93 29.1856 231.73 29.6591C232.535 30.1278 233.155 30.786 233.591 31.6335C234.026 32.4763 234.244 33.4612 234.244 34.5881C234.244 35.7055 234.026 36.688 233.591 37.5355C233.155 38.3783 232.535 39.0365 231.73 39.5099C230.93 39.9787 229.978 40.2131 228.875 40.2131ZM228.889 37.8693C229.391 37.8693 229.81 37.7273 230.146 37.4432C230.482 37.1544 230.735 36.7614 230.906 36.2642C231.081 35.767 231.169 35.2012 231.169 34.5668C231.169 33.9323 231.081 33.3665 230.906 32.8693C230.735 32.3722 230.482 31.9792 230.146 31.6903C229.81 31.4015 229.391 31.2571 228.889 31.2571C228.382 31.2571 227.956 31.4015 227.61 31.6903C227.27 31.9792 227.011 32.3722 226.836 32.8693C226.666 33.3665 226.581 33.9323 226.581 34.5668C226.581 35.2012 226.666 35.767 226.836 36.2642C227.011 36.7614 227.27 37.1544 227.61 37.4432C227.956 37.7273 228.382 37.8693 228.889 37.8693Z" fill="white"/>
<defs>
<filter id="filter0_d_44_384" x="0" y="0" width="298" height="68" filterUnits="userSpaceOnUse" color-interpolation-filters="sRGB">
<feFlood flood-opacity="0" result="BackgroundImageFix"/>
<feColorMatrix in="SourceAlpha" type="matrix" values="0 0 0 0 0 0 0 0 0 0 0 0 0 0 0 0 0 0 127 0" result="hardAlpha"/>
<feOffset dy="1"/>
<feGaussianBlur stdDeviation="2"/>
<feComposite in2="hardAlpha" operator="out"/>
<feColorMatrix type="matrix" values="0 0 0 0 0 0 0 0 0 0 0 0 0 0 0 0 0 0 0.25 0"/>
<feBlend mode="normal" in2="BackgroundImageFix" result="effect1_dropShadow_44_384"/>
<feBlend mode="normal" in="SourceGraphic" in2="effect1_dropShadow_44_384" result="shape"/>
</filter>
</defs>
</svg>
