<svg width="295" height="50" viewBox="0 0 295 50" fill="none" xmlns="http://www.w3.org/2000/svg">
<g filter="url(#filter0_d_66_95)">
<rect x="4" y="3" width="287" height="42" rx="5" fill="#00BF00"/>
</g>
<path d="M79.358 31H77.5114L82.8523 16.4545H84.6705L90.0114 31H88.1648L83.8182 18.7557H83.7045L79.358 31ZM80.0398 25.3182H87.483V26.8807H80.0398V25.3182ZM93.7259 16.4545V31H92.0497V16.4545H93.7259ZM101.54 20.0909V21.5114H95.8867V20.0909H101.54ZM97.5344 17.4773H99.2106V27.875C99.2106 28.3485 99.2792 28.7036 99.4165 28.9403C99.5586 29.1723 99.7385 29.3286 99.9563 29.4091C100.179 29.4848 100.413 29.5227 100.659 29.5227C100.844 29.5227 100.996 29.5133 101.114 29.4943C101.232 29.4706 101.327 29.4517 101.398 29.4375L101.739 30.9432C101.625 30.9858 101.467 31.0284 101.263 31.071C101.06 31.1184 100.801 31.142 100.489 31.142C100.016 31.142 99.5515 31.0402 99.0969 30.8366C98.6471 30.633 98.2731 30.3229 97.9748 29.9062C97.6812 29.4896 97.5344 28.964 97.5344 28.3295V17.4773ZM108.518 31.2273C107.467 31.2273 106.56 30.9953 105.798 30.5312C105.04 30.0625 104.456 29.4091 104.044 28.571C103.636 27.7282 103.433 26.7481 103.433 25.6307C103.433 24.5133 103.636 23.5284 104.044 22.6761C104.456 21.8191 105.029 21.1515 105.762 20.6733C106.501 20.1903 107.363 19.9489 108.348 19.9489C108.916 19.9489 109.477 20.0436 110.031 20.233C110.585 20.4223 111.089 20.7301 111.544 21.1562C111.998 21.5777 112.36 22.1364 112.63 22.8324C112.9 23.5284 113.035 24.3854 113.035 25.4034V26.1136H104.626V24.6648H111.331C111.331 24.0492 111.208 23.5 110.961 23.017C110.72 22.5341 110.374 22.1529 109.924 21.8736C109.479 21.5942 108.954 21.4545 108.348 21.4545C107.68 21.4545 107.102 21.6203 106.615 21.9517C106.132 22.2784 105.76 22.7045 105.5 23.2301C105.239 23.7557 105.109 24.3191 105.109 24.9205V25.8864C105.109 26.7102 105.251 27.4086 105.535 27.9815C105.824 28.5497 106.224 28.983 106.735 29.2812C107.247 29.5748 107.841 29.7216 108.518 29.7216C108.958 29.7216 109.356 29.66 109.711 29.5369C110.071 29.4091 110.381 29.2197 110.642 28.9688C110.902 28.7131 111.103 28.3958 111.245 28.017L112.865 28.4716C112.694 29.0208 112.408 29.5038 112.005 29.9205C111.603 30.3324 111.106 30.6544 110.514 30.8864C109.922 31.1136 109.257 31.2273 108.518 31.2273ZM115.585 31V20.0909H117.204V21.7386H117.318C117.517 21.1989 117.877 20.7609 118.397 20.4247C118.918 20.0885 119.505 19.9205 120.159 19.9205C120.282 19.9205 120.436 19.9228 120.62 19.9276C120.805 19.9323 120.945 19.9394 121.039 19.9489V21.6534C120.983 21.6392 120.852 21.6179 120.649 21.5895C120.45 21.5563 120.239 21.5398 120.017 21.5398C119.486 21.5398 119.013 21.651 118.596 21.8736C118.184 22.0914 117.858 22.3944 117.616 22.7827C117.379 23.1662 117.261 23.6042 117.261 24.0966V31H115.585ZM126.237 31.2557C125.545 31.2557 124.918 31.1255 124.354 30.8651C123.791 30.5999 123.344 30.2188 123.012 29.7216C122.681 29.2197 122.515 28.6136 122.515 27.9034C122.515 27.2784 122.638 26.7718 122.884 26.3835C123.13 25.9905 123.46 25.6828 123.871 25.4602C124.283 25.2377 124.738 25.072 125.235 24.9631C125.737 24.8494 126.241 24.7595 126.748 24.6932C127.411 24.608 127.948 24.544 128.36 24.5014C128.777 24.4541 129.08 24.3759 129.269 24.267C129.463 24.1581 129.56 23.9687 129.56 23.6989V23.642C129.56 22.9413 129.369 22.3968 128.985 22.0085C128.606 21.6203 128.031 21.4261 127.259 21.4261C126.459 21.4261 125.832 21.6013 125.377 21.9517C124.923 22.3021 124.603 22.6761 124.418 23.0739L122.827 22.5057C123.112 21.8428 123.49 21.3267 123.964 20.9574C124.442 20.5833 124.963 20.3229 125.526 20.1761C126.094 20.0246 126.653 19.9489 127.202 19.9489C127.553 19.9489 127.955 19.9915 128.41 20.0767C128.869 20.1572 129.312 20.3253 129.738 20.581C130.169 20.8366 130.526 21.2225 130.81 21.7386C131.094 22.2547 131.237 22.946 131.237 23.8125V31H129.56V29.5227H129.475C129.362 29.7595 129.172 30.0128 128.907 30.2827C128.642 30.5526 128.289 30.7822 127.849 30.9716C127.408 31.161 126.871 31.2557 126.237 31.2557ZM126.492 29.75C127.155 29.75 127.714 29.6198 128.168 29.3594C128.628 29.099 128.973 28.7628 129.205 28.3509C129.442 27.9389 129.56 27.5057 129.56 27.0511V25.517C129.489 25.6023 129.333 25.6804 129.092 25.7514C128.855 25.8177 128.58 25.8769 128.268 25.929C127.96 25.9763 127.659 26.0189 127.366 26.0568C127.077 26.09 126.843 26.1184 126.663 26.142C126.227 26.1989 125.82 26.2912 125.441 26.419C125.067 26.5421 124.764 26.7292 124.532 26.9801C124.305 27.2263 124.191 27.5625 124.191 27.9886C124.191 28.571 124.406 29.0114 124.837 29.3097C125.273 29.6032 125.825 29.75 126.492 29.75ZM134.296 31V20.0909H135.915V21.7386H136.029C136.228 21.1989 136.587 20.7609 137.108 20.4247C137.629 20.0885 138.216 19.9205 138.87 19.9205C138.993 19.9205 139.147 19.9228 139.331 19.9276C139.516 19.9323 139.656 19.9394 139.75 19.9489V21.6534C139.694 21.6392 139.563 21.6179 139.36 21.5895C139.161 21.5563 138.95 21.5398 138.728 21.5398C138.197 21.5398 137.724 21.651 137.307 21.8736C136.895 22.0914 136.569 22.3944 136.327 22.7827C136.09 23.1662 135.972 23.6042 135.972 24.0966V31H134.296ZM151.482 31.2273C150.572 31.2273 149.77 30.9976 149.074 30.5384C148.378 30.0743 147.833 29.4209 147.44 28.5781C147.047 27.7306 146.851 26.7292 146.851 25.5739C146.851 24.428 147.047 23.4337 147.44 22.5909C147.833 21.7481 148.38 21.0971 149.081 20.6378C149.782 20.1785 150.591 19.9489 151.51 19.9489C152.22 19.9489 152.781 20.0672 153.193 20.304C153.61 20.536 153.927 20.8011 154.145 21.0994C154.367 21.393 154.54 21.6345 154.663 21.8239H154.805V16.4545H156.482V31H154.862V29.3239H154.663C154.54 29.5227 154.365 29.7737 154.138 30.0767C153.911 30.375 153.586 30.6425 153.165 30.8793C152.743 31.1113 152.182 31.2273 151.482 31.2273ZM151.709 29.7216C152.381 29.7216 152.949 29.5464 153.413 29.196C153.877 28.8409 154.23 28.3509 154.472 27.7259C154.713 27.0961 154.834 26.3693 154.834 25.5455C154.834 24.7311 154.715 24.0185 154.479 23.4077C154.242 22.7921 153.892 22.3139 153.428 21.973C152.964 21.6274 152.391 21.4545 151.709 21.4545C150.999 21.4545 150.407 21.6368 149.933 22.0014C149.464 22.3613 149.112 22.8513 148.875 23.4716C148.643 24.0871 148.527 24.7784 148.527 25.5455C148.527 26.322 148.645 27.0275 148.882 27.6619C149.124 28.2917 149.479 28.7936 149.947 29.1676C150.421 29.5369 151.008 29.7216 151.709 29.7216ZM162.994 31.2557C162.303 31.2557 161.676 31.1255 161.112 30.8651C160.549 30.5999 160.101 30.2188 159.77 29.7216C159.438 29.2197 159.273 28.6136 159.273 27.9034C159.273 27.2784 159.396 26.7718 159.642 26.3835C159.888 25.9905 160.217 25.6828 160.629 25.4602C161.041 25.2377 161.496 25.072 161.993 24.9631C162.495 24.8494 162.999 24.7595 163.506 24.6932C164.169 24.608 164.706 24.544 165.118 24.5014C165.535 24.4541 165.838 24.3759 166.027 24.267C166.221 24.1581 166.318 23.9687 166.318 23.6989V23.642C166.318 22.9413 166.126 22.3968 165.743 22.0085C165.364 21.6203 164.789 21.4261 164.017 21.4261C163.217 21.4261 162.589 21.6013 162.135 21.9517C161.68 22.3021 161.361 22.6761 161.176 23.0739L159.585 22.5057C159.869 21.8428 160.248 21.3267 160.722 20.9574C161.2 20.5833 161.721 20.3229 162.284 20.1761C162.852 20.0246 163.411 19.9489 163.96 19.9489C164.311 19.9489 164.713 19.9915 165.168 20.0767C165.627 20.1572 166.07 20.3253 166.496 20.581C166.927 20.8366 167.284 21.2225 167.568 21.7386C167.852 22.2547 167.994 22.946 167.994 23.8125V31H166.318V29.5227H166.233C166.119 29.7595 165.93 30.0128 165.665 30.2827C165.4 30.5526 165.047 30.7822 164.607 30.9716C164.166 31.161 163.629 31.2557 162.994 31.2557ZM163.25 29.75C163.913 29.75 164.472 29.6198 164.926 29.3594C165.385 29.099 165.731 28.7628 165.963 28.3509C166.2 27.9389 166.318 27.5057 166.318 27.0511V25.517C166.247 25.6023 166.091 25.6804 165.849 25.7514C165.613 25.8177 165.338 25.8769 165.026 25.929C164.718 25.9763 164.417 26.0189 164.124 26.0568C163.835 26.09 163.6 26.1184 163.42 26.142C162.985 26.1989 162.578 26.2912 162.199 26.419C161.825 26.5421 161.522 26.7292 161.29 26.9801C161.063 27.2263 160.949 27.5625 160.949 27.9886C160.949 28.571 161.164 29.0114 161.595 29.3097C162.031 29.6032 162.582 29.75 163.25 29.75ZM175.173 31.2273C174.264 31.2273 173.461 30.9976 172.765 30.5384C172.069 30.0743 171.525 29.4209 171.132 28.5781C170.739 27.7306 170.542 26.7292 170.542 25.5739C170.542 24.428 170.739 23.4337 171.132 22.5909C171.525 21.7481 172.072 21.0971 172.772 20.6378C173.473 20.1785 174.283 19.9489 175.201 19.9489C175.912 19.9489 176.473 20.0672 176.885 20.304C177.301 20.536 177.618 20.8011 177.836 21.0994C178.059 21.393 178.232 21.6345 178.355 21.8239H178.497V16.4545H180.173V31H178.554V29.3239H178.355C178.232 29.5227 178.056 29.7737 177.829 30.0767C177.602 30.375 177.278 30.6425 176.856 30.8793C176.435 31.1113 175.874 31.2273 175.173 31.2273ZM175.4 29.7216C176.073 29.7216 176.641 29.5464 177.105 29.196C177.569 28.8409 177.922 28.3509 178.163 27.7259C178.404 27.0961 178.525 26.3693 178.525 25.5455C178.525 24.7311 178.407 24.0185 178.17 23.4077C177.933 22.7921 177.583 22.3139 177.119 21.973C176.655 21.6274 176.082 21.4545 175.4 21.4545C174.69 21.4545 174.098 21.6368 173.625 22.0014C173.156 22.3613 172.803 22.8513 172.566 23.4716C172.334 24.0871 172.218 24.7784 172.218 25.5455C172.218 26.322 172.337 27.0275 172.574 27.6619C172.815 28.2917 173.17 28.7936 173.639 29.1676C174.112 29.5369 174.699 29.7216 175.4 29.7216ZM187.907 31.2273C186.922 31.2273 186.058 30.9929 185.315 30.5241C184.576 30.0554 183.999 29.3996 183.582 28.5568C183.17 27.714 182.964 26.7292 182.964 25.6023C182.964 24.4659 183.17 23.474 183.582 22.6264C183.999 21.7789 184.576 21.1207 185.315 20.652C186.058 20.1832 186.922 19.9489 187.907 19.9489C188.892 19.9489 189.754 20.1832 190.493 20.652C191.236 21.1207 191.814 21.7789 192.225 22.6264C192.642 23.474 192.85 24.4659 192.85 25.6023C192.85 26.7292 192.642 27.714 192.225 28.5568C191.814 29.3996 191.236 30.0554 190.493 30.5241C189.754 30.9929 188.892 31.2273 187.907 31.2273ZM187.907 29.7216C188.655 29.7216 189.271 29.5298 189.754 29.1463C190.237 28.7628 190.594 28.2585 190.826 27.6335C191.058 27.0085 191.174 26.3314 191.174 25.6023C191.174 24.8731 191.058 24.1937 190.826 23.5639C190.594 22.9342 190.237 22.4252 189.754 22.0369C189.271 21.6487 188.655 21.4545 187.907 21.4545C187.159 21.4545 186.544 21.6487 186.061 22.0369C185.578 22.4252 185.22 22.9342 184.988 23.5639C184.756 24.1937 184.64 24.8731 184.64 25.6023C184.64 26.3314 184.756 27.0085 184.988 27.6335C185.22 28.2585 185.578 28.7628 186.061 29.1463C186.544 29.5298 187.159 29.7216 187.907 29.7216ZM203.136 22.5341L201.631 22.9602C201.536 22.7093 201.396 22.4654 201.212 22.2287C201.032 21.9872 200.786 21.7884 200.473 21.6321C200.161 21.4759 199.76 21.3977 199.273 21.3977C198.605 21.3977 198.049 21.5516 197.604 21.8594C197.163 22.1624 196.943 22.5483 196.943 23.017C196.943 23.4337 197.095 23.7628 197.398 24.0043C197.701 24.2457 198.174 24.447 198.818 24.608L200.438 25.0057C201.413 25.2424 202.14 25.6046 202.618 26.0923C203.096 26.5753 203.335 27.1979 203.335 27.9602C203.335 28.5852 203.155 29.1439 202.795 29.6364C202.44 30.1288 201.943 30.517 201.304 30.8011C200.665 31.0852 199.921 31.2273 199.074 31.2273C197.961 31.2273 197.04 30.9858 196.311 30.5028C195.582 30.0199 195.12 29.3144 194.926 28.3864L196.517 27.9886C196.669 28.5758 196.955 29.0161 197.376 29.3097C197.803 29.6032 198.359 29.75 199.045 29.75C199.827 29.75 200.447 29.5843 200.906 29.2528C201.37 28.9167 201.602 28.5142 201.602 28.0455C201.602 27.6667 201.47 27.3494 201.205 27.0938C200.939 26.8333 200.532 26.6392 199.983 26.5114L198.165 26.0852C197.166 25.8485 196.432 25.4815 195.963 24.9844C195.499 24.4825 195.267 23.8551 195.267 23.1023C195.267 22.4867 195.44 21.9422 195.786 21.4688C196.136 20.9953 196.612 20.6236 197.213 20.3537C197.819 20.0838 198.506 19.9489 199.273 19.9489C200.352 19.9489 201.2 20.1856 201.815 20.6591C202.436 21.1326 202.876 21.7576 203.136 22.5341Z" fill="black"/>
<path d="M255.502 23.0019C257.093 23.0019 258.62 22.3696 259.745 21.2442C260.87 20.1188 261.503 18.5925 261.503 17.0009C261.503 15.4094 260.87 13.883 259.745 12.7576C258.62 11.6322 257.093 11 255.502 11C253.91 11 252.384 11.6322 251.258 12.7576C250.133 13.883 249.501 15.4094 249.501 17.0009C249.501 18.5925 250.133 20.1188 251.258 21.2442C252.384 22.3696 253.91 23.0019 255.502 23.0019ZM253.359 25.2522C248.741 25.2522 245 28.9934 245 33.6113C245 34.3802 245.624 35.0037 246.392 35.0037H260.134C259.988 34.5912 259.96 34.1411 260.068 33.7004L260.771 30.8828C260.902 30.353 261.174 29.8748 261.559 29.4904L263.448 27.601C261.943 26.1477 259.899 25.2522 257.639 25.2522H253.354H253.359ZM273.776 22.0502C273.045 21.3188 271.859 21.3188 271.123 22.0502L269.744 23.4285L273.073 26.7571L274.451 25.3788C275.183 24.6474 275.183 23.4613 274.451 22.7253L273.776 22.0502ZM262.623 30.5499C262.431 30.7421 262.295 30.9812 262.229 31.2485L261.526 34.0661C261.46 34.324 261.535 34.5912 261.723 34.7787C261.91 34.9662 262.178 35.0413 262.436 34.9756L265.253 34.2724C265.516 34.2067 265.759 34.0708 265.952 33.8786L272.009 27.8167L268.68 24.488L262.623 30.5499Z" fill="black"/>
<defs>
<filter id="filter0_d_66_95" x="0" y="0" width="295" height="50" filterUnits="userSpaceOnUse" color-interpolation-filters="sRGB">
<feFlood flood-opacity="0" result="BackgroundImageFix"/>
<feColorMatrix in="SourceAlpha" type="matrix" values="0 0 0 0 0 0 0 0 0 0 0 0 0 0 0 0 0 0 127 0" result="hardAlpha"/>
<feOffset dy="1"/>
<feGaussianBlur stdDeviation="2"/>
<feComposite in2="hardAlpha" operator="out"/>
<feColorMatrix type="matrix" values="0 0 0 0 0 0 0 0 0 0 0 0 0 0 0 0 0 0 0.25 0"/>
<feBlend mode="normal" in2="BackgroundImageFix" result="effect1_dropShadow_66_95"/>
<feBlend mode="normal" in="SourceGraphic" in2="effect1_dropShadow_66_95" result="shape"/>
</filter>
</defs>
</svg>
