<svg width="298" height="68" viewBox="0 0 298 68" fill="none" xmlns="http://www.w3.org/2000/svg">
<g filter="url(#filter0_d_37_108)">
<rect x="4" y="3" width="290" height="60" rx="5" fill="#019DC9" fill-opacity="0.15" shape-rendering="crispEdges"/>
</g>
<path d="M113.466 29H111.705C111.6 28.4934 111.418 28.0483 111.158 27.6648C110.902 27.2812 110.589 26.9593 110.22 26.6989C109.856 26.4337 109.451 26.2348 109.006 26.1023C108.561 25.9697 108.097 25.9034 107.614 25.9034C106.733 25.9034 105.935 26.1259 105.22 26.571C104.51 27.0161 103.944 27.6719 103.523 28.5384C103.106 29.4048 102.898 30.4678 102.898 31.7273C102.898 32.9867 103.106 34.0497 103.523 34.9162C103.944 35.7827 104.51 36.4384 105.22 36.8835C105.935 37.3286 106.733 37.5511 107.614 37.5511C108.097 37.5511 108.561 37.4848 109.006 37.3523C109.451 37.2197 109.856 37.0232 110.22 36.7628C110.589 36.4976 110.902 36.1733 111.158 35.7898C111.418 35.4015 111.6 34.9564 111.705 34.4545H113.466C113.333 35.1979 113.092 35.8632 112.741 36.4503C112.391 37.0374 111.955 37.5369 111.435 37.9489C110.914 38.3561 110.329 38.6662 109.68 38.8793C109.036 39.0923 108.348 39.1989 107.614 39.1989C106.373 39.1989 105.27 38.8958 104.304 38.2898C103.338 37.6837 102.578 36.822 102.024 35.7045C101.47 34.5871 101.193 33.2614 101.193 31.7273C101.193 30.1932 101.47 28.8674 102.024 27.75C102.578 26.6326 103.338 25.7708 104.304 25.1648C105.27 24.5587 106.373 24.2557 107.614 24.2557C108.348 24.2557 109.036 24.3622 109.68 24.5753C110.329 24.7884 110.914 25.1009 111.435 25.5128C111.955 25.92 112.391 26.4171 112.741 27.0043C113.092 27.5866 113.333 28.2519 113.466 29ZM120.517 39.2273C119.532 39.2273 118.668 38.9929 117.924 38.5241C117.186 38.0554 116.608 37.3996 116.191 36.5568C115.779 35.714 115.574 34.7292 115.574 33.6023C115.574 32.4659 115.779 31.474 116.191 30.6264C116.608 29.7789 117.186 29.1207 117.924 28.652C118.668 28.1832 119.532 27.9489 120.517 27.9489C121.502 27.9489 122.363 28.1832 123.102 28.652C123.845 29.1207 124.423 29.7789 124.835 30.6264C125.252 31.474 125.46 32.4659 125.46 33.6023C125.46 34.7292 125.252 35.714 124.835 36.5568C124.423 37.3996 123.845 38.0554 123.102 38.5241C122.363 38.9929 121.502 39.2273 120.517 39.2273ZM120.517 37.7216C121.265 37.7216 121.88 37.5298 122.363 37.1463C122.846 36.7628 123.204 36.2585 123.436 35.6335C123.668 35.0085 123.784 34.3314 123.784 33.6023C123.784 32.8731 123.668 32.1937 123.436 31.5639C123.204 30.9342 122.846 30.4252 122.363 30.0369C121.88 29.6487 121.265 29.4545 120.517 29.4545C119.769 29.4545 119.153 29.6487 118.67 30.0369C118.187 30.4252 117.83 30.9342 117.598 31.5639C117.366 32.1937 117.25 32.8731 117.25 33.6023C117.25 34.3314 117.366 35.0085 117.598 35.6335C117.83 36.2585 118.187 36.7628 118.67 37.1463C119.153 37.5298 119.769 37.7216 120.517 37.7216ZM129.695 32.4375V39H128.018V28.0909H129.638V29.7955H129.78C130.036 29.2415 130.424 28.7964 130.945 28.4602C131.465 28.1193 132.138 27.9489 132.962 27.9489C133.7 27.9489 134.347 28.1004 134.901 28.4034C135.455 28.7017 135.885 29.1562 136.193 29.767C136.501 30.3731 136.655 31.1402 136.655 32.0682V39H134.979V32.1818C134.979 31.3248 134.756 30.6572 134.311 30.179C133.866 29.696 133.255 29.4545 132.479 29.4545C131.944 29.4545 131.465 29.5705 131.044 29.8026C130.627 30.0346 130.298 30.3731 130.057 30.8182C129.815 31.2633 129.695 31.803 129.695 32.4375ZM144.576 28.0909V29.5114H138.695V28.0909H144.576ZM140.456 39V26.5852C140.456 25.9602 140.603 25.4394 140.897 25.0227C141.19 24.6061 141.571 24.2936 142.04 24.0852C142.509 23.8769 143.004 23.7727 143.525 23.7727C143.936 23.7727 144.273 23.8059 144.533 23.8722C144.793 23.9384 144.988 24 145.115 24.0568L144.632 25.5057C144.547 25.4773 144.429 25.4418 144.277 25.3991C144.131 25.3565 143.936 25.3352 143.695 25.3352C143.141 25.3352 142.741 25.4749 142.495 25.7543C142.253 26.0336 142.132 26.4432 142.132 26.983V39H140.456ZM146.925 39V28.0909H148.601V39H146.925ZM147.777 26.2727C147.45 26.2727 147.169 26.1615 146.932 25.9389C146.7 25.7164 146.584 25.4489 146.584 25.1364C146.584 24.8239 146.7 24.5563 146.932 24.3338C147.169 24.1113 147.45 24 147.777 24C148.104 24 148.383 24.1113 148.615 24.3338C148.852 24.5563 148.97 24.8239 148.97 25.1364C148.97 25.4489 148.852 25.7164 148.615 25.9389C148.383 26.1615 148.104 26.2727 147.777 26.2727ZM151.671 39V28.0909H153.29V29.7386H153.404C153.603 29.1989 153.962 28.7609 154.483 28.4247C155.004 28.0885 155.591 27.9205 156.245 27.9205C156.368 27.9205 156.522 27.9228 156.706 27.9276C156.891 27.9323 157.031 27.9394 157.125 27.9489V29.6534C157.069 29.6392 156.938 29.6179 156.735 29.5895C156.536 29.5563 156.325 29.5398 156.103 29.5398C155.572 29.5398 155.099 29.651 154.682 29.8736C154.27 30.0914 153.944 30.3944 153.702 30.7827C153.465 31.1662 153.347 31.6042 153.347 32.0966V39H151.671ZM159.112 39V28.0909H160.732V29.7955H160.874C161.101 29.2131 161.468 28.7609 161.974 28.4389C162.481 28.1122 163.089 27.9489 163.8 27.9489C164.519 27.9489 165.118 28.1122 165.597 28.4389C166.08 28.7609 166.456 29.2131 166.726 29.7955H166.839C167.119 29.232 167.538 28.7846 168.097 28.4531C168.655 28.117 169.325 27.9489 170.107 27.9489C171.082 27.9489 171.88 28.2543 172.5 28.8651C173.12 29.4711 173.43 30.4157 173.43 31.6989V39H171.754V31.6989C171.754 30.8939 171.534 30.3187 171.094 29.973C170.653 29.6274 170.135 29.4545 169.538 29.4545C168.771 29.4545 168.177 29.6866 167.756 30.1506C167.334 30.6098 167.124 31.1922 167.124 31.8977V39H165.419V31.5284C165.419 30.9081 165.218 30.4086 164.815 30.0298C164.413 29.6463 163.894 29.4545 163.26 29.4545C162.824 29.4545 162.417 29.5705 162.038 29.8026C161.664 30.0346 161.361 30.3565 161.129 30.7685C160.902 31.1757 160.788 31.6468 160.788 32.1818V39H159.112ZM179.705 39.2557C179.014 39.2557 178.387 39.1255 177.823 38.8651C177.26 38.5999 176.812 38.2188 176.481 37.7216C176.149 37.2197 175.984 36.6136 175.984 35.9034C175.984 35.2784 176.107 34.7718 176.353 34.3835C176.599 33.9905 176.928 33.6828 177.34 33.4602C177.752 33.2377 178.207 33.072 178.704 32.9631C179.206 32.8494 179.71 32.7595 180.217 32.6932C180.879 32.608 181.417 32.544 181.829 32.5014C182.246 32.4541 182.549 32.3759 182.738 32.267C182.932 32.1581 183.029 31.9687 183.029 31.6989V31.642C183.029 30.9413 182.837 30.3968 182.454 30.0085C182.075 29.6203 181.5 29.4261 180.728 29.4261C179.928 29.4261 179.3 29.6013 178.846 29.9517C178.391 30.3021 178.072 30.6761 177.887 31.0739L176.296 30.5057C176.58 29.8428 176.959 29.3267 177.433 28.9574C177.911 28.5833 178.432 28.3229 178.995 28.1761C179.563 28.0246 180.122 27.9489 180.671 27.9489C181.022 27.9489 181.424 27.9915 181.879 28.0767C182.338 28.1572 182.781 28.3253 183.207 28.581C183.638 28.8366 183.995 29.2225 184.279 29.7386C184.563 30.2547 184.705 30.946 184.705 31.8125V39H183.029V37.5227H182.944C182.83 37.7595 182.641 38.0128 182.376 38.2827C182.111 38.5526 181.758 38.7822 181.317 38.9716C180.877 39.161 180.34 39.2557 179.705 39.2557ZM179.961 37.75C180.624 37.75 181.183 37.6198 181.637 37.3594C182.096 37.099 182.442 36.7628 182.674 36.3509C182.911 35.9389 183.029 35.5057 183.029 35.0511V33.517C182.958 33.6023 182.802 33.6804 182.56 33.7514C182.324 33.8177 182.049 33.8769 181.737 33.929C181.429 33.9763 181.128 34.0189 180.835 34.0568C180.546 34.09 180.311 34.1184 180.131 34.142C179.696 34.1989 179.289 34.2912 178.91 34.419C178.536 34.5421 178.233 34.7292 178.001 34.9801C177.773 35.2263 177.66 35.5625 177.66 35.9886C177.66 36.571 177.875 37.0114 178.306 37.3097C178.742 37.6032 179.293 37.75 179.961 37.75ZM187.765 39V28.0909H189.384V29.7386H189.498C189.696 29.1989 190.056 28.7609 190.577 28.4247C191.098 28.0885 191.685 27.9205 192.338 27.9205C192.462 27.9205 192.615 27.9228 192.8 27.9276C192.985 27.9323 193.124 27.9394 193.219 27.9489V29.6534C193.162 29.6392 193.032 29.6179 192.828 29.5895C192.63 29.5563 192.419 29.5398 192.196 29.5398C191.666 29.5398 191.193 29.651 190.776 29.8736C190.364 30.0914 190.037 30.3944 189.796 30.7827C189.559 31.1662 189.441 31.6042 189.441 32.0966V39H187.765Z" fill="black"/>
<path d="M266.214 20.3173C266.786 20.7137 267.086 21.3989 266.978 22.0842L263.353 45.6418C263.268 46.1911 262.934 46.6724 262.447 46.9442C261.96 47.2161 261.377 47.25 260.861 47.0348L254.087 44.2204L250.207 48.4166C249.703 48.9659 248.91 49.1471 248.213 48.8753C247.516 48.6035 247.063 47.9296 247.063 47.1821V42.4479C247.063 42.2214 247.148 42.0062 247.301 41.842L256.794 31.4846C257.123 31.1278 257.111 30.5785 256.772 30.2387C256.432 29.8989 255.882 29.8763 255.525 30.1991L244.005 40.4319L239.003 37.9289C238.403 37.6288 238.018 37.0285 238.001 36.3603C237.984 35.6921 238.335 35.0692 238.913 34.7351L264.288 20.2381C264.894 19.8926 265.642 19.9266 266.214 20.3173Z" fill="#019DC9"/>
<defs>
<filter id="filter0_d_37_108" x="0" y="0" width="298" height="68" filterUnits="userSpaceOnUse" color-interpolation-filters="sRGB">
<feFlood flood-opacity="0" result="BackgroundImageFix"/>
<feColorMatrix in="SourceAlpha" type="matrix" values="0 0 0 0 0 0 0 0 0 0 0 0 0 0 0 0 0 0 127 0" result="hardAlpha"/>
<feOffset dy="1"/>
<feGaussianBlur stdDeviation="2"/>
<feComposite in2="hardAlpha" operator="out"/>
<feColorMatrix type="matrix" values="0 0 0 0 0 0 0 0 0 0 0 0 0 0 0 0 0 0 0.25 0"/>
<feBlend mode="normal" in2="BackgroundImageFix" result="effect1_dropShadow_37_108"/>
<feBlend mode="normal" in="SourceGraphic" in2="effect1_dropShadow_37_108" result="shape"/>
</filter>
</defs>
</svg>
