<svg width="68" height="78" viewBox="0 0 68 78" fill="none" xmlns="http://www.w3.org/2000/svg">
<g filter="url(#filter0_d_19_65)">
<rect x="4" y="3" width="60" height="60" rx="5" fill="#00BF00" fill-opacity="0.15" shape-rendering="crispEdges"/>
</g>
<path d="M13.7045 76V70.1818H17.2159V70.8068H14.4091V72.7727H17.0341V73.3977H14.4091V75.375H17.2614V76H13.7045ZM21.4858 72.6136L20.8835 72.7841C20.8456 72.6837 20.7898 72.5862 20.7159 72.4915C20.6439 72.3949 20.5455 72.3153 20.4205 72.2528C20.2955 72.1903 20.1354 72.1591 19.9403 72.1591C19.6733 72.1591 19.4508 72.2206 19.2727 72.3438C19.0966 72.465 19.0085 72.6193 19.0085 72.8068C19.0085 72.9735 19.0691 73.1051 19.1903 73.2017C19.3116 73.2983 19.5009 73.3788 19.7585 73.4432L20.4062 73.6023C20.7964 73.697 21.0871 73.8419 21.2784 74.0369C21.4697 74.2301 21.5653 74.4792 21.5653 74.7841C21.5653 75.0341 21.4934 75.2576 21.3494 75.4545C21.2074 75.6515 21.0085 75.8068 20.7528 75.9205C20.4972 76.0341 20.1998 76.0909 19.8608 76.0909C19.4157 76.0909 19.0473 75.9943 18.7557 75.8011C18.464 75.608 18.2794 75.3258 18.2017 74.9545L18.8381 74.7955C18.8987 75.0303 19.0133 75.2064 19.1818 75.3239C19.3523 75.4413 19.5748 75.5 19.8494 75.5C20.1619 75.5 20.41 75.4337 20.5938 75.3011C20.7794 75.1667 20.8722 75.0057 20.8722 74.8182C20.8722 74.6667 20.8191 74.5398 20.7131 74.4375C20.607 74.3333 20.4441 74.2557 20.2244 74.2045L19.4972 74.0341C19.0975 73.9394 18.804 73.7926 18.6165 73.5938C18.4309 73.393 18.3381 73.142 18.3381 72.8409C18.3381 72.5947 18.4072 72.3769 18.5455 72.1875C18.6856 71.9981 18.8759 71.8494 19.1165 71.7415C19.3589 71.6335 19.6335 71.5795 19.9403 71.5795C20.3722 71.5795 20.7112 71.6742 20.9574 71.8636C21.2055 72.053 21.3816 72.303 21.4858 72.6136ZM24.4723 71.6364V72.2045H22.2109V71.6364H24.4723ZM22.87 70.5909H23.5405V74.75C23.5405 74.9394 23.5679 75.0814 23.6229 75.1761C23.6797 75.2689 23.7517 75.3314 23.8388 75.3636C23.9278 75.3939 24.0215 75.4091 24.12 75.4091C24.1939 75.4091 24.2545 75.4053 24.3018 75.3977C24.3492 75.3883 24.3871 75.3807 24.4155 75.375L24.5518 75.9773C24.5064 75.9943 24.4429 76.0114 24.3615 76.0284C24.2801 76.0473 24.1768 76.0568 24.0518 76.0568C23.8625 76.0568 23.6768 76.0161 23.495 75.9347C23.3151 75.8532 23.1655 75.7292 23.0462 75.5625C22.9287 75.3958 22.87 75.1856 22.87 74.9318V70.5909ZM26.7649 76.1023C26.4884 76.1023 26.2375 76.0502 26.0121 75.946C25.7867 75.84 25.6077 75.6875 25.4751 75.4886C25.3426 75.2879 25.2763 75.0455 25.2763 74.7614C25.2763 74.5114 25.3255 74.3087 25.424 74.1534C25.5225 73.9962 25.6541 73.8731 25.8189 73.7841C25.9837 73.6951 26.1655 73.6288 26.3643 73.5852C26.5651 73.5398 26.7668 73.5038 26.9695 73.4773C27.2346 73.4432 27.4496 73.4176 27.6143 73.4006C27.781 73.3816 27.9022 73.3504 27.978 73.3068C28.0556 73.2633 28.0945 73.1875 28.0945 73.0795V73.0568C28.0945 72.7765 28.0178 72.5587 27.8643 72.4034C27.7128 72.2481 27.4827 72.1705 27.174 72.1705C26.8539 72.1705 26.603 72.2405 26.4212 72.3807C26.2393 72.5208 26.1115 72.6705 26.0376 72.8295L25.4013 72.6023C25.5149 72.3371 25.6664 72.1307 25.8558 71.983C26.0471 71.8333 26.2554 71.7292 26.4808 71.6705C26.7081 71.6098 26.9316 71.5795 27.1513 71.5795C27.2914 71.5795 27.4524 71.5966 27.6342 71.6307C27.8179 71.6629 27.995 71.7301 28.1655 71.8324C28.3378 71.9347 28.4808 72.089 28.5945 72.2955C28.7081 72.5019 28.7649 72.7784 28.7649 73.125V76H28.0945V75.4091H28.0604C28.0149 75.5038 27.9392 75.6051 27.8331 75.7131C27.727 75.821 27.5859 75.9129 27.4098 75.9886C27.2337 76.0644 27.0187 76.1023 26.7649 76.1023ZM26.8672 75.5C27.1323 75.5 27.3558 75.4479 27.5376 75.3438C27.7214 75.2396 27.8596 75.1051 27.9524 74.9403C28.0471 74.7756 28.0945 74.6023 28.0945 74.4205V73.8068C28.0661 73.8409 28.0036 73.8722 27.907 73.9006C27.8123 73.9271 27.7024 73.9508 27.5774 73.9716C27.4543 73.9905 27.334 74.0076 27.2166 74.0227C27.1011 74.036 27.0073 74.0473 26.9354 74.0568C26.7611 74.0795 26.5982 74.1165 26.4467 74.1676C26.2971 74.2169 26.1759 74.2917 26.0831 74.392C25.9922 74.4905 25.9467 74.625 25.9467 74.7955C25.9467 75.0284 26.0329 75.2045 26.2053 75.3239C26.3795 75.4413 26.6001 75.5 26.8672 75.5ZM31.8864 71.6364V72.2045H29.625V71.6364H31.8864ZM30.2841 70.5909H30.9545V74.75C30.9545 74.9394 30.982 75.0814 31.0369 75.1761C31.0938 75.2689 31.1657 75.3314 31.2528 75.3636C31.3419 75.3939 31.4356 75.4091 31.5341 75.4091C31.608 75.4091 31.6686 75.4053 31.7159 75.3977C31.7633 75.3883 31.8011 75.3807 31.8295 75.375L31.9659 75.9773C31.9205 75.9943 31.857 76.0114 31.7756 76.0284C31.6941 76.0473 31.5909 76.0568 31.4659 76.0568C31.2765 76.0568 31.0909 76.0161 30.9091 75.9347C30.7292 75.8532 30.5795 75.7292 30.4602 75.5625C30.3428 75.3958 30.2841 75.1856 30.2841 74.9318V70.5909ZM32.8949 76V71.6364H33.5653V76H32.8949ZM33.2358 70.9091C33.1051 70.9091 32.9924 70.8646 32.8977 70.7756C32.8049 70.6866 32.7585 70.5795 32.7585 70.4545C32.7585 70.3295 32.8049 70.2225 32.8977 70.1335C32.9924 70.0445 33.1051 70 33.2358 70C33.3665 70 33.4782 70.0445 33.571 70.1335C33.6657 70.2225 33.7131 70.3295 33.7131 70.4545C33.7131 70.5795 33.6657 70.6866 33.571 70.7756C33.4782 70.8646 33.3665 70.9091 33.2358 70.9091ZM37.8842 72.6136L37.282 72.7841C37.2441 72.6837 37.1882 72.5862 37.1143 72.4915C37.0424 72.3949 36.9439 72.3153 36.8189 72.2528C36.6939 72.1903 36.5339 72.1591 36.3388 72.1591C36.0717 72.1591 35.8492 72.2206 35.6712 72.3438C35.495 72.465 35.407 72.6193 35.407 72.8068C35.407 72.9735 35.4676 73.1051 35.5888 73.2017C35.71 73.2983 35.8994 73.3788 36.157 73.4432L36.8047 73.6023C37.1948 73.697 37.4856 73.8419 37.6768 74.0369C37.8681 74.2301 37.9638 74.4792 37.9638 74.7841C37.9638 75.0341 37.8918 75.2576 37.7479 75.4545C37.6058 75.6515 37.407 75.8068 37.1513 75.9205C36.8956 76.0341 36.5982 76.0909 36.2592 76.0909C35.8142 76.0909 35.4458 75.9943 35.1541 75.8011C34.8625 75.608 34.6778 75.3258 34.6001 74.9545L35.2365 74.7955C35.2971 75.0303 35.4117 75.2064 35.5803 75.3239C35.7507 75.4413 35.9732 75.5 36.2479 75.5C36.5604 75.5 36.8085 75.4337 36.9922 75.3011C37.1778 75.1667 37.2706 75.0057 37.2706 74.8182C37.2706 74.6667 37.2176 74.5398 37.1115 74.4375C37.0054 74.3333 36.8426 74.2557 36.6229 74.2045L35.8956 74.0341C35.496 73.9394 35.2024 73.7926 35.0149 73.5938C34.8293 73.393 34.7365 73.142 34.7365 72.8409C34.7365 72.5947 34.8056 72.3769 34.9439 72.1875C35.084 71.9981 35.2744 71.8494 35.5149 71.7415C35.7573 71.6335 36.032 71.5795 36.3388 71.5795C36.7706 71.5795 37.1096 71.6742 37.3558 71.8636C37.6039 72.053 37.7801 72.303 37.8842 72.6136ZM40.8707 71.6364V72.2045H38.6094V71.6364H40.8707ZM39.2685 70.5909H39.9389V74.75C39.9389 74.9394 39.9664 75.0814 40.0213 75.1761C40.0781 75.2689 40.1501 75.3314 40.2372 75.3636C40.3262 75.3939 40.42 75.4091 40.5185 75.4091C40.5923 75.4091 40.6529 75.4053 40.7003 75.3977C40.7476 75.3883 40.7855 75.3807 40.8139 75.375L40.9503 75.9773C40.9048 75.9943 40.8414 76.0114 40.7599 76.0284C40.6785 76.0473 40.5753 76.0568 40.4503 76.0568C40.2609 76.0568 40.0753 76.0161 39.8935 75.9347C39.7135 75.8532 39.5639 75.7292 39.4446 75.5625C39.3272 75.3958 39.2685 75.1856 39.2685 74.9318V70.5909ZM41.8793 76V71.6364H42.5497V76H41.8793ZM42.2202 70.9091C42.0895 70.9091 41.9768 70.8646 41.8821 70.7756C41.7893 70.6866 41.7429 70.5795 41.7429 70.4545C41.7429 70.3295 41.7893 70.2225 41.8821 70.1335C41.9768 70.0445 42.0895 70 42.2202 70C42.3509 70 42.4626 70.0445 42.5554 70.1335C42.6501 70.2225 42.6974 70.3295 42.6974 70.4545C42.6974 70.5795 42.6501 70.6866 42.5554 70.7756C42.4626 70.8646 42.3509 70.9091 42.2202 70.9091ZM45.5504 76.0909C45.1413 76.0909 44.7891 75.9943 44.4936 75.8011C44.1982 75.608 43.9709 75.3419 43.8118 75.0028C43.6527 74.6638 43.5732 74.2765 43.5732 73.8409C43.5732 73.3977 43.6546 73.0066 43.8175 72.6676C43.9822 72.3267 44.2114 72.0606 44.505 71.8693C44.8004 71.6761 45.1451 71.5795 45.5391 71.5795C45.8459 71.5795 46.1224 71.6364 46.3686 71.75C46.6148 71.8636 46.8165 72.0227 46.9737 72.2273C47.1309 72.4318 47.2285 72.6705 47.2663 72.9432H46.5959C46.5447 72.7443 46.4311 72.5682 46.255 72.4148C46.0807 72.2595 45.8459 72.1818 45.5504 72.1818C45.2891 72.1818 45.0599 72.25 44.8629 72.3864C44.6679 72.5208 44.5154 72.7112 44.4055 72.9574C44.2976 73.2017 44.2436 73.4886 44.2436 73.8182C44.2436 74.1553 44.2966 74.4489 44.4027 74.6989C44.5107 74.9489 44.6622 75.143 44.8572 75.2812C45.0542 75.4195 45.2853 75.4886 45.5504 75.4886C45.7247 75.4886 45.8828 75.4583 46.0249 75.3977C46.1669 75.3371 46.2872 75.25 46.3857 75.1364C46.4841 75.0227 46.5542 74.8864 46.5959 74.7273H47.2663C47.2285 74.9848 47.1347 75.2169 46.9851 75.4233C46.8374 75.6278 46.6413 75.7907 46.397 75.9119C46.1546 76.0312 45.8724 76.0909 45.5504 76.0909ZM49.5305 76.1023C49.254 76.1023 49.0031 76.0502 48.7777 75.946C48.5523 75.84 48.3733 75.6875 48.2408 75.4886C48.1082 75.2879 48.0419 75.0455 48.0419 74.7614C48.0419 74.5114 48.0911 74.3087 48.1896 74.1534C48.2881 73.9962 48.4197 73.8731 48.5845 73.7841C48.7493 73.6951 48.9311 73.6288 49.13 73.5852C49.3307 73.5398 49.5324 73.5038 49.7351 73.4773C50.0002 73.4432 50.2152 73.4176 50.38 73.4006C50.5466 73.3816 50.6679 73.3504 50.7436 73.3068C50.8213 73.2633 50.8601 73.1875 50.8601 73.0795V73.0568C50.8601 72.7765 50.7834 72.5587 50.63 72.4034C50.4785 72.2481 50.2483 72.1705 49.9396 72.1705C49.6196 72.1705 49.3686 72.2405 49.1868 72.3807C49.005 72.5208 48.8771 72.6705 48.8033 72.8295L48.1669 72.6023C48.2805 72.3371 48.4321 72.1307 48.6214 71.983C48.8127 71.8333 49.0211 71.7292 49.2464 71.6705C49.4737 71.6098 49.6972 71.5795 49.9169 71.5795C50.0571 71.5795 50.218 71.5966 50.3999 71.6307C50.5836 71.6629 50.7607 71.7301 50.9311 71.8324C51.1035 71.9347 51.2464 72.089 51.3601 72.2955C51.4737 72.5019 51.5305 72.7784 51.5305 73.125V76H50.8601V75.4091H50.826C50.7805 75.5038 50.7048 75.6051 50.5987 75.7131C50.4927 75.821 50.3516 75.9129 50.1754 75.9886C49.9993 76.0644 49.7843 76.1023 49.5305 76.1023ZM49.6328 75.5C49.898 75.5 50.1214 75.4479 50.3033 75.3438C50.487 75.2396 50.6252 75.1051 50.718 74.9403C50.8127 74.7756 50.8601 74.6023 50.8601 74.4205V73.8068C50.8317 73.8409 50.7692 73.8722 50.6726 73.9006C50.5779 73.9271 50.468 73.9508 50.343 73.9716C50.2199 73.9905 50.0997 74.0076 49.9822 74.0227C49.8667 74.036 49.773 74.0473 49.701 74.0568C49.5268 74.0795 49.3639 74.1165 49.2124 74.1676C49.0627 74.2169 48.9415 74.2917 48.8487 74.392C48.7578 74.4905 48.7124 74.625 48.7124 74.7955C48.7124 75.0284 48.7985 75.2045 48.9709 75.3239C49.1451 75.4413 49.3658 75.5 49.6328 75.5ZM55.8452 72.6136L55.2429 72.7841C55.205 72.6837 55.1491 72.5862 55.0753 72.4915C55.0033 72.3949 54.9048 72.3153 54.7798 72.2528C54.6548 72.1903 54.4948 72.1591 54.2997 72.1591C54.0327 72.1591 53.8101 72.2206 53.6321 72.3438C53.456 72.465 53.3679 72.6193 53.3679 72.8068C53.3679 72.9735 53.4285 73.1051 53.5497 73.2017C53.6709 73.2983 53.8603 73.3788 54.1179 73.4432L54.7656 73.6023C55.1558 73.697 55.4465 73.8419 55.6378 74.0369C55.8291 74.2301 55.9247 74.4792 55.9247 74.7841C55.9247 75.0341 55.8527 75.2576 55.7088 75.4545C55.5668 75.6515 55.3679 75.8068 55.1122 75.9205C54.8565 76.0341 54.5592 76.0909 54.2202 76.0909C53.7751 76.0909 53.4067 75.9943 53.1151 75.8011C52.8234 75.608 52.6387 75.3258 52.5611 74.9545L53.1974 74.7955C53.258 75.0303 53.3726 75.2064 53.5412 75.3239C53.7116 75.4413 53.9342 75.5 54.2088 75.5C54.5213 75.5 54.7694 75.4337 54.9531 75.3011C55.1387 75.1667 55.2315 75.0057 55.2315 74.8182C55.2315 74.6667 55.1785 74.5398 55.0724 74.4375C54.9664 74.3333 54.8035 74.2557 54.5838 74.2045L53.8565 74.0341C53.4569 73.9394 53.1634 73.7926 52.9759 73.5938C52.7902 73.393 52.6974 73.142 52.6974 72.8409C52.6974 72.5947 52.7666 72.3769 52.9048 72.1875C53.045 71.9981 53.2353 71.8494 53.4759 71.7415C53.7183 71.6335 53.9929 71.5795 54.2997 71.5795C54.7315 71.5795 55.0705 71.6742 55.3168 71.8636C55.5649 72.053 55.741 72.303 55.8452 72.6136Z" fill="black"/>
<path d="M29 22C29 20.3438 30.3438 19 32 19H34C35.6562 19 37 20.3438 37 22V44C37 45.6562 35.6562 47 34 47H32C30.3438 47 29 45.6562 29 44V22ZM19 34C19 32.3438 20.3438 31 22 31H24C25.6562 31 27 32.3438 27 34V44C27 45.6562 25.6562 47 24 47H22C20.3438 47 19 45.6562 19 44V34ZM42 23H44C45.6562 23 47 24.3438 47 26V44C47 45.6562 45.6562 47 44 47H42C40.3438 47 39 45.6562 39 44V26C39 24.3438 40.3438 23 42 23Z" fill="#00BF00"/>
<defs>
<filter id="filter0_d_19_65" x="0" y="0" width="68" height="68" filterUnits="userSpaceOnUse" color-interpolation-filters="sRGB">
<feFlood flood-opacity="0" result="BackgroundImageFix"/>
<feColorMatrix in="SourceAlpha" type="matrix" values="0 0 0 0 0 0 0 0 0 0 0 0 0 0 0 0 0 0 127 0" result="hardAlpha"/>
<feOffset dy="1"/>
<feGaussianBlur stdDeviation="2"/>
<feComposite in2="hardAlpha" operator="out"/>
<feColorMatrix type="matrix" values="0 0 0 0 0 0 0 0 0 0 0 0 0 0 0 0 0 0 0.25 0"/>
<feBlend mode="normal" in2="BackgroundImageFix" result="effect1_dropShadow_19_65"/>
<feBlend mode="normal" in="SourceGraphic" in2="effect1_dropShadow_19_65" result="shape"/>
</filter>
</defs>
</svg>
