<svg width="58" height="58" viewBox="0 0 58 58" fill="none" xmlns="http://www.w3.org/2000/svg">
<g filter="url(#filter0_d_66_114)">
<rect x="4" y="3" width="50" height="50" rx="25" fill="#640564"/>
</g>
<path d="M41.4754 29.5469C42.173 28.8493 42.173 27.7165 41.4754 27.019L32.5469 18.0904C31.8493 17.3929 30.7165 17.3929 30.019 18.0904C29.3214 18.788 29.3214 19.9208 30.019 20.6183L35.9062 26.5H18.7857C17.798 26.5 17 27.298 17 28.2857C17 29.2735 17.798 30.0714 18.7857 30.0714H35.9007L30.0246 35.9531C29.327 36.6507 29.327 37.7835 30.0246 38.481C30.7221 39.1786 31.8549 39.1786 32.5525 38.481L41.481 29.5525L41.4754 29.5469Z" fill="white"/>
<defs>
<filter id="filter0_d_66_114" x="0" y="0" width="58" height="58" filterUnits="userSpaceOnUse" color-interpolation-filters="sRGB">
<feFlood flood-opacity="0" result="BackgroundImageFix"/>
<feColorMatrix in="SourceAlpha" type="matrix" values="0 0 0 0 0 0 0 0 0 0 0 0 0 0 0 0 0 0 127 0" result="hardAlpha"/>
<feOffset dy="1"/>
<feGaussianBlur stdDeviation="2"/>
<feComposite in2="hardAlpha" operator="out"/>
<feColorMatrix type="matrix" values="0 0 0 0 0 0 0 0 0 0 0 0 0 0 0 0 0 0 0.25 0"/>
<feBlend mode="normal" in2="BackgroundImageFix" result="effect1_dropShadow_66_114"/>
<feBlend mode="normal" in="SourceGraphic" in2="effect1_dropShadow_66_114" result="shape"/>
</filter>
</defs>
</svg>
