<svg width="298" height="68" viewBox="0 0 298 68" fill="none" xmlns="http://www.w3.org/2000/svg">
<g filter="url(#filter0_d_31_359)">
<rect x="4" y="3" width="290" height="60" rx="5" fill="#D10085" fill-opacity="0.15" shape-rendering="crispEdges"/>
</g>
<path d="M116.358 41H114.511L119.852 26.4545H121.67L127.011 41H125.165L120.818 28.7557H120.705L116.358 41ZM117.04 35.3182H124.483V36.8807H117.04V35.3182ZM136.603 30.0909L132.569 41H130.864L126.83 30.0909H128.648L131.66 38.7841H131.773L134.785 30.0909H136.603ZM141.694 41.2557C141.002 41.2557 140.375 41.1255 139.811 40.8651C139.248 40.5999 138.801 40.2188 138.469 39.7216C138.138 39.2197 137.972 38.6136 137.972 37.9034C137.972 37.2784 138.095 36.7718 138.341 36.3835C138.587 35.9905 138.917 35.6828 139.328 35.4602C139.74 35.2377 140.195 35.072 140.692 34.9631C141.194 34.8494 141.698 34.7595 142.205 34.6932C142.868 34.608 143.405 34.544 143.817 34.5014C144.234 34.4541 144.537 34.3759 144.726 34.267C144.92 34.1581 145.017 33.9687 145.017 33.6989V33.642C145.017 32.9413 144.826 32.3968 144.442 32.0085C144.063 31.6203 143.488 31.4261 142.716 31.4261C141.916 31.4261 141.289 31.6013 140.834 31.9517C140.38 32.3021 140.06 32.6761 139.875 33.0739L138.284 32.5057C138.569 31.8428 138.947 31.3267 139.421 30.9574C139.899 30.5833 140.42 30.3229 140.983 30.1761C141.551 30.0246 142.11 29.9489 142.659 29.9489C143.01 29.9489 143.412 29.9915 143.867 30.0767C144.326 30.1572 144.769 30.3253 145.195 30.581C145.626 30.8366 145.983 31.2225 146.267 31.7386C146.551 32.2547 146.694 32.946 146.694 33.8125V41H145.017V39.5227H144.932C144.819 39.7595 144.629 40.0128 144.364 40.2827C144.099 40.5526 143.746 40.7822 143.306 40.9716C142.865 41.161 142.328 41.2557 141.694 41.2557ZM141.949 39.75C142.612 39.75 143.171 39.6198 143.625 39.3594C144.085 39.099 144.43 38.7628 144.662 38.3509C144.899 37.9389 145.017 37.5057 145.017 37.0511V35.517C144.946 35.6023 144.79 35.6804 144.549 35.7514C144.312 35.8177 144.037 35.8769 143.725 35.929C143.417 35.9763 143.116 36.0189 142.823 36.0568C142.534 36.09 142.3 36.1184 142.12 36.142C141.684 36.1989 141.277 36.2912 140.898 36.419C140.524 36.5421 140.221 36.7292 139.989 36.9801C139.762 37.2263 139.648 37.5625 139.648 37.9886C139.648 38.571 139.864 39.0114 140.294 39.3097C140.73 39.6032 141.282 39.75 141.949 39.75ZM151.429 34.4375V41H149.753V30.0909H151.372V31.7955H151.514C151.77 31.2415 152.158 30.7964 152.679 30.4602C153.2 30.1193 153.872 29.9489 154.696 29.9489C155.435 29.9489 156.081 30.1004 156.635 30.4034C157.189 30.7017 157.62 31.1562 157.928 31.767C158.235 32.3731 158.389 33.1402 158.389 34.0682V41H156.713V34.1818C156.713 33.3248 156.491 32.6572 156.045 32.179C155.6 31.696 154.99 31.4545 154.213 31.4545C153.678 31.4545 153.2 31.5705 152.778 31.8026C152.362 32.0346 152.033 32.3731 151.791 32.8182C151.55 33.2633 151.429 33.803 151.429 34.4375ZM165.884 41.2273C164.861 41.2273 163.98 40.9858 163.242 40.5028C162.503 40.0199 161.935 39.3546 161.537 38.5071C161.14 37.6596 160.941 36.6913 160.941 35.6023C160.941 34.4943 161.144 33.5166 161.551 32.669C161.963 31.8168 162.536 31.1515 163.27 30.6733C164.009 30.1903 164.871 29.9489 165.855 29.9489C166.623 29.9489 167.314 30.0909 167.929 30.375C168.545 30.6591 169.049 31.0568 169.442 31.5682C169.835 32.0795 170.079 32.6761 170.174 33.358H168.498C168.37 32.8608 168.086 32.4205 167.645 32.0369C167.21 31.6487 166.623 31.4545 165.884 31.4545C165.23 31.4545 164.658 31.625 164.165 31.9659C163.677 32.3021 163.296 32.7779 163.022 33.3935C162.752 34.0043 162.617 34.7216 162.617 35.5455C162.617 36.3883 162.749 37.1222 163.015 37.7472C163.284 38.3722 163.663 38.8575 164.151 39.2031C164.643 39.5488 165.221 39.7216 165.884 39.7216C166.319 39.7216 166.715 39.6458 167.07 39.4943C167.425 39.3428 167.726 39.125 167.972 38.8409C168.218 38.5568 168.393 38.2159 168.498 37.8182H170.174C170.079 38.4621 169.845 39.0421 169.471 39.5582C169.101 40.0696 168.611 40.4768 168 40.7798C167.394 41.0781 166.689 41.2273 165.884 41.2273ZM165.088 40.9432H166.48L166.367 41.5114C166.736 41.5682 167.075 41.7221 167.382 41.973C167.69 42.2287 167.844 42.6335 167.844 43.1875C167.844 43.7983 167.591 44.2955 167.084 44.679C166.582 45.0672 165.841 45.2614 164.861 45.2614L164.804 44.1534C165.245 44.1534 165.609 44.0824 165.898 43.9403C166.192 43.803 166.338 43.571 166.338 43.2443C166.338 42.9176 166.218 42.6951 165.976 42.5767C165.735 42.4583 165.344 42.3778 164.804 42.3352L165.088 40.9432ZM175.834 41.2557C175.143 41.2557 174.516 41.1255 173.952 40.8651C173.389 40.5999 172.941 40.2188 172.61 39.7216C172.278 39.2197 172.113 38.6136 172.113 37.9034C172.113 37.2784 172.236 36.7718 172.482 36.3835C172.728 35.9905 173.057 35.6828 173.469 35.4602C173.881 35.2377 174.336 35.072 174.833 34.9631C175.335 34.8494 175.839 34.7595 176.346 34.6932C177.008 34.608 177.546 34.544 177.958 34.5014C178.374 34.4541 178.677 34.3759 178.867 34.267C179.061 34.1581 179.158 33.9687 179.158 33.6989V33.642C179.158 32.9413 178.966 32.3968 178.583 32.0085C178.204 31.6203 177.629 31.4261 176.857 31.4261C176.057 31.4261 175.429 31.6013 174.975 31.9517C174.52 32.3021 174.201 32.6761 174.016 33.0739L172.425 32.5057C172.709 31.8428 173.088 31.3267 173.561 30.9574C174.04 30.5833 174.56 30.3229 175.124 30.1761C175.692 30.0246 176.251 29.9489 176.8 29.9489C177.15 29.9489 177.553 29.9915 178.007 30.0767C178.467 30.1572 178.909 30.3253 179.336 30.581C179.766 30.8366 180.124 31.2225 180.408 31.7386C180.692 32.2547 180.834 32.946 180.834 33.8125V41H179.158V39.5227H179.073C178.959 39.7595 178.77 40.0128 178.505 40.2827C178.239 40.5526 177.887 40.7822 177.446 40.9716C177.006 41.161 176.469 41.2557 175.834 41.2557ZM176.09 39.75C176.753 39.75 177.311 39.6198 177.766 39.3594C178.225 39.099 178.571 38.7628 178.803 38.3509C179.04 37.9389 179.158 37.5057 179.158 37.0511V35.517C179.087 35.6023 178.931 35.6804 178.689 35.7514C178.453 35.8177 178.178 35.8769 177.865 35.929C177.558 35.9763 177.257 36.0189 176.963 36.0568C176.675 36.09 176.44 36.1184 176.26 36.142C175.825 36.1989 175.417 36.2912 175.039 36.419C174.665 36.5421 174.362 36.7292 174.13 36.9801C173.902 37.2263 173.789 37.5625 173.789 37.9886C173.789 38.571 174.004 39.0114 174.435 39.3097C174.871 39.6032 175.422 39.75 176.09 39.75ZM183.893 41V30.0909H185.513V31.7386H185.626C185.825 31.1989 186.185 30.7609 186.706 30.4247C187.227 30.0885 187.814 29.9205 188.467 29.9205C188.59 29.9205 188.744 29.9228 188.929 29.9276C189.114 29.9323 189.253 29.9394 189.348 29.9489V31.6534C189.291 31.6392 189.161 31.6179 188.957 31.5895C188.759 31.5563 188.548 31.5398 188.325 31.5398C187.795 31.5398 187.321 31.651 186.905 31.8736C186.493 32.0914 186.166 32.3944 185.925 32.7827C185.688 33.1662 185.57 33.6042 185.57 34.0966V41H183.893Z" fill="black"/>
<path d="M246.75 21C244.682 21 243 22.6816 243 24.75V43.5C243 45.5684 244.682 47.25 246.75 47.25H269.25C271.318 47.25 273 45.5684 273 43.5V30.375C273 28.3066 271.318 26.625 269.25 26.625H247.688C247.172 26.625 246.75 26.2031 246.75 25.6875C246.75 25.1719 247.172 24.75 247.688 24.75H269.25C270.287 24.75 271.125 23.9121 271.125 22.875C271.125 21.8379 270.287 21 269.25 21H246.75ZM267.375 35.0625C267.872 35.0625 268.349 35.26 268.701 35.6117C269.052 35.9633 269.25 36.4402 269.25 36.9375C269.25 37.4348 269.052 37.9117 268.701 38.2633C268.349 38.615 267.872 38.8125 267.375 38.8125C266.878 38.8125 266.401 38.615 266.049 38.2633C265.698 37.9117 265.5 37.4348 265.5 36.9375C265.5 36.4402 265.698 35.9633 266.049 35.6117C266.401 35.26 266.878 35.0625 267.375 35.0625Z" fill="#D10085" fill-opacity="0.8"/>
<defs>
<filter id="filter0_d_31_359" x="0" y="0" width="298" height="68" filterUnits="userSpaceOnUse" color-interpolation-filters="sRGB">
<feFlood flood-opacity="0" result="BackgroundImageFix"/>
<feColorMatrix in="SourceAlpha" type="matrix" values="0 0 0 0 0 0 0 0 0 0 0 0 0 0 0 0 0 0 127 0" result="hardAlpha"/>
<feOffset dy="1"/>
<feGaussianBlur stdDeviation="2"/>
<feComposite in2="hardAlpha" operator="out"/>
<feColorMatrix type="matrix" values="0 0 0 0 0 0 0 0 0 0 0 0 0 0 0 0 0 0 0.25 0"/>
<feBlend mode="normal" in2="BackgroundImageFix" result="effect1_dropShadow_31_359"/>
<feBlend mode="normal" in="SourceGraphic" in2="effect1_dropShadow_31_359" result="shape"/>
</filter>
</defs>
</svg>
