<svg width="24" height="24" viewBox="0 0 24 24" fill="none" xmlns="http://www.w3.org/2000/svg">
<path d="M17.0016 0.904297L14.7328 3.17305L20.8266 9.2668L23.0953 6.99805C24.2672 5.82617 24.2672 3.92773 23.0953 2.75586L21.2484 0.904297C20.0766 -0.267578 18.1781 -0.267578 17.0063 0.904297H17.0016ZM13.6734 4.23242L2.74689 15.1637C2.25939 15.6512 1.90314 16.2559 1.70626 16.9168L0.0468858 22.5559C-0.0703017 22.9543 0.0375108 23.3809 0.328136 23.6715C0.618761 23.9621 1.04532 24.0699 1.43907 23.9574L7.07814 22.298C7.73907 22.1012 8.34376 21.7449 8.83126 21.2574L19.7672 10.3262L13.6734 4.23242Z" fill="black"/>
</svg>
