<svg width="60" height="60" viewBox="0 0 60 60" fill="none" xmlns="http://www.w3.org/2000/svg">
<path d="M30 60C37.9565 60 45.5871 56.8393 51.2132 51.2132C56.8393 45.5871 60 37.9565 60 30C60 22.0435 56.8393 14.4129 51.2132 8.7868C45.5871 3.16071 37.9565 0 30 0C22.0435 0 14.4129 3.16071 8.7868 8.7868C3.16071 14.4129 0 22.0435 0 30C0 37.9565 3.16071 45.5871 8.7868 51.2132C14.4129 56.8393 22.0435 60 30 60ZM30 15C31.5586 15 32.8125 16.2539 32.8125 17.8125V30.9375C32.8125 32.4961 31.5586 33.75 30 33.75C28.4414 33.75 27.1875 32.4961 27.1875 30.9375V17.8125C27.1875 16.2539 28.4414 15 30 15ZM26.25 41.25C26.25 40.2554 26.6451 39.3016 27.3484 38.5984C28.0516 37.8951 29.0054 37.5 30 37.5C30.9946 37.5 31.9484 37.8951 32.6516 38.5984C33.3549 39.3016 33.75 40.2554 33.75 41.25C33.75 42.2446 33.3549 43.1984 32.6516 43.9016C31.9484 44.6049 30.9946 45 30 45C29.0054 45 28.0516 44.6049 27.3484 43.9016C26.6451 43.1984 26.25 42.2446 26.25 41.25Z" fill="black" fill-opacity="0.25"/>
</svg>
