<svg width="15" height="16" viewBox="0 0 15 16" fill="none" xmlns="http://www.w3.org/2000/svg">
<path d="M14.9584 5.16077C15.0579 5.43027 14.974 5.73075 14.7595 5.92281L13.4136 7.1433C13.4478 7.40041 13.4664 7.66372 13.4664 7.93012C13.4664 8.19652 13.4478 8.45983 13.4136 8.71694L14.7595 9.93743C14.974 10.1295 15.0579 10.43 14.9584 10.6995C14.8217 11.0681 14.6569 11.4212 14.4673 11.762L14.3212 12.0129C14.1161 12.3536 13.886 12.6758 13.6343 12.9794C13.4509 13.2024 13.1463 13.2768 12.8727 13.19L11.1414 12.6417C10.7249 12.9608 10.2649 13.2272 9.77374 13.4285L9.3852 15.1973C9.32303 15.4792 9.10545 15.7023 8.81948 15.7487C8.39053 15.82 7.94915 15.8571 7.49845 15.8571C7.04774 15.8571 6.60636 15.82 6.17741 15.7487C5.89144 15.7023 5.67386 15.4792 5.61169 15.1973L5.22315 13.4285C4.73204 13.2272 4.27201 12.9608 3.85549 12.6417L2.12727 13.1931C1.85373 13.2799 1.54912 13.2024 1.36573 12.9825C1.11395 12.6789 0.883937 12.3567 0.678788 12.016L0.532697 11.7651C0.343089 11.4243 0.178348 11.0712 0.0415818 10.7026C-0.0578845 10.4331 0.0260402 10.1326 0.240514 9.94053L1.58642 8.72003C1.55223 8.45983 1.53358 8.19652 1.53358 7.93012C1.53358 7.66372 1.55223 7.40041 1.58642 7.1433L0.240514 5.92281C0.0260402 5.73075 -0.0578845 5.43027 0.0415818 5.16077C0.178348 4.79215 0.343089 4.43901 0.532697 4.09826L0.678788 3.84735C0.883937 3.5066 1.11395 3.18444 1.36573 2.88086C1.54912 2.65783 1.85373 2.58348 2.12727 2.67022L3.8586 3.21851C4.27512 2.89945 4.73515 2.63305 5.22626 2.4317L5.6148 0.662908C5.67697 0.381017 5.89455 0.157983 6.18052 0.111517C6.60947 0.0371724 7.05085 0 7.50155 0C7.95226 0 8.39364 0.0371724 8.82259 0.10842C9.10856 0.154885 9.32614 0.37792 9.38831 0.659811L9.77685 2.4286C10.268 2.62995 10.728 2.89635 11.1445 3.21542L12.8758 2.66712C13.1494 2.58039 13.454 2.65783 13.6374 2.87777C13.8892 3.18134 14.1192 3.5035 14.3243 3.84425L14.4704 4.09516C14.66 4.43591 14.8248 4.78905 14.9615 5.15768L14.9584 5.16077ZM7.50155 10.4083C8.16106 10.4083 8.79355 10.1472 9.25989 9.68245C9.72623 9.2177 9.98821 8.58737 9.98821 7.93012C9.98821 7.27287 9.72623 6.64254 9.25989 6.17779C8.79355 5.71305 8.16106 5.45196 7.50155 5.45196C6.84205 5.45196 6.20956 5.71305 5.74322 6.17779C5.27688 6.64254 5.0149 7.27287 5.0149 7.93012C5.0149 8.58737 5.27688 9.2177 5.74322 9.68245C6.20956 10.1472 6.84205 10.4083 7.50155 10.4083Z" fill="#640564" fill-opacity="0.51"/>
</svg>
