<svg width="15" height="14" viewBox="0 0 15 14" fill="none" xmlns="http://www.w3.org/2000/svg">
<path d="M1.66667 0C0.747396 0 0 1.04635 0 2.33333V11.6667C0 12.9536 0.747396 14 1.66667 14H13.3333C14.2526 14 15 12.9536 15 11.6667V2.33333C15 1.04635 14.2526 0 13.3333 0H1.66667ZM2.91667 5.83333H7.08333C7.3125 5.83333 7.5 6.09583 7.5 6.41667C7.5 6.7375 7.3125 7 7.08333 7H2.91667C2.6875 7 2.5 6.7375 2.5 6.41667C2.5 6.09583 2.6875 5.83333 2.91667 5.83333ZM2.5 9.91667C2.5 9.59583 2.6875 9.33333 2.91667 9.33333H12.0833C12.3125 9.33333 12.5 9.59583 12.5 9.91667C12.5 10.2375 12.3125 10.5 12.0833 10.5H2.91667C2.6875 10.5 2.5 10.2375 2.5 9.91667ZM9.79167 3.5H11.875C12.2214 3.5 12.5 3.8901 12.5 4.375V6.125C12.5 6.6099 12.2214 7 11.875 7H9.79167C9.44531 7 9.16667 6.6099 9.16667 6.125V4.375C9.16667 3.8901 9.44531 3.5 9.79167 3.5Z" fill="#640564" fill-opacity="0.51"/>
</svg>
