<svg width="17" height="16" viewBox="0 0 17 16" fill="none" xmlns="http://www.w3.org/2000/svg">
<path d="M16.9955 7.58893C16.9955 8.12357 16.5528 8.54237 16.051 8.54237H15.1065L15.1272 13.3007C15.1331 14.3551 14.2859 15.2105 13.2381 15.2105H3.78105C2.73912 15.2105 1.892 14.3581 1.892 13.3096V8.54237H0.944525C0.41323 8.54237 0 8.12654 0 7.58893C0 7.32161 0.0885492 7.08399 0.295164 6.87607L7.86317 0.237618C8.06978 0.0297023 8.30591 0 8.51253 0C8.71914 0 8.95528 0.0594045 9.13237 0.207916L16.6709 6.87607C16.907 7.08399 17.0251 7.32161 16.9955 7.58893ZM10.3898 6.65331C10.3898 6.14914 10.1907 5.66563 9.83648 5.30913C9.48222 4.95264 9.00173 4.75236 8.50072 4.75236C7.99972 4.75236 7.51923 4.95264 7.16496 5.30913C6.8107 5.66563 6.61167 6.14914 6.61167 6.65331C6.61167 7.15747 6.8107 7.64098 7.16496 7.99748C7.51923 8.35397 7.99972 8.55425 8.50072 8.55425C9.00173 8.55425 9.48222 8.35397 9.83648 7.99748C10.1907 7.64098 10.3898 7.15747 10.3898 6.65331ZM7.5562 9.50472C6.25157 9.50472 5.19489 10.5681 5.19489 11.8809C5.19489 12.1423 5.4074 12.3561 5.66715 12.3561H11.3343C11.594 12.3561 11.8066 12.1423 11.8066 11.8809C11.8066 10.5681 10.7499 9.50472 9.44525 9.50472H7.5562Z" fill="#640564" fill-opacity="0.51"/>
</svg>
