<svg width="127" height="113" viewBox="0 0 127 113" fill="none" xmlns="http://www.w3.org/2000/svg">
<g clip-path="url(#clip0_329_2)">
<path d="M63.4779 0C65.5064 0 67.3585 1.14653 68.2404 2.97656L83.3658 34.1312L117.144 39.1142C119.129 39.4009 120.782 40.7899 121.4 42.7082C122.017 44.6264 121.51 46.699 120.099 48.1101L95.6028 72.4076L101.379 106.715C101.71 108.7 100.894 110.706 99.2408 111.897C97.5871 113.087 95.4264 113.22 93.6625 112.272L63.4559 96.1319L33.2934 112.249C31.5075 113.198 29.3467 113.065 27.7151 111.875C26.0835 110.684 25.2456 108.678 25.5764 106.693L31.3531 72.3856L6.85711 48.1101C5.42395 46.699 4.93888 44.6043 5.55624 42.7082C6.1736 40.812 7.82725 39.4229 9.81162 39.1142L43.5901 34.1312L58.7154 2.97656C59.6194 1.14653 61.4495 0 63.4779 0ZM63.4779 17.4184L51.9024 41.275C51.1307 42.8404 49.6535 43.9429 47.9116 44.2075L21.8281 48.0439L40.7679 66.8073C41.9805 68.02 42.5538 69.7398 42.2672 71.4375L37.7913 97.8297L60.9864 85.4384C62.5519 84.6005 64.426 84.6005 65.9694 85.4384L89.1646 97.8297L84.7108 71.4595C84.4241 69.7618 84.9753 68.042 86.2101 66.8293L105.15 48.066L79.0663 44.2075C77.3465 43.9429 75.8472 42.8625 75.0755 41.275L63.4779 17.4184Z" fill="#BFBFBF"/>
</g>
<defs>
<clipPath id="clip0_329_2">
<rect width="127" height="112.889" fill="white"/>
</clipPath>
</defs>
</svg>
