<svg width="64" height="64" viewBox="0 0 64 64" fill="none" xmlns="http://www.w3.org/2000/svg">
<g filter="url(#filter0_d_68_2)">
<rect x="9" y="9" width="46" height="46" rx="23" fill="white"/>
</g>
<path d="M17.8755 36V28H18.3638V35.5469H22.27V36H17.8755ZM30.1147 32C30.1147 32.8255 29.9715 33.5469 29.6851 34.1641C29.3986 34.7786 29.0002 35.2565 28.4897 35.5977C27.9819 35.9388 27.396 36.1094 26.7319 36.1094C26.0653 36.1094 25.4767 35.9388 24.9663 35.5977C24.4585 35.2539 24.0614 34.7747 23.7749 34.1602C23.4884 33.543 23.3452 32.8229 23.3452 32C23.3452 31.1745 23.4884 30.4544 23.7749 29.8398C24.064 29.2253 24.4624 28.7474 24.9702 28.4062C25.478 28.0625 26.0653 27.8906 26.7319 27.8906C27.396 27.8906 27.9819 28.0612 28.4897 28.4023C29.0002 28.7435 29.3986 29.2227 29.6851 29.8398C29.9715 30.4544 30.1147 31.1745 30.1147 32ZM29.6382 32C29.6382 31.2578 29.5132 30.6146 29.2632 30.0703C29.0158 29.526 28.6733 29.1055 28.2358 28.8086C27.7983 28.5091 27.297 28.3594 26.7319 28.3594C26.1668 28.3594 25.6655 28.5078 25.228 28.8047C24.7905 29.099 24.4468 29.5195 24.1968 30.0664C23.9494 30.6107 23.8257 31.2552 23.8257 32C23.8257 32.737 23.9481 33.3789 24.1929 33.9258C24.4403 34.4701 24.7827 34.8919 25.2202 35.1914C25.6577 35.4909 26.1616 35.6406 26.7319 35.6406C27.297 35.6406 27.7983 35.4922 28.2358 35.1953C28.6733 34.8958 29.0158 34.474 29.2632 33.9297C29.5132 33.3854 29.6382 32.7422 29.6382 32ZM37.6284 30.5C37.5685 30.2292 37.467 29.9674 37.3237 29.7148C37.1805 29.4596 36.9969 29.2305 36.7729 29.0273C36.5516 28.8216 36.2912 28.6589 35.9917 28.5391C35.6948 28.4193 35.3615 28.3594 34.9917 28.3594C34.4266 28.3594 33.9253 28.5078 33.4878 28.8047C33.0529 29.099 32.7118 29.5195 32.4644 30.0664C32.2196 30.6107 32.0972 31.2552 32.0972 32C32.0972 32.737 32.2196 33.3789 32.4644 33.9258C32.7091 34.4727 33.0516 34.8958 33.4917 35.1953C33.9344 35.4922 34.4487 35.6406 35.0347 35.6406C35.5581 35.6406 36.0216 35.5195 36.4253 35.2773C36.8315 35.0352 37.1479 34.6888 37.3745 34.2383C37.6011 33.7878 37.7118 33.2487 37.7065 32.6211L37.8784 32.7031H35.1597V32.25H38.1831V32.7031C38.1831 33.4089 38.0477 34.0169 37.7769 34.5273C37.5086 35.0352 37.1362 35.4258 36.6597 35.6992C36.1857 35.9727 35.644 36.1094 35.0347 36.1094C34.3472 36.1094 33.7469 35.9388 33.2339 35.5977C32.7209 35.2565 32.3224 34.7786 32.0386 34.1641C31.7573 33.5469 31.6167 32.8255 31.6167 32C31.6167 31.3802 31.6974 30.8177 31.8589 30.3125C32.0203 29.8073 32.2508 29.375 32.5503 29.0156C32.8498 28.6536 33.2065 28.3763 33.6206 28.1836C34.0347 27.9883 34.4917 27.8906 34.9917 27.8906C35.4448 27.8906 35.8524 27.9661 36.2144 28.1172C36.5763 28.2656 36.8888 28.4661 37.1519 28.7188C37.4175 28.9687 37.6323 29.2487 37.7964 29.5586C37.9604 29.8659 38.0711 30.1797 38.1284 30.5H37.6284ZM46.5288 32C46.5288 32.8255 46.3856 33.5469 46.0991 34.1641C45.8127 34.7786 45.4142 35.2565 44.9038 35.5977C44.396 35.9388 43.8101 36.1094 43.146 36.1094C42.4793 36.1094 41.8908 35.9388 41.3804 35.5977C40.8726 35.2539 40.4754 34.7747 40.189 34.1602C39.9025 33.543 39.7593 32.8229 39.7593 32C39.7593 31.1745 39.9025 30.4544 40.189 29.8398C40.478 29.2253 40.8765 28.7474 41.3843 28.4062C41.8921 28.0625 42.4793 27.8906 43.146 27.8906C43.8101 27.8906 44.396 28.0612 44.9038 28.4023C45.4142 28.7435 45.8127 29.2227 46.0991 29.8398C46.3856 30.4544 46.5288 31.1745 46.5288 32ZM46.0522 32C46.0522 31.2578 45.9272 30.6146 45.6772 30.0703C45.4299 29.526 45.0874 29.1055 44.6499 28.8086C44.2124 28.5091 43.7111 28.3594 43.146 28.3594C42.5809 28.3594 42.0796 28.5078 41.6421 28.8047C41.2046 29.099 40.8608 29.5195 40.6108 30.0664C40.3634 30.6107 40.2397 31.2552 40.2397 32C40.2397 32.737 40.3621 33.3789 40.6069 33.9258C40.8543 34.4701 41.1968 34.8919 41.6343 35.1914C42.0718 35.4909 42.5757 35.6406 43.146 35.6406C43.7111 35.6406 44.2124 35.4922 44.6499 35.1953C45.0874 34.8958 45.4299 34.474 45.6772 33.9297C45.9272 33.3854 46.0522 32.7422 46.0522 32Z" fill="black"/>
<defs>
<filter id="filter0_d_68_2" x="0.0999999" y="0.0999999" width="63.8" height="63.8" filterUnits="userSpaceOnUse" color-interpolation-filters="sRGB">
<feFlood flood-opacity="0" result="BackgroundImageFix"/>
<feColorMatrix in="SourceAlpha" type="matrix" values="0 0 0 0 0 0 0 0 0 0 0 0 0 0 0 0 0 0 127 0" result="hardAlpha"/>
<feMorphology radius="1" operator="dilate" in="SourceAlpha" result="effect1_dropShadow_68_2"/>
<feOffset/>
<feGaussianBlur stdDeviation="3.95"/>
<feComposite in2="hardAlpha" operator="out"/>
<feColorMatrix type="matrix" values="0 0 0 0 0 0 0 0 0 0 0 0 0 0 0 0 0 0 0.25 0"/>
<feBlend mode="normal" in2="BackgroundImageFix" result="effect1_dropShadow_68_2"/>
<feBlend mode="normal" in="SourceGraphic" in2="effect1_dropShadow_68_2" result="shape"/>
</filter>
</defs>
</svg>
