<svg width="27" height="25" viewBox="0 0 27 25" fill="none" xmlns="http://www.w3.org/2000/svg">
<path d="M0 2.8125C0 1.74082 0.86183 0.875 1.92857 0.875H25.0714C26.1382 0.875 27 1.74082 27 2.8125C27 3.88418 26.1382 4.75 25.0714 4.75H1.92857C0.86183 4.75 0 3.88418 0 2.8125ZM0 12.5C0 11.4283 0.86183 10.5625 1.92857 10.5625H25.0714C26.1382 10.5625 27 11.4283 27 12.5C27 13.5717 26.1382 14.4375 25.0714 14.4375H1.92857C0.86183 14.4375 0 13.5717 0 12.5ZM27 22.1875C27 23.2592 26.1382 24.125 25.0714 24.125H1.92857C0.86183 24.125 0 23.2592 0 22.1875C0 21.1158 0.86183 20.25 1.92857 20.25H25.0714C26.1382 20.25 27 21.1158 27 22.1875Z" fill="#640564"/>
</svg>
