<svg width="23" height="26" viewBox="0 0 23 26" fill="none" xmlns="http://www.w3.org/2000/svg">
<path d="M11.5 0C10.5912 0 9.85698 0.726172 9.85698 1.625V2.6C6.10884 3.35156 3.28489 6.63203 3.28489 10.5625V11.8523C3.28489 14.1578 2.48906 16.3973 1.03601 18.1949L0.270977 19.1445C-0.0268203 19.5102 -0.0832992 20.0129 0.122078 20.4344C0.327456 20.8559 0.758749 21.125 1.23112 21.125H21.7689C22.2412 21.125 22.6725 20.8559 22.8779 20.4344C23.0833 20.0129 23.0268 19.5102 22.729 19.1445L21.964 18.2C20.5109 16.3973 19.7151 14.1578 19.7151 11.8523V10.5625C19.7151 6.63203 16.8912 3.35156 13.143 2.6V1.625C13.143 0.726172 12.4088 0 11.5 0ZM11.5 4.875C14.6782 4.875 17.2506 7.41914 17.2506 10.5625V11.8523C17.2506 14.2848 17.9643 16.6562 19.2889 18.6875H3.71105C5.03574 16.6562 5.74943 14.2848 5.74943 11.8523V10.5625C5.74943 7.41914 8.32178 4.875 11.5 4.875ZM14.786 22.75H11.5H8.21396C8.21396 23.6133 8.55797 24.441 9.1741 25.0504C9.79023 25.6598 10.6271 26 11.5 26C12.3729 26 13.2098 25.6598 13.8259 25.0504C14.442 24.441 14.786 23.6133 14.786 22.75Z" fill="#D10085" fill-opacity="0.15"/>
</svg>
