<svg width="20" height="16" viewBox="0 0 20 16" fill="none" xmlns="http://www.w3.org/2000/svg">
<path d="M9.99999 1.8125C7.7361 1.8125 5.87499 2.85312 4.4479 4.19258C3.1111 5.45117 2.18749 6.94531 1.71526 8C2.18749 9.05469 3.1111 10.5488 4.44443 11.8074C5.87499 13.1469 7.7361 14.1875 9.99999 14.1875C12.2639 14.1875 14.125 13.1469 15.5521 11.8074C16.8889 10.5488 17.8125 9.05469 18.2847 8C17.8125 6.94531 16.8889 5.45117 15.5555 4.19258C14.125 2.85312 12.2639 1.8125 9.99999 1.8125ZM3.31249 2.95859C4.9479 1.41875 7.19443 0.125 9.99999 0.125C12.8055 0.125 15.0521 1.41875 16.6875 2.95859C18.3125 4.48789 19.3993 6.3125 19.9167 7.56758C20.0312 7.84531 20.0312 8.15469 19.9167 8.43242C19.3993 9.6875 18.3125 11.5156 16.6875 13.0414C15.0521 14.5812 12.8055 15.875 9.99999 15.875C7.19443 15.875 4.9479 14.5812 3.31249 13.0414C1.68749 11.5156 0.600681 9.6875 0.086792 8.43242C-0.0277913 8.15469 -0.0277913 7.84531 0.086792 7.56758C0.600681 6.3125 1.68749 4.48437 3.31249 2.95859ZM9.99999 10.8125C11.5347 10.8125 12.7778 9.55391 12.7778 8C12.7778 6.44609 11.5347 5.1875 9.99999 5.1875C9.97568 5.1875 9.95485 5.1875 9.93054 5.1875C9.97568 5.3668 9.99999 5.55664 9.99999 5.75C9.99999 6.99101 9.00346 8 7.77776 8C7.58679 8 7.39929 7.97539 7.22221 7.92969C7.22221 7.9543 7.22221 7.97539 7.22221 8C7.22221 9.55391 8.46527 10.8125 9.99999 10.8125ZM9.99999 3.5C11.1787 3.5 12.3092 3.97411 13.1427 4.81802C13.9762 5.66193 14.4444 6.80653 14.4444 8C14.4444 9.19347 13.9762 10.3381 13.1427 11.182C12.3092 12.0259 11.1787 12.5 9.99999 12.5C8.82125 12.5 7.69078 12.0259 6.85729 11.182C6.0238 10.3381 5.55554 9.19347 5.55554 8C5.55554 6.80653 6.0238 5.66193 6.85729 4.81802C7.69078 3.97411 8.82125 3.5 9.99999 3.5Z" fill="black"/>
</svg>
