<svg width="17" height="16" viewBox="0 0 17 16" fill="none" xmlns="http://www.w3.org/2000/svg">
<path d="M14.2132 1.27895C13.9634 0.985104 13.9634 0.509941 14.2132 0.219217C14.4629 -0.0715072 14.8667 -0.0746333 15.1138 0.219217L16.814 2.2199C16.9336 2.36057 17 2.55126 17 2.75133C17 2.9514 16.9336 3.14209 16.814 3.28276L15.1138 5.28345C14.864 5.5773 14.4602 5.5773 14.2132 5.28345C13.9661 4.9896 13.9634 4.51443 14.2132 4.22371L14.8242 3.50471L10.2016 3.49846C9.84826 3.49846 9.56399 3.16397 9.56399 2.74821C9.56399 2.33244 9.84826 1.99795 10.2016 1.99795H14.8268L14.2132 1.27895ZM2.7895 11.7825L2.17847 12.5015H6.80106C7.1544 12.5015 7.43866 12.836 7.43866 13.2518C7.43866 13.6676 7.1544 14.002 6.80106 14.002H2.17581L2.78684 14.721C3.03657 15.0149 3.03657 15.4901 2.78684 15.7808C2.53712 16.0715 2.1333 16.0746 1.88623 15.7808L0.185967 13.7832C0.0664166 13.6426 0 13.4519 0 13.2518C0 13.0517 0.0664166 12.861 0.185967 12.7204L1.88623 10.7197C2.13596 10.4258 2.53977 10.4258 2.78684 10.7197C3.03391 11.0135 3.03657 11.4887 2.78684 11.7794L2.7895 11.7825ZM2.5504 1.99795H8.97687C8.87857 2.22303 8.82013 2.47624 8.82013 2.74821C8.82013 3.64539 9.43913 4.37376 10.2016 4.37376H13.3205C13.2143 4.90519 13.3365 5.48352 13.6871 5.89928C14.2264 6.53387 15.1005 6.53387 15.6398 5.89928L16.1525 5.29595V12.0014C16.1525 13.1049 15.3901 14.002 14.4523 14.002H8.02579C8.12408 13.777 8.18253 13.5238 8.18253 13.2518C8.18253 12.3546 7.56353 11.6262 6.80106 11.6262H3.68214C3.7884 11.0948 3.6662 10.5165 3.31552 10.1007C2.77622 9.46613 1.90217 9.46613 1.36287 10.1007L0.850133 10.704V3.99863C0.850133 2.89513 1.6126 1.99795 2.5504 1.99795ZM4.25066 3.99863H2.5504V5.99932C3.4882 5.99932 4.25066 5.10213 4.25066 3.99863ZM14.4523 10.0007C13.5145 10.0007 12.752 10.8979 12.752 12.0014H14.4523V10.0007ZM8.50133 11.001C9.17774 11.001 9.82644 10.6848 10.3047 10.122C10.783 9.55924 11.0517 8.79592 11.0517 8C11.0517 7.20408 10.783 6.44076 10.3047 5.87795C9.82644 5.31515 9.17774 4.99897 8.50133 4.99897C7.82492 4.99897 7.17622 5.31515 6.69792 5.87795C6.21963 6.44076 5.95093 7.20408 5.95093 8C5.95093 8.79592 6.21963 9.55924 6.69792 10.122C7.17622 10.6848 7.82492 11.001 8.50133 11.001Z" fill="#640564" fill-opacity="0.51"/>
</svg>
