<svg width="60" height="60" viewBox="0 0 60 60" fill="none" xmlns="http://www.w3.org/2000/svg">
<path d="M54.375 30C54.375 23.5353 51.8069 17.3355 47.2357 12.7643C42.6645 8.19307 36.4647 5.625 30 5.625C23.5353 5.625 17.3355 8.19307 12.7643 12.7643C8.19307 17.3355 5.625 23.5353 5.625 30C5.625 36.4647 8.19307 42.6645 12.7643 47.2357C17.3355 51.8069 23.5353 54.375 30 54.375C36.4647 54.375 42.6645 51.8069 47.2357 47.2357C51.8069 42.6645 54.375 36.4647 54.375 30ZM0 30C0 22.0435 3.16071 14.4129 8.7868 8.7868C14.4129 3.16071 22.0435 0 30 0C37.9565 0 45.5871 3.16071 51.2132 8.7868C56.8393 14.4129 60 22.0435 60 30C60 37.9565 56.8393 45.5871 51.2132 51.2132C45.5871 56.8393 37.9565 60 30 60C22.0435 60 14.4129 56.8393 8.7868 51.2132C3.16071 45.5871 0 37.9565 0 30ZM19.8984 19.3711C20.8242 16.7578 23.3086 15 26.0859 15H32.918C37.0078 15 40.3125 18.3164 40.3125 22.3945C40.3125 25.043 38.8945 27.4922 36.5977 28.8164L32.8125 30.9844C32.7891 32.5078 31.5352 33.75 30 33.75C28.4414 33.75 27.1875 32.4961 27.1875 30.9375V29.3555C27.1875 28.3477 27.7266 27.4219 28.6055 26.918L33.7969 23.9414C34.3477 23.625 34.6875 23.0391 34.6875 22.4062C34.6875 21.4219 33.8906 20.6367 32.918 20.6367H26.0859C25.6875 20.6367 25.3359 20.8828 25.207 21.2578L25.1602 21.3984C24.6445 22.8633 23.0273 23.625 21.5742 23.1094C20.1211 22.5938 19.3477 20.9766 19.8633 19.5234L19.9102 19.3828L19.8984 19.3711ZM26.25 41.25C26.25 40.2554 26.6451 39.3016 27.3484 38.5984C28.0516 37.8951 29.0054 37.5 30 37.5C30.9946 37.5 31.9484 37.8951 32.6516 38.5984C33.3549 39.3016 33.75 40.2554 33.75 41.25C33.75 42.2446 33.3549 43.1984 32.6516 43.9016C31.9484 44.6049 30.9946 45 30 45C29.0054 45 28.0516 44.6049 27.3484 43.9016C26.6451 43.1984 26.25 42.2446 26.25 41.25Z" fill="black" fill-opacity="0.25"/>
</svg>
