<svg width="60" height="64" viewBox="0 0 60 64" fill="none" xmlns="http://www.w3.org/2000/svg">
<path d="M30 0C30.575 0 31.15 0.124846 31.675 0.362053L55.2125 10.3372C57.9624 11.4983 60.0124 14.2074 59.9999 17.4784C59.9374 29.8631 54.8375 52.5226 33.3 62.8224C31.2125 63.8211 28.7875 63.8211 26.7 62.8224C5.16255 52.5226 0.0625567 29.8631 5.6856e-05 17.4784C-0.0124431 14.2074 2.03755 11.4983 4.78755 10.3372L28.3375 0.362053C28.85 0.124846 29.425 0 30 0ZM30 8.33969V55.5314C47.25 47.1917 51.8875 28.727 52 17.6532L30 8.33969Z" fill="black" fill-opacity="0.25"/>
</svg>
