<svg width="27" height="28" viewBox="0 0 27 28" fill="none" xmlns="http://www.w3.org/2000/svg">
<path d="M2.53125 13.5312C2.53125 10.6222 3.68688 7.83221 5.74392 5.77517C7.80096 3.71813 10.5909 2.5625 13.5 2.5625C16.4091 2.5625 19.199 3.71813 21.2561 5.77517C23.3131 7.83221 24.4688 10.6222 24.4688 13.5312C24.4688 16.4403 23.3131 19.2303 21.2561 21.2873C19.199 23.3444 16.4091 24.5 13.5 24.5C10.5909 24.5 7.80096 23.3444 5.74392 21.2873C3.68688 19.2303 2.53125 16.4403 2.53125 13.5312ZM27 13.5312C27 9.95083 25.5777 6.51705 23.0459 3.98531C20.5142 1.45357 17.0804 0.03125 13.5 0.03125C9.91958 0.03125 6.4858 1.45357 3.95406 3.98531C1.42232 6.51705 0 9.95083 0 13.5312C0 17.1117 1.42232 20.5455 3.95406 23.0772C6.4858 25.6089 9.91958 27.0312 13.5 27.0312C17.0804 27.0312 20.5142 25.6089 23.0459 23.0772C25.5777 20.5455 27 17.1117 27 13.5312ZM11.4645 19.9068C11.6859 20.1441 11.9971 20.2812 12.324 20.2812C12.9727 20.2812 13.5 19.7539 13.5 19.1053V16.0625H18.5625C19.4959 16.0625 20.25 15.3084 20.25 14.375V12.6875C20.25 11.7541 19.4959 11 18.5625 11H13.5V7.95723C13.5 7.30859 12.9727 6.78125 12.324 6.78125C11.9971 6.78125 11.6859 6.91836 11.4645 7.15566L6.19629 12.8035C6.01172 13.0039 5.90625 13.2623 5.90625 13.5312C5.90625 13.8002 6.01172 14.0639 6.19629 14.259L11.4645 19.9068Z" fill="black"/>
</svg>
