<svg width="28" height="26" viewBox="0 0 28 26" fill="none" xmlns="http://www.w3.org/2000/svg">
<path d="M0 3.14461C0 1.41016 1.39538 0 3.11165 0H10.8908V6.28923C10.8908 7.15891 11.586 7.86153 12.4466 7.86153H18.6699V14.0378L14.4497 18.3026C13.9489 18.8087 13.5989 19.4376 13.4287 20.1304L12.5195 23.8106C12.4077 24.2627 12.432 24.7344 12.5827 25.1618L3.11165 25.1569C1.39538 25.1569 0 23.7467 0 22.0123V3.14461ZM18.6699 6.28923H12.4466V0L18.6699 6.28923ZM26.731 11.581L27.4312 12.2886C28.1896 13.0551 28.1896 14.2982 27.4312 15.0696L26.0017 16.5141L22.5497 13.0256L23.9792 11.581C24.7376 10.8145 25.9677 10.8145 26.731 11.581ZM15.1644 20.4891L21.4461 14.1409L24.8981 17.6295L18.6164 23.9728C18.4171 24.1742 18.1691 24.3167 17.892 24.3855L14.97 25.1225C14.7026 25.1913 14.4254 25.1127 14.2309 24.9161C14.0365 24.7196 13.9587 24.4395 14.0267 24.1693L14.756 21.2163C14.8241 20.9412 14.9651 20.6857 15.1644 20.4842V20.4891Z" fill="black"/>
</svg>
