<svg width="15" height="17" viewBox="0 0 15 17" fill="none" xmlns="http://www.w3.org/2000/svg">
<path d="M9.375 3.1875H5.625L4.23633 0.826758C4.02832 0.471484 4.25098 0 4.62598 0H10.374C10.749 0 10.9717 0.471484 10.7637 0.826758L9.375 3.1875ZM5.625 4.25H9.375C9.48633 4.33301 9.6123 4.42598 9.75586 4.52891C11.417 5.73418 15 8.33066 15 13.8125C15 15.5723 13.7402 17 12.1875 17H2.8125C1.25977 17 0 15.5723 0 13.8125C0 8.33066 3.58301 5.73418 5.24414 4.52891C5.38477 4.42598 5.51367 4.33301 5.625 4.25ZM8.08594 7.17188C8.08594 6.80664 7.82227 6.50781 7.5 6.50781C7.17773 6.50781 6.91406 6.80664 6.91406 7.17188V7.63672C6.69141 7.69316 6.46875 7.78281 6.26367 7.91895C5.85645 8.19453 5.50488 8.67598 5.50781 9.37656C5.51074 10.0506 5.85938 10.4756 6.23145 10.7279C6.55371 10.9471 6.95508 11.0865 7.27441 11.1928L7.32422 11.2094C7.69336 11.3355 7.96289 11.4352 8.14453 11.5646C8.29395 11.6709 8.31445 11.7439 8.31738 11.8369C8.32031 12.0029 8.26465 12.1025 8.14453 12.1855C7.99805 12.2885 7.7666 12.3516 7.51758 12.3416C7.19238 12.3283 6.8877 12.2121 6.48926 12.0594C6.42188 12.0328 6.35156 12.0062 6.27832 11.9797C5.9707 11.8635 5.63965 12.0527 5.53711 12.398C5.43457 12.7434 5.60156 13.1219 5.90625 13.2381C5.96191 13.258 6.02344 13.2812 6.08496 13.3078C6.32812 13.4041 6.60938 13.5137 6.91113 13.5867V14.0715C6.91113 14.4367 7.1748 14.7355 7.49707 14.7355C7.81934 14.7355 8.08301 14.4367 8.08301 14.0715V13.6133C8.31738 13.5568 8.55176 13.4639 8.7627 13.3145C9.18164 13.0189 9.49805 12.5143 9.48926 11.8203C9.48047 11.1463 9.14648 10.7113 8.76855 10.4391C8.43164 10.2 8.00977 10.0539 7.68164 9.94102L7.66113 9.93438C7.28613 9.80488 7.01953 9.71191 6.83203 9.58574C6.67969 9.48281 6.67676 9.42305 6.67676 9.36328C6.67676 9.24043 6.71777 9.14746 6.8584 9.05449C7.0166 8.94824 7.25684 8.88516 7.48828 8.88848C7.76953 8.8918 8.08008 8.96152 8.40234 9.06113C8.71582 9.1541 9.03516 8.94492 9.12012 8.58965C9.20508 8.23438 9.01758 7.87246 8.7041 7.77617C8.51367 7.71973 8.30273 7.66328 8.08594 7.62012V7.15859V7.17188Z" fill="#B080B0"/>
</svg>
