<svg width="127" height="102" viewBox="0 0 127 102" fill="none" xmlns="http://www.w3.org/2000/svg">
<g clip-path="url(#clip0_329_4)">
<path d="M19.05 25.4C19.05 18.6635 21.7261 12.2029 26.4895 7.43949C31.2529 2.67606 37.7135 0 44.45 0C51.1865 0 57.6471 2.67606 62.4105 7.43949C67.1739 12.2029 69.85 18.6635 69.85 25.4C69.85 32.1365 67.1739 38.5971 62.4105 43.3605C57.6471 48.1239 51.1865 50.8 44.45 50.8C37.7135 50.8 31.2529 48.1239 26.4895 43.3605C21.7261 38.5971 19.05 32.1365 19.05 25.4ZM0 95.7064C0 76.1603 15.8353 60.325 35.3814 60.325H53.5186C73.0647 60.325 88.9 76.1603 88.9 95.7064C88.9 98.9608 86.2608 101.6 83.0064 101.6H5.89359C2.63922 101.6 0 98.9608 0 95.7064ZM120.908 101.6H93.5633C94.6348 99.7347 95.2698 97.5717 95.2698 95.25V93.6625C95.2698 81.6173 89.8922 70.8025 81.4189 63.5397C81.8952 63.5198 82.3516 63.5 82.8278 63.5H95.0119C112.673 63.5 127 77.8272 127 95.508C127 98.8814 124.262 101.6 120.908 101.6ZM85.725 50.8C79.5734 50.8 74.0172 48.2997 69.9889 44.2714C73.8981 38.993 76.2 32.4644 76.2 25.4C76.2 20.0819 74.8903 15.0614 72.5686 10.6561C76.2595 7.95734 80.8037 6.35 85.725 6.35C98.0083 6.35 107.95 16.2917 107.95 28.575C107.95 40.8583 98.0083 50.8 85.725 50.8Z" fill="#BFBFBF"/>
</g>
<defs>
<clipPath id="clip0_329_4">
<rect width="127" height="101.6" fill="white"/>
</clipPath>
</defs>
</svg>
