<svg width="29" height="29" viewBox="0 0 29 29" fill="none" xmlns="http://www.w3.org/2000/svg">
<path d="M28.2137 0.317338C28.7858 0.713741 29.086 1.39895 28.9784 2.08416L25.3533 25.6418C25.2684 26.1911 24.9342 26.6724 24.4471 26.9442C23.9599 27.2161 23.3765 27.25 22.8611 27.0348L16.0868 24.2204L12.2068 28.4166C11.7027 28.9659 10.9097 29.1471 10.2131 28.8753C9.51636 28.6035 9.06323 27.9296 9.06323 27.1821V22.4479C9.06323 22.2214 9.14819 22.0062 9.30112 21.842L18.7942 11.4846C19.1228 11.1278 19.1114 10.5785 18.7716 10.2387C18.4317 9.89895 17.8823 9.8763 17.5255 10.1991L6.00459 20.4319L1.00314 17.9289C0.402745 17.6288 0.0175824 17.0285 0.000589952 16.3603C-0.0164025 15.6921 0.334775 15.0692 0.912518 14.7351L26.2879 0.238058C26.894 -0.107378 27.6416 -0.073401 28.2137 0.317338Z" fill="#019DC9"/>
</svg>
