<svg width="60" height="64" viewBox="0 0 60 64" fill="none" xmlns="http://www.w3.org/2000/svg">
<path d="M59.8337 20.6431C60.2315 21.7211 59.8958 22.923 59.0379 23.6912L53.6543 28.5732C53.7911 29.6017 53.8657 30.6549 53.8657 31.7205C53.8657 32.7861 53.7911 33.8393 53.6543 34.8677L59.0379 39.7497C59.8958 40.518 60.2315 41.7199 59.8337 42.7979C59.2866 44.2724 58.6276 45.6849 57.8692 47.0479L57.2849 48.0516C56.4643 49.4146 55.5442 50.7032 54.5371 51.9175C53.8035 52.8096 52.5851 53.107 51.4909 52.7601L44.5656 50.5669C42.8995 51.8432 41.0594 52.9088 39.095 53.7142L37.5408 60.7893C37.2921 61.9169 36.4218 62.809 35.2779 62.9949C33.5621 63.2799 31.7966 63.4286 29.9938 63.4286C28.191 63.4286 26.4254 63.2799 24.7096 62.9949C23.5658 62.809 22.6954 61.9169 22.4468 60.7893L20.8926 53.7142C18.9282 52.9088 17.088 51.8432 15.422 50.5669L8.50906 52.7725C7.41493 53.1194 6.19647 52.8096 5.46291 51.9299C4.45581 50.7156 3.53575 49.4269 2.71515 48.064L2.13079 47.0603C1.37236 45.6973 0.713392 44.2848 0.166327 42.8103C-0.231538 41.7323 0.104161 40.5303 0.962058 39.7621L6.34567 34.8801C6.2089 33.8393 6.13431 32.7861 6.13431 31.7205C6.13431 30.6549 6.2089 29.6017 6.34567 28.5732L0.962058 23.6912C0.104161 22.923 -0.231538 21.7211 0.166327 20.6431C0.713392 19.1686 1.37236 17.756 2.13079 16.393L2.71515 15.3894C3.53575 14.0264 4.45581 12.7378 5.46291 11.5235C6.19647 10.6313 7.41493 10.3339 8.50906 10.6809L15.4344 12.8741C17.1005 11.5978 18.9406 10.5322 20.9051 9.72679L22.4592 2.65163C22.7079 1.52407 23.5782 0.631931 24.7221 0.446069C26.4379 0.14869 28.2034 0 30.0062 0C31.809 0 33.5746 0.14869 35.2904 0.433678C36.4342 0.619541 37.3046 1.51168 37.5532 2.63924L39.1074 9.7144C41.0718 10.5198 42.912 11.5854 44.578 12.8617L51.5034 10.6685C52.5975 10.3215 53.816 10.6313 54.5495 11.5111C55.5566 12.7254 56.4767 14.014 57.2973 15.377L57.8816 16.3807C58.6401 17.7436 59.299 19.1562 59.8461 20.6307L59.8337 20.6431ZM30.0062 41.6331C32.6442 41.6331 35.1742 40.5888 37.0395 38.7298C38.9049 36.8708 39.9529 34.3495 39.9529 31.7205C39.9529 29.0915 38.9049 26.5702 37.0395 24.7112C35.1742 22.8522 32.6442 21.8078 30.0062 21.8078C27.3682 21.8078 24.8382 22.8522 22.9729 24.7112C21.1075 26.5702 20.0596 29.0915 20.0596 31.7205C20.0596 34.3495 21.1075 36.8708 22.9729 38.7298C24.8382 40.5888 27.3682 41.6331 30.0062 41.6331Z" fill="black" fill-opacity="0.5"/>
</svg>
