<svg width="187" height="187" viewBox="0 0 187 187" fill="none" xmlns="http://www.w3.org/2000/svg">
<g filter="url(#filter0_d_68_4)">
<rect x="9" y="9" width="169" height="169" rx="84.5" fill="white"/>
</g>
<path d="M36.593 93V75.5455H37.6584V92.0114H46.1811V93H36.593ZM63.2969 84.2727C63.2969 86.0739 62.9844 87.6477 62.3594 88.9943C61.7344 90.3352 60.8651 91.3778 59.7514 92.1222C58.6435 92.8665 57.3651 93.2386 55.9162 93.2386C54.4616 93.2386 53.1776 92.8665 52.0639 92.1222C50.956 91.3722 50.0895 90.3267 49.4645 88.9858C48.8395 87.6392 48.527 86.0682 48.527 84.2727C48.527 82.4716 48.8395 80.9006 49.4645 79.5597C50.0952 78.2187 50.9645 77.1761 52.0724 76.4318C53.1804 75.6818 54.4616 75.3068 55.9162 75.3068C57.3651 75.3068 58.6435 75.679 59.7514 76.4233C60.8651 77.1676 61.7344 78.2131 62.3594 79.5597C62.9844 80.9006 63.2969 82.4716 63.2969 84.2727ZM62.2571 84.2727C62.2571 82.6534 61.9844 81.25 61.4389 80.0625C60.8991 78.875 60.152 77.9574 59.1974 77.3097C58.2429 76.6562 57.1491 76.3295 55.9162 76.3295C54.6832 76.3295 53.5895 76.6534 52.6349 77.3011C51.6804 77.9432 50.9304 78.8608 50.3849 80.054C49.8452 81.2415 49.5753 82.6477 49.5753 84.2727C49.5753 85.8807 49.8423 87.2812 50.3764 88.4744C50.9162 89.6619 51.6634 90.5824 52.6179 91.2358C53.5724 91.8892 54.6719 92.2159 55.9162 92.2159C57.1491 92.2159 58.2429 91.892 59.1974 91.2443C60.152 90.5909 60.8991 89.6705 61.4389 88.483C61.9844 87.2955 62.2571 85.892 62.2571 84.2727ZM79.6903 81C79.5597 80.4091 79.3381 79.8381 79.0256 79.2869C78.7131 78.7301 78.3125 78.2301 77.8239 77.7869C77.3409 77.3381 76.7727 76.983 76.1193 76.7216C75.4716 76.4602 74.7443 76.3295 73.9375 76.3295C72.7045 76.3295 71.6108 76.6534 70.6562 77.3011C69.7074 77.9432 68.9631 78.8608 68.4233 80.054C67.8892 81.2415 67.6222 82.6477 67.6222 84.2727C67.6222 85.8807 67.8892 87.2812 68.4233 88.4744C68.9574 89.6676 69.7045 90.5909 70.6648 91.2443C71.6307 91.892 72.7528 92.2159 74.0312 92.2159C75.1733 92.2159 76.1847 91.9517 77.0653 91.4233C77.9517 90.8949 78.642 90.1392 79.1364 89.1562C79.6307 88.1733 79.8722 86.9972 79.8608 85.6278L80.2358 85.8068H74.304V84.8182H80.9006V85.8068C80.9006 87.3466 80.6051 88.6733 80.0142 89.7869C79.429 90.8949 78.6165 91.7472 77.5767 92.3438C76.5426 92.9403 75.3608 93.2386 74.0312 93.2386C72.5312 93.2386 71.2216 92.8665 70.1023 92.1222C68.983 91.3778 68.1136 90.3352 67.4943 88.9943C66.8807 87.6477 66.5739 86.0739 66.5739 84.2727C66.5739 82.9205 66.75 81.6932 67.1023 80.5909C67.4545 79.4886 67.9574 78.5455 68.6108 77.7614C69.2642 76.9716 70.0426 76.3665 70.946 75.946C71.8494 75.5199 72.8466 75.3068 73.9375 75.3068C74.9261 75.3068 75.8153 75.4716 76.6051 75.8011C77.3949 76.125 78.0767 76.5625 78.6506 77.1136C79.2301 77.6591 79.6989 78.2699 80.0568 78.946C80.4148 79.6165 80.6562 80.3011 80.7812 81H79.6903ZM99.1094 84.2727C99.1094 86.0739 98.7969 87.6477 98.1719 88.9943C97.5469 90.3352 96.6776 91.3778 95.5639 92.1222C94.456 92.8665 93.1776 93.2386 91.7287 93.2386C90.2741 93.2386 88.9901 92.8665 87.8764 92.1222C86.7685 91.3722 85.902 90.3267 85.277 88.9858C84.652 87.6392 84.3395 86.0682 84.3395 84.2727C84.3395 82.4716 84.652 80.9006 85.277 79.5597C85.9077 78.2187 86.777 77.1761 87.8849 76.4318C88.9929 75.6818 90.2741 75.3068 91.7287 75.3068C93.1776 75.3068 94.456 75.679 95.5639 76.4233C96.6776 77.1676 97.5469 78.2131 98.1719 79.5597C98.7969 80.9006 99.1094 82.4716 99.1094 84.2727ZM98.0696 84.2727C98.0696 82.6534 97.7969 81.25 97.2514 80.0625C96.7116 78.875 95.9645 77.9574 95.0099 77.3097C94.0554 76.6562 92.9616 76.3295 91.7287 76.3295C90.4957 76.3295 89.402 76.6534 88.4474 77.3011C87.4929 77.9432 86.7429 78.8608 86.1974 80.054C85.6577 81.2415 85.3878 82.6477 85.3878 84.2727C85.3878 85.8807 85.6548 87.2812 86.1889 88.4744C86.7287 89.6619 87.4759 90.5824 88.4304 91.2358C89.3849 91.8892 90.4844 92.2159 91.7287 92.2159C92.9616 92.2159 94.0554 91.892 95.0099 91.2443C95.9645 90.5909 96.7116 89.6705 97.2514 88.483C97.7969 87.2955 98.0696 85.892 98.0696 84.2727ZM101.387 76.5341V75.5455H113.617V76.5341H108.035V93H106.969V76.5341H101.387ZM118.565 75.5455V93H117.499V75.5455H118.565ZM123.616 93V75.5455H128.994C130.102 75.5455 131.051 75.7727 131.841 76.2273C132.636 76.6818 133.247 77.304 133.673 78.0938C134.099 78.8835 134.312 79.7841 134.312 80.7955C134.312 81.7955 134.099 82.6903 133.673 83.4801C133.247 84.2699 132.636 84.8949 131.841 85.3551C131.051 85.8097 130.105 86.0369 129.003 86.0369H124.366V85.0483H128.977C129.875 85.0483 130.642 84.8665 131.278 84.5028C131.915 84.1335 132.403 83.6307 132.744 82.9943C133.085 82.3523 133.256 81.6193 133.256 80.7955C133.256 79.9659 133.085 79.2301 132.744 78.5881C132.403 77.946 131.912 77.4432 131.27 77.0795C130.634 76.7159 129.866 76.5341 128.969 76.5341H124.682V93H123.616ZM152.289 84.2727C152.289 86.0739 151.977 87.6477 151.352 88.9943C150.727 90.3352 149.857 91.3778 148.744 92.1222C147.636 92.8665 146.357 93.2386 144.908 93.2386C143.454 93.2386 142.17 92.8665 141.056 92.1222C139.948 91.3722 139.082 90.3267 138.457 88.9858C137.832 87.6392 137.519 86.0682 137.519 84.2727C137.519 82.4716 137.832 80.9006 138.457 79.5597C139.087 78.2187 139.957 77.1761 141.065 76.4318C142.173 75.6818 143.454 75.3068 144.908 75.3068C146.357 75.3068 147.636 75.679 148.744 76.4233C149.857 77.1676 150.727 78.2131 151.352 79.5597C151.977 80.9006 152.289 82.4716 152.289 84.2727ZM151.249 84.2727C151.249 82.6534 150.977 81.25 150.431 80.0625C149.891 78.875 149.144 77.9574 148.19 77.3097C147.235 76.6562 146.141 76.3295 144.908 76.3295C143.675 76.3295 142.582 76.6534 141.627 77.3011C140.673 77.9432 139.923 78.8608 139.377 80.054C138.837 81.2415 138.567 82.6477 138.567 84.2727C138.567 85.8807 138.835 87.2812 139.369 88.4744C139.908 89.6619 140.656 90.5824 141.61 91.2358C142.565 91.8892 143.664 92.2159 144.908 92.2159C146.141 92.2159 147.235 91.892 148.19 91.2443C149.144 90.5909 149.891 89.6705 150.431 88.483C150.977 87.2955 151.249 85.892 151.249 84.2727ZM67.5721 122H66.4471L72.7454 104.545H73.9727L80.271 122H79.146L73.4016 105.918H73.3164L67.5721 122ZM69.1658 115.429H77.5522V116.418H69.1658V115.429ZM89.4308 116.545H90.658L93.1978 119.895L93.4364 120.219L96.0103 123.636H94.783L92.6694 120.832L92.4478 120.526L89.4308 116.545ZM96.5898 113.273C96.5898 115.074 96.2773 116.648 95.6523 117.994C95.0273 119.335 94.158 120.378 93.0444 121.122C91.9364 121.866 90.658 122.239 89.2092 122.239C87.7546 122.239 86.4705 121.866 85.3569 121.122C84.2489 120.372 83.3825 119.327 82.7575 117.986C82.1325 116.639 81.82 115.068 81.82 113.273C81.82 111.472 82.1325 109.901 82.7575 108.56C83.3881 107.219 84.2575 106.176 85.3654 105.432C86.4734 104.682 87.7546 104.307 89.2092 104.307C90.658 104.307 91.9364 104.679 93.0444 105.423C94.158 106.168 95.0273 107.213 95.6523 108.56C96.2773 109.901 96.5898 111.472 96.5898 113.273ZM95.5501 113.273C95.5501 111.653 95.2773 110.25 94.7319 109.062C94.1921 107.875 93.445 106.957 92.4904 106.31C91.5359 105.656 90.4421 105.33 89.2092 105.33C87.9762 105.33 86.8825 105.653 85.9279 106.301C84.9734 106.943 84.2234 107.861 83.6779 109.054C83.1381 110.241 82.8683 111.648 82.8683 113.273C82.8683 114.881 83.1353 116.281 83.6694 117.474C84.2092 118.662 84.9563 119.582 85.9109 120.236C86.8654 120.889 87.9648 121.216 89.2092 121.216C90.4421 121.216 91.5359 120.892 92.4904 120.244C93.445 119.591 94.1921 118.67 94.7319 117.483C95.2773 116.295 95.5501 114.892 95.5501 113.273ZM112.574 104.545H113.64V116.102C113.64 117.29 113.364 118.349 112.813 119.281C112.262 120.207 111.5 120.94 110.529 121.48C109.563 122.014 108.452 122.281 107.196 122.281C105.946 122.281 104.836 122.014 103.864 121.48C102.892 120.94 102.128 120.205 101.571 119.273C101.02 118.341 100.748 117.284 100.753 116.102V104.545H101.819V116.043C101.819 117.048 102.046 117.943 102.5 118.727C102.961 119.511 103.594 120.131 104.401 120.585C105.208 121.034 106.14 121.259 107.196 121.259C108.253 121.259 109.185 121.034 109.992 120.585C110.799 120.131 111.429 119.511 111.884 118.727C112.344 117.943 112.574 117.048 112.574 116.043V104.545ZM119.748 104.545V122H118.683V104.545H119.748Z" fill="black"/>
<defs>
<filter id="filter0_d_68_4" x="0.0999999" y="0.0999999" width="186.8" height="186.8" filterUnits="userSpaceOnUse" color-interpolation-filters="sRGB">
<feFlood flood-opacity="0" result="BackgroundImageFix"/>
<feColorMatrix in="SourceAlpha" type="matrix" values="0 0 0 0 0 0 0 0 0 0 0 0 0 0 0 0 0 0 127 0" result="hardAlpha"/>
<feMorphology radius="1" operator="dilate" in="SourceAlpha" result="effect1_dropShadow_68_4"/>
<feOffset/>
<feGaussianBlur stdDeviation="3.95"/>
<feComposite in2="hardAlpha" operator="out"/>
<feColorMatrix type="matrix" values="0 0 0 0 0 0 0 0 0 0 0 0 0 0 0 0 0 0 0.25 0"/>
<feBlend mode="normal" in2="BackgroundImageFix" result="effect1_dropShadow_68_4"/>
<feBlend mode="normal" in="SourceGraphic" in2="effect1_dropShadow_68_4" result="shape"/>
</filter>
</defs>
</svg>
