<svg width="30" height="27" viewBox="0 0 30 27" fill="none" xmlns="http://www.w3.org/2000/svg">
<path d="M3.75 0C1.68164 0 0 1.68164 0 3.75V22.5C0 24.5684 1.68164 26.25 3.75 26.25H26.25C28.3184 26.25 30 24.5684 30 22.5V9.375C30 7.30664 28.3184 5.625 26.25 5.625H4.6875C4.17188 5.625 3.75 5.20312 3.75 4.6875C3.75 4.17188 4.17188 3.75 4.6875 3.75H26.25C27.2871 3.75 28.125 2.91211 28.125 1.875C28.125 0.837891 27.2871 0 26.25 0H3.75ZM24.375 14.0625C24.8723 14.0625 25.3492 14.26 25.7008 14.6117C26.0525 14.9633 26.25 15.4402 26.25 15.9375C26.25 16.4348 26.0525 16.9117 25.7008 17.2633C25.3492 17.615 24.8723 17.8125 24.375 17.8125C23.8777 17.8125 23.4008 17.615 23.0492 17.2633C22.6975 16.9117 22.5 16.4348 22.5 15.9375C22.5 15.4402 22.6975 14.9633 23.0492 14.6117C23.4008 14.26 23.8777 14.0625 24.375 14.0625Z" fill="#D10085" fill-opacity="0.8"/>
</svg>
