<svg width="15" height="16" viewBox="0 0 15 16" fill="none" xmlns="http://www.w3.org/2000/svg">
<path d="M7.5 0C7.64375 0 7.7875 0.0312114 7.91875 0.0905131L13.8031 2.58431C14.4906 2.87457 15.0031 3.55186 15 4.3696C14.9844 7.46577 13.7094 13.1306 8.325 15.7056C7.80312 15.9553 7.19688 15.9553 6.675 15.7056C1.29064 13.1306 0.0156392 7.46577 1.4214e-05 4.3696C-0.00311078 3.55186 0.509388 2.87457 1.19689 2.58431L7.08438 0.0905131C7.2125 0.0312114 7.35625 0 7.5 0ZM7.5 2.08492V13.8828C11.8125 11.7979 12.9719 7.18175 13 4.4133L7.5 2.08492Z" fill="#640564" fill-opacity="0.51"/>
</svg>
