<svg width="29" height="29" viewBox="0 0 29 29" fill="none" xmlns="http://www.w3.org/2000/svg">
<path d="M16.3125 1.8125C16.3125 0.809961 15.5025 0 14.5 0C13.4975 0 12.6875 0.809961 12.6875 1.8125V15.5592L8.53008 11.4018C7.82207 10.6938 6.67227 10.6938 5.96426 11.4018C5.25625 12.1098 5.25625 13.2596 5.96426 13.9676L13.2143 21.2176C13.9223 21.9256 15.0721 21.9256 15.7801 21.2176L23.0301 13.9676C23.7381 13.2596 23.7381 12.1098 23.0301 11.4018C22.3221 10.6938 21.1723 10.6938 20.4643 11.4018L16.3125 15.5592V1.8125ZM3.625 19.9375C1.62559 19.9375 0 21.5631 0 23.5625V25.375C0 27.3744 1.62559 29 3.625 29H25.375C27.3744 29 29 27.3744 29 25.375V23.5625C29 21.5631 27.3744 19.9375 25.375 19.9375H19.626L17.0602 22.5033C15.6441 23.9193 13.3502 23.9193 11.9342 22.5033L9.37402 19.9375H3.625ZM24.4688 23.1094C24.8293 23.1094 25.175 23.2526 25.43 23.5075C25.6849 23.7625 25.8281 24.1082 25.8281 24.4688C25.8281 24.8293 25.6849 25.175 25.43 25.43C25.175 25.6849 24.8293 25.8281 24.4688 25.8281C24.1082 25.8281 23.7625 25.6849 23.5075 25.43C23.2526 25.175 23.1094 24.8293 23.1094 24.4688C23.1094 24.1082 23.2526 23.7625 23.5075 23.5075C23.7625 23.2526 24.1082 23.1094 24.4688 23.1094Z" fill="#EB9900"/>
</svg>
