<svg width="246" height="50" viewBox="0 0 246 50" fill="none" xmlns="http://www.w3.org/2000/svg">
<g filter="url(#filter0_d_44_440)">
<rect x="4" y="3" width="238" height="42" rx="5" fill="#EB9900" fill-opacity="0.15" shape-rendering="crispEdges"/>
</g>
<path d="M44.7614 31V16.4545H49.6761C50.8172 16.4545 51.75 16.6605 52.4744 17.0724C53.2036 17.4796 53.7434 18.0312 54.0938 18.7273C54.4441 19.4233 54.6193 20.1998 54.6193 21.0568C54.6193 21.9138 54.4441 22.6927 54.0938 23.3935C53.7481 24.0942 53.2131 24.6529 52.4886 25.0696C51.7642 25.4815 50.8362 25.6875 49.7045 25.6875H46.1818V24.125H49.6477C50.429 24.125 51.0563 23.9901 51.5298 23.7202C52.0033 23.4503 52.3466 23.0857 52.5597 22.6264C52.7775 22.1624 52.8864 21.6392 52.8864 21.0568C52.8864 20.4744 52.7775 19.9536 52.5597 19.4943C52.3466 19.035 52.0009 18.6752 51.5227 18.4148C51.0445 18.1496 50.41 18.017 49.6193 18.017H46.5227V31H44.7614ZM61.6861 31.2273C60.6349 31.2273 59.7282 30.9953 58.9659 30.5312C58.2083 30.0625 57.6236 29.4091 57.2116 28.571C56.8045 27.7282 56.6009 26.7481 56.6009 25.6307C56.6009 24.5133 56.8045 23.5284 57.2116 22.6761C57.6236 21.8191 58.1965 21.1515 58.9304 20.6733C59.669 20.1903 60.5308 19.9489 61.5156 19.9489C62.0838 19.9489 62.6449 20.0436 63.1989 20.233C63.7528 20.4223 64.2571 20.7301 64.7116 21.1562C65.1662 21.5777 65.5284 22.1364 65.7983 22.8324C66.0682 23.5284 66.2031 24.3854 66.2031 25.4034V26.1136H57.794V24.6648H64.4986C64.4986 24.0492 64.3755 23.5 64.1293 23.017C63.8878 22.5341 63.5421 22.1529 63.0923 21.8736C62.6473 21.5942 62.1217 21.4545 61.5156 21.4545C60.848 21.4545 60.2704 21.6203 59.7827 21.9517C59.2997 22.2784 58.928 22.7045 58.6676 23.2301C58.4072 23.7557 58.277 24.3191 58.277 24.9205V25.8864C58.277 26.7102 58.419 27.4086 58.7031 27.9815C58.992 28.5497 59.392 28.983 59.9034 29.2812C60.4148 29.5748 61.009 29.7216 61.6861 29.7216C62.1264 29.7216 62.5241 29.66 62.8793 29.5369C63.2391 29.4091 63.5492 29.2197 63.8097 28.9688C64.0701 28.7131 64.2713 28.3958 64.4134 28.017L66.0327 28.4716C65.8622 29.0208 65.5758 29.5038 65.1733 29.9205C64.7708 30.3324 64.2737 30.6544 63.6818 30.8864C63.09 31.1136 62.4247 31.2273 61.6861 31.2273ZM70.429 24.4375V31H68.7528V20.0909H70.3722V21.7955H70.5142C70.7699 21.2415 71.1581 20.7964 71.679 20.4602C72.1998 20.1193 72.8722 19.9489 73.696 19.9489C74.4347 19.9489 75.081 20.1004 75.6349 20.4034C76.1889 20.7017 76.6198 21.1562 76.9276 21.767C77.2353 22.3731 77.3892 23.1402 77.3892 24.0682V31H75.7131V24.1818C75.7131 23.3248 75.4905 22.6572 75.0455 22.179C74.6004 21.696 73.9896 21.4545 73.2131 21.4545C72.678 21.4545 72.1998 21.5705 71.7784 21.8026C71.3617 22.0346 71.0327 22.3731 70.7912 22.8182C70.5497 23.2633 70.429 23.803 70.429 24.4375ZM88.1793 22.5341L86.6737 22.9602C86.579 22.7093 86.4393 22.4654 86.2546 22.2287C86.0747 21.9872 85.8285 21.7884 85.516 21.6321C85.2035 21.4759 84.8034 21.3977 84.3157 21.3977C83.6481 21.3977 83.0917 21.5516 82.6467 21.8594C82.2063 22.1624 81.9862 22.5483 81.9862 23.017C81.9862 23.4337 82.1377 23.7628 82.4407 24.0043C82.7437 24.2457 83.2172 24.447 83.8612 24.608L85.4805 25.0057C86.4558 25.2424 87.1826 25.6046 87.6609 26.0923C88.1391 26.5753 88.3782 27.1979 88.3782 27.9602C88.3782 28.5852 88.1983 29.1439 87.8384 29.6364C87.4833 30.1288 86.9862 30.517 86.3469 30.8011C85.7077 31.0852 84.9644 31.2273 84.1168 31.2273C83.0041 31.2273 82.0832 30.9858 81.354 30.5028C80.6249 30.0199 80.1632 29.3144 79.9691 28.3864L81.56 27.9886C81.7115 28.5758 81.998 29.0161 82.4194 29.3097C82.8455 29.6032 83.4019 29.75 84.0884 29.75C84.8697 29.75 85.4899 29.5843 85.9492 29.2528C86.4132 28.9167 86.6452 28.5142 86.6452 28.0455C86.6452 27.6667 86.5127 27.3494 86.2475 27.0938C85.9824 26.8333 85.5752 26.6392 85.0259 26.5114L83.2077 26.0852C82.2087 25.8485 81.4748 25.4815 81.006 24.9844C80.542 24.4825 80.31 23.8551 80.31 23.1023C80.31 22.4867 80.4828 21.9422 80.8285 21.4688C81.1789 20.9953 81.6547 20.6236 82.256 20.3537C82.8621 20.0838 83.5487 19.9489 84.3157 19.9489C85.3952 19.9489 86.2428 20.1856 86.8583 20.6591C87.4786 21.1326 87.9189 21.7576 88.1793 22.5341ZM94.1115 31.2557C93.4202 31.2557 92.7929 31.1255 92.2294 30.8651C91.666 30.5999 91.2185 30.2188 90.8871 29.7216C90.5556 29.2197 90.3899 28.6136 90.3899 27.9034C90.3899 27.2784 90.513 26.7718 90.7592 26.3835C91.0054 25.9905 91.3345 25.6828 91.7464 25.4602C92.1584 25.2377 92.6129 25.072 93.1101 24.9631C93.612 24.8494 94.1162 24.7595 94.6229 24.6932C95.2857 24.608 95.8232 24.544 96.2351 24.5014C96.6518 24.4541 96.9548 24.3759 97.1442 24.267C97.3383 24.1581 97.4354 23.9687 97.4354 23.6989V23.642C97.4354 22.9413 97.2436 22.3968 96.8601 22.0085C96.4813 21.6203 95.906 21.4261 95.1342 21.4261C94.334 21.4261 93.7067 21.6013 93.2521 21.9517C92.7976 22.3021 92.478 22.6761 92.2933 23.0739L90.7024 22.5057C90.9865 21.8428 91.3653 21.3267 91.8388 20.9574C92.317 20.5833 92.8378 20.3229 93.4013 20.1761C93.9695 20.0246 94.5282 19.9489 95.0774 19.9489C95.4278 19.9489 95.8303 19.9915 96.2848 20.0767C96.7441 20.1572 97.1868 20.3253 97.6129 20.581C98.0438 20.8366 98.4013 21.2225 98.6854 21.7386C98.9695 22.2547 99.1115 22.946 99.1115 23.8125V31H97.4354V29.5227H97.3501C97.2365 29.7595 97.0471 30.0128 96.782 30.2827C96.5168 30.5526 96.1641 30.7822 95.7237 30.9716C95.2834 31.161 94.746 31.2557 94.1115 31.2557ZM94.3672 29.75C95.0301 29.75 95.5888 29.6198 96.0433 29.3594C96.5026 29.099 96.8482 28.7628 97.0803 28.3509C97.317 27.9389 97.4354 27.5057 97.4354 27.0511V25.517C97.3643 25.6023 97.2081 25.6804 96.9666 25.7514C96.7299 25.8177 96.4553 25.8769 96.1428 25.929C95.835 25.9763 95.5343 26.0189 95.2408 26.0568C94.9519 26.09 94.7176 26.1184 94.5376 26.142C94.102 26.1989 93.6948 26.2912 93.3161 26.419C92.942 26.5421 92.639 26.7292 92.407 26.9801C92.1797 27.2263 92.0661 27.5625 92.0661 27.9886C92.0661 28.571 92.2815 29.0114 92.7124 29.3097C93.148 29.6032 93.6996 29.75 94.3672 29.75ZM102.171 31V20.0909H103.79V21.7386H103.904C104.103 21.1989 104.462 20.7609 104.983 20.4247C105.504 20.0885 106.091 19.9205 106.745 19.9205C106.868 19.9205 107.022 19.9228 107.206 19.9276C107.391 19.9323 107.531 19.9394 107.625 19.9489V21.6534C107.569 21.6392 107.438 21.6179 107.235 21.5895C107.036 21.5563 106.825 21.5398 106.603 21.5398C106.072 21.5398 105.599 21.651 105.182 21.8736C104.77 22.0914 104.444 22.3944 104.202 22.7827C103.965 23.1662 103.847 23.6042 103.847 24.0966V31H102.171ZM115.237 31V20.0909H116.857V21.7955H116.999C117.226 21.2131 117.593 20.7609 118.099 20.4389C118.606 20.1122 119.214 19.9489 119.925 19.9489C120.644 19.9489 121.243 20.1122 121.722 20.4389C122.205 20.7609 122.581 21.2131 122.851 21.7955H122.964C123.244 21.232 123.663 20.7846 124.222 20.4531C124.78 20.117 125.45 19.9489 126.232 19.9489C127.207 19.9489 128.005 20.2543 128.625 20.8651C129.245 21.4711 129.555 22.4157 129.555 23.6989V31H127.879V23.6989C127.879 22.8939 127.659 22.3187 127.219 21.973C126.778 21.6274 126.26 21.4545 125.663 21.4545C124.896 21.4545 124.302 21.6866 123.881 22.1506C123.459 22.6098 123.249 23.1922 123.249 23.8977V31H121.544V23.5284C121.544 22.9081 121.343 22.4086 120.94 22.0298C120.538 21.6463 120.019 21.4545 119.385 21.4545C118.949 21.4545 118.542 21.5705 118.163 21.8026C117.789 22.0346 117.486 22.3565 117.254 22.7685C117.027 23.1757 116.913 23.6468 116.913 24.1818V31H115.237ZM137.194 31.2273C136.143 31.2273 135.236 30.9953 134.474 30.5312C133.716 30.0625 133.131 29.4091 132.719 28.571C132.312 27.7282 132.109 26.7481 132.109 25.6307C132.109 24.5133 132.312 23.5284 132.719 22.6761C133.131 21.8191 133.704 21.1515 134.438 20.6733C135.177 20.1903 136.039 19.9489 137.023 19.9489C137.592 19.9489 138.153 20.0436 138.707 20.233C139.261 20.4223 139.765 20.7301 140.219 21.1562C140.674 21.5777 141.036 22.1364 141.306 22.8324C141.576 23.5284 141.711 24.3854 141.711 25.4034V26.1136H133.302V24.6648H140.006C140.006 24.0492 139.883 23.5 139.637 23.017C139.396 22.5341 139.05 22.1529 138.6 21.8736C138.155 21.5942 137.629 21.4545 137.023 21.4545C136.356 21.4545 135.778 21.6203 135.29 21.9517C134.808 22.2784 134.436 22.7045 134.175 23.2301C133.915 23.7557 133.785 24.3191 133.785 24.9205V25.8864C133.785 26.7102 133.927 27.4086 134.211 27.9815C134.5 28.5497 134.9 28.983 135.411 29.2812C135.923 29.5748 136.517 29.7216 137.194 29.7216C137.634 29.7216 138.032 29.66 138.387 29.5369C138.747 29.4091 139.057 29.2197 139.317 28.9688C139.578 28.7131 139.779 28.3958 139.921 28.017L141.54 28.4716C141.37 29.0208 141.084 29.5038 140.681 29.9205C140.279 30.3324 139.781 30.6544 139.19 30.8864C138.598 31.1136 137.933 31.2273 137.194 31.2273ZM145.937 16.4545V31H144.261V16.4545H145.937ZM150.683 24.4375V31H149.007V16.4545H150.683V21.7955H150.825C151.081 21.232 151.464 20.7846 151.975 20.4531C152.492 20.117 153.178 19.9489 154.035 19.9489C154.779 19.9489 155.43 20.098 155.988 20.3963C156.547 20.6899 156.98 21.142 157.288 21.7528C157.6 22.3589 157.757 23.1307 157.757 24.0682V31H156.081V24.1818C156.081 23.3153 155.856 22.6454 155.406 22.1719C154.961 21.6937 154.343 21.4545 153.552 21.4545C153.003 21.4545 152.511 21.5705 152.075 21.8026C151.644 22.0346 151.303 22.3731 151.052 22.8182C150.806 23.2633 150.683 23.803 150.683 24.4375ZM165.255 31.2273C164.27 31.2273 163.406 30.9929 162.663 30.5241C161.924 30.0554 161.346 29.3996 160.93 28.5568C160.518 27.714 160.312 26.7292 160.312 25.6023C160.312 24.4659 160.518 23.474 160.93 22.6264C161.346 21.7789 161.924 21.1207 162.663 20.652C163.406 20.1832 164.27 19.9489 165.255 19.9489C166.24 19.9489 167.102 20.1832 167.84 20.652C168.584 21.1207 169.161 21.7789 169.573 22.6264C169.99 23.474 170.198 24.4659 170.198 25.6023C170.198 26.7292 169.99 27.714 169.573 28.5568C169.161 29.3996 168.584 30.0554 167.84 30.5241C167.102 30.9929 166.24 31.2273 165.255 31.2273ZM165.255 29.7216C166.003 29.7216 166.619 29.5298 167.102 29.1463C167.585 28.7628 167.942 28.2585 168.174 27.6335C168.406 27.0085 168.522 26.3314 168.522 25.6023C168.522 24.8731 168.406 24.1937 168.174 23.5639C167.942 22.9342 167.585 22.4252 167.102 22.0369C166.619 21.6487 166.003 21.4545 165.255 21.4545C164.507 21.4545 163.891 21.6487 163.408 22.0369C162.925 22.4252 162.568 22.9342 162.336 23.5639C162.104 24.1937 161.988 24.8731 161.988 25.6023C161.988 26.3314 162.104 27.0085 162.336 27.6335C162.568 28.2585 162.925 28.7628 163.408 29.1463C163.891 29.5298 164.507 29.7216 165.255 29.7216ZM172.757 31V20.0909H174.376V21.7386H174.49C174.689 21.1989 175.048 20.7609 175.569 20.4247C176.09 20.0885 176.677 19.9205 177.331 19.9205C177.454 19.9205 177.608 19.9228 177.792 19.9276C177.977 19.9323 178.117 19.9394 178.211 19.9489V21.6534C178.154 21.6392 178.024 21.6179 177.821 21.5895C177.622 21.5563 177.411 21.5398 177.189 21.5398C176.658 21.5398 176.185 21.651 175.768 21.8736C175.356 22.0914 175.029 22.3944 174.788 22.7827C174.551 23.1662 174.433 23.6042 174.433 24.0966V31H172.757Z" fill="black"/>
<defs>
<filter id="filter0_d_44_440" x="0" y="0" width="246" height="50" filterUnits="userSpaceOnUse" color-interpolation-filters="sRGB">
<feFlood flood-opacity="0" result="BackgroundImageFix"/>
<feColorMatrix in="SourceAlpha" type="matrix" values="0 0 0 0 0 0 0 0 0 0 0 0 0 0 0 0 0 0 127 0" result="hardAlpha"/>
<feOffset dy="1"/>
<feGaussianBlur stdDeviation="2"/>
<feComposite in2="hardAlpha" operator="out"/>
<feColorMatrix type="matrix" values="0 0 0 0 0 0 0 0 0 0 0 0 0 0 0 0 0 0 0.25 0"/>
<feBlend mode="normal" in2="BackgroundImageFix" result="effect1_dropShadow_44_440"/>
<feBlend mode="normal" in="SourceGraphic" in2="effect1_dropShadow_44_440" result="shape"/>
</filter>
</defs>
</svg>
