<svg width="66" height="66" viewBox="0 0 66 66" fill="none" xmlns="http://www.w3.org/2000/svg">
<g filter="url(#filter0_d_57_177)">
<circle cx="33" cy="33" r="27" fill="#640564"/>
</g>
<path d="M26.9552 25.8555H24.9332C24.8962 25.5939 24.8208 25.3615 24.7069 25.1584C24.5931 24.9522 24.4469 24.7768 24.2684 24.6321C24.0899 24.4875 23.8837 24.3767 23.6498 24.2997C23.419 24.2228 23.1681 24.1843 22.8973 24.1843C22.4079 24.1843 21.9817 24.3059 21.6185 24.549C21.2554 24.7891 20.9738 25.1399 20.7737 25.6016C20.5737 26.0601 20.4736 26.6172 20.4736 27.2727C20.4736 27.9467 20.5737 28.513 20.7737 28.9716C20.9768 29.4302 21.26 29.7764 21.6231 30.0103C21.9863 30.2442 22.4064 30.3612 22.8834 30.3612C23.1512 30.3612 23.3989 30.3258 23.6267 30.255C23.8575 30.1842 24.0622 30.0811 24.2407 29.9457C24.4192 29.8072 24.5669 29.6394 24.6839 29.4425C24.8039 29.2455 24.887 29.0208 24.9332 28.7685L26.9552 28.7777C26.9029 29.2116 26.7721 29.6302 26.5628 30.0334C26.3566 30.4335 26.078 30.792 25.7272 31.109C25.3794 31.4229 24.9639 31.6722 24.4807 31.8569C24.0006 32.0385 23.4574 32.1293 22.8511 32.1293C22.0078 32.1293 21.2538 31.9384 20.5891 31.5568C19.9274 31.1752 19.4042 30.6228 19.0194 29.8995C18.6378 29.1763 18.447 28.3007 18.447 27.2727C18.447 26.2417 18.6409 25.3646 19.0287 24.6413C19.4165 23.9181 19.9427 23.3672 20.6075 22.9886C21.2723 22.607 22.0202 22.4162 22.8511 22.4162C23.3989 22.4162 23.9068 22.4931 24.3746 22.647C24.8454 22.8009 25.2625 23.0256 25.6256 23.321C25.9888 23.6134 26.2842 23.9719 26.512 24.3967C26.7428 24.8214 26.8905 25.3076 26.9552 25.8555ZM27.8317 32V24.9091H29.7383V26.1463H29.8121C29.9414 25.7062 30.1584 25.3738 30.463 25.1491C30.7677 24.9214 31.1186 24.8075 31.5156 24.8075C31.6141 24.8075 31.7203 24.8137 31.8341 24.826C31.948 24.8383 32.048 24.8552 32.1342 24.8768V26.6218C32.0419 26.5941 31.9142 26.5695 31.751 26.5479C31.5879 26.5264 31.4387 26.5156 31.3032 26.5156C31.0139 26.5156 30.7554 26.5787 30.5277 26.7049C30.303 26.828 30.1245 27.0004 29.9922 27.2219C29.8629 27.4435 29.7983 27.699 29.7983 27.9883V32H27.8317ZM32.631 32V24.9091H34.5976V32H32.631ZM33.6189 23.995C33.3265 23.995 33.0757 23.8981 32.8664 23.7042C32.6602 23.5072 32.5571 23.2718 32.5571 22.9979C32.5571 22.727 32.6602 22.4947 32.8664 22.3008C33.0757 22.1038 33.3265 22.0053 33.6189 22.0053C33.9113 22.0053 34.1606 22.1038 34.3668 22.3008C34.5761 22.4947 34.6807 22.727 34.6807 22.9979C34.6807 23.2718 34.5761 23.5072 34.3668 23.7042C34.1606 23.8981 33.9113 23.995 33.6189 23.995ZM37.675 32.1339C37.2226 32.1339 36.8194 32.0554 36.4655 31.8984C36.1116 31.7384 35.8315 31.503 35.6253 31.1921C35.4222 30.8782 35.3206 30.4873 35.3206 30.0195C35.3206 29.6256 35.3929 29.2947 35.5376 29.027C35.6822 28.7592 35.8792 28.5438 36.1285 28.3807C36.3778 28.2176 36.6609 28.0945 36.9779 28.0114C37.298 27.9283 37.6335 27.8698 37.9843 27.8359C38.3967 27.7929 38.7291 27.7528 38.9815 27.7159C39.2338 27.6759 39.417 27.6174 39.5308 27.5405C39.6447 27.4635 39.7016 27.3497 39.7016 27.1989V27.1712C39.7016 26.8788 39.6093 26.6526 39.4246 26.4925C39.2431 26.3325 38.9845 26.2525 38.6491 26.2525C38.2951 26.2525 38.0135 26.331 37.8043 26.4879C37.595 26.6418 37.4565 26.8357 37.3888 27.0696L35.5699 26.9219C35.6622 26.491 35.8438 26.1186 36.1146 25.8047C36.3855 25.4877 36.7348 25.2446 37.1626 25.0753C37.5934 24.9029 38.092 24.8168 38.6583 24.8168C39.0523 24.8168 39.4293 24.8629 39.7893 24.9553C40.1525 25.0476 40.4741 25.1907 40.7542 25.3846C41.0373 25.5785 41.2605 25.8278 41.4236 26.1325C41.5867 26.4341 41.6683 26.7957 41.6683 27.2173V32H39.8032V31.0167H39.7478C39.6339 31.2383 39.4816 31.4337 39.2908 31.603C39.1 31.7692 38.8707 31.9 38.6029 31.9954C38.3352 32.0877 38.0259 32.1339 37.675 32.1339ZM38.2382 30.7766C38.5275 30.7766 38.783 30.7197 39.0045 30.6058C39.2261 30.4889 39.4 30.3319 39.5262 30.1349C39.6524 29.938 39.7155 29.7148 39.7155 29.4656V28.7131C39.6539 28.7531 39.5693 28.79 39.4616 28.8239C39.3569 28.8546 39.2384 28.8839 39.1061 28.9116C38.9738 28.9362 38.8414 28.9593 38.7091 28.9808C38.5768 28.9993 38.4567 29.0162 38.349 29.0316C38.1182 29.0655 37.9166 29.1193 37.7442 29.1932C37.5719 29.267 37.438 29.3671 37.3426 29.4933C37.2472 29.6164 37.1995 29.7702 37.1995 29.9549C37.1995 30.2227 37.2965 30.4273 37.4903 30.5689C37.6873 30.7074 37.9366 30.7766 38.2382 30.7766ZM42.674 32V24.9091H44.5806V26.1463H44.6545C44.7837 25.7062 45.0007 25.3738 45.3054 25.1491C45.6101 24.9214 45.9609 24.8075 46.3579 24.8075C46.4564 24.8075 46.5626 24.8137 46.6765 24.826C46.7904 24.8383 46.8904 24.8552 46.9766 24.8768V26.6218C46.8842 26.5941 46.7565 26.5695 46.5934 26.5479C46.4303 26.5264 46.281 26.5156 46.1456 26.5156C45.8563 26.5156 45.5978 26.5787 45.37 26.7049C45.1454 26.828 44.9668 27.0004 44.8345 27.2219C44.7052 27.4435 44.6406 27.699 44.6406 27.9883V32H42.674ZM19.387 44.1385C18.6607 44.1385 18.0359 43.9846 17.5127 43.6768C16.9926 43.366 16.5925 42.9351 16.3125 42.3842C16.0355 41.8333 15.897 41.1993 15.897 40.4822C15.897 39.7559 16.037 39.1188 16.3171 38.571C16.6002 38.0201 17.0019 37.5908 17.522 37.283C18.0421 36.9722 18.6607 36.8168 19.3778 36.8168C19.9964 36.8168 20.5381 36.9291 21.0028 37.1538C21.4675 37.3784 21.8353 37.6939 22.1061 38.1001C22.377 38.5064 22.5262 38.9834 22.5539 39.5312H20.6981C20.6458 39.1773 20.5073 38.8926 20.2826 38.6772C20.061 38.4587 19.7702 38.3494 19.4101 38.3494C19.1054 38.3494 18.8392 38.4325 18.6115 38.5987C18.3868 38.7618 18.2114 39.0004 18.0852 39.3143C17.959 39.6282 17.8959 40.0083 17.8959 40.4545C17.8959 40.907 17.9575 41.2917 18.0806 41.6087C18.2068 41.9257 18.3837 42.1673 18.6115 42.3335C18.8392 42.4996 19.1054 42.5827 19.4101 42.5827C19.6348 42.5827 19.8364 42.5366 20.0149 42.4442C20.1965 42.3519 20.3457 42.218 20.4627 42.0426C20.5827 41.8641 20.6612 41.6502 20.6981 41.4009H22.5539C22.5232 41.9426 22.3754 42.4196 22.1108 42.832C21.8492 43.2414 21.4875 43.5614 21.0259 43.7923C20.5642 44.0231 20.018 44.1385 19.387 44.1385ZM26.4969 44.1385C25.7798 44.1385 25.1597 43.9862 24.6365 43.6815C24.1164 43.3737 23.7147 42.9459 23.4316 42.3981C23.1484 41.8472 23.0069 41.2086 23.0069 40.4822C23.0069 39.7498 23.1484 39.1096 23.4316 38.5618C23.7147 38.0109 24.1164 37.5831 24.6365 37.2784C25.1597 36.9706 25.7798 36.8168 26.4969 36.8168C27.214 36.8168 27.8326 36.9706 28.3527 37.2784C28.8759 37.5831 29.2791 38.0109 29.5623 38.5618C29.8454 39.1096 29.987 39.7498 29.987 40.4822C29.987 41.2086 29.8454 41.8472 29.5623 42.3981C29.2791 42.9459 28.8759 43.3737 28.3527 43.6815C27.8326 43.9862 27.214 44.1385 26.4969 44.1385ZM26.5062 42.6151C26.8324 42.6151 27.1048 42.5227 27.3233 42.3381C27.5418 42.1503 27.7064 41.8949 27.8172 41.5717C27.9311 41.2486 27.988 40.8808 27.988 40.4684C27.988 40.056 27.9311 39.6882 27.8172 39.3651C27.7064 39.0419 27.5418 38.7865 27.3233 38.5987C27.1048 38.411 26.8324 38.3171 26.5062 38.3171C26.1768 38.3171 25.8999 38.411 25.6752 38.5987C25.4536 38.7865 25.2859 39.0419 25.172 39.3651C25.0612 39.6882 25.0058 40.056 25.0058 40.4684C25.0058 40.8808 25.0612 41.2486 25.172 41.5717C25.2859 41.8949 25.4536 42.1503 25.6752 42.3381C25.8999 42.5227 26.1768 42.6151 26.5062 42.6151ZM32.7124 39.9006V44H30.7457V36.9091H32.62V38.1602H32.7031C32.8601 37.7478 33.1232 37.4215 33.4925 37.1815C33.8619 36.9383 34.3097 36.8168 34.8359 36.8168C35.3284 36.8168 35.7577 36.9245 36.1239 37.1399C36.4902 37.3554 36.7749 37.6631 36.978 38.0632C37.1811 38.4602 37.2827 38.9342 37.2827 39.4851V44H35.3161V39.8359C35.3191 39.402 35.2083 39.0634 34.9837 38.8203C34.759 38.5741 34.4497 38.451 34.0558 38.451C33.7911 38.451 33.5572 38.5079 33.354 38.6218C33.154 38.7357 32.997 38.9019 32.8832 39.1204C32.7724 39.3358 32.7154 39.5959 32.7124 39.9006ZM42.0843 36.9091V38.3864H37.8141V36.9091H42.0843ZM38.7835 35.2102H40.7502V41.821C40.7502 42.0026 40.7779 42.1442 40.8333 42.2457C40.8886 42.3442 40.9656 42.4135 41.0641 42.4535C41.1656 42.4935 41.2826 42.5135 41.4149 42.5135C41.5073 42.5135 41.5996 42.5058 41.6919 42.4904C41.7842 42.4719 41.855 42.4581 41.9043 42.4489L42.2136 43.9123C42.1151 43.9431 41.9766 43.9785 41.7981 44.0185C41.6196 44.0616 41.4026 44.0877 41.1472 44.0969C40.6732 44.1154 40.2577 44.0523 39.9007 43.9077C39.5468 43.763 39.2713 43.5384 39.0744 43.2337C38.8774 42.929 38.7805 42.5443 38.7835 42.0795V35.2102ZM44.8674 44.1339C44.415 44.1339 44.0118 44.0554 43.6579 43.8984C43.304 43.7384 43.0239 43.503 42.8177 43.1921C42.6146 42.8782 42.513 42.4873 42.513 42.0195C42.513 41.6256 42.5853 41.2947 42.73 41.027C42.8746 40.7592 43.0716 40.5438 43.3209 40.3807C43.5702 40.2176 43.8533 40.0945 44.1703 40.0114C44.4904 39.9283 44.8259 39.8698 45.1767 39.8359C45.5891 39.7929 45.9215 39.7528 46.1739 39.7159C46.4262 39.6759 46.6094 39.6174 46.7232 39.5405C46.8371 39.4635 46.894 39.3497 46.894 39.1989V39.1712C46.894 38.8788 46.8017 38.6526 46.617 38.4925C46.4355 38.3325 46.1769 38.2525 45.8415 38.2525C45.4876 38.2525 45.2059 38.331 44.9967 38.4879C44.7874 38.6418 44.6489 38.8357 44.5812 39.0696L42.7623 38.9219C42.8546 38.491 43.0362 38.1186 43.307 37.8047C43.5779 37.4877 43.9272 37.2446 44.355 37.0753C44.7858 36.9029 45.2844 36.8168 45.8507 36.8168C46.2447 36.8168 46.6217 36.8629 46.9818 36.9553C47.3449 37.0476 47.6665 37.1907 47.9466 37.3846C48.2297 37.5785 48.4529 37.8278 48.616 38.1325C48.7791 38.4341 48.8607 38.7957 48.8607 39.2173V44H46.9956V43.0167H46.9402C46.8263 43.2383 46.674 43.4337 46.4832 43.603C46.2924 43.7692 46.0631 43.9 45.7953 43.9954C45.5276 44.0877 45.2183 44.1339 44.8674 44.1339ZM45.4306 42.7766C45.7199 42.7766 45.9754 42.7197 46.197 42.6058C46.4185 42.4889 46.5924 42.3319 46.7186 42.1349C46.8448 41.938 46.9079 41.7148 46.9079 41.4656V40.7131C46.8463 40.7531 46.7617 40.79 46.654 40.8239C46.5493 40.8546 46.4309 40.8839 46.2985 40.9116C46.1662 40.9362 46.0338 40.9593 45.9015 40.9808C45.7692 40.9993 45.6491 41.0162 45.5414 41.0316C45.3106 41.0655 45.109 41.1193 44.9367 41.1932C44.7643 41.267 44.6304 41.3671 44.535 41.4933C44.4396 41.6164 44.3919 41.7702 44.3919 41.9549C44.3919 42.2227 44.4889 42.4273 44.6827 42.5689C44.8797 42.7074 45.129 42.7766 45.4306 42.7766Z" fill="white"/>
<defs>
<filter id="filter0_d_57_177" x="0.2" y="0.2" width="65.6" height="65.6" filterUnits="userSpaceOnUse" color-interpolation-filters="sRGB">
<feFlood flood-opacity="0" result="BackgroundImageFix"/>
<feColorMatrix in="SourceAlpha" type="matrix" values="0 0 0 0 0 0 0 0 0 0 0 0 0 0 0 0 0 0 127 0" result="hardAlpha"/>
<feMorphology radius="1" operator="dilate" in="SourceAlpha" result="effect1_dropShadow_57_177"/>
<feOffset/>
<feGaussianBlur stdDeviation="2.4"/>
<feComposite in2="hardAlpha" operator="out"/>
<feColorMatrix type="matrix" values="0 0 0 0 0 0 0 0 0 0 0 0 0 0 0 0 0 0 0.25 0"/>
<feBlend mode="normal" in2="BackgroundImageFix" result="effect1_dropShadow_57_177"/>
<feBlend mode="normal" in="SourceGraphic" in2="effect1_dropShadow_57_177" result="shape"/>
</filter>
</defs>
</svg>
