<svg width="245" height="38" viewBox="0 0 245 38" fill="none" xmlns="http://www.w3.org/2000/svg">
<g filter="url(#filter0_d_43_62)">
<rect x="4" y="3" width="237" height="30" rx="5" fill="black" fill-opacity="0.47" shape-rendering="crispEdges"/>
</g>
<path d="M66.3026 25H63.4901L68.6108 10.4545H71.8636L76.9915 25H74.179L70.294 13.4375H70.1804L66.3026 25ZM66.3949 19.2969H74.0653V21.4134H66.3949V19.2969ZM81.3647 10.4545V25H78.7937V10.4545H81.3647ZM89.456 14.0909V16.0795H83.1847V14.0909H89.456ZM84.733 11.4773H87.304V21.7188C87.304 22.0644 87.3561 22.3295 87.4602 22.5142C87.5691 22.6941 87.7112 22.8172 87.8864 22.8835C88.0616 22.9498 88.2557 22.983 88.4688 22.983C88.6297 22.983 88.7765 22.9711 88.9091 22.9474C89.0464 22.9238 89.1506 22.9025 89.2216 22.8835L89.6548 24.8935C89.5175 24.9408 89.321 24.9929 89.0653 25.0497C88.8144 25.1065 88.5066 25.1397 88.142 25.1491C87.4981 25.1681 86.9181 25.071 86.402 24.858C85.8859 24.6402 85.4763 24.304 85.1733 23.8494C84.875 23.3949 84.7282 22.8267 84.733 22.1449V11.4773ZM96.3185 25.2131C95.2248 25.2131 94.2802 24.9858 93.4847 24.5312C92.694 24.072 92.0856 23.4233 91.6594 22.5852C91.2333 21.7424 91.0202 20.7505 91.0202 19.6094C91.0202 18.4872 91.2333 17.5024 91.6594 16.6548C92.0903 15.8026 92.6916 15.1397 93.4634 14.6662C94.2352 14.188 95.1419 13.9489 96.1836 13.9489C96.8559 13.9489 97.4904 14.0578 98.087 14.2756C98.6883 14.4886 99.2186 14.8201 99.6779 15.2699C100.142 15.7197 100.507 16.2926 100.772 16.9886C101.037 17.6799 101.169 18.5038 101.169 19.4602V20.2486H92.2276V18.5156H98.7049C98.7002 18.0232 98.5936 17.5852 98.3853 17.2017C98.177 16.8134 97.8858 16.508 97.5117 16.2855C97.1424 16.063 96.7115 15.9517 96.2191 15.9517C95.6935 15.9517 95.2319 16.0795 94.8342 16.3352C94.4364 16.5862 94.1263 16.9176 93.9038 17.3295C93.686 17.7367 93.5747 18.1842 93.57 18.6719V20.1847C93.57 20.8191 93.686 21.3636 93.918 21.8182C94.15 22.268 94.4743 22.6136 94.891 22.8551C95.3076 23.0919 95.7953 23.2102 96.354 23.2102C96.7281 23.2102 97.0666 23.1581 97.3697 23.054C97.6727 22.9451 97.9355 22.7865 98.158 22.5781C98.3806 22.3698 98.5487 22.1117 98.6623 21.804L101.063 22.0739C100.911 22.7083 100.623 23.2623 100.196 23.7358C99.775 24.2045 99.2352 24.5691 98.5771 24.8295C97.9189 25.0852 97.1661 25.2131 96.3185 25.2131ZM103.344 25V14.0909H105.837V15.9091H105.951C106.15 15.2794 106.491 14.794 106.974 14.4531C107.461 14.1075 108.018 13.9347 108.643 13.9347C108.785 13.9347 108.943 13.9418 109.119 13.956C109.299 13.9654 109.448 13.982 109.566 14.0057V16.3707C109.457 16.3329 109.284 16.2997 109.048 16.2713C108.816 16.2382 108.591 16.2216 108.373 16.2216C107.904 16.2216 107.483 16.3234 107.109 16.527C106.739 16.7259 106.448 17.0028 106.235 17.358C106.022 17.7131 105.915 18.1226 105.915 18.5866V25H103.344ZM114.218 25.2202C113.527 25.2202 112.904 25.0971 112.35 24.8509C111.801 24.5999 111.365 24.2306 111.043 23.7429C110.726 23.2552 110.567 22.6539 110.567 21.9389C110.567 21.3234 110.681 20.8144 110.908 20.4119C111.136 20.0095 111.446 19.6875 111.839 19.446C112.232 19.2045 112.674 19.0223 113.167 18.8991C113.664 18.7713 114.178 18.679 114.708 18.6222C115.347 18.5559 115.866 18.4967 116.263 18.4446C116.661 18.3878 116.95 18.3026 117.13 18.1889C117.315 18.0705 117.407 17.8883 117.407 17.642V17.5994C117.407 17.0644 117.248 16.6501 116.931 16.3565C116.614 16.063 116.157 15.9162 115.56 15.9162C114.931 15.9162 114.431 16.0535 114.062 16.3281C113.697 16.6027 113.451 16.9271 113.323 17.3011L110.923 16.9602C111.112 16.2973 111.424 15.7434 111.86 15.2983C112.296 14.8485 112.828 14.5123 113.458 14.2898C114.088 14.0625 114.784 13.9489 115.546 13.9489C116.072 13.9489 116.595 14.0104 117.116 14.1335C117.637 14.2566 118.112 14.4602 118.543 14.7443C118.974 15.0237 119.32 15.4048 119.58 15.8878C119.845 16.3707 119.978 16.9744 119.978 17.6989V25H117.506V23.5014H117.421C117.265 23.8045 117.045 24.0885 116.761 24.3537C116.481 24.6141 116.129 24.8248 115.702 24.9858C115.281 25.142 114.786 25.2202 114.218 25.2202ZM114.886 23.331C115.402 23.331 115.849 23.2292 116.228 23.0256C116.607 22.8172 116.898 22.5426 117.102 22.2017C117.31 21.8608 117.414 21.4891 117.414 21.0866V19.8011C117.334 19.8674 117.196 19.929 117.002 19.9858C116.813 20.0426 116.6 20.0923 116.363 20.1349C116.126 20.1776 115.892 20.2154 115.66 20.2486C115.428 20.2817 115.227 20.3101 115.056 20.3338C114.673 20.3859 114.329 20.4711 114.026 20.5895C113.723 20.7079 113.484 20.8736 113.309 21.0866C113.134 21.295 113.046 21.5649 113.046 21.8963C113.046 22.3698 113.219 22.7273 113.565 22.9688C113.91 23.2102 114.351 23.331 114.886 23.331ZM122.563 25V14.0909H125.056V15.9091H125.17C125.369 15.2794 125.71 14.794 126.192 14.4531C126.68 14.1075 127.237 13.9347 127.862 13.9347C128.004 13.9347 128.162 13.9418 128.337 13.956C128.517 13.9654 128.666 13.982 128.785 14.0057V16.3707C128.676 16.3329 128.503 16.2997 128.266 16.2713C128.034 16.2382 127.809 16.2216 127.592 16.2216C127.123 16.2216 126.701 16.3234 126.327 16.527C125.958 16.7259 125.667 17.0028 125.454 17.358C125.241 17.7131 125.134 18.1226 125.134 18.5866V25H122.563ZM138.202 10.4545V25H135.567V10.4545H138.202ZM141.056 25V10.4545H146.624C147.675 10.4545 148.549 10.6203 149.245 10.9517C149.945 11.2784 150.469 11.7259 150.814 12.294C151.165 12.8622 151.34 13.5062 151.34 14.2259C151.34 14.8177 151.226 15.3243 150.999 15.7457C150.772 16.1624 150.466 16.5009 150.083 16.7614C149.699 17.0218 149.271 17.2088 148.797 17.3224V17.4645C149.313 17.4929 149.808 17.6515 150.282 17.9403C150.76 18.2244 151.15 18.6269 151.453 19.1477C151.757 19.6686 151.908 20.2983 151.908 21.0369C151.908 21.7898 151.726 22.4669 151.361 23.0682C150.997 23.6648 150.447 24.1359 149.713 24.4815C148.98 24.8272 148.056 25 146.944 25H141.056ZM143.691 22.7983H146.525C147.481 22.7983 148.17 22.616 148.591 22.2514C149.017 21.8821 149.23 21.4086 149.23 20.831C149.23 20.4001 149.124 20.0118 148.911 19.6662C148.698 19.3158 148.395 19.0412 148.002 18.8423C147.609 18.6387 147.14 18.5369 146.596 18.5369H143.691V22.7983ZM143.691 16.6406H146.297C146.752 16.6406 147.161 16.5578 147.526 16.392C147.891 16.2216 148.177 15.9825 148.385 15.6747C148.598 15.3622 148.705 14.9929 148.705 14.5668C148.705 14.0033 148.506 13.5393 148.108 13.1747C147.715 12.8101 147.131 12.6278 146.354 12.6278H143.691V16.6406ZM156.068 25H153.256L158.376 10.4545H161.629L166.757 25H163.945L160.06 13.4375H159.946L156.068 25ZM156.161 19.2969H163.831V21.4134H156.161V19.2969ZM180.626 10.4545V25H178.282L171.429 15.0923H171.308V25H168.673V10.4545H171.031L177.877 20.3693H178.005V10.4545H180.626Z" fill="white"/>
<defs>
<filter id="filter0_d_43_62" x="0" y="0" width="245" height="38" filterUnits="userSpaceOnUse" color-interpolation-filters="sRGB">
<feFlood flood-opacity="0" result="BackgroundImageFix"/>
<feColorMatrix in="SourceAlpha" type="matrix" values="0 0 0 0 0 0 0 0 0 0 0 0 0 0 0 0 0 0 127 0" result="hardAlpha"/>
<feOffset dy="1"/>
<feGaussianBlur stdDeviation="2"/>
<feComposite in2="hardAlpha" operator="out"/>
<feColorMatrix type="matrix" values="0 0 0 0 0 0 0 0 0 0 0 0 0 0 0 0 0 0 0.25 0"/>
<feBlend mode="normal" in2="BackgroundImageFix" result="effect1_dropShadow_43_62"/>
<feBlend mode="normal" in="SourceGraphic" in2="effect1_dropShadow_43_62" result="shape"/>
</filter>
</defs>
</svg>
