<svg width="139" height="46" viewBox="0 0 139 46" fill="none" xmlns="http://www.w3.org/2000/svg">
<g filter="url(#filter0_d_57_291)">
<rect x="4" y="3" width="131" height="38" rx="5" fill="#640564"/>
</g>
<path d="M25.0036 16.0909V27H23.4908L17.9457 18.9993H17.8445V27H16.1985V16.0909H17.7219L23.2724 24.1023H23.3736V16.0909H25.0036ZM30.7231 27.1651C29.9561 27.1651 29.2867 26.9893 28.7149 26.6378C28.1432 26.2862 27.6993 25.7944 27.3833 25.1623C27.0672 24.5302 26.9092 23.7915 26.9092 22.9464C26.9092 22.0977 27.0672 21.3555 27.3833 20.7198C27.6993 20.0842 28.1432 19.5906 28.7149 19.239C29.2867 18.8874 29.9561 18.7116 30.7231 18.7116C31.4901 18.7116 32.1595 18.8874 32.7313 19.239C33.303 19.5906 33.7469 20.0842 34.0629 20.7198C34.379 21.3555 34.537 22.0977 34.537 22.9464C34.537 23.7915 34.379 24.5302 34.0629 25.1623C33.7469 25.7944 33.303 26.2862 32.7313 26.6378C32.1595 26.9893 31.4901 27.1651 30.7231 27.1651ZM30.7284 25.8281C31.2256 25.8281 31.6375 25.6967 31.9642 25.4339C32.2909 25.1712 32.5324 24.8214 32.6887 24.3846C32.8485 23.9478 32.9284 23.4666 32.9284 22.9411C32.9284 22.419 32.8485 21.9396 32.6887 21.5028C32.5324 21.0625 32.2909 20.7092 31.9642 20.4428C31.6375 20.1765 31.2256 20.0433 30.7284 20.0433C30.2277 20.0433 29.8122 20.1765 29.482 20.4428C29.1553 20.7092 28.912 21.0625 28.7522 21.5028C28.596 21.9396 28.5178 22.419 28.5178 22.9411C28.5178 23.4666 28.596 23.9478 28.7522 24.3846C28.912 24.8214 29.1553 25.1712 29.482 25.4339C29.8122 25.6967 30.2277 25.8281 30.7284 25.8281ZM43.0358 18.8182L40.0688 27H38.3643L35.392 18.8182H37.1018L39.1739 25.1143H39.2591L41.3259 18.8182H43.0358ZM47.7006 27.1651C46.9336 27.1651 46.2642 26.9893 45.6925 26.6378C45.1207 26.2862 44.6768 25.7944 44.3608 25.1623C44.0447 24.5302 43.8867 23.7915 43.8867 22.9464C43.8867 22.0977 44.0447 21.3555 44.3608 20.7198C44.6768 20.0842 45.1207 19.5906 45.6925 19.239C46.2642 18.8874 46.9336 18.7116 47.7006 18.7116C48.4677 18.7116 49.1371 18.8874 49.7088 19.239C50.2805 19.5906 50.7244 20.0842 51.0405 20.7198C51.3565 21.3555 51.5146 22.0977 51.5146 22.9464C51.5146 23.7915 51.3565 24.5302 51.0405 25.1623C50.7244 25.7944 50.2805 26.2862 49.7088 26.6378C49.1371 26.9893 48.4677 27.1651 47.7006 27.1651ZM47.706 25.8281C48.2031 25.8281 48.6151 25.6967 48.9418 25.4339C49.2685 25.1712 49.5099 24.8214 49.6662 24.3846C49.826 23.9478 49.9059 23.4666 49.9059 22.9411C49.9059 22.419 49.826 21.9396 49.6662 21.5028C49.5099 21.0625 49.2685 20.7092 48.9418 20.4428C48.6151 20.1765 48.2031 20.0433 47.706 20.0433C47.2053 20.0433 46.7898 20.1765 46.4595 20.4428C46.1328 20.7092 45.8896 21.0625 45.7298 21.5028C45.5735 21.9396 45.4954 22.419 45.4954 22.9411C45.4954 23.4666 45.5735 23.9478 45.7298 24.3846C45.8896 24.8214 46.1328 25.1712 46.4595 25.4339C46.7898 25.6967 47.2053 25.8281 47.706 25.8281ZM57.3899 27V16.0909H61.2784C62.1271 16.0909 62.8303 16.2454 63.3878 16.5543C63.9453 16.8633 64.3626 17.2859 64.6396 17.8221C64.9165 18.3548 65.055 18.9549 65.055 19.6225C65.055 20.2937 64.9148 20.8974 64.6342 21.4336C64.3572 21.9663 63.9382 22.3888 63.3771 22.7013C62.8196 23.0103 62.1183 23.1648 61.2731 23.1648H58.5991V21.7692H61.1239C61.6602 21.7692 62.0952 21.6768 62.429 21.4922C62.7628 21.304 63.0078 21.0483 63.1641 20.7251C63.3203 20.402 63.3984 20.0344 63.3984 19.6225C63.3984 19.2106 63.3203 18.8448 63.1641 18.5252C63.0078 18.2056 62.761 17.9553 62.4237 17.7741C62.0898 17.593 61.6495 17.5025 61.1026 17.5025H59.0359V27H57.3899ZM68.6306 16.0909V27H66.9846V16.0909H68.6306ZM79.8327 16.0909V27H78.3199L72.7748 18.9993H72.6736V27H71.0276V16.0909H72.551L78.1015 24.1023H78.2027V16.0909H79.8327Z" fill="white"/>
<path d="M122.643 23.5719C123.118 23.0975 123.118 22.3272 122.643 21.8529L116.572 15.7815C116.098 15.3071 115.327 15.3071 114.853 15.7815C114.379 16.2558 114.379 17.0261 114.853 17.5004L118.856 21.5H107.214C106.543 21.5 106 22.0426 106 22.7143C106 23.3859 106.543 23.9286 107.214 23.9286H118.852L114.857 27.9281C114.382 28.4024 114.382 29.1728 114.857 29.6471C115.331 30.1214 116.101 30.1214 116.576 29.6471L122.647 23.5757L122.643 23.5719Z" fill="white"/>
<defs>
<filter id="filter0_d_57_291" x="0" y="0" width="139" height="46" filterUnits="userSpaceOnUse" color-interpolation-filters="sRGB">
<feFlood flood-opacity="0" result="BackgroundImageFix"/>
<feColorMatrix in="SourceAlpha" type="matrix" values="0 0 0 0 0 0 0 0 0 0 0 0 0 0 0 0 0 0 127 0" result="hardAlpha"/>
<feOffset dy="1"/>
<feGaussianBlur stdDeviation="2"/>
<feComposite in2="hardAlpha" operator="out"/>
<feColorMatrix type="matrix" values="0 0 0 0 0 0 0 0 0 0 0 0 0 0 0 0 0 0 0.25 0"/>
<feBlend mode="normal" in2="BackgroundImageFix" result="effect1_dropShadow_57_291"/>
<feBlend mode="normal" in="SourceGraphic" in2="effect1_dropShadow_57_291" result="shape"/>
</filter>
</defs>
</svg>
