<svg width="223" height="50" viewBox="0 0 223 50" fill="none" xmlns="http://www.w3.org/2000/svg">
<g filter="url(#filter0_d_66_6)">
<rect x="4" y="3" width="215" height="42" rx="5" fill="#00BF00"/>
</g>
<path d="M23.7614 31V16.4545H28.6761C29.8125 16.4545 30.7453 16.6487 31.4744 17.0369C32.2036 17.4205 32.7434 17.9484 33.0938 18.6207C33.4441 19.2931 33.6193 20.0578 33.6193 20.9148C33.6193 21.7718 33.4441 22.5317 33.0938 23.1946C32.7434 23.8575 32.206 24.3783 31.4815 24.7571C30.7571 25.1312 29.8314 25.3182 28.7045 25.3182H24.7273V23.7273H28.6477C29.4242 23.7273 30.0492 23.6136 30.5227 23.3864C31.0009 23.1591 31.3466 22.8371 31.5597 22.4205C31.7775 21.9991 31.8864 21.4972 31.8864 20.9148C31.8864 20.3324 31.7775 19.8234 31.5597 19.3878C31.3419 18.9522 30.9938 18.616 30.5156 18.3793C30.0374 18.1378 29.4053 18.017 28.6193 18.017H25.5227V31H23.7614ZM30.608 24.4659L34.1875 31H32.142L28.6193 24.4659H30.608ZM40.7837 31.2273C39.7326 31.2273 38.8259 30.9953 38.0636 30.5312C37.306 30.0625 36.7212 29.4091 36.3093 28.571C35.9021 27.7282 35.6985 26.7481 35.6985 25.6307C35.6985 24.5133 35.9021 23.5284 36.3093 22.6761C36.7212 21.8191 37.2942 21.1515 38.0281 20.6733C38.7667 20.1903 39.6284 19.9489 40.6133 19.9489C41.1815 19.9489 41.7425 20.0436 42.2965 20.233C42.8505 20.4223 43.3548 20.7301 43.8093 21.1562C44.2638 21.5777 44.6261 22.1364 44.896 22.8324C45.1658 23.5284 45.3008 24.3854 45.3008 25.4034V26.1136H36.8917V24.6648H43.5962C43.5962 24.0492 43.4731 23.5 43.2269 23.017C42.9854 22.5341 42.6398 22.1529 42.19 21.8736C41.7449 21.5942 41.2193 21.4545 40.6133 21.4545C39.9457 21.4545 39.368 21.6203 38.8803 21.9517C38.3974 22.2784 38.0257 22.7045 37.7653 23.2301C37.5049 23.7557 37.3746 24.3191 37.3746 24.9205V25.8864C37.3746 26.7102 37.5167 27.4086 37.8008 27.9815C38.0896 28.5497 38.4897 28.983 39.0011 29.2812C39.5124 29.5748 40.1067 29.7216 40.7837 29.7216C41.2241 29.7216 41.6218 29.66 41.9769 29.5369C42.3368 29.4091 42.6469 29.2197 42.9073 28.9688C43.1677 28.7131 43.369 28.3958 43.511 28.017L45.1303 28.4716C44.9599 29.0208 44.6734 29.5038 44.271 29.9205C43.8685 30.3324 43.3713 30.6544 42.7795 30.8864C42.1876 31.1136 41.5224 31.2273 40.7837 31.2273ZM52.2823 31.2273C51.2596 31.2273 50.3789 30.9858 49.6403 30.5028C48.9016 30.0199 48.3335 29.3546 47.9357 28.5071C47.538 27.6596 47.3391 26.6913 47.3391 25.6023C47.3391 24.4943 47.5427 23.5166 47.9499 22.669C48.3619 21.8168 48.9348 21.1515 49.6687 20.6733C50.4073 20.1903 51.2691 19.9489 52.2539 19.9489C53.021 19.9489 53.7122 20.0909 54.3278 20.375C54.9433 20.6591 55.4476 21.0568 55.8406 21.5682C56.2335 22.0795 56.4774 22.6761 56.5721 23.358H54.896C54.7681 22.8608 54.484 22.4205 54.0437 22.0369C53.6081 21.6487 53.021 21.4545 52.2823 21.4545C51.6289 21.4545 51.056 21.625 50.5636 21.9659C50.0759 22.3021 49.6947 22.7779 49.4201 23.3935C49.1502 24.0043 49.0153 24.7216 49.0153 25.5455C49.0153 26.3883 49.1478 27.1222 49.413 27.7472C49.6829 28.3722 50.0617 28.8575 50.5494 29.2031C51.0418 29.5488 51.6194 29.7216 52.2823 29.7216C52.7179 29.7216 53.1133 29.6458 53.4684 29.4943C53.8235 29.3428 54.1242 29.125 54.3704 28.8409C54.6166 28.5568 54.7918 28.2159 54.896 27.8182H56.5721C56.4774 28.4621 56.243 29.0421 55.869 29.5582C55.4996 30.0696 55.0096 30.4768 54.3988 30.7798C53.7927 31.0781 53.0872 31.2273 52.2823 31.2273ZM63.5962 31.2273C62.5451 31.2273 61.6384 30.9953 60.8761 30.5312C60.1185 30.0625 59.5337 29.4091 59.1218 28.571C58.7146 27.7282 58.511 26.7481 58.511 25.6307C58.511 24.5133 58.7146 23.5284 59.1218 22.6761C59.5337 21.8191 60.1067 21.1515 60.8406 20.6733C61.5792 20.1903 62.4409 19.9489 63.4258 19.9489C63.994 19.9489 64.555 20.0436 65.109 20.233C65.663 20.4223 66.1673 20.7301 66.6218 21.1562C67.0763 21.5777 67.4386 22.1364 67.7085 22.8324C67.9783 23.5284 68.1133 24.3854 68.1133 25.4034V26.1136H59.7042V24.6648H66.4087C66.4087 24.0492 66.2856 23.5 66.0394 23.017C65.7979 22.5341 65.4523 22.1529 65.0025 21.8736C64.5574 21.5942 64.0318 21.4545 63.4258 21.4545C62.7582 21.4545 62.1805 21.6203 61.6928 21.9517C61.2099 22.2784 60.8382 22.7045 60.5778 23.2301C60.3174 23.7557 60.1871 24.3191 60.1871 24.9205V25.8864C60.1871 26.7102 60.3292 27.4086 60.6133 27.9815C60.9021 28.5497 61.3022 28.983 61.8136 29.2812C62.3249 29.5748 62.9192 29.7216 63.5962 29.7216C64.0366 29.7216 64.4343 29.66 64.7894 29.5369C65.1493 29.4091 65.4594 29.2197 65.7198 28.9688C65.9802 28.7131 66.1815 28.3958 66.3235 28.017L67.9428 28.4716C67.7724 29.0208 67.4859 29.5038 67.0835 29.9205C66.681 30.3324 66.1838 30.6544 65.592 30.8864C65.0001 31.1136 64.3349 31.2273 63.5962 31.2273ZM70.8903 31V16.4545H72.5664V21.8239H72.7085C72.8316 21.6345 73.002 21.393 73.2198 21.0994C73.4424 20.8011 73.7596 20.536 74.1715 20.304C74.5882 20.0672 75.1516 19.9489 75.8619 19.9489C76.7804 19.9489 77.5901 20.1785 78.2908 20.6378C78.9916 21.0971 79.5385 21.7481 79.9315 22.5909C80.3245 23.4337 80.521 24.428 80.521 25.5739C80.521 26.7292 80.3245 27.7306 79.9315 28.5781C79.5385 29.4209 78.994 30.0743 78.2979 30.5384C77.6019 30.9976 76.7994 31.2273 75.8903 31.2273C75.1895 31.2273 74.6284 31.1113 74.207 30.8793C73.7856 30.6425 73.4613 30.375 73.234 30.0767C73.0067 29.7737 72.8316 29.5227 72.7085 29.3239H72.5096V31H70.8903ZM72.538 25.5455C72.538 26.3693 72.6587 27.0961 72.9002 27.7259C73.1417 28.3509 73.4944 28.8409 73.9585 29.196C74.4225 29.5464 74.9906 29.7216 75.663 29.7216C76.3638 29.7216 76.9485 29.5369 77.4173 29.1676C77.8907 28.7936 78.2459 28.2917 78.4826 27.6619C78.7241 27.0275 78.8448 26.322 78.8448 25.5455C78.8448 24.7784 78.7264 24.0871 78.4897 23.4716C78.2577 22.8513 77.9049 22.3613 77.4315 22.0014C76.9627 21.6368 76.3732 21.4545 75.663 21.4545C74.9812 21.4545 74.4083 21.6274 73.9442 21.973C73.4802 22.3139 73.1299 22.7921 72.8931 23.4077C72.6564 24.0185 72.538 24.7311 72.538 25.5455ZM87.6587 31.2273C86.6076 31.2273 85.7009 30.9953 84.9386 30.5312C84.181 30.0625 83.5962 29.4091 83.1843 28.571C82.7771 27.7282 82.5735 26.7481 82.5735 25.6307C82.5735 24.5133 82.7771 23.5284 83.1843 22.6761C83.5962 21.8191 84.1692 21.1515 84.9031 20.6733C85.6417 20.1903 86.5034 19.9489 87.4883 19.9489C88.0565 19.9489 88.6175 20.0436 89.1715 20.233C89.7255 20.4223 90.2298 20.7301 90.6843 21.1562C91.1388 21.5777 91.5011 22.1364 91.771 22.8324C92.0408 23.5284 92.1758 24.3854 92.1758 25.4034V26.1136H83.7667V24.6648H90.4712C90.4712 24.0492 90.3481 23.5 90.1019 23.017C89.8604 22.5341 89.5148 22.1529 89.065 21.8736C88.6199 21.5942 88.0943 21.4545 87.4883 21.4545C86.8207 21.4545 86.243 21.6203 85.7553 21.9517C85.2724 22.2784 84.9007 22.7045 84.6403 23.2301C84.3799 23.7557 84.2496 24.3191 84.2496 24.9205V25.8864C84.2496 26.7102 84.3917 27.4086 84.6758 27.9815C84.9646 28.5497 85.3647 28.983 85.8761 29.2812C86.3874 29.5748 86.9817 29.7216 87.6587 29.7216C88.0991 29.7216 88.4968 29.66 88.8519 29.5369C89.2118 29.4091 89.5219 29.2197 89.7823 28.9688C90.0427 28.7131 90.244 28.3958 90.386 28.017L92.0053 28.4716C91.8349 29.0208 91.5484 29.5038 91.146 29.9205C90.7435 30.3324 90.2463 30.6544 89.6545 30.8864C89.0626 31.1136 88.3974 31.2273 87.6587 31.2273ZM94.7255 31V20.0909H96.3448V21.7386H96.4585C96.6573 21.1989 97.0172 20.7609 97.538 20.4247C98.0588 20.0885 98.646 19.9205 99.2994 19.9205C99.4225 19.9205 99.5763 19.9228 99.761 19.9276C99.9457 19.9323 100.085 19.9394 100.18 19.9489V21.6534C100.123 21.6392 99.993 21.6179 99.7894 21.5895C99.5906 21.5563 99.3799 21.5398 99.1573 21.5398C98.627 21.5398 98.1535 21.651 97.7369 21.8736C97.3249 22.0914 96.9982 22.3944 96.7567 22.7827C96.52 23.1662 96.4016 23.6042 96.4016 24.0966V31H94.7255ZM107.792 31V20.0909H109.411V21.7386H109.525C109.724 21.1989 110.084 20.7609 110.604 20.4247C111.125 20.0885 111.712 19.9205 112.366 19.9205C112.489 19.9205 112.643 19.9228 112.827 19.9276C113.012 19.9323 113.152 19.9394 113.246 19.9489V21.6534C113.19 21.6392 113.059 21.6179 112.856 21.5895C112.657 21.5563 112.446 21.5398 112.224 21.5398C111.693 21.5398 111.22 21.651 110.803 21.8736C110.391 22.0914 110.065 22.3944 109.823 22.7827C109.586 23.1662 109.468 23.6042 109.468 24.0966V31H107.792ZM119.475 31.2273C118.424 31.2273 117.517 30.9953 116.755 30.5312C115.997 30.0625 115.413 29.4091 115.001 28.571C114.594 27.7282 114.39 26.7481 114.39 25.6307C114.39 24.5133 114.594 23.5284 115.001 22.6761C115.413 21.8191 115.986 21.1515 116.719 20.6733C117.458 20.1903 118.32 19.9489 119.305 19.9489C119.873 19.9489 120.434 20.0436 120.988 20.233C121.542 20.4223 122.046 20.7301 122.501 21.1562C122.955 21.5777 123.317 22.1364 123.587 22.8324C123.857 23.5284 123.992 24.3854 123.992 25.4034V26.1136H115.583V24.6648H122.288C122.288 24.0492 122.165 23.5 121.918 23.017C121.677 22.5341 121.331 22.1529 120.881 21.8736C120.436 21.5942 119.911 21.4545 119.305 21.4545C118.637 21.4545 118.059 21.6203 117.572 21.9517C117.089 22.2784 116.717 22.7045 116.457 23.2301C116.196 23.7557 116.066 24.3191 116.066 24.9205V25.8864C116.066 26.7102 116.208 27.4086 116.492 27.9815C116.781 28.5497 117.181 28.983 117.692 29.2812C118.204 29.5748 118.798 29.7216 119.475 29.7216C119.915 29.7216 120.313 29.66 120.668 29.5369C121.028 29.4091 121.338 29.2197 121.599 28.9688C121.859 28.7131 122.06 28.3958 122.202 28.017L123.822 28.4716C123.651 29.0208 123.365 29.5038 122.962 29.9205C122.56 30.3324 122.063 30.6544 121.471 30.8864C120.879 31.1136 120.214 31.2273 119.475 31.2273ZM131.4 20.0909V21.5114H125.519V20.0909H131.4ZM127.281 31V18.5852C127.281 17.9602 127.427 17.4394 127.721 17.0227C128.014 16.6061 128.396 16.2936 128.864 16.0852C129.333 15.8769 129.828 15.7727 130.349 15.7727C130.761 15.7727 131.097 15.8059 131.357 15.8722C131.618 15.9384 131.812 16 131.94 16.0568L131.457 17.5057C131.371 17.4773 131.253 17.4418 131.102 17.3991C130.955 17.3565 130.761 17.3352 130.519 17.3352C129.965 17.3352 129.565 17.4749 129.319 17.7543C129.077 18.0336 128.957 18.4432 128.957 18.983V31H127.281ZM137.874 31.2273C136.822 31.2273 135.916 30.9953 135.153 30.5312C134.396 30.0625 133.811 29.4091 133.399 28.571C132.992 27.7282 132.788 26.7481 132.788 25.6307C132.788 24.5133 132.992 23.5284 133.399 22.6761C133.811 21.8191 134.384 21.1515 135.118 20.6733C135.857 20.1903 136.718 19.9489 137.703 19.9489C138.271 19.9489 138.832 20.0436 139.386 20.233C139.94 20.4223 140.445 20.7301 140.899 21.1562C141.354 21.5777 141.716 22.1364 141.986 22.8324C142.256 23.5284 142.391 24.3854 142.391 25.4034V26.1136H133.982V24.6648H140.686C140.686 24.0492 140.563 23.5 140.317 23.017C140.075 22.5341 139.73 22.1529 139.28 21.8736C138.835 21.5942 138.309 21.4545 137.703 21.4545C137.036 21.4545 136.458 21.6203 135.97 21.9517C135.487 22.2784 135.116 22.7045 134.855 23.2301C134.595 23.7557 134.464 24.3191 134.464 24.9205V25.8864C134.464 26.7102 134.607 27.4086 134.891 27.9815C135.179 28.5497 135.58 28.983 136.091 29.2812C136.602 29.5748 137.196 29.7216 137.874 29.7216C138.314 29.7216 138.712 29.66 139.067 29.5369C139.427 29.4091 139.737 29.2197 139.997 28.9688C140.258 28.7131 140.459 28.3958 140.601 28.017L142.22 28.4716C142.05 29.0208 141.763 29.5038 141.361 29.9205C140.958 30.3324 140.461 30.6544 139.869 30.8864C139.277 31.1136 138.612 31.2273 137.874 31.2273ZM144.94 31V20.0909H146.56V21.7386H146.673C146.872 21.1989 147.232 20.7609 147.753 20.4247C148.274 20.0885 148.861 19.9205 149.514 19.9205C149.637 19.9205 149.791 19.9228 149.976 19.9276C150.161 19.9323 150.3 19.9394 150.395 19.9489V21.6534C150.338 21.6392 150.208 21.6179 150.004 21.5895C149.805 21.5563 149.595 21.5398 149.372 21.5398C148.842 21.5398 148.368 21.651 147.952 21.8736C147.54 22.0914 147.213 22.3944 146.972 22.7827C146.735 23.1662 146.616 23.6042 146.616 24.0966V31H144.94ZM156.624 31.2273C155.572 31.2273 154.666 30.9953 153.903 30.5312C153.146 30.0625 152.561 29.4091 152.149 28.571C151.742 27.7282 151.538 26.7481 151.538 25.6307C151.538 24.5133 151.742 23.5284 152.149 22.6761C152.561 21.8191 153.134 21.1515 153.868 20.6733C154.607 20.1903 155.468 19.9489 156.453 19.9489C157.021 19.9489 157.582 20.0436 158.136 20.233C158.69 20.4223 159.195 20.7301 159.649 21.1562C160.104 21.5777 160.466 22.1364 160.736 22.8324C161.006 23.5284 161.141 24.3854 161.141 25.4034V26.1136H152.732V24.6648H159.436C159.436 24.0492 159.313 23.5 159.067 23.017C158.825 22.5341 158.48 22.1529 158.03 21.8736C157.585 21.5942 157.059 21.4545 156.453 21.4545C155.786 21.4545 155.208 21.6203 154.72 21.9517C154.237 22.2784 153.866 22.7045 153.605 23.2301C153.345 23.7557 153.214 24.3191 153.214 24.9205V25.8864C153.214 26.7102 153.357 27.4086 153.641 27.9815C153.929 28.5497 154.33 28.983 154.841 29.2812C155.352 29.5748 155.946 29.7216 156.624 29.7216C157.064 29.7216 157.462 29.66 157.817 29.5369C158.177 29.4091 158.487 29.2197 158.747 28.9688C159.008 28.7131 159.209 28.3958 159.351 28.017L160.97 28.4716C160.8 29.0208 160.513 29.5038 160.111 29.9205C159.708 30.3324 159.211 30.6544 158.619 30.8864C158.027 31.1136 157.362 31.2273 156.624 31.2273ZM157.845 18.7841L156.368 16.7955L154.891 18.7841H153.3V18.6705L155.601 15.7159H157.135L159.436 18.6705V18.7841H157.845ZM165.366 24.4375V31H163.69V20.0909H165.31V21.7955H165.452C165.707 21.2415 166.096 20.7964 166.616 20.4602C167.137 20.1193 167.81 19.9489 168.634 19.9489C169.372 19.9489 170.018 20.1004 170.572 20.4034C171.126 20.7017 171.557 21.1562 171.865 21.767C172.173 22.3731 172.327 23.1402 172.327 24.0682V31H170.651V24.1818C170.651 23.3248 170.428 22.6572 169.983 22.179C169.538 21.696 168.927 21.4545 168.151 21.4545C167.616 21.4545 167.137 21.5705 166.716 21.8026C166.299 22.0346 165.97 22.3731 165.729 22.8182C165.487 23.2633 165.366 23.803 165.366 24.4375ZM179.821 31.2273C178.799 31.2273 177.918 30.9858 177.179 30.5028C176.441 30.0199 175.873 29.3546 175.475 28.5071C175.077 27.6596 174.878 26.6913 174.878 25.6023C174.878 24.4943 175.082 23.5166 175.489 22.669C175.901 21.8168 176.474 21.1515 177.208 20.6733C177.946 20.1903 178.808 19.9489 179.793 19.9489C180.56 19.9489 181.251 20.0909 181.867 20.375C182.482 20.6591 182.987 21.0568 183.38 21.5682C183.773 22.0795 184.016 22.6761 184.111 23.358H182.435C182.307 22.8608 182.023 22.4205 181.583 22.0369C181.147 21.6487 180.56 21.4545 179.821 21.4545C179.168 21.4545 178.595 21.625 178.103 21.9659C177.615 22.3021 177.234 22.7779 176.959 23.3935C176.689 24.0043 176.554 24.7216 176.554 25.5455C176.554 26.3883 176.687 27.1222 176.952 27.7472C177.222 28.3722 177.601 28.8575 178.088 29.2031C178.581 29.5488 179.158 29.7216 179.821 29.7216C180.257 29.7216 180.652 29.6458 181.007 29.4943C181.363 29.3428 181.663 29.125 181.909 28.8409C182.156 28.5568 182.331 28.2159 182.435 27.8182H184.111C184.016 28.4621 183.782 29.0421 183.408 29.5582C183.039 30.0696 182.549 30.4768 181.938 30.7798C181.332 31.0781 180.626 31.2273 179.821 31.2273ZM186.561 31V20.0909H188.238V31H186.561ZM187.414 18.2727C187.087 18.2727 186.805 18.1615 186.569 17.9389C186.337 17.7164 186.221 17.4489 186.221 17.1364C186.221 16.8239 186.337 16.5563 186.569 16.3338C186.805 16.1113 187.087 16 187.414 16C187.74 16 188.02 16.1113 188.252 16.3338C188.489 16.5563 188.607 16.8239 188.607 17.1364C188.607 17.4489 188.489 17.7164 188.252 17.9389C188.02 18.1615 187.74 18.2727 187.414 18.2727ZM194.518 31.2557C193.826 31.2557 193.199 31.1255 192.636 30.8651C192.072 30.5999 191.625 30.2188 191.293 29.7216C190.962 29.2197 190.796 28.6136 190.796 27.9034C190.796 27.2784 190.919 26.7718 191.165 26.3835C191.412 25.9905 191.741 25.6828 192.153 25.4602C192.565 25.2377 193.019 25.072 193.516 24.9631C194.018 24.8494 194.522 24.7595 195.029 24.6932C195.692 24.608 196.229 24.544 196.641 24.5014C197.058 24.4541 197.361 24.3759 197.55 24.267C197.745 24.1581 197.842 23.9687 197.842 23.6989V23.642C197.842 22.9413 197.65 22.3968 197.266 22.0085C196.888 21.6203 196.312 21.4261 195.54 21.4261C194.74 21.4261 194.113 21.6013 193.658 21.9517C193.204 22.3021 192.884 22.6761 192.7 23.0739L191.109 22.5057C191.393 21.8428 191.772 21.3267 192.245 20.9574C192.723 20.5833 193.244 20.3229 193.808 20.1761C194.376 20.0246 194.934 19.9489 195.484 19.9489C195.834 19.9489 196.237 19.9915 196.691 20.0767C197.15 20.1572 197.593 20.3253 198.019 20.581C198.45 20.8366 198.808 21.2225 199.092 21.7386C199.376 22.2547 199.518 22.946 199.518 23.8125V31H197.842V29.5227H197.756C197.643 29.7595 197.453 30.0128 197.188 30.2827C196.923 30.5526 196.57 30.7822 196.13 30.9716C195.69 31.161 195.152 31.2557 194.518 31.2557ZM194.773 29.75C195.436 29.75 195.995 29.6198 196.45 29.3594C196.909 29.099 197.254 28.7628 197.487 28.3509C197.723 27.9389 197.842 27.5057 197.842 27.0511V25.517C197.771 25.6023 197.614 25.6804 197.373 25.7514C197.136 25.8177 196.862 25.8769 196.549 25.929C196.241 25.9763 195.941 26.0189 195.647 26.0568C195.358 26.09 195.124 26.1184 194.944 26.142C194.508 26.1989 194.101 26.2912 193.722 26.419C193.348 26.5421 193.045 26.7292 192.813 26.9801C192.586 27.2263 192.472 27.5625 192.472 27.9886C192.472 28.571 192.688 29.0114 193.119 29.3097C193.554 29.6032 194.106 29.75 194.773 29.75Z" fill="black"/>
<defs>
<filter id="filter0_d_66_6" x="0" y="0" width="223" height="50" filterUnits="userSpaceOnUse" color-interpolation-filters="sRGB">
<feFlood flood-opacity="0" result="BackgroundImageFix"/>
<feColorMatrix in="SourceAlpha" type="matrix" values="0 0 0 0 0 0 0 0 0 0 0 0 0 0 0 0 0 0 127 0" result="hardAlpha"/>
<feOffset dy="1"/>
<feGaussianBlur stdDeviation="2"/>
<feComposite in2="hardAlpha" operator="out"/>
<feColorMatrix type="matrix" values="0 0 0 0 0 0 0 0 0 0 0 0 0 0 0 0 0 0 0.25 0"/>
<feBlend mode="normal" in2="BackgroundImageFix" result="effect1_dropShadow_66_6"/>
<feBlend mode="normal" in="SourceGraphic" in2="effect1_dropShadow_66_6" result="shape"/>
</filter>
</defs>
</svg>
