<svg width="245" height="38" viewBox="0 0 245 38" fill="none" xmlns="http://www.w3.org/2000/svg">
<g filter="url(#filter0_d_43_122)">
<rect x="4" y="3" width="237" height="30" rx="5" fill="black" fill-opacity="0.47" shape-rendering="crispEdges"/>
</g>
<path d="M53.3026 25H50.4901L55.6108 10.4545H58.8636L63.9915 25H61.179L57.294 13.4375H57.1804L53.3026 25ZM53.3949 19.2969H61.0653V21.4134H53.3949V19.2969ZM69.5099 25.1918C68.6529 25.1918 67.8859 24.9716 67.2088 24.5312C66.5317 24.0909 65.9967 23.4517 65.6037 22.6136C65.2107 21.7756 65.0142 20.7576 65.0142 19.5597C65.0142 18.3475 65.2131 17.3248 65.6108 16.4915C66.0133 15.6534 66.5554 15.0213 67.2372 14.5952C67.919 14.1643 68.679 13.9489 69.517 13.9489C70.1563 13.9489 70.6818 14.0578 71.0938 14.2756C71.5057 14.4886 71.8324 14.7467 72.0739 15.0497C72.3153 15.348 72.5024 15.6297 72.6349 15.8949H72.7415V10.4545H75.3196V25H72.7912V23.2812H72.6349C72.5024 23.5464 72.3106 23.8281 72.0597 24.1264C71.8087 24.42 71.4773 24.6709 71.0653 24.8793C70.6534 25.0876 70.1349 25.1918 69.5099 25.1918ZM70.2273 23.0824C70.7718 23.0824 71.2358 22.9356 71.6193 22.642C72.0028 22.3437 72.294 21.9295 72.4929 21.3991C72.6918 20.8688 72.7912 20.2509 72.7912 19.5455C72.7912 18.84 72.6918 18.2268 72.4929 17.706C72.2988 17.1851 72.0099 16.7803 71.6264 16.4915C71.2476 16.2027 70.7813 16.0582 70.2273 16.0582C69.6544 16.0582 69.1761 16.2074 68.7926 16.5057C68.4091 16.804 68.1203 17.2159 67.9261 17.7415C67.732 18.267 67.6349 18.8684 67.6349 19.5455C67.6349 20.2273 67.732 20.8357 67.9261 21.3707C68.125 21.901 68.4162 22.3201 68.7997 22.6278C69.188 22.9309 69.6638 23.0824 70.2273 23.0824ZM78.0593 25V14.0909H80.6303V25H78.0593ZM79.3519 12.5426C78.9447 12.5426 78.5943 12.4077 78.3008 12.1378C78.0072 11.8632 77.8604 11.5341 77.8604 11.1506C77.8604 10.7623 78.0072 10.4332 78.3008 10.1634C78.5943 9.88873 78.9447 9.75142 79.3519 9.75142C79.7638 9.75142 80.1142 9.88873 80.4031 10.1634C80.6966 10.4332 80.8434 10.7623 80.8434 11.1506C80.8434 11.5341 80.6966 11.8632 80.4031 12.1378C80.1142 12.4077 79.7638 12.5426 79.3519 12.5426ZM88.0327 25.2131C86.9437 25.2131 86.0085 24.974 85.2273 24.4957C84.4508 24.0175 83.8518 23.357 83.4304 22.5142C83.0137 21.6667 82.8054 20.6913 82.8054 19.5881C82.8054 18.4801 83.0185 17.5024 83.4446 16.6548C83.8707 15.8026 84.4721 15.1397 85.2486 14.6662C86.0298 14.188 86.9531 13.9489 88.0185 13.9489C88.9039 13.9489 89.6875 14.1122 90.3693 14.4389C91.0559 14.7609 91.6027 15.2178 92.0099 15.8097C92.4171 16.3968 92.6491 17.0833 92.706 17.8693H90.2486C90.1491 17.3437 89.9124 16.9058 89.5384 16.5554C89.169 16.2003 88.6742 16.0227 88.054 16.0227C87.5284 16.0227 87.0668 16.1648 86.669 16.4489C86.2713 16.7282 85.9612 17.1307 85.7386 17.6562C85.5208 18.1818 85.4119 18.8116 85.4119 19.5455C85.4119 20.2888 85.5208 20.928 85.7386 21.4631C85.9564 21.9934 86.2618 22.4029 86.6548 22.6918C87.0526 22.9759 87.5189 23.1179 88.054 23.1179C88.4328 23.1179 88.7713 23.0469 89.0696 22.9048C89.3726 22.758 89.6259 22.5473 89.8295 22.2727C90.0331 21.9981 90.1728 21.6643 90.2486 21.2713H92.706C92.6444 22.0431 92.4171 22.7273 92.0241 23.3239C91.6312 23.9157 91.0961 24.3797 90.419 24.7159C89.742 25.0473 88.9465 25.2131 88.0327 25.2131ZM94.8171 25V14.0909H97.3881V25H94.8171ZM96.1097 12.5426C95.7025 12.5426 95.3522 12.4077 95.0586 12.1378C94.765 11.8632 94.6183 11.5341 94.6183 11.1506C94.6183 10.7623 94.765 10.4332 95.0586 10.1634C95.3522 9.88873 95.7025 9.75142 96.1097 9.75142C96.5217 9.75142 96.872 9.88873 97.1609 10.1634C97.4544 10.4332 97.6012 10.7623 97.6012 11.1506C97.6012 11.5341 97.4544 11.8632 97.1609 12.1378C96.872 12.4077 96.5217 12.5426 96.1097 12.5426ZM104.79 25.2131C103.725 25.2131 102.802 24.9787 102.021 24.5099C101.239 24.0412 100.633 23.3854 100.202 22.5426C99.7763 21.6998 99.5632 20.715 99.5632 19.5881C99.5632 18.4612 99.7763 17.474 100.202 16.6264C100.633 15.7789 101.239 15.1207 102.021 14.652C102.802 14.1832 103.725 13.9489 104.79 13.9489C105.856 13.9489 106.779 14.1832 107.56 14.652C108.342 15.1207 108.945 15.7789 109.371 16.6264C109.802 17.474 110.018 18.4612 110.018 19.5881C110.018 20.715 109.802 21.6998 109.371 22.5426C108.945 23.3854 108.342 24.0412 107.56 24.5099C106.779 24.9787 105.856 25.2131 104.79 25.2131ZM104.805 23.1534C105.382 23.1534 105.865 22.9948 106.254 22.6776C106.642 22.3556 106.931 21.9247 107.12 21.3849C107.314 20.8452 107.411 20.2438 107.411 19.581C107.411 18.9134 107.314 18.3097 107.12 17.7699C106.931 17.2254 106.642 16.7921 106.254 16.4702C105.865 16.1482 105.382 15.9872 104.805 15.9872C104.213 15.9872 103.72 16.1482 103.327 16.4702C102.939 16.7921 102.648 17.2254 102.454 17.7699C102.264 18.3097 102.17 18.9134 102.17 19.581C102.17 20.2438 102.264 20.8452 102.454 21.3849C102.648 21.9247 102.939 22.3556 103.327 22.6776C103.72 22.9948 104.213 23.1534 104.805 23.1534ZM114.771 18.608V25H112.2V14.0909H114.657V15.9446H114.785C115.036 15.3338 115.436 14.8485 115.985 14.4886C116.539 14.1288 117.224 13.9489 118.038 13.9489C118.791 13.9489 119.447 14.1098 120.005 14.4318C120.569 14.7538 121.004 15.2202 121.312 15.831C121.625 16.4418 121.779 17.1828 121.774 18.054V25H119.203V18.4517C119.203 17.7225 119.013 17.152 118.635 16.7401C118.261 16.3281 117.742 16.1222 117.079 16.1222C116.629 16.1222 116.229 16.2216 115.879 16.4205C115.533 16.6146 115.261 16.8963 115.062 17.2656C114.868 17.6349 114.771 18.0824 114.771 18.608ZM127.527 25.2202C126.835 25.2202 126.213 25.0971 125.659 24.8509C125.109 24.5999 124.674 24.2306 124.352 23.7429C124.035 23.2552 123.876 22.6539 123.876 21.9389C123.876 21.3234 123.99 20.8144 124.217 20.4119C124.444 20.0095 124.754 19.6875 125.147 19.446C125.54 19.2045 125.983 19.0223 126.475 18.8991C126.973 18.7713 127.486 18.679 128.017 18.6222C128.656 18.5559 129.174 18.4967 129.572 18.4446C129.97 18.3878 130.259 18.3026 130.439 18.1889C130.623 18.0705 130.716 17.8883 130.716 17.642V17.5994C130.716 17.0644 130.557 16.6501 130.24 16.3565C129.922 16.063 129.466 15.9162 128.869 15.9162C128.239 15.9162 127.74 16.0535 127.37 16.3281C127.006 16.6027 126.76 16.9271 126.632 17.3011L124.231 16.9602C124.421 16.2973 124.733 15.7434 125.169 15.2983C125.604 14.8485 126.137 14.5123 126.767 14.2898C127.396 14.0625 128.092 13.9489 128.855 13.9489C129.38 13.9489 129.904 14.0104 130.424 14.1335C130.945 14.2566 131.421 14.4602 131.852 14.7443C132.283 15.0237 132.628 15.4048 132.889 15.8878C133.154 16.3707 133.287 16.9744 133.287 17.6989V25H130.815V23.5014H130.73C130.574 23.8045 130.353 24.0885 130.069 24.3537C129.79 24.6141 129.437 24.8248 129.011 24.9858C128.59 25.142 128.095 25.2202 127.527 25.2202ZM128.194 23.331C128.71 23.331 129.158 23.2292 129.537 23.0256C129.915 22.8172 130.207 22.5426 130.41 22.2017C130.618 21.8608 130.723 21.4891 130.723 21.0866V19.8011C130.642 19.8674 130.505 19.929 130.311 19.9858C130.121 20.0426 129.908 20.0923 129.672 20.1349C129.435 20.1776 129.2 20.2154 128.968 20.2486C128.736 20.2817 128.535 20.3101 128.365 20.3338C127.981 20.3859 127.638 20.4711 127.335 20.5895C127.032 20.7079 126.793 20.8736 126.618 21.0866C126.442 21.295 126.355 21.5649 126.355 21.8963C126.355 22.3698 126.528 22.7273 126.873 22.9688C127.219 23.2102 127.659 23.331 128.194 23.331ZM135.872 25V14.0909H138.365V15.9091H138.478C138.677 15.2794 139.018 14.794 139.501 14.4531C139.989 14.1075 140.545 13.9347 141.17 13.9347C141.312 13.9347 141.471 13.9418 141.646 13.956C141.826 13.9654 141.975 13.982 142.093 14.0057V16.3707C141.984 16.3329 141.812 16.2997 141.575 16.2713C141.343 16.2382 141.118 16.2216 140.9 16.2216C140.431 16.2216 140.01 16.3234 139.636 16.527C139.267 16.7259 138.975 17.0028 138.762 17.358C138.549 17.7131 138.443 18.1226 138.443 18.5866V25H135.872ZM151.511 10.4545V25H148.876V10.4545H151.511ZM154.364 25V10.4545H159.933C160.984 10.4545 161.857 10.6203 162.553 10.9517C163.254 11.2784 163.777 11.7259 164.123 12.294C164.473 12.8622 164.648 13.5062 164.648 14.2259C164.648 14.8177 164.535 15.3243 164.308 15.7457C164.08 16.1624 163.775 16.5009 163.391 16.7614C163.008 17.0218 162.579 17.2088 162.106 17.3224V17.4645C162.622 17.4929 163.117 17.6515 163.59 17.9403C164.068 18.2244 164.459 18.6269 164.762 19.1477C165.065 19.6686 165.217 20.2983 165.217 21.0369C165.217 21.7898 165.034 22.4669 164.67 23.0682C164.305 23.6648 163.756 24.1359 163.022 24.4815C162.288 24.8272 161.365 25 160.252 25H154.364ZM156.999 22.7983H159.833C160.79 22.7983 161.478 22.616 161.9 22.2514C162.326 21.8821 162.539 21.4086 162.539 20.831C162.539 20.4001 162.433 20.0118 162.219 19.6662C162.006 19.3158 161.703 19.0412 161.31 18.8423C160.917 18.6387 160.449 18.5369 159.904 18.5369H156.999V22.7983ZM156.999 16.6406H159.606C160.06 16.6406 160.47 16.5578 160.835 16.392C161.199 16.2216 161.486 15.9825 161.694 15.6747C161.907 15.3622 162.013 14.9929 162.013 14.5668C162.013 14.0033 161.815 13.5393 161.417 13.1747C161.024 12.8101 160.439 12.6278 159.663 12.6278H156.999V16.6406ZM169.377 25H166.564L171.685 10.4545H174.938L180.066 25H177.253L173.368 13.4375H173.255L169.377 25ZM169.469 19.2969H177.14V21.4134H169.469V19.2969ZM193.935 10.4545V25H191.591L184.737 15.0923H184.616V25H181.982V10.4545H184.339L191.186 20.3693H191.314V10.4545H193.935Z" fill="white"/>
<defs>
<filter id="filter0_d_43_122" x="0" y="0" width="245" height="38" filterUnits="userSpaceOnUse" color-interpolation-filters="sRGB">
<feFlood flood-opacity="0" result="BackgroundImageFix"/>
<feColorMatrix in="SourceAlpha" type="matrix" values="0 0 0 0 0 0 0 0 0 0 0 0 0 0 0 0 0 0 127 0" result="hardAlpha"/>
<feOffset dy="1"/>
<feGaussianBlur stdDeviation="2"/>
<feComposite in2="hardAlpha" operator="out"/>
<feColorMatrix type="matrix" values="0 0 0 0 0 0 0 0 0 0 0 0 0 0 0 0 0 0 0.25 0"/>
<feBlend mode="normal" in2="BackgroundImageFix" result="effect1_dropShadow_43_122"/>
<feBlend mode="normal" in="SourceGraphic" in2="effect1_dropShadow_43_122" result="shape"/>
</filter>
</defs>
</svg>
