<svg width="102" height="46" viewBox="0 0 102 46" fill="none" xmlns="http://www.w3.org/2000/svg">
<g filter="url(#filter0_d_57_165)">
<rect x="4" y="3" width="94" height="38" rx="5" fill="#640564"/>
</g>
<path d="M16.1985 27V16.0909H23.038V17.5078H17.8445V20.8317H22.6811V22.2433H17.8445V25.5831H23.1019V27H16.1985ZM26.7014 22.142V27H25.1088V18.8182H26.6375V20.1499H26.7387C26.9269 19.7166 27.2217 19.3686 27.623 19.1058C28.0278 18.843 28.5374 18.7116 29.1517 18.7116C29.7093 18.7116 30.1975 18.8288 30.6166 19.0632C31.0356 19.294 31.3605 19.6385 31.5914 20.0966C31.8222 20.5547 31.9376 21.1211 31.9376 21.7958V27H30.3449V21.9876C30.3449 21.3945 30.1904 20.9311 29.8815 20.5973C29.5725 20.2599 29.1482 20.0913 28.6084 20.0913C28.2391 20.0913 27.9106 20.1712 27.623 20.331C27.3389 20.4908 27.1134 20.7251 26.9465 21.0341C26.7831 21.3395 26.7014 21.7088 26.7014 22.142ZM37.8928 18.8182V20.0966H33.4237V18.8182H37.8928ZM34.6222 16.858H36.2149V24.5977C36.2149 24.9066 36.2611 25.1392 36.3534 25.2955C36.4458 25.4482 36.5647 25.5529 36.7103 25.6097C36.8595 25.663 37.021 25.6896 37.195 25.6896C37.3229 25.6896 37.4347 25.6808 37.5306 25.663C37.6265 25.6452 37.7011 25.631 37.7544 25.6204L38.042 26.9361C37.9497 26.9716 37.8183 27.0071 37.6478 27.0426C37.4774 27.0817 37.2643 27.103 37.0086 27.1065C36.5896 27.1136 36.199 27.0391 35.8367 26.8828C35.4745 26.7266 35.1816 26.4851 34.9578 26.1584C34.7341 25.8317 34.6222 25.4215 34.6222 24.9279V16.858ZM39.6547 27V18.8182H41.1941V20.1179H41.2793C41.4284 19.6776 41.6912 19.3313 42.0676 19.0792C42.4476 18.8235 42.8773 18.6957 43.3567 18.6957C43.4561 18.6957 43.5733 18.6992 43.7083 18.7063C43.8468 18.7134 43.9551 18.7223 44.0332 18.733V20.2564C43.9693 20.2386 43.8556 20.2191 43.6923 20.1978C43.5289 20.1729 43.3656 20.1605 43.2022 20.1605C42.8258 20.1605 42.4902 20.2404 42.1955 20.4002C41.9043 20.5565 41.6735 20.7749 41.503 21.0554C41.3326 21.3324 41.2473 21.6484 41.2473 22.0036V27H39.6547ZM47.7193 27.1811C47.2008 27.1811 46.7321 27.0852 46.313 26.8935C45.894 26.6982 45.562 26.4158 45.3169 26.0465C45.0755 25.6772 44.9547 25.2244 44.9547 24.6882C44.9547 24.2266 45.0435 23.8466 45.2211 23.5483C45.3986 23.25 45.6383 23.0138 45.9402 22.8398C46.242 22.6658 46.5794 22.5344 46.9522 22.4457C47.3251 22.3569 47.7051 22.2894 48.0922 22.2433C48.5822 22.1864 48.9799 22.1403 49.2853 22.1048C49.5907 22.0657 49.8127 22.0036 49.9512 21.9183C50.0897 21.8331 50.1589 21.6946 50.1589 21.5028V21.4656C50.1589 21.0004 50.0275 20.6399 49.7647 20.3842C49.5055 20.1286 49.1184 20.0007 48.6035 20.0007C48.0673 20.0007 47.6447 20.1197 47.3358 20.3576C47.0304 20.592 46.8191 20.853 46.7019 21.1406L45.2051 20.7997C45.3826 20.3026 45.6419 19.9013 45.9828 19.5959C46.3272 19.2869 46.7232 19.0632 47.1706 18.9247C47.6181 18.7827 48.0886 18.7116 48.5822 18.7116C48.9089 18.7116 49.2551 18.7507 49.6209 18.8288C49.9902 18.9034 50.3347 19.0419 50.6543 19.2443C50.9775 19.4467 51.242 19.7362 51.448 20.1126C51.6539 20.4854 51.7569 20.9702 51.7569 21.5668V27H50.2015V25.8814H50.1376C50.0346 26.0874 49.8801 26.2898 49.6742 26.4886C49.4682 26.6875 49.2037 26.8526 48.8805 26.984C48.5574 27.1154 48.1703 27.1811 47.7193 27.1811ZM48.0655 25.9027C48.5059 25.9027 48.8823 25.8157 49.1948 25.6417C49.5108 25.4677 49.7505 25.2404 49.9139 24.9599C50.0808 24.6758 50.1642 24.3722 50.1642 24.049V22.9943C50.1074 23.0511 49.9973 23.1044 49.834 23.1541C49.6742 23.2003 49.4913 23.2411 49.2853 23.2766C49.0794 23.3086 48.8787 23.3388 48.6834 23.3672C48.4881 23.392 48.3248 23.4134 48.1934 23.4311C47.8844 23.4702 47.6021 23.5359 47.3464 23.6282C47.0943 23.7205 46.8919 23.8537 46.7392 24.0277C46.59 24.1982 46.5154 24.4254 46.5154 24.7095C46.5154 25.1037 46.661 25.402 46.9522 25.6044C47.2434 25.8033 47.6145 25.9027 48.0655 25.9027ZM53.8783 27V18.8182H55.4177V20.1179H55.5029C55.6521 19.6776 55.9149 19.3313 56.2913 19.0792C56.6713 18.8235 57.1009 18.6957 57.5803 18.6957C57.6798 18.6957 57.797 18.6992 57.9319 18.7063C58.0704 18.7134 58.1787 18.7223 58.2568 18.733V20.2564C58.1929 20.2386 58.0793 20.2191 57.9159 20.1978C57.7526 20.1729 57.5892 20.1605 57.4259 20.1605C57.0494 20.1605 56.7139 20.2404 56.4191 20.4002C56.1279 20.5565 55.8971 20.7749 55.7267 21.0554C55.5562 21.3324 55.471 21.6484 55.471 22.0036V27H53.8783Z" fill="white"/>
<path d="M85.6433 23.5719C86.1176 23.0976 86.1176 22.3273 85.6433 21.853L79.5719 15.7815C79.0975 15.3072 78.3272 15.3072 77.8529 15.7815C77.3786 16.2559 77.3786 17.0262 77.8529 17.5005L81.8562 21.5001H70.2143C69.5426 21.5001 69 22.0427 69 22.7143C69 23.386 69.5426 23.9286 70.2143 23.9286H81.8525L77.8567 27.9282C77.3824 28.4025 77.3824 29.1728 77.8567 29.6472C78.331 30.1215 79.1013 30.1215 79.5757 29.6472L85.6471 23.5757L85.6433 23.5719Z" fill="white"/>
<defs>
<filter id="filter0_d_57_165" x="0" y="0" width="102" height="46" filterUnits="userSpaceOnUse" color-interpolation-filters="sRGB">
<feFlood flood-opacity="0" result="BackgroundImageFix"/>
<feColorMatrix in="SourceAlpha" type="matrix" values="0 0 0 0 0 0 0 0 0 0 0 0 0 0 0 0 0 0 127 0" result="hardAlpha"/>
<feOffset dy="1"/>
<feGaussianBlur stdDeviation="2"/>
<feComposite in2="hardAlpha" operator="out"/>
<feColorMatrix type="matrix" values="0 0 0 0 0 0 0 0 0 0 0 0 0 0 0 0 0 0 0.25 0"/>
<feBlend mode="normal" in2="BackgroundImageFix" result="effect1_dropShadow_57_165"/>
<feBlend mode="normal" in="SourceGraphic" in2="effect1_dropShadow_57_165" result="shape"/>
</filter>
</defs>
</svg>
