<svg width="172" height="46" viewBox="0 0 172 46" fill="none" xmlns="http://www.w3.org/2000/svg">
<g filter="url(#filter0_d_302_147)">
<rect x="4" y="3" width="164" height="38" rx="5" fill="#640564"/>
</g>
<path d="M24.1484 18.9567C24.0916 18.4524 23.8572 18.0618 23.4453 17.7848C23.0334 17.5043 22.5149 17.364 21.8899 17.364C21.4425 17.364 21.0554 17.435 20.7287 17.5771C20.402 17.7156 20.1481 17.9073 19.967 18.1523C19.7894 18.3938 19.7006 18.669 19.7006 18.978C19.7006 19.2372 19.761 19.4609 19.8817 19.6491C20.006 19.8374 20.1676 19.9954 20.3665 20.1232C20.5689 20.2475 20.7855 20.3523 21.0163 20.4375C21.2472 20.5192 21.4691 20.5866 21.6822 20.6399L22.7475 20.9169C23.0955 21.0021 23.4524 21.1175 23.8182 21.2631C24.1839 21.4087 24.5231 21.6005 24.8356 21.8384C25.1481 22.0763 25.4002 22.3711 25.592 22.7227C25.7873 23.0742 25.8849 23.495 25.8849 23.9851C25.8849 24.603 25.7251 25.1516 25.4055 25.631C25.0895 26.1104 24.6296 26.4886 24.0259 26.7656C23.4258 27.0426 22.6996 27.1811 21.8473 27.1811C21.0305 27.1811 20.3239 27.0515 19.7273 26.7923C19.1307 26.533 18.6637 26.1655 18.3263 25.6896C17.989 25.2102 17.8026 24.642 17.767 23.9851H19.4183C19.4503 24.3793 19.5781 24.7077 19.8018 24.9705C20.0291 25.2298 20.3185 25.4233 20.6701 25.5511C21.0252 25.6754 21.4141 25.7376 21.8366 25.7376C22.3018 25.7376 22.7156 25.6648 23.0778 25.5192C23.4435 25.37 23.7312 25.1641 23.9407 24.9013C24.1502 24.6349 24.255 24.3242 24.255 23.9691C24.255 23.646 24.1626 23.3814 23.978 23.1754C23.7969 22.9695 23.5501 22.799 23.2376 22.6641C22.9286 22.5291 22.5788 22.4102 22.1882 22.3072L20.8991 21.9556C20.0256 21.7177 19.3331 21.3679 18.8217 20.9062C18.3139 20.4446 18.06 19.8338 18.06 19.0739C18.06 18.4453 18.2305 17.8967 18.5714 17.4279C18.9123 16.9592 19.3739 16.5952 19.9563 16.3359C20.5387 16.0732 21.1957 15.9418 21.9272 15.9418C22.6658 15.9418 23.3175 16.0714 23.8821 16.3306C24.4503 16.5898 24.8977 16.9467 25.2244 17.4013C25.5511 17.8523 25.7216 18.3707 25.7358 18.9567H24.1484ZM31.1704 27.1651C30.3785 27.1651 29.6966 26.9858 29.1249 26.6271C28.5567 26.2649 28.1199 25.766 27.8145 25.1303C27.5091 24.4947 27.3564 23.7667 27.3564 22.9464C27.3564 22.1154 27.5127 21.3821 27.8252 20.7464C28.1377 20.1072 28.578 19.6083 29.1462 19.2496C29.7144 18.891 30.3838 18.7116 31.1544 18.7116C31.7758 18.7116 32.3298 18.8271 32.8163 19.0579C33.3028 19.2852 33.6952 19.6048 33.9935 20.0167C34.2954 20.4286 34.4747 20.9098 34.5315 21.4602H32.9814C32.8962 21.0767 32.7009 20.7464 32.3955 20.4695C32.0937 20.1925 31.6888 20.054 31.181 20.054C30.7371 20.054 30.3483 20.1712 30.0145 20.4055C29.6842 20.6364 29.4268 20.9666 29.2421 21.3963C29.0574 21.8224 28.9651 22.3267 28.9651 22.9091C28.9651 23.5057 29.0557 24.0206 29.2368 24.4538C29.4179 24.8871 29.6736 25.2227 30.0038 25.4606C30.3376 25.6985 30.73 25.8175 31.181 25.8175C31.4829 25.8175 31.7563 25.7624 32.0013 25.6523C32.2499 25.5387 32.4577 25.3771 32.6246 25.1676C32.795 24.9581 32.914 24.706 32.9814 24.4112H34.5315C34.4747 24.9403 34.3025 25.4126 34.0148 25.8281C33.7272 26.2436 33.3419 26.5703 32.8589 26.8082C32.3795 27.0462 31.8167 27.1651 31.1704 27.1651ZM38.6158 27.1811C38.0973 27.1811 37.6286 27.0852 37.2095 26.8935C36.7905 26.6982 36.4585 26.4158 36.2134 26.0465C35.9719 25.6772 35.8512 25.2244 35.8512 24.6882C35.8512 24.2266 35.94 23.8466 36.1175 23.5483C36.2951 23.25 36.5348 23.0138 36.8366 22.8398C37.1385 22.6658 37.4759 22.5344 37.8487 22.4457C38.2216 22.3569 38.6016 22.2894 38.9886 22.2433C39.4787 22.1864 39.8764 22.1403 40.1818 22.1048C40.4872 22.0657 40.7092 22.0036 40.8477 21.9183C40.9862 21.8331 41.0554 21.6946 41.0554 21.5028V21.4656C41.0554 21.0004 40.924 20.6399 40.6612 20.3842C40.402 20.1286 40.0149 20.0007 39.5 20.0007C38.9638 20.0007 38.5412 20.1197 38.2322 20.3576C37.9268 20.592 37.7156 20.853 37.5984 21.1406L36.1016 20.7997C36.2791 20.3026 36.5384 19.9013 36.8793 19.5959C37.2237 19.2869 37.6197 19.0632 38.0671 18.9247C38.5146 18.7827 38.9851 18.7116 39.4787 18.7116C39.8054 18.7116 40.1516 18.7507 40.5174 18.8288C40.8867 18.9034 41.2312 19.0419 41.5508 19.2443C41.8739 19.4467 42.1385 19.7362 42.3445 20.1126C42.5504 20.4854 42.6534 20.9702 42.6534 21.5668V27H41.098V25.8814H41.0341C40.9311 26.0874 40.7766 26.2898 40.5707 26.4886C40.3647 26.6875 40.1001 26.8526 39.777 26.984C39.4538 27.1154 39.0668 27.1811 38.6158 27.1811ZM38.962 25.9027C39.4023 25.9027 39.7788 25.8157 40.0913 25.6417C40.4073 25.4677 40.647 25.2404 40.8104 24.9599C40.9773 24.6758 41.0607 24.3722 41.0607 24.049V22.9943C41.0039 23.0511 40.8938 23.1044 40.7305 23.1541C40.5707 23.2003 40.3878 23.2411 40.1818 23.2766C39.9759 23.3086 39.7752 23.3388 39.5799 23.3672C39.3846 23.392 39.2212 23.4134 39.0898 23.4311C38.7809 23.4702 38.4986 23.5359 38.2429 23.6282C37.9908 23.7205 37.7884 23.8537 37.6357 24.0277C37.4865 24.1982 37.4119 24.4254 37.4119 24.7095C37.4119 25.1037 37.5575 25.402 37.8487 25.6044C38.1399 25.8033 38.511 25.9027 38.962 25.9027ZM46.3675 22.142V27H44.7748V18.8182H46.3035V20.1499H46.4047C46.593 19.7166 46.8877 19.3686 47.289 19.1058C47.6938 18.843 48.2034 18.7116 48.8177 18.7116C49.3753 18.7116 49.8635 18.8288 50.2826 19.0632C50.7016 19.294 51.0265 19.6385 51.2574 20.0966C51.4882 20.5547 51.6036 21.1211 51.6036 21.7958V27H50.0109V21.9876C50.0109 21.3945 49.8564 20.9311 49.5475 20.5973C49.2385 20.2599 48.8142 20.0913 48.2744 20.0913C47.9051 20.0913 47.5766 20.1712 47.289 20.331C47.0049 20.4908 46.7794 20.7251 46.6125 21.0341C46.4491 21.3395 46.3675 21.7088 46.3675 22.142ZM57.2659 27.1651C56.4598 27.1651 55.7655 26.9929 55.1831 26.6484C54.6043 26.3004 54.1569 25.8121 53.8408 25.1836C53.5283 24.5515 53.3721 23.8111 53.3721 22.9624C53.3721 22.1243 53.5283 21.3857 53.8408 20.7464C54.1569 20.1072 54.5972 19.6083 55.1618 19.2496C55.73 18.891 56.3941 18.7116 57.154 18.7116C57.6157 18.7116 58.0631 18.788 58.4964 18.9407C58.9296 19.0934 59.3184 19.3331 59.6629 19.6598C60.0074 19.9865 60.279 20.4109 60.4779 20.9329C60.6768 21.4513 60.7762 22.0817 60.7762 22.8239V23.3885H54.2723V22.1953H59.2155C59.2155 21.7763 59.1302 21.4052 58.9598 21.082C58.7893 20.7553 58.5496 20.4979 58.2407 20.3097C57.9353 20.1214 57.5766 20.0273 57.1647 20.0273C56.7172 20.0273 56.3266 20.1374 55.9928 20.3576C55.6626 20.5742 55.4069 20.8583 55.2258 21.2099C55.0482 21.5579 54.9594 21.9361 54.9594 22.3445V23.2766C54.9594 23.8235 55.0553 24.2887 55.2471 24.6722C55.4424 25.0558 55.714 25.3487 56.0621 25.5511C56.4101 25.75 56.8167 25.8494 57.2819 25.8494C57.5837 25.8494 57.8589 25.8068 58.1075 25.7216C58.3561 25.6328 58.5709 25.5014 58.752 25.3274C58.9332 25.1534 59.0716 24.9386 59.1675 24.6829L60.675 24.9545C60.5542 25.3984 60.3376 25.7873 60.0251 26.1211C59.7162 26.4513 59.3273 26.7088 58.8586 26.8935C58.3934 27.0746 57.8625 27.1651 57.2659 27.1651ZM64.9244 27.1811C64.4059 27.1811 63.9371 27.0852 63.5181 26.8935C63.0991 26.6982 62.767 26.4158 62.522 26.0465C62.2805 25.6772 62.1598 25.2244 62.1598 24.6882C62.1598 24.2266 62.2486 23.8466 62.4261 23.5483C62.6037 23.25 62.8434 23.0138 63.1452 22.8398C63.4471 22.6658 63.7844 22.5344 64.1573 22.4457C64.5302 22.3569 64.9102 22.2894 65.2972 22.2433C65.7873 22.1864 66.185 22.1403 66.4904 22.1048C66.7958 22.0657 67.0178 22.0036 67.1562 21.9183C67.2947 21.8331 67.364 21.6946 67.364 21.5028V21.4656C67.364 21.0004 67.2326 20.6399 66.9698 20.3842C66.7106 20.1286 66.3235 20.0007 65.8086 20.0007C65.2724 20.0007 64.8498 20.1197 64.5408 20.3576C64.2354 20.592 64.0241 20.853 63.907 21.1406L62.4102 20.7997C62.5877 20.3026 62.8469 19.9013 63.1879 19.5959C63.5323 19.2869 63.9283 19.0632 64.3757 18.9247C64.8232 18.7827 65.2937 18.7116 65.7873 18.7116C66.114 18.7116 66.4602 18.7507 66.826 18.8288C67.1953 18.9034 67.5398 19.0419 67.8594 19.2443C68.1825 19.4467 68.4471 19.7362 68.6531 20.1126C68.859 20.4854 68.962 20.9702 68.962 21.5668V27H67.4066V25.8814H67.3427C67.2397 26.0874 67.0852 26.2898 66.8793 26.4886C66.6733 26.6875 66.4087 26.8526 66.0856 26.984C65.7624 27.1154 65.3754 27.1811 64.9244 27.1811ZM65.2706 25.9027C65.7109 25.9027 66.0874 25.8157 66.3999 25.6417C66.7159 25.4677 66.9556 25.2404 67.119 24.9599C67.2859 24.6758 67.3693 24.3722 67.3693 24.049V22.9943C67.3125 23.0511 67.2024 23.1044 67.0391 23.1541C66.8793 23.2003 66.6964 23.2411 66.4904 23.2766C66.2844 23.3086 66.0838 23.3388 65.8885 23.3672C65.6932 23.392 65.5298 23.4134 65.3984 23.4311C65.0895 23.4702 64.8072 23.5359 64.5515 23.6282C64.2994 23.7205 64.0969 23.8537 63.9442 24.0277C63.7951 24.1982 63.7205 24.4254 63.7205 24.7095C63.7205 25.1037 63.8661 25.402 64.1573 25.6044C64.4485 25.8033 64.8196 25.9027 65.2706 25.9027ZM71.0834 27V18.8182H72.6228V20.1179H72.708C72.8572 19.6776 73.1199 19.3313 73.4964 19.0792C73.8763 18.8235 74.306 18.6957 74.7854 18.6957C74.8849 18.6957 75.002 18.6992 75.137 18.7063C75.2755 18.7134 75.3838 18.7223 75.4619 18.733V20.2564C75.398 20.2386 75.2844 20.2191 75.121 20.1978C74.9577 20.1729 74.7943 20.1605 74.6309 20.1605C74.2545 20.1605 73.9189 20.2404 73.6242 20.4002C73.333 20.5565 73.1022 20.7749 72.9317 21.0554C72.7613 21.3324 72.676 21.6484 72.676 22.0036V27H71.0834ZM80.9378 27V16.0909H84.9328C85.7069 16.0909 86.3479 16.2187 86.8557 16.4744C87.3635 16.7266 87.7435 17.0692 87.9956 17.5025C88.2478 17.9322 88.3738 18.4169 88.3738 18.9567C88.3738 19.4112 88.2904 19.7947 88.1235 20.1072C87.9566 20.4162 87.7329 20.6648 87.4523 20.853C87.1753 21.0376 86.8699 21.1726 86.5361 21.2578V21.3643C86.8983 21.3821 87.2517 21.4993 87.5961 21.7159C87.9442 21.929 88.2318 22.2326 88.4591 22.6268C88.6863 23.021 88.8 23.5004 88.8 24.065C88.8 24.6225 88.6686 25.1232 88.4058 25.5671C88.1466 26.0075 87.7453 26.3572 87.202 26.6165C86.6586 26.8722 85.9644 27 85.1192 27H80.9378ZM82.5837 25.5884H84.9594C85.7478 25.5884 86.3124 25.4357 86.6533 25.1303C86.9942 24.8249 87.1647 24.4432 87.1647 23.9851C87.1647 23.6406 87.0777 23.3246 86.9037 23.0369C86.7297 22.7493 86.4811 22.5202 86.1579 22.3498C85.8383 22.1793 85.4584 22.0941 85.018 22.0941H82.5837V25.5884ZM82.5837 20.8104H84.789C85.1583 20.8104 85.4903 20.7393 85.7851 20.5973C86.0834 20.4553 86.3195 20.2564 86.4935 20.0007C86.6711 19.7415 86.7599 19.4361 86.7599 19.0845C86.7599 18.6335 86.6018 18.2553 86.2858 17.9499C85.9697 17.6445 85.485 17.4918 84.8316 17.4918H82.5837V20.8104ZM90.6244 27V18.8182H92.2171V27H90.6244ZM91.4287 17.5558C91.1517 17.5558 90.9138 17.4634 90.7149 17.2788C90.5196 17.0906 90.422 16.8668 90.422 16.6076C90.422 16.3448 90.5196 16.1211 90.7149 15.9364C90.9138 15.7482 91.1517 15.6541 91.4287 15.6541C91.7057 15.6541 91.9419 15.7482 92.1372 15.9364C92.336 16.1211 92.4355 16.3448 92.4355 16.6076C92.4355 16.8668 92.336 17.0906 92.1372 17.2788C91.9419 17.4634 91.7057 17.5558 91.4287 17.5558ZM95.9524 16.0909V27H94.3597V16.0909H95.9524ZM99.6878 22.142V27H98.0951V16.0909H99.6665V20.1499H99.7677C99.9594 19.7095 100.252 19.3597 100.647 19.1005C101.041 18.8413 101.556 18.7116 102.191 18.7116C102.752 18.7116 103.242 18.8271 103.661 19.0579C104.084 19.2887 104.411 19.6332 104.642 20.0913C104.876 20.5458 104.993 21.114 104.993 21.7958V27H103.4V21.9876C103.4 21.3874 103.246 20.9222 102.937 20.592C102.628 20.2582 102.198 20.0913 101.648 20.0913C101.272 20.0913 100.934 20.1712 100.636 20.331C100.341 20.4908 100.109 20.7251 99.9381 21.0341C99.7712 21.3395 99.6878 21.7088 99.6878 22.142ZM110.645 27.1651C109.839 27.1651 109.144 26.9929 108.562 26.6484C107.983 26.3004 107.536 25.8121 107.22 25.1836C106.907 24.5515 106.751 23.8111 106.751 22.9624C106.751 22.1243 106.907 21.3857 107.22 20.7464C107.536 20.1072 107.976 19.6083 108.541 19.2496C109.109 18.891 109.773 18.7116 110.533 18.7116C110.995 18.7116 111.442 18.788 111.875 18.9407C112.309 19.0934 112.697 19.3331 113.042 19.6598C113.386 19.9865 113.658 20.4109 113.857 20.9329C114.056 21.4513 114.155 22.0817 114.155 22.8239V23.3885H107.651V22.1953H112.594C112.594 21.7763 112.509 21.4052 112.339 21.082C112.168 20.7553 111.929 20.4979 111.62 20.3097C111.314 20.1214 110.956 20.0273 110.544 20.0273C110.096 20.0273 109.706 20.1374 109.372 20.3576C109.041 20.5742 108.786 20.8583 108.605 21.2099C108.427 21.5579 108.338 21.9361 108.338 22.3445V23.2766C108.338 23.8235 108.434 24.2887 108.626 24.6722C108.821 25.0558 109.093 25.3487 109.441 25.5511C109.789 25.75 110.196 25.8494 110.661 25.8494C110.963 25.8494 111.238 25.8068 111.486 25.7216C111.735 25.6328 111.95 25.5014 112.131 25.3274C112.312 25.1534 112.451 24.9386 112.546 24.6829L114.054 24.9545C113.933 25.3984 113.717 25.7873 113.404 26.1211C113.095 26.4513 112.706 26.7088 112.237 26.8935C111.772 27.0746 111.241 27.1651 110.645 27.1651ZM119.741 18.8182V20.0966H115.272V18.8182H119.741ZM116.471 16.858H118.064V24.5977C118.064 24.9066 118.11 25.1392 118.202 25.2955C118.294 25.4482 118.413 25.5529 118.559 25.6097C118.708 25.663 118.87 25.6896 119.044 25.6896C119.172 25.6896 119.283 25.6808 119.379 25.663C119.475 25.6452 119.55 25.631 119.603 25.6204L119.891 26.9361C119.798 26.9716 119.667 27.0071 119.496 27.0426C119.326 27.0817 119.113 27.103 118.857 27.1065C118.438 27.1136 118.048 27.0391 117.685 26.8828C117.323 26.7266 117.03 26.4851 116.806 26.1584C116.583 25.8317 116.471 25.4215 116.471 24.9279V16.858ZM124.942 27.1651C124.136 27.1651 123.441 26.9929 122.859 26.6484C122.28 26.3004 121.833 25.8121 121.517 25.1836C121.204 24.5515 121.048 23.8111 121.048 22.9624C121.048 22.1243 121.204 21.3857 121.517 20.7464C121.833 20.1072 122.273 19.6083 122.838 19.2496C123.406 18.891 124.07 18.7116 124.83 18.7116C125.291 18.7116 125.739 18.788 126.172 18.9407C126.605 19.0934 126.994 19.3331 127.339 19.6598C127.683 19.9865 127.955 20.4109 128.154 20.9329C128.353 21.4513 128.452 22.0817 128.452 22.8239V23.3885H121.948V22.1953H126.891C126.891 21.7763 126.806 21.4052 126.636 21.082C126.465 20.7553 126.225 20.4979 125.916 20.3097C125.611 20.1214 125.252 20.0273 124.84 20.0273C124.393 20.0273 124.002 20.1374 123.669 20.3576C123.338 20.5742 123.083 20.8583 122.902 21.2099C122.724 21.5579 122.635 21.9361 122.635 22.3445V23.2766C122.635 23.8235 122.731 24.2887 122.923 24.6722C123.118 25.0558 123.39 25.3487 123.738 25.5511C124.086 25.75 124.492 25.8494 124.958 25.8494C125.259 25.8494 125.535 25.8068 125.783 25.7216C126.032 25.6328 126.247 25.5014 126.428 25.3274C126.609 25.1534 126.747 24.9386 126.843 24.6829L128.351 24.9545C128.23 25.3984 128.013 25.7873 127.701 26.1211C127.392 26.4513 127.003 26.7088 126.534 26.8935C126.069 27.0746 125.538 27.1651 124.942 27.1651Z" fill="white"/>
<path d="M155.643 23.5719C156.118 23.0976 156.118 22.3273 155.643 21.853L149.572 15.7815C149.098 15.3072 148.327 15.3072 147.853 15.7815C147.379 16.2559 147.379 17.0262 147.853 17.5005L151.856 21.5001H140.214C139.543 21.5001 139 22.0427 139 22.7143C139 23.386 139.543 23.9286 140.214 23.9286H151.852L147.857 27.9282C147.382 28.4025 147.382 29.1728 147.857 29.6472C148.331 30.1215 149.101 30.1215 149.576 29.6472L155.647 23.5757L155.643 23.5719Z" fill="white"/>
<defs>
<filter id="filter0_d_302_147" x="0" y="0" width="172" height="46" filterUnits="userSpaceOnUse" color-interpolation-filters="sRGB">
<feFlood flood-opacity="0" result="BackgroundImageFix"/>
<feColorMatrix in="SourceAlpha" type="matrix" values="0 0 0 0 0 0 0 0 0 0 0 0 0 0 0 0 0 0 127 0" result="hardAlpha"/>
<feOffset dy="1"/>
<feGaussianBlur stdDeviation="2"/>
<feComposite in2="hardAlpha" operator="out"/>
<feColorMatrix type="matrix" values="0 0 0 0 0 0 0 0 0 0 0 0 0 0 0 0 0 0 0.25 0"/>
<feBlend mode="normal" in2="BackgroundImageFix" result="effect1_dropShadow_302_147"/>
<feBlend mode="normal" in="SourceGraphic" in2="effect1_dropShadow_302_147" result="shape"/>
</filter>
</defs>
</svg>
