<svg width="139" height="46" viewBox="0 0 139 46" fill="none" xmlns="http://www.w3.org/2000/svg">
<g filter="url(#filter0_d_57_248)">
<rect x="4" y="3" width="131" height="38" rx="5" fill="#640564"/>
</g>
<path d="M25.2592 19.6385H23.5973C23.5334 19.2834 23.4144 18.9709 23.2404 18.701C23.0664 18.4311 22.8533 18.2021 22.6012 18.0138C22.3491 17.8256 22.0668 17.6836 21.7543 17.5877C21.4453 17.4918 21.1168 17.4439 20.7688 17.4439C20.1403 17.4439 19.5774 17.6019 19.0803 17.918C18.5866 18.234 18.196 18.6974 17.9084 19.3082C17.6243 19.919 17.4822 20.6648 17.4822 21.5455C17.4822 22.4332 17.6243 23.1825 17.9084 23.7933C18.196 24.4041 18.5884 24.8658 19.0856 25.1783C19.5827 25.4908 20.142 25.647 20.7635 25.647C21.108 25.647 21.4347 25.6009 21.7436 25.5085C22.0561 25.4126 22.3384 25.2724 22.5906 25.0877C22.8427 24.9031 23.0558 24.6776 23.2298 24.4112C23.4073 24.1413 23.5298 23.8324 23.5973 23.4844L25.2592 23.4897C25.1705 24.0259 24.9982 24.5195 24.7425 24.9705C24.4904 25.418 24.1655 25.805 23.7678 26.1317C23.3736 26.4549 22.9226 26.7053 22.4148 26.8828C21.907 27.0604 21.353 27.1491 20.7528 27.1491C19.8082 27.1491 18.9666 26.9254 18.228 26.478C17.4893 26.027 16.907 25.3825 16.4808 24.5444C16.0582 23.7063 15.8469 22.7067 15.8469 21.5455C15.8469 20.3807 16.06 19.381 16.4862 18.5465C16.9123 17.7085 17.4947 17.0657 18.2333 16.6183C18.9719 16.1673 19.8118 15.9418 20.7528 15.9418C21.3317 15.9418 21.8714 16.0252 22.3722 16.1921C22.8764 16.3555 23.3292 16.5969 23.7305 16.9165C24.1317 17.2326 24.4638 17.6197 24.7266 18.0778C24.9893 18.5323 25.1669 19.0526 25.2592 19.6385ZM30.5473 27.1651C29.7803 27.1651 29.1109 26.9893 28.5392 26.6378C27.9674 26.2862 27.5235 25.7944 27.2075 25.1623C26.8914 24.5302 26.7334 23.7915 26.7334 22.9464C26.7334 22.0977 26.8914 21.3555 27.2075 20.7198C27.5235 20.0842 27.9674 19.5906 28.5392 19.239C29.1109 18.8874 29.7803 18.7116 30.5473 18.7116C31.3144 18.7116 31.9838 18.8874 32.5555 19.239C33.1272 19.5906 33.5711 20.0842 33.8872 20.7198C34.2032 21.3555 34.3612 22.0977 34.3612 22.9464C34.3612 23.7915 34.2032 24.5302 33.8872 25.1623C33.5711 25.7944 33.1272 26.2862 32.5555 26.6378C31.9838 26.9893 31.3144 27.1651 30.5473 27.1651ZM30.5526 25.8281C31.0498 25.8281 31.4617 25.6967 31.7884 25.4339C32.1151 25.1712 32.3566 24.8214 32.5129 24.3846C32.6727 23.9478 32.7526 23.4666 32.7526 22.9411C32.7526 22.419 32.6727 21.9396 32.5129 21.5028C32.3566 21.0625 32.1151 20.7092 31.7884 20.4428C31.4617 20.1765 31.0498 20.0433 30.5526 20.0433C30.0519 20.0433 29.6365 20.1765 29.3062 20.4428C28.9795 20.7092 28.7362 21.0625 28.5764 21.5028C28.4202 21.9396 28.3421 22.419 28.3421 22.9411C28.3421 23.4666 28.4202 23.9478 28.5764 24.3846C28.7362 24.8214 28.9795 25.1712 29.3062 25.4339C29.6365 25.6967 30.0519 25.8281 30.5526 25.8281ZM37.7317 22.142V27H36.139V18.8182H37.6678V20.1499H37.769C37.9572 19.7166 38.252 19.3686 38.6532 19.1058C39.0581 18.843 39.5676 18.7116 40.182 18.7116C40.7395 18.7116 41.2278 18.8288 41.6468 19.0632C42.0659 19.294 42.3908 19.6385 42.6216 20.0966C42.8525 20.5547 42.9679 21.1211 42.9679 21.7958V27H41.3752V21.9876C41.3752 21.3945 41.2207 20.9311 40.9118 20.5973C40.6028 20.2599 40.1784 20.0913 39.6387 20.0913C39.2694 20.0913 38.9409 20.1712 38.6532 20.331C38.3691 20.4908 38.1436 20.7251 37.9767 21.0341C37.8134 21.3395 37.7317 21.7088 37.7317 22.142ZM48.9977 18.8182V20.0966H44.3741V18.8182H48.9977ZM45.6419 27V17.87C45.6419 17.3587 45.7537 16.9343 45.9775 16.5969C46.2012 16.256 46.4977 16.0021 46.867 15.8352C47.2363 15.6648 47.6376 15.5795 48.0708 15.5795C48.3904 15.5795 48.6639 15.6062 48.8912 15.6594C49.1184 15.7092 49.2871 15.7553 49.3972 15.7979L49.0243 17.087C48.9498 17.0657 48.8539 17.0408 48.7367 17.0124C48.6195 16.9805 48.4775 16.9645 48.3105 16.9645C47.9235 16.9645 47.6465 17.0604 47.4796 17.2521C47.3162 17.4439 47.2346 17.7209 47.2346 18.0831V27H45.6419ZM50.641 27V18.8182H52.2337V27H50.641ZM51.4453 17.5558C51.1683 17.5558 50.9304 17.4634 50.7315 17.2788C50.5362 17.0906 50.4386 16.8668 50.4386 16.6076C50.4386 16.3448 50.5362 16.1211 50.7315 15.9364C50.9304 15.7482 51.1683 15.6541 51.4453 15.6541C51.7223 15.6541 51.9585 15.7482 52.1538 15.9364C52.3526 16.1211 52.4521 16.3448 52.4521 16.6076C52.4521 16.8668 52.3526 17.0906 52.1538 17.2788C51.9585 17.4634 51.7223 17.5558 51.4453 17.5558ZM54.3763 27V18.8182H55.9157V20.1179H56.001C56.1501 19.6776 56.4129 19.3313 56.7893 19.0792C57.1693 18.8235 57.599 18.6957 58.0784 18.6957C58.1778 18.6957 58.295 18.6992 58.43 18.7063C58.5684 18.7134 58.6768 18.7223 58.7549 18.733V20.2564C58.691 20.2386 58.5773 20.2191 58.414 20.1978C58.2506 20.1729 58.0873 20.1605 57.9239 20.1605C57.5475 20.1605 57.2119 20.2404 56.9172 20.4002C56.626 20.5565 56.3952 20.7749 56.2247 21.0554C56.0542 21.3324 55.969 21.6484 55.969 22.0036V27H54.3763ZM60.1332 27V18.8182H61.6619V20.1499H61.7631C61.9336 19.6989 62.2124 19.3473 62.5994 19.0952C62.9865 18.8395 63.4499 18.7116 63.9897 18.7116C64.5366 18.7116 64.9947 18.8395 65.364 19.0952C65.7369 19.3509 66.0121 19.7024 66.1896 20.1499H66.2749C66.4702 19.7131 66.7809 19.3651 67.207 19.1058C67.6332 18.843 68.141 18.7116 68.7305 18.7116C69.4727 18.7116 70.0781 18.9442 70.5469 19.4094C71.0192 19.8746 71.2553 20.576 71.2553 21.5135V27H69.6626V21.6626C69.6626 21.1087 69.5117 20.7074 69.2099 20.4588C68.908 20.2102 68.5476 20.0859 68.1286 20.0859C67.6101 20.0859 67.207 20.2457 66.9194 20.5653C66.6317 20.8814 66.4879 21.288 66.4879 21.7852V27H64.9006V21.5614C64.9006 21.1175 64.7621 20.7607 64.4851 20.4908C64.2081 20.2209 63.8477 20.0859 63.4038 20.0859C63.1019 20.0859 62.8232 20.1658 62.5675 20.3256C62.3153 20.4819 62.1112 20.7003 61.9549 20.9808C61.8022 21.2614 61.7259 21.5863 61.7259 21.9556V27H60.1332ZM75.771 27.1811C75.2526 27.1811 74.7838 27.0852 74.3648 26.8935C73.9458 26.6982 73.6137 26.4158 73.3687 26.0465C73.1272 25.6772 73.0065 25.2244 73.0065 24.6882C73.0065 24.2266 73.0953 23.8466 73.2728 23.5483C73.4504 23.25 73.6901 23.0138 73.9919 22.8398C74.2938 22.6658 74.6311 22.5344 75.004 22.4457C75.3769 22.3569 75.7568 22.2894 76.1439 22.2433C76.634 22.1864 77.0317 22.1403 77.3371 22.1048C77.6425 22.0657 77.8644 22.0036 78.0029 21.9183C78.1414 21.8331 78.2107 21.6946 78.2107 21.5028V21.4656C78.2107 21.0004 78.0793 20.6399 77.8165 20.3842C77.5573 20.1286 77.1702 20.0007 76.6553 20.0007C76.1191 20.0007 75.6965 20.1197 75.3875 20.3576C75.0821 20.592 74.8708 20.853 74.7536 21.1406L73.2568 20.7997C73.4344 20.3026 73.6936 19.9013 74.0345 19.5959C74.379 19.2869 74.7749 19.0632 75.2224 18.9247C75.6698 18.7827 76.1404 18.7116 76.634 18.7116C76.9607 18.7116 77.3069 18.7507 77.6727 18.8288C78.042 18.9034 78.3865 19.0419 78.7061 19.2443C79.0292 19.4467 79.2938 19.7362 79.4997 20.1126C79.7057 20.4854 79.8087 20.9702 79.8087 21.5668V27H78.2533V25.8814H78.1894C78.0864 26.0874 77.9319 26.2898 77.7259 26.4886C77.52 26.6875 77.2554 26.8526 76.9323 26.984C76.6091 27.1154 76.222 27.1811 75.771 27.1811ZM76.1173 25.9027C76.5576 25.9027 76.934 25.8157 77.2465 25.6417C77.5626 25.4677 77.8023 25.2404 77.9656 24.9599C78.1325 24.6758 78.216 24.3722 78.216 24.049V22.9943C78.1592 23.0511 78.0491 23.1044 77.8857 23.1541C77.7259 23.2003 77.5431 23.2411 77.3371 23.2766C77.1311 23.3086 76.9305 23.3388 76.7352 23.3672C76.5399 23.392 76.3765 23.4134 76.2451 23.4311C75.9362 23.4702 75.6539 23.5359 75.3982 23.6282C75.146 23.7205 74.9436 23.8537 74.7909 24.0277C74.6418 24.1982 74.5672 24.4254 74.5672 24.7095C74.5672 25.1037 74.7128 25.402 75.004 25.6044C75.2952 25.8033 75.6663 25.9027 76.1173 25.9027ZM81.93 27V18.8182H83.4695V20.1179H83.5547C83.7038 19.6776 83.9666 19.3313 84.343 19.0792C84.723 18.8235 85.1527 18.6957 85.6321 18.6957C85.7315 18.6957 85.8487 18.6992 85.9837 18.7063C86.1222 18.7134 86.2305 18.7223 86.3086 18.733V20.2564C86.2447 20.2386 86.131 20.2191 85.9677 20.1978C85.8043 20.1729 85.641 20.1605 85.4776 20.1605C85.1012 20.1605 84.7656 20.2404 84.4709 20.4002C84.1797 20.5565 83.9489 20.7749 83.7784 21.0554C83.608 21.3324 83.5227 21.6484 83.5227 22.0036V27H81.93Z" fill="white"/>
<path d="M122.643 23.5719C123.118 23.0976 123.118 22.3273 122.643 21.853L116.572 15.7815C116.098 15.3072 115.327 15.3072 114.853 15.7815C114.379 16.2559 114.379 17.0262 114.853 17.5005L118.856 21.5001H107.214C106.543 21.5001 106 22.0427 106 22.7143C106 23.386 106.543 23.9286 107.214 23.9286H118.852L114.857 27.9282C114.382 28.4025 114.382 29.1728 114.857 29.6472C115.331 30.1215 116.101 30.1215 116.576 29.6472L122.647 23.5757L122.643 23.5719Z" fill="white"/>
<defs>
<filter id="filter0_d_57_248" x="0" y="0" width="139" height="46" filterUnits="userSpaceOnUse" color-interpolation-filters="sRGB">
<feFlood flood-opacity="0" result="BackgroundImageFix"/>
<feColorMatrix in="SourceAlpha" type="matrix" values="0 0 0 0 0 0 0 0 0 0 0 0 0 0 0 0 0 0 127 0" result="hardAlpha"/>
<feOffset dy="1"/>
<feGaussianBlur stdDeviation="2"/>
<feComposite in2="hardAlpha" operator="out"/>
<feColorMatrix type="matrix" values="0 0 0 0 0 0 0 0 0 0 0 0 0 0 0 0 0 0 0.25 0"/>
<feBlend mode="normal" in2="BackgroundImageFix" result="effect1_dropShadow_57_248"/>
<feBlend mode="normal" in="SourceGraphic" in2="effect1_dropShadow_57_248" result="shape"/>
</filter>
</defs>
</svg>
