<svg width="208" height="46" viewBox="0 0 208 46" fill="none" xmlns="http://www.w3.org/2000/svg">
<g filter="url(#filter0_d_324_2)">
<rect x="4" y="3" width="200" height="38" rx="5" fill="#640564"/>
</g>
<path d="M29.2592 19.6385H27.5973C27.5334 19.2834 27.4144 18.9709 27.2404 18.701C27.0664 18.4311 26.8533 18.2021 26.6012 18.0138C26.3491 17.8256 26.0668 17.6836 25.7543 17.5877C25.4453 17.4918 25.1168 17.4439 24.7688 17.4439C24.1403 17.4439 23.5774 17.6019 23.0803 17.918C22.5866 18.234 22.196 18.6974 21.9084 19.3082C21.6243 19.919 21.4822 20.6648 21.4822 21.5455C21.4822 22.4332 21.6243 23.1825 21.9084 23.7933C22.196 24.4041 22.5884 24.8658 23.0856 25.1783C23.5827 25.4908 24.142 25.647 24.7635 25.647C25.108 25.647 25.4347 25.6009 25.7436 25.5085C26.0561 25.4126 26.3384 25.2724 26.5906 25.0877C26.8427 24.9031 27.0558 24.6776 27.2298 24.4112C27.4073 24.1413 27.5298 23.8324 27.5973 23.4844L29.2592 23.4897C29.1705 24.0259 28.9982 24.5195 28.7425 24.9705C28.4904 25.418 28.1655 25.805 27.7678 26.1317C27.3736 26.4549 26.9226 26.7053 26.4148 26.8828C25.907 27.0604 25.353 27.1491 24.7528 27.1491C23.8082 27.1491 22.9666 26.9254 22.228 26.478C21.4893 26.027 20.907 25.3825 20.4808 24.5444C20.0582 23.7063 19.8469 22.7067 19.8469 21.5455C19.8469 20.3807 20.06 19.381 20.4862 18.5465C20.9123 17.7085 21.4947 17.0657 22.2333 16.6183C22.9719 16.1673 23.8118 15.9418 24.7528 15.9418C25.3317 15.9418 25.8714 16.0252 26.3722 16.1921C26.8764 16.3555 27.3292 16.5969 27.7305 16.9165C28.1317 17.2326 28.4638 17.6197 28.7266 18.0778C28.9893 18.5323 29.1669 19.0526 29.2592 19.6385ZM34.5473 27.1651C33.7803 27.1651 33.1109 26.9893 32.5392 26.6378C31.9674 26.2862 31.5235 25.7944 31.2075 25.1623C30.8914 24.5302 30.7334 23.7915 30.7334 22.9464C30.7334 22.0977 30.8914 21.3555 31.2075 20.7198C31.5235 20.0842 31.9674 19.5906 32.5392 19.239C33.1109 18.8874 33.7803 18.7116 34.5473 18.7116C35.3144 18.7116 35.9838 18.8874 36.5555 19.239C37.1272 19.5906 37.5711 20.0842 37.8872 20.7198C38.2032 21.3555 38.3612 22.0977 38.3612 22.9464C38.3612 23.7915 38.2032 24.5302 37.8872 25.1623C37.5711 25.7944 37.1272 26.2862 36.5555 26.6378C35.9838 26.9893 35.3144 27.1651 34.5473 27.1651ZM34.5526 25.8281C35.0498 25.8281 35.4617 25.6967 35.7884 25.4339C36.1151 25.1712 36.3566 24.8214 36.5129 24.3846C36.6727 23.9478 36.7526 23.4666 36.7526 22.9411C36.7526 22.419 36.6727 21.9396 36.5129 21.5028C36.3566 21.0625 36.1151 20.7092 35.7884 20.4428C35.4617 20.1765 35.0498 20.0433 34.5526 20.0433C34.0519 20.0433 33.6365 20.1765 33.3062 20.4428C32.9795 20.7092 32.7362 21.0625 32.5764 21.5028C32.4202 21.9396 32.3421 22.419 32.3421 22.9411C32.3421 23.4666 32.4202 23.9478 32.5764 24.3846C32.7362 24.8214 32.9795 25.1712 33.3062 25.4339C33.6365 25.6967 34.0519 25.8281 34.5526 25.8281ZM41.7317 22.142V27H40.139V18.8182H41.6678V20.1499H41.769C41.9572 19.7166 42.252 19.3686 42.6532 19.1058C43.0581 18.843 43.5676 18.7116 44.182 18.7116C44.7395 18.7116 45.2278 18.8288 45.6468 19.0632C46.0659 19.294 46.3908 19.6385 46.6216 20.0966C46.8525 20.5547 46.9679 21.1211 46.9679 21.7958V27H45.3752V21.9876C45.3752 21.3945 45.2207 20.9311 44.9118 20.5973C44.6028 20.2599 44.1784 20.0913 43.6387 20.0913C43.2694 20.0913 42.9409 20.1712 42.6532 20.331C42.3691 20.4908 42.1436 20.7251 41.9767 21.0341C41.8134 21.3395 41.7317 21.7088 41.7317 22.142ZM52.9977 18.8182V20.0966H48.3741V18.8182H52.9977ZM49.6419 27V17.87C49.6419 17.3587 49.7537 16.9343 49.9775 16.5969C50.2012 16.256 50.4977 16.0021 50.867 15.8352C51.2363 15.6648 51.6376 15.5795 52.0708 15.5795C52.3904 15.5795 52.6639 15.6062 52.8912 15.6594C53.1184 15.7092 53.2871 15.7553 53.3972 15.7979L53.0243 17.087C52.9498 17.0657 52.8539 17.0408 52.7367 17.0124C52.6195 16.9805 52.4775 16.9645 52.3105 16.9645C51.9235 16.9645 51.6465 17.0604 51.4796 17.2521C51.3162 17.4439 51.2346 17.7209 51.2346 18.0831V27H49.6419ZM54.641 27V18.8182H56.2337V27H54.641ZM55.4453 17.5558C55.1683 17.5558 54.9304 17.4634 54.7315 17.2788C54.5362 17.0906 54.4386 16.8668 54.4386 16.6076C54.4386 16.3448 54.5362 16.1211 54.7315 15.9364C54.9304 15.7482 55.1683 15.6541 55.4453 15.6541C55.7223 15.6541 55.9585 15.7482 56.1538 15.9364C56.3526 16.1211 56.4521 16.3448 56.4521 16.6076C56.4521 16.8668 56.3526 17.0906 56.1538 17.2788C55.9585 17.4634 55.7223 17.5558 55.4453 17.5558ZM58.3763 27V18.8182H59.9157V20.1179H60.001C60.1501 19.6776 60.4129 19.3313 60.7893 19.0792C61.1693 18.8235 61.599 18.6957 62.0784 18.6957C62.1778 18.6957 62.295 18.6992 62.43 18.7063C62.5684 18.7134 62.6768 18.7223 62.7549 18.733V20.2564C62.691 20.2386 62.5773 20.2191 62.414 20.1978C62.2506 20.1729 62.0873 20.1605 61.9239 20.1605C61.5475 20.1605 61.2119 20.2404 60.9172 20.4002C60.626 20.5565 60.3952 20.7749 60.2247 21.0554C60.0542 21.3324 59.969 21.6484 59.969 22.0036V27H58.3763ZM64.1332 27V18.8182H65.6619V20.1499H65.7631C65.9336 19.6989 66.2124 19.3473 66.5994 19.0952C66.9865 18.8395 67.4499 18.7116 67.9897 18.7116C68.5366 18.7116 68.9947 18.8395 69.364 19.0952C69.7369 19.3509 70.0121 19.7024 70.1896 20.1499H70.2749C70.4702 19.7131 70.7809 19.3651 71.207 19.1058C71.6332 18.843 72.141 18.7116 72.7305 18.7116C73.4727 18.7116 74.0781 18.9442 74.5469 19.4094C75.0192 19.8746 75.2553 20.576 75.2553 21.5135V27H73.6626V21.6626C73.6626 21.1087 73.5117 20.7074 73.2099 20.4588C72.908 20.2102 72.5476 20.0859 72.1286 20.0859C71.6101 20.0859 71.207 20.2457 70.9194 20.5653C70.6317 20.8814 70.4879 21.288 70.4879 21.7852V27H68.9006V21.5614C68.9006 21.1175 68.7621 20.7607 68.4851 20.4908C68.2081 20.2209 67.8477 20.0859 67.4038 20.0859C67.1019 20.0859 66.8232 20.1658 66.5675 20.3256C66.3153 20.4819 66.1112 20.7003 65.9549 20.9808C65.8022 21.2614 65.7259 21.5863 65.7259 21.9556V27H64.1332ZM79.771 27.1811C79.2526 27.1811 78.7838 27.0852 78.3648 26.8935C77.9458 26.6982 77.6137 26.4158 77.3687 26.0465C77.1272 25.6772 77.0065 25.2244 77.0065 24.6882C77.0065 24.2266 77.0953 23.8466 77.2728 23.5483C77.4504 23.25 77.6901 23.0138 77.9919 22.8398C78.2938 22.6658 78.6311 22.5344 79.004 22.4457C79.3769 22.3569 79.7568 22.2894 80.1439 22.2433C80.634 22.1864 81.0317 22.1403 81.3371 22.1048C81.6425 22.0657 81.8644 22.0036 82.0029 21.9183C82.1414 21.8331 82.2107 21.6946 82.2107 21.5028V21.4656C82.2107 21.0004 82.0793 20.6399 81.8165 20.3842C81.5573 20.1286 81.1702 20.0007 80.6553 20.0007C80.1191 20.0007 79.6965 20.1197 79.3875 20.3576C79.0821 20.592 78.8708 20.853 78.7536 21.1406L77.2568 20.7997C77.4344 20.3026 77.6936 19.9013 78.0345 19.5959C78.379 19.2869 78.7749 19.0632 79.2224 18.9247C79.6698 18.7827 80.1404 18.7116 80.634 18.7116C80.9607 18.7116 81.3069 18.7507 81.6727 18.8288C82.042 18.9034 82.3865 19.0419 82.7061 19.2443C83.0292 19.4467 83.2938 19.7362 83.4997 20.1126C83.7057 20.4854 83.8087 20.9702 83.8087 21.5668V27H82.2533V25.8814H82.1894C82.0864 26.0874 81.9319 26.2898 81.7259 26.4886C81.52 26.6875 81.2554 26.8526 80.9323 26.984C80.6091 27.1154 80.222 27.1811 79.771 27.1811ZM80.1173 25.9027C80.5576 25.9027 80.934 25.8157 81.2465 25.6417C81.5626 25.4677 81.8023 25.2404 81.9656 24.9599C82.1325 24.6758 82.216 24.3722 82.216 24.049V22.9943C82.1592 23.0511 82.0491 23.1044 81.8857 23.1541C81.7259 23.2003 81.5431 23.2411 81.3371 23.2766C81.1311 23.3086 80.9305 23.3388 80.7352 23.3672C80.5399 23.392 80.3765 23.4134 80.2451 23.4311C79.9362 23.4702 79.6539 23.5359 79.3982 23.6282C79.146 23.7205 78.9436 23.8537 78.7909 24.0277C78.6418 24.1982 78.5672 24.4254 78.5672 24.7095C78.5672 25.1037 78.7128 25.402 79.004 25.6044C79.2952 25.8033 79.6663 25.9027 80.1173 25.9027ZM85.93 27V18.8182H87.4695V20.1179H87.5547C87.7038 19.6776 87.9666 19.3313 88.343 19.0792C88.723 18.8235 89.1527 18.6957 89.6321 18.6957C89.7315 18.6957 89.8487 18.6992 89.9837 18.7063C90.1222 18.7134 90.2305 18.7223 90.3086 18.733V20.2564C90.2447 20.2386 90.131 20.2191 89.9677 20.1978C89.8043 20.1729 89.641 20.1605 89.4776 20.1605C89.1012 20.1605 88.7656 20.2404 88.4709 20.4002C88.1797 20.5565 87.9489 20.7749 87.7784 21.0554C87.608 21.3324 87.5227 21.6484 87.5227 22.0036V27H85.93ZM99.1829 27.1651C98.3768 27.1651 97.6825 26.9929 97.1001 26.6484C96.5213 26.3004 96.0739 25.8121 95.7578 25.1836C95.4453 24.5515 95.2891 23.8111 95.2891 22.9624C95.2891 22.1243 95.4453 21.3857 95.7578 20.7464C96.0739 20.1072 96.5142 19.6083 97.0788 19.2496C97.647 18.891 98.3111 18.7116 99.071 18.7116C99.5327 18.7116 99.9801 18.788 100.413 18.9407C100.847 19.0934 101.235 19.3331 101.58 19.6598C101.924 19.9865 102.196 20.4109 102.395 20.9329C102.594 21.4513 102.693 22.0817 102.693 22.8239V23.3885H96.1893V22.1953H101.132C101.132 21.7763 101.047 21.4052 100.877 21.082C100.706 20.7553 100.467 20.4979 100.158 20.3097C99.8523 20.1214 99.4936 20.0273 99.0817 20.0273C98.6342 20.0273 98.2436 20.1374 97.9098 20.3576C97.5795 20.5742 97.3239 20.8583 97.1428 21.2099C96.9652 21.5579 96.8764 21.9361 96.8764 22.3445V23.2766C96.8764 23.8235 96.9723 24.2887 97.1641 24.6722C97.3594 25.0558 97.631 25.3487 97.979 25.5511C98.3271 25.75 98.7337 25.8494 99.1989 25.8494C99.5007 25.8494 99.7759 25.8068 100.025 25.7216C100.273 25.6328 100.488 25.5014 100.669 25.3274C100.85 25.1534 100.989 24.9386 101.085 24.6829L102.592 24.9545C102.471 25.3984 102.255 25.7873 101.942 26.1211C101.633 26.4513 101.244 26.7088 100.776 26.8935C100.31 27.0746 99.7795 27.1651 99.1829 27.1651ZM110.811 27.1811C110.293 27.1811 109.824 27.0852 109.405 26.8935C108.986 26.6982 108.654 26.4158 108.409 26.0465C108.167 25.6772 108.047 25.2244 108.047 24.6882C108.047 24.2266 108.135 23.8466 108.313 23.5483C108.49 23.25 108.73 23.0138 109.032 22.8398C109.334 22.6658 109.671 22.5344 110.044 22.4457C110.417 22.3569 110.797 22.2894 111.184 22.2433C111.674 22.1864 112.072 22.1403 112.377 22.1048C112.683 22.0657 112.904 22.0036 113.043 21.9183C113.181 21.8331 113.251 21.6946 113.251 21.5028V21.4656C113.251 21.0004 113.119 20.6399 112.857 20.3842C112.597 20.1286 112.21 20.0007 111.695 20.0007C111.159 20.0007 110.737 20.1197 110.428 20.3576C110.122 20.592 109.911 20.853 109.794 21.1406L108.297 20.7997C108.474 20.3026 108.734 19.9013 109.075 19.5959C109.419 19.2869 109.815 19.0632 110.262 18.9247C110.71 18.7827 111.18 18.7116 111.674 18.7116C112.001 18.7116 112.347 18.7507 112.713 18.8288C113.082 18.9034 113.426 19.0419 113.746 19.2443C114.069 19.4467 114.334 19.7362 114.54 20.1126C114.746 20.4854 114.849 20.9702 114.849 21.5668V27H113.293V25.8814H113.229C113.126 26.0874 112.972 26.2898 112.766 26.4886C112.56 26.6875 112.295 26.8526 111.972 26.984C111.649 27.1154 111.262 27.1811 110.811 27.1811ZM111.157 25.9027C111.598 25.9027 111.974 25.8157 112.287 25.6417C112.603 25.4677 112.842 25.2404 113.006 24.9599C113.173 24.6758 113.256 24.3722 113.256 24.049V22.9943C113.199 23.0511 113.089 23.1044 112.926 23.1541C112.766 23.2003 112.583 23.2411 112.377 23.2766C112.171 23.3086 111.971 23.3388 111.775 23.3672C111.58 23.392 111.417 23.4134 111.285 23.4311C110.976 23.4702 110.694 23.5359 110.438 23.6282C110.186 23.7205 109.984 23.8537 109.831 24.0277C109.682 24.1982 109.607 24.4254 109.607 24.7095C109.607 25.1037 109.753 25.402 110.044 25.6044C110.335 25.8033 110.706 25.9027 111.157 25.9027ZM123.676 18.8182L120.709 27H119.005L116.033 18.8182H117.742L119.815 25.1143H119.9L121.967 18.8182H123.676ZM127.32 27.1811C126.801 27.1811 126.333 27.0852 125.914 26.8935C125.495 26.6982 125.163 26.4158 124.918 26.0465C124.676 25.6772 124.555 25.2244 124.555 24.6882C124.555 24.2266 124.644 23.8466 124.822 23.5483C124.999 23.25 125.239 23.0138 125.541 22.8398C125.843 22.6658 126.18 22.5344 126.553 22.4457C126.926 22.3569 127.306 22.2894 127.693 22.2433C128.183 22.1864 128.581 22.1403 128.886 22.1048C129.191 22.0657 129.413 22.0036 129.552 21.9183C129.69 21.8331 129.759 21.6946 129.759 21.5028V21.4656C129.759 21.0004 129.628 20.6399 129.365 20.3842C129.106 20.1286 128.719 20.0007 128.204 20.0007C127.668 20.0007 127.245 20.1197 126.936 20.3576C126.631 20.592 126.42 20.853 126.302 21.1406L124.806 20.7997C124.983 20.3026 125.242 19.9013 125.583 19.5959C125.928 19.2869 126.324 19.0632 126.771 18.9247C127.219 18.7827 127.689 18.7116 128.183 18.7116C128.509 18.7116 128.856 18.7507 129.222 18.8288C129.591 18.9034 129.935 19.0419 130.255 19.2443C130.578 19.4467 130.843 19.7362 131.049 20.1126C131.255 20.4854 131.358 20.9702 131.358 21.5668V27H129.802V25.8814H129.738C129.635 26.0874 129.481 26.2898 129.275 26.4886C129.069 26.6875 128.804 26.8526 128.481 26.984C128.158 27.1154 127.771 27.1811 127.32 27.1811ZM127.666 25.9027C128.106 25.9027 128.483 25.8157 128.795 25.6417C129.111 25.4677 129.351 25.2404 129.514 24.9599C129.681 24.6758 129.765 24.3722 129.765 24.049V22.9943C129.708 23.0511 129.598 23.1044 129.435 23.1541C129.275 23.2003 129.092 23.2411 128.886 23.2766C128.68 23.3086 128.479 23.3388 128.284 23.3672C128.089 23.392 127.925 23.4134 127.794 23.4311C127.485 23.4702 127.203 23.5359 126.947 23.6282C126.695 23.7205 126.492 23.8537 126.34 24.0277C126.191 24.1982 126.116 24.4254 126.116 24.7095C126.116 25.1037 126.262 25.402 126.553 25.6044C126.844 25.8033 127.215 25.9027 127.666 25.9027ZM135.072 22.142V27H133.479V18.8182H135.008V20.1499H135.109C135.297 19.7166 135.592 19.3686 135.993 19.1058C136.398 18.843 136.907 18.7116 137.522 18.7116C138.079 18.7116 138.568 18.8288 138.987 19.0632C139.406 19.294 139.731 19.6385 139.961 20.0966C140.192 20.5547 140.308 21.1211 140.308 21.7958V27H138.715V21.9876C138.715 21.3945 138.561 20.9311 138.252 20.5973C137.943 20.2599 137.518 20.0913 136.979 20.0913C136.609 20.0913 136.281 20.1712 135.993 20.331C135.709 20.4908 135.483 20.7251 135.317 21.0341C135.153 21.3395 135.072 21.7088 135.072 22.142ZM145.89 27.1651C145.098 27.1651 144.416 26.9858 143.845 26.6271C143.276 26.2649 142.84 25.766 142.534 25.1303C142.229 24.4947 142.076 23.7667 142.076 22.9464C142.076 22.1154 142.232 21.3821 142.545 20.7464C142.857 20.1072 143.298 19.6083 143.866 19.2496C144.434 18.891 145.104 18.7116 145.874 18.7116C146.496 18.7116 147.05 18.8271 147.536 19.0579C148.023 19.2852 148.415 19.6048 148.713 20.0167C149.015 20.4286 149.194 20.9098 149.251 21.4602H147.701C147.616 21.0767 147.421 20.7464 147.115 20.4695C146.813 20.1925 146.409 20.054 145.901 20.054C145.457 20.054 145.068 20.1712 144.734 20.4055C144.404 20.6364 144.146 20.9666 143.962 21.3963C143.777 21.8224 143.685 22.3267 143.685 22.9091C143.685 23.5057 143.775 24.0206 143.956 24.4538C144.138 24.8871 144.393 25.2227 144.724 25.4606C145.057 25.6985 145.45 25.8175 145.901 25.8175C146.203 25.8175 146.476 25.7624 146.721 25.6523C146.97 25.5387 147.177 25.3771 147.344 25.1676C147.515 24.9581 147.634 24.706 147.701 24.4112H149.251C149.194 24.9403 149.022 25.4126 148.735 25.8281C148.447 26.2436 148.062 26.5703 147.579 26.8082C147.099 27.0462 146.536 27.1651 145.89 27.1651ZM145.315 26.9574H146.359L146.274 27.3942C146.583 27.4439 146.852 27.5682 147.083 27.767C147.314 27.9659 147.43 28.266 147.43 28.6673C147.433 29.1467 147.225 29.5355 146.806 29.8338C146.391 30.1321 145.789 30.2812 145.001 30.2812L144.969 29.3917C145.338 29.3917 145.636 29.3384 145.863 29.2319C146.094 29.1254 146.211 28.9531 146.215 28.7152C146.219 28.4773 146.13 28.3104 145.949 28.2145C145.771 28.1186 145.487 28.0511 145.096 28.0121L145.315 26.9574ZM153.335 27.1811C152.817 27.1811 152.348 27.0852 151.929 26.8935C151.51 26.6982 151.178 26.4158 150.933 26.0465C150.692 25.6772 150.571 25.2244 150.571 24.6882C150.571 24.2266 150.66 23.8466 150.837 23.5483C151.015 23.25 151.255 23.0138 151.556 22.8398C151.858 22.6658 152.196 22.5344 152.568 22.4457C152.941 22.3569 153.321 22.2894 153.708 22.2433C154.198 22.1864 154.596 22.1403 154.902 22.1048C155.207 22.0657 155.429 22.0036 155.567 21.9183C155.706 21.8331 155.775 21.6946 155.775 21.5028V21.4656C155.775 21.0004 155.644 20.6399 155.381 20.3842C155.122 20.1286 154.735 20.0007 154.22 20.0007C153.684 20.0007 153.261 20.1197 152.952 20.3576C152.647 20.592 152.435 20.853 152.318 21.1406L150.821 20.7997C150.999 20.3026 151.258 19.9013 151.599 19.5959C151.943 19.2869 152.339 19.0632 152.787 18.9247C153.234 18.7827 153.705 18.7116 154.198 18.7116C154.525 18.7116 154.871 18.7507 155.237 18.8288C155.606 18.9034 155.951 19.0419 156.271 19.2443C156.594 19.4467 156.858 19.7362 157.064 20.1126C157.27 20.4854 157.373 20.9702 157.373 21.5668V27H155.818V25.8814H155.754C155.651 26.0874 155.496 26.2898 155.29 26.4886C155.084 26.6875 154.82 26.8526 154.497 26.984C154.174 27.1154 153.786 27.1811 153.335 27.1811ZM153.682 25.9027C154.122 25.9027 154.498 25.8157 154.811 25.6417C155.127 25.4677 155.367 25.2404 155.53 24.9599C155.697 24.6758 155.78 24.3722 155.78 24.049V22.9943C155.724 23.0511 155.614 23.1044 155.45 23.1541C155.29 23.2003 155.108 23.2411 154.902 23.2766C154.696 23.3086 154.495 23.3388 154.3 23.3672C154.104 23.392 153.941 23.4134 153.81 23.4311C153.501 23.4702 153.218 23.5359 152.963 23.6282C152.71 23.7205 152.508 23.8537 152.355 24.0277C152.206 24.1982 152.132 24.4254 152.132 24.7095C152.132 25.1037 152.277 25.402 152.568 25.6044C152.86 25.8033 153.231 25.9027 153.682 25.9027ZM159.494 27V18.8182H161.034V20.1179H161.119C161.268 19.6776 161.531 19.3313 161.907 19.0792C162.287 18.8235 162.717 18.6957 163.197 18.6957C163.296 18.6957 163.413 18.6992 163.548 18.7063C163.687 18.7134 163.795 18.7223 163.873 18.733V20.2564C163.809 20.2386 163.695 20.2191 163.532 20.1978C163.369 20.1729 163.205 20.1605 163.042 20.1605C162.666 20.1605 162.33 20.2404 162.035 20.4002C161.744 20.5565 161.513 20.7749 161.343 21.0554C161.172 21.3324 161.087 21.6484 161.087 22.0036V27H159.494Z" fill="white"/>
<path d="M191.643 23.5719C192.118 23.0976 192.118 22.3273 191.643 21.853L185.572 15.7815C185.098 15.3072 184.327 15.3072 183.853 15.7815C183.379 16.2559 183.379 17.0262 183.853 17.5005L187.856 21.5001H176.214C175.543 21.5001 175 22.0427 175 22.7143C175 23.386 175.543 23.9286 176.214 23.9286H187.852L183.857 27.9282C183.382 28.4025 183.382 29.1728 183.857 29.6472C184.331 30.1215 185.101 30.1215 185.576 29.6472L191.647 23.5757L191.643 23.5719Z" fill="white"/>
<defs>
<filter id="filter0_d_324_2" x="0" y="0" width="208" height="46" filterUnits="userSpaceOnUse" color-interpolation-filters="sRGB">
<feFlood flood-opacity="0" result="BackgroundImageFix"/>
<feColorMatrix in="SourceAlpha" type="matrix" values="0 0 0 0 0 0 0 0 0 0 0 0 0 0 0 0 0 0 127 0" result="hardAlpha"/>
<feOffset dy="1"/>
<feGaussianBlur stdDeviation="2"/>
<feComposite in2="hardAlpha" operator="out"/>
<feColorMatrix type="matrix" values="0 0 0 0 0 0 0 0 0 0 0 0 0 0 0 0 0 0 0.25 0"/>
<feBlend mode="normal" in2="BackgroundImageFix" result="effect1_dropShadow_324_2"/>
<feBlend mode="normal" in="SourceGraphic" in2="effect1_dropShadow_324_2" result="shape"/>
</filter>
</defs>
</svg>
