<svg width="298" height="68" viewBox="0 0 298 68" fill="none" xmlns="http://www.w3.org/2000/svg">
<g filter="url(#filter0_d_336_2)">
<rect x="4" y="3" width="290" height="60" rx="5" fill="#00BF00" fill-opacity="0.15" shape-rendering="crispEdges"/>
</g>
<path d="M50.7614 40V25.4545H59.483V27.017H52.5227V31.9318H58.8295V33.4943H52.5227V40H50.7614ZM65.4826 40.2557C64.7913 40.2557 64.1639 40.1255 63.6005 39.8651C63.0371 39.5999 62.5896 39.2188 62.2582 38.7216C61.9267 38.2197 61.761 37.6136 61.761 36.9034C61.761 36.2784 61.8841 35.7718 62.1303 35.3835C62.3765 34.9905 62.7056 34.6828 63.1175 34.4602C63.5295 34.2377 63.984 34.072 64.4812 33.9631C64.9831 33.8494 65.4873 33.7595 65.994 33.6932C66.6568 33.608 67.1942 33.544 67.6062 33.5014C68.0228 33.4541 68.3259 33.3759 68.5153 33.267C68.7094 33.1581 68.8065 32.9687 68.8065 32.6989V32.642C68.8065 31.9413 68.6147 31.3968 68.2312 31.0085C67.8524 30.6203 67.2771 30.4261 66.5053 30.4261C65.7051 30.4261 65.0778 30.6013 64.6232 30.9517C64.1687 31.3021 63.8491 31.6761 63.6644 32.0739L62.0735 31.5057C62.3576 30.8428 62.7364 30.3267 63.2099 29.9574C63.6881 29.5833 64.2089 29.3229 64.7724 29.1761C65.3406 29.0246 65.8993 28.9489 66.4485 28.9489C66.7989 28.9489 67.2013 28.9915 67.6559 29.0767C68.1152 29.1572 68.5579 29.3253 68.984 29.581C69.4149 29.8366 69.7724 30.2225 70.0565 30.7386C70.3406 31.2547 70.4826 31.946 70.4826 32.8125V40H68.8065V38.5227H68.7212C68.6076 38.7595 68.4182 39.0128 68.1531 39.2827C67.8879 39.5526 67.5352 39.7822 67.0948 39.9716C66.6545 40.161 66.1171 40.2557 65.4826 40.2557ZM65.7383 38.75C66.4012 38.75 66.9599 38.6198 67.4144 38.3594C67.8737 38.099 68.2193 37.7628 68.4513 37.3509C68.6881 36.9389 68.8065 36.5057 68.8065 36.0511V34.517C68.7354 34.6023 68.5792 34.6804 68.3377 34.7514C68.101 34.8177 67.8263 34.8769 67.5138 34.929C67.2061 34.9763 66.9054 35.0189 66.6119 35.0568C66.323 35.09 66.0887 35.1184 65.9087 35.142C65.4731 35.1989 65.0659 35.2912 64.6871 35.419C64.3131 35.5421 64.0101 35.7292 63.7781 35.9801C63.5508 36.2263 63.4371 36.5625 63.4371 36.9886C63.4371 37.571 63.6526 38.0114 64.0835 38.3097C64.5191 38.6032 65.0707 38.75 65.7383 38.75ZM73.2294 40V38.7216L79.4226 30.767V30.6534H73.4283V29.0909H81.5817V30.4261L75.5589 38.3239V38.4375H81.7805V40H73.2294ZM88.6236 40.2273C87.5724 40.2273 86.6657 39.9953 85.9034 39.5312C85.1458 39.0625 84.5611 38.4091 84.1491 37.571C83.742 36.7282 83.5384 35.7481 83.5384 34.6307C83.5384 33.5133 83.742 32.5284 84.1491 31.6761C84.5611 30.8191 85.134 30.1515 85.8679 29.6733C86.6065 29.1903 87.4683 28.9489 88.4531 28.9489C89.0213 28.9489 89.5824 29.0436 90.1364 29.233C90.6903 29.4223 91.1946 29.7301 91.6491 30.1562C92.1037 30.5777 92.4659 31.1364 92.7358 31.8324C93.0057 32.5284 93.1406 33.3854 93.1406 34.4034V35.1136H84.7315V33.6648H91.4361C91.4361 33.0492 91.313 32.5 91.0668 32.017C90.8253 31.5341 90.4796 31.1529 90.0298 30.8736C89.5848 30.5942 89.0592 30.4545 88.4531 30.4545C87.7855 30.4545 87.2079 30.6203 86.7202 30.9517C86.2372 31.2784 85.8655 31.7045 85.6051 32.2301C85.3447 32.7557 85.2145 33.3191 85.2145 33.9205V34.8864C85.2145 35.7102 85.3565 36.4086 85.6406 36.9815C85.9295 37.5497 86.3295 37.983 86.8409 38.2812C87.3523 38.5748 87.9465 38.7216 88.6236 38.7216C89.0639 38.7216 89.4616 38.66 89.8168 38.5369C90.1766 38.4091 90.4867 38.2197 90.7472 37.9688C91.0076 37.7131 91.2088 37.3958 91.3509 37.017L92.9702 37.4716C92.7997 38.0208 92.5133 38.5038 92.1108 38.9205C91.7083 39.3324 91.2112 39.6544 90.6193 39.8864C90.0275 40.1136 89.3622 40.2273 88.6236 40.2273ZM95.6903 40V29.0909H97.3097V30.7386H97.4233C97.6222 30.1989 97.982 29.7609 98.5028 29.4247C99.0237 29.0885 99.6108 28.9205 100.264 28.9205C100.387 28.9205 100.541 28.9228 100.726 28.9276C100.911 28.9323 101.05 28.9394 101.145 28.9489V30.6534C101.088 30.6392 100.958 30.6179 100.754 30.5895C100.555 30.5563 100.345 30.5398 100.122 30.5398C99.5919 30.5398 99.1184 30.651 98.7017 30.8736C98.2898 31.0914 97.9631 31.3944 97.7216 31.7827C97.4848 32.1662 97.3665 32.6042 97.3665 33.0966V40H95.6903ZM110.433 25.4545V40H108.757V25.4545H110.433ZM118.077 40.2273C117.026 40.2273 116.119 39.9953 115.357 39.5312C114.599 39.0625 114.014 38.4091 113.602 37.571C113.195 36.7282 112.991 35.7481 112.991 34.6307C112.991 33.5133 113.195 32.5284 113.602 31.6761C114.014 30.8191 114.587 30.1515 115.321 29.6733C116.06 29.1903 116.921 28.9489 117.906 28.9489C118.474 28.9489 119.036 29.0436 119.589 29.233C120.143 29.4223 120.648 29.7301 121.102 30.1562C121.557 30.5777 121.919 31.1364 122.189 31.8324C122.459 32.5284 122.594 33.3854 122.594 34.4034V35.1136H114.185V33.6648H120.889C120.889 33.0492 120.766 32.5 120.52 32.017C120.278 31.5341 119.933 31.1529 119.483 30.8736C119.038 30.5942 118.512 30.4545 117.906 30.4545C117.239 30.4545 116.661 30.6203 116.173 30.9517C115.69 31.2784 115.319 31.7045 115.058 32.2301C114.798 32.7557 114.668 33.3191 114.668 33.9205V34.8864C114.668 35.7102 114.81 36.4086 115.094 36.9815C115.383 37.5497 115.783 37.983 116.294 38.2812C116.805 38.5748 117.4 38.7216 118.077 38.7216C118.517 38.7216 118.915 38.66 119.27 38.5369C119.63 38.4091 119.94 38.2197 120.2 37.9688C120.461 37.7131 120.662 37.3958 120.804 37.017L122.423 37.4716C122.253 38.0208 121.966 38.5038 121.564 38.9205C121.161 39.3324 120.664 39.6544 120.072 39.8864C119.481 40.1136 118.815 40.2273 118.077 40.2273ZM133.732 29.0909L129.698 40H127.993L123.959 29.0909H125.777L128.789 37.7841H128.902L131.914 29.0909H133.732ZM138.822 40.2557C138.131 40.2557 137.504 40.1255 136.94 39.8651C136.377 39.5999 135.929 39.2188 135.598 38.7216C135.267 38.2197 135.101 37.6136 135.101 36.9034C135.101 36.2784 135.224 35.7718 135.47 35.3835C135.716 34.9905 136.045 34.6828 136.457 34.4602C136.869 34.2377 137.324 34.072 137.821 33.9631C138.323 33.8494 138.827 33.7595 139.334 33.6932C139.997 33.608 140.534 33.544 140.946 33.5014C141.363 33.4541 141.666 33.3759 141.855 33.267C142.049 33.1581 142.146 32.9687 142.146 32.6989V32.642C142.146 31.9413 141.955 31.3968 141.571 31.0085C141.192 30.6203 140.617 30.4261 139.845 30.4261C139.045 30.4261 138.418 30.6013 137.963 30.9517C137.509 31.3021 137.189 31.6761 137.004 32.0739L135.413 31.5057C135.697 30.8428 136.076 30.3267 136.55 29.9574C137.028 29.5833 137.549 29.3229 138.112 29.1761C138.68 29.0246 139.239 28.9489 139.788 28.9489C140.139 28.9489 140.541 28.9915 140.996 29.0767C141.455 29.1572 141.898 29.3253 142.324 29.581C142.755 29.8366 143.112 30.2225 143.396 30.7386C143.68 31.2547 143.822 31.946 143.822 32.8125V40H142.146V38.5227H142.061C141.947 38.7595 141.758 39.0128 141.493 39.2827C141.228 39.5526 140.875 39.7822 140.435 39.9716C139.994 40.161 139.457 40.2557 138.822 40.2557ZM139.078 38.75C139.741 38.75 140.3 38.6198 140.754 38.3594C141.214 38.099 141.559 37.7628 141.791 37.3509C142.028 36.9389 142.146 36.5057 142.146 36.0511V34.517C142.075 34.6023 141.919 34.6804 141.678 34.7514C141.441 34.8177 141.166 34.8769 140.854 34.929C140.546 34.9763 140.245 35.0189 139.952 35.0568C139.663 35.09 139.429 35.1184 139.249 35.142C138.813 35.1989 138.406 35.2912 138.027 35.419C137.653 35.5421 137.35 35.7292 137.118 35.9801C136.891 36.2263 136.777 36.5625 136.777 36.9886C136.777 37.571 136.992 38.0114 137.423 38.3097C137.859 38.6032 138.411 38.75 139.078 38.75ZM148.558 33.4375V40H146.882V29.0909H148.501V30.7955H148.643C148.899 30.2415 149.287 29.7964 149.808 29.4602C150.329 29.1193 151.001 28.9489 151.825 28.9489C152.564 28.9489 153.21 29.1004 153.764 29.4034C154.318 29.7017 154.749 30.1562 155.056 30.767C155.364 31.3731 155.518 32.1402 155.518 33.0682V40H153.842V33.1818C153.842 32.3248 153.619 31.6572 153.174 31.179C152.729 30.696 152.118 30.4545 151.342 30.4545C150.807 30.4545 150.329 30.5705 149.907 30.8026C149.491 31.0346 149.162 31.3731 148.92 31.8182C148.679 32.2633 148.558 32.803 148.558 33.4375ZM163.325 29.0909V30.5114H157.672V29.0909H163.325ZM159.32 26.4773H160.996V36.875C160.996 37.3485 161.064 37.7036 161.202 37.9403C161.344 38.1723 161.524 38.3286 161.741 38.4091C161.964 38.4848 162.198 38.5227 162.445 38.5227C162.629 38.5227 162.781 38.5133 162.899 38.4943C163.018 38.4706 163.112 38.4517 163.183 38.4375L163.524 39.9432C163.411 39.9858 163.252 40.0284 163.048 40.071C162.845 40.1184 162.587 40.142 162.274 40.142C161.801 40.142 161.337 40.0402 160.882 39.8366C160.432 39.633 160.058 39.3229 159.76 38.9062C159.466 38.4896 159.32 37.964 159.32 37.3295V26.4773ZM169.057 40.2557C168.366 40.2557 167.738 40.1255 167.175 39.8651C166.611 39.5999 166.164 39.2188 165.832 38.7216C165.501 38.2197 165.335 37.6136 165.335 36.9034C165.335 36.2784 165.458 35.7718 165.705 35.3835C165.951 34.9905 166.28 34.6828 166.692 34.4602C167.104 34.2377 167.558 34.072 168.055 33.9631C168.557 33.8494 169.062 33.7595 169.568 33.6932C170.231 33.608 170.768 33.544 171.18 33.5014C171.597 33.4541 171.9 33.3759 172.089 33.267C172.284 33.1581 172.381 32.9687 172.381 32.6989V32.642C172.381 31.9413 172.189 31.3968 171.805 31.0085C171.427 30.6203 170.851 30.4261 170.08 30.4261C169.279 30.4261 168.652 30.6013 168.197 30.9517C167.743 31.3021 167.423 31.6761 167.239 32.0739L165.648 31.5057C165.932 30.8428 166.311 30.3267 166.784 29.9574C167.262 29.5833 167.783 29.3229 168.347 29.1761C168.915 29.0246 169.473 28.9489 170.023 28.9489C170.373 28.9489 170.776 28.9915 171.23 29.0767C171.689 29.1572 172.132 29.3253 172.558 29.581C172.989 29.8366 173.347 30.2225 173.631 30.7386C173.915 31.2547 174.057 31.946 174.057 32.8125V40H172.381V38.5227H172.295C172.182 38.7595 171.992 39.0128 171.727 39.2827C171.462 39.5526 171.109 39.7822 170.669 39.9716C170.229 40.161 169.691 40.2557 169.057 40.2557ZM169.312 38.75C169.975 38.75 170.534 38.6198 170.989 38.3594C171.448 38.099 171.794 37.7628 172.026 37.3509C172.262 36.9389 172.381 36.5057 172.381 36.0511V34.517C172.31 34.6023 172.153 34.6804 171.912 34.7514C171.675 34.8177 171.401 34.8769 171.088 34.929C170.78 34.9763 170.48 35.0189 170.186 35.0568C169.897 35.09 169.663 35.1184 169.483 35.142C169.047 35.1989 168.64 35.2912 168.261 35.419C167.887 35.5421 167.584 35.7292 167.352 35.9801C167.125 36.2263 167.011 36.5625 167.011 36.9886C167.011 37.571 167.227 38.0114 167.658 38.3097C168.093 38.6032 168.645 38.75 169.312 38.75ZM177.116 40V29.0909H178.735V30.7955H178.877C179.105 30.2131 179.472 29.7609 179.978 29.4389C180.485 29.1122 181.093 28.9489 181.804 28.9489C182.523 28.9489 183.122 29.1122 183.6 29.4389C184.083 29.7609 184.46 30.2131 184.73 30.7955H184.843C185.123 30.232 185.542 29.7846 186.1 29.4531C186.659 29.117 187.329 28.9489 188.11 28.9489C189.086 28.9489 189.884 29.2543 190.504 29.8651C191.124 30.4711 191.434 31.4157 191.434 32.6989V40H189.758V32.6989C189.758 31.8939 189.538 31.3187 189.098 30.973C188.657 30.6274 188.139 30.4545 187.542 30.4545C186.775 30.4545 186.181 30.6866 185.76 31.1506C185.338 31.6098 185.127 32.1922 185.127 32.8977V40H183.423V32.5284C183.423 31.9081 183.222 31.4086 182.819 31.0298C182.417 30.6463 181.898 30.4545 181.264 30.4545C180.828 30.4545 180.421 30.5705 180.042 30.8026C179.668 31.0346 179.365 31.3565 179.133 31.7685C178.906 32.1757 178.792 32.6468 178.792 33.1818V40H177.116ZM199.073 40.2273C198.022 40.2273 197.115 39.9953 196.353 39.5312C195.595 39.0625 195.01 38.4091 194.598 37.571C194.191 36.7282 193.988 35.7481 193.988 34.6307C193.988 33.5133 194.191 32.5284 194.598 31.6761C195.01 30.8191 195.583 30.1515 196.317 29.6733C197.056 29.1903 197.917 28.9489 198.902 28.9489C199.471 28.9489 200.032 29.0436 200.586 29.233C201.14 29.4223 201.644 29.7301 202.098 30.1562C202.553 30.5777 202.915 31.1364 203.185 31.8324C203.455 32.5284 203.59 33.3854 203.59 34.4034V35.1136H195.181V33.6648H201.885C201.885 33.0492 201.762 32.5 201.516 32.017C201.275 31.5341 200.929 31.1529 200.479 30.8736C200.034 30.5942 199.508 30.4545 198.902 30.4545C198.235 30.4545 197.657 30.6203 197.169 30.9517C196.686 31.2784 196.315 31.7045 196.054 32.2301C195.794 32.7557 195.664 33.3191 195.664 33.9205V34.8864C195.664 35.7102 195.806 36.4086 196.09 36.9815C196.379 37.5497 196.779 37.983 197.29 38.2812C197.801 38.5748 198.396 38.7216 199.073 38.7216C199.513 38.7216 199.911 38.66 200.266 38.5369C200.626 38.4091 200.936 38.2197 201.196 37.9688C201.457 37.7131 201.658 37.3958 201.8 37.017L203.419 37.4716C203.249 38.0208 202.962 38.5038 202.56 38.9205C202.158 39.3324 201.66 39.6544 201.069 39.8864C200.477 40.1136 199.811 40.2273 199.073 40.2273ZM207.816 33.4375V40H206.14V29.0909H207.759V30.7955H207.901C208.157 30.2415 208.545 29.7964 209.066 29.4602C209.587 29.1193 210.259 28.9489 211.083 28.9489C211.821 28.9489 212.468 29.1004 213.022 29.4034C213.576 29.7017 214.007 30.1562 214.314 30.767C214.622 31.3731 214.776 32.1402 214.776 33.0682V40H213.1V33.1818C213.1 32.3248 212.877 31.6572 212.432 31.179C211.987 30.696 211.376 30.4545 210.6 30.4545C210.065 30.4545 209.587 30.5705 209.165 30.8026C208.748 31.0346 208.419 31.3731 208.178 31.8182C207.936 32.2633 207.816 32.803 207.816 33.4375ZM222.583 29.0909V30.5114H216.93V29.0909H222.583ZM218.577 26.4773H220.254V36.875C220.254 37.3485 220.322 37.7036 220.46 37.9403C220.602 38.1723 220.781 38.3286 220.999 38.4091C221.222 38.4848 221.456 38.5227 221.702 38.5227C221.887 38.5227 222.039 38.5133 222.157 38.4943C222.275 38.4706 222.37 38.4517 222.441 38.4375L222.782 39.9432C222.668 39.9858 222.51 40.0284 222.306 40.071C222.103 40.1184 221.844 40.142 221.532 40.142C221.058 40.142 220.594 40.0402 220.14 39.8366C219.69 39.633 219.316 39.3229 219.018 38.9062C218.724 38.4896 218.577 37.964 218.577 37.3295V26.4773ZM229.419 40.2273C228.434 40.2273 227.57 39.9929 226.827 39.5241C226.088 39.0554 225.51 38.3996 225.094 37.5568C224.682 36.714 224.476 35.7292 224.476 34.6023C224.476 33.4659 224.682 32.474 225.094 31.6264C225.51 30.7789 226.088 30.1207 226.827 29.652C227.57 29.1832 228.434 28.9489 229.419 28.9489C230.404 28.9489 231.266 29.1832 232.004 29.652C232.748 30.1207 233.325 30.7789 233.737 31.6264C234.154 32.474 234.362 33.4659 234.362 34.6023C234.362 35.7292 234.154 36.714 233.737 37.5568C233.325 38.3996 232.748 39.0554 232.004 39.5241C231.266 39.9929 230.404 40.2273 229.419 40.2273ZM229.419 38.7216C230.167 38.7216 230.783 38.5298 231.266 38.1463C231.749 37.7628 232.106 37.2585 232.338 36.6335C232.57 36.0085 232.686 35.3314 232.686 34.6023C232.686 33.8731 232.57 33.1937 232.338 32.5639C232.106 31.9342 231.749 31.4252 231.266 31.0369C230.783 30.6487 230.167 30.4545 229.419 30.4545C228.671 30.4545 228.055 30.6487 227.572 31.0369C227.089 31.4252 226.732 31.9342 226.5 32.5639C226.268 33.1937 226.152 33.8731 226.152 34.6023C226.152 35.3314 226.268 36.0085 226.5 36.6335C226.732 37.2585 227.089 37.7628 227.572 38.1463C228.055 38.5298 228.671 38.7216 229.419 38.7216Z" fill="black"/>
<path d="M241 25.3721V42.9193C241 43.9389 241.509 44.9018 242.359 45.2586C246.74 47.0994 251.12 45.842 255.5 44.5846C259.518 43.4348 263.535 42.2793 267.548 43.5141C268.706 43.8709 270 42.976 270 41.6223V24.0693C270 23.0498 269.491 22.0869 268.641 21.7301C264.26 19.9006 259.88 21.158 255.5 22.4154C251.482 23.5652 247.465 24.715 243.452 23.4803C242.289 23.1234 241 24.0184 241 25.3721ZM255.5 38.9375C253.275 38.9375 251.472 36.502 251.472 33.5C251.472 30.498 253.275 28.0625 255.5 28.0625C257.725 28.0625 259.528 30.498 259.528 33.5C259.528 36.502 257.725 38.9375 255.5 38.9375ZM244.222 38.9375C245.999 38.9375 247.444 40.5631 247.444 42.5625H244.222V38.9375ZM247.444 27.1563C247.444 29.1557 245.999 30.7813 244.222 30.7813V27.1563H247.444ZM266.778 36.2188V39.8438H263.556C263.556 37.8443 265.001 36.2188 266.778 36.2188ZM263.556 24.4375H266.778V28.0625C265.001 28.0625 263.556 26.4369 263.556 24.4375Z" fill="#00BF00"/>
<defs>
<filter id="filter0_d_336_2" x="0" y="0" width="298" height="68" filterUnits="userSpaceOnUse" color-interpolation-filters="sRGB">
<feFlood flood-opacity="0" result="BackgroundImageFix"/>
<feColorMatrix in="SourceAlpha" type="matrix" values="0 0 0 0 0 0 0 0 0 0 0 0 0 0 0 0 0 0 127 0" result="hardAlpha"/>
<feOffset dy="1"/>
<feGaussianBlur stdDeviation="2"/>
<feComposite in2="hardAlpha" operator="out"/>
<feColorMatrix type="matrix" values="0 0 0 0 0 0 0 0 0 0 0 0 0 0 0 0 0 0 0.25 0"/>
<feBlend mode="normal" in2="BackgroundImageFix" result="effect1_dropShadow_336_2"/>
<feBlend mode="normal" in="SourceGraphic" in2="effect1_dropShadow_336_2" result="shape"/>
</filter>
</defs>
</svg>
