<svg width="298" height="68" viewBox="0 0 298 68" fill="none" xmlns="http://www.w3.org/2000/svg">
<g filter="url(#filter0_d_44_260)">
<rect x="4" y="3" width="290" height="60" rx="5" fill="#FCEED5"/>
</g>
<path d="M257.875 19.2725C257.875 18.2354 257.037 17.3975 256 17.3975C254.963 17.3975 254.125 18.2354 254.125 19.2725V33.4932L249.824 29.1924C249.092 28.46 247.902 28.46 247.17 29.1924C246.438 29.9248 246.438 31.1143 247.17 31.8467L254.67 39.3467C255.402 40.0791 256.592 40.0791 257.324 39.3467L264.824 31.8467C265.557 31.1143 265.557 29.9248 264.824 29.1924C264.092 28.46 262.902 28.46 262.17 29.1924L257.875 33.4932V19.2725ZM244.75 38.0225C242.682 38.0225 241 39.7041 241 41.7725V43.6475C241 45.7158 242.682 47.3975 244.75 47.3975H267.25C269.318 47.3975 271 45.7158 271 43.6475V41.7725C271 39.7041 269.318 38.0225 267.25 38.0225H261.303L258.648 40.6768C257.184 42.1416 254.811 42.1416 253.346 40.6768L250.697 38.0225H244.75ZM266.312 41.3037C266.685 41.3037 267.043 41.4519 267.307 41.7156C267.571 41.9793 267.719 42.337 267.719 42.71C267.719 43.0829 267.571 43.4406 267.307 43.7043C267.043 43.9681 266.685 44.1162 266.312 44.1162C265.94 44.1162 265.582 43.9681 265.318 43.7043C265.054 43.4406 264.906 43.0829 264.906 42.71C264.906 42.337 265.054 41.9793 265.318 41.7156C265.582 41.4519 265.94 41.3037 266.312 41.3037Z" fill="#EB9900"/>
<path d="M71.358 40H69.5114L74.8523 25.4545H76.6705L82.0114 40H80.1648L75.8182 27.7557H75.7045L71.358 40ZM72.0398 34.3182H79.483V35.8807H72.0398V34.3182ZM85.7259 25.4545V40H84.0497V25.4545H85.7259ZM93.5401 29.0909V30.5114H87.8867V29.0909H93.5401ZM89.5344 26.4773H91.2106V36.875C91.2106 37.3485 91.2792 37.7036 91.4165 37.9403C91.5586 38.1723 91.7385 38.3286 91.9563 38.4091C92.1789 38.4848 92.4132 38.5227 92.6594 38.5227C92.8441 38.5227 92.9956 38.5133 93.114 38.4943C93.2324 38.4706 93.3271 38.4517 93.3981 38.4375L93.739 39.9432C93.6254 39.9858 93.4667 40.0284 93.2631 40.071C93.0595 40.1184 92.8015 40.142 92.489 40.142C92.0155 40.142 91.5515 40.0402 91.0969 39.8366C90.6471 39.633 90.2731 39.3229 89.9748 38.9062C89.6812 38.4896 89.5344 37.964 89.5344 37.3295V26.4773ZM100.518 40.2273C99.467 40.2273 98.5603 39.9953 97.7979 39.5312C97.0404 39.0625 96.4556 38.4091 96.0437 37.571C95.6365 36.7282 95.4329 35.7481 95.4329 34.6307C95.4329 33.5133 95.6365 32.5284 96.0437 31.6761C96.4556 30.8191 97.0285 30.1515 97.7624 29.6733C98.5011 29.1903 99.3628 28.9489 100.348 28.9489C100.916 28.9489 101.477 29.0436 102.031 29.233C102.585 29.4223 103.089 29.7301 103.544 30.1562C103.998 30.5777 104.36 31.1364 104.63 31.8324C104.9 32.5284 105.035 33.3854 105.035 34.4034V35.1136H96.6261V33.6648H103.331C103.331 33.0492 103.208 32.5 102.961 32.017C102.72 31.5341 102.374 31.1529 101.924 30.8736C101.479 30.5942 100.954 30.4545 100.348 30.4545C99.68 30.4545 99.1024 30.6203 98.6147 30.9517C98.1317 31.2784 97.7601 31.7045 97.4996 32.2301C97.2392 32.7557 97.109 33.3191 97.109 33.9205V34.8864C97.109 35.7102 97.2511 36.4086 97.5352 36.9815C97.824 37.5497 98.2241 37.983 98.7354 38.2812C99.2468 38.5748 99.841 38.7216 100.518 38.7216C100.958 38.7216 101.356 38.66 101.711 38.5369C102.071 38.4091 102.381 38.2197 102.642 37.9688C102.902 37.7131 103.103 37.3958 103.245 37.017L104.865 37.4716C104.694 38.0208 104.408 38.5038 104.005 38.9205C103.603 39.3324 103.106 39.6544 102.514 39.8864C101.922 40.1136 101.257 40.2273 100.518 40.2273ZM107.585 40V29.0909H109.204V30.7386H109.318C109.517 30.1989 109.877 29.7609 110.397 29.4247C110.918 29.0885 111.505 28.9205 112.159 28.9205C112.282 28.9205 112.436 28.9228 112.62 28.9276C112.805 28.9323 112.945 28.9394 113.039 28.9489V30.6534C112.983 30.6392 112.852 30.6179 112.649 30.5895C112.45 30.5563 112.239 30.5398 112.017 30.5398C111.486 30.5398 111.013 30.651 110.596 30.8736C110.184 31.0914 109.858 31.3944 109.616 31.7827C109.379 32.1662 109.261 32.6042 109.261 33.0966V40H107.585ZM118.237 40.2557C117.545 40.2557 116.918 40.1255 116.354 39.8651C115.791 39.5999 115.344 39.2188 115.012 38.7216C114.681 38.2197 114.515 37.6136 114.515 36.9034C114.515 36.2784 114.638 35.7718 114.884 35.3835C115.13 34.9905 115.46 34.6828 115.871 34.4602C116.283 34.2377 116.738 34.072 117.235 33.9631C117.737 33.8494 118.241 33.7595 118.748 33.6932C119.411 33.608 119.948 33.544 120.36 33.5014C120.777 33.4541 121.08 33.3759 121.269 33.267C121.463 33.1581 121.56 32.9687 121.56 32.6989V32.642C121.56 31.9413 121.369 31.3968 120.985 31.0085C120.606 30.6203 120.031 30.4261 119.259 30.4261C118.459 30.4261 117.832 30.6013 117.377 30.9517C116.923 31.3021 116.603 31.6761 116.418 32.0739L114.827 31.5057C115.112 30.8428 115.49 30.3267 115.964 29.9574C116.442 29.5833 116.963 29.3229 117.526 29.1761C118.094 29.0246 118.653 28.9489 119.202 28.9489C119.553 28.9489 119.955 28.9915 120.41 29.0767C120.869 29.1572 121.312 29.3253 121.738 29.581C122.169 29.8366 122.526 30.2225 122.81 30.7386C123.094 31.2547 123.237 31.946 123.237 32.8125V40H121.56V38.5227H121.475C121.362 38.7595 121.172 39.0128 120.907 39.2827C120.642 39.5526 120.289 39.7822 119.849 39.9716C119.408 40.161 118.871 40.2557 118.237 40.2557ZM118.492 38.75C119.155 38.75 119.714 38.6198 120.168 38.3594C120.628 38.099 120.973 37.7628 121.205 37.3509C121.442 36.9389 121.56 36.5057 121.56 36.0511V34.517C121.489 34.6023 121.333 34.6804 121.092 34.7514C120.855 34.8177 120.58 34.8769 120.268 34.929C119.96 34.9763 119.659 35.0189 119.366 35.0568C119.077 35.09 118.843 35.1184 118.663 35.142C118.227 35.1989 117.82 35.2912 117.441 35.419C117.067 35.5421 116.764 35.7292 116.532 35.9801C116.305 36.2263 116.191 36.5625 116.191 36.9886C116.191 37.571 116.406 38.0114 116.837 38.3097C117.273 38.6032 117.825 38.75 118.492 38.75ZM126.296 40V29.0909H127.915V30.7386H128.029C128.228 30.1989 128.587 29.7609 129.108 29.4247C129.629 29.0885 130.216 28.9205 130.87 28.9205C130.993 28.9205 131.147 28.9228 131.331 28.9276C131.516 28.9323 131.656 28.9394 131.75 28.9489V30.6534C131.694 30.6392 131.563 30.6179 131.36 30.5895C131.161 30.5563 130.95 30.5398 130.728 30.5398C130.197 30.5398 129.724 30.651 129.307 30.8736C128.895 31.0914 128.569 31.3944 128.327 31.7827C128.09 32.1662 127.972 32.6042 127.972 33.0966V40H126.296ZM143.794 40.2273C142.771 40.2273 141.891 39.9858 141.152 39.5028C140.413 39.0199 139.845 38.3546 139.447 37.5071C139.05 36.6596 138.851 35.6913 138.851 34.6023C138.851 33.4943 139.054 32.5166 139.462 31.669C139.874 30.8168 140.446 30.1515 141.18 29.6733C141.919 29.1903 142.781 28.9489 143.766 28.9489C144.533 28.9489 145.224 29.0909 145.839 29.375C146.455 29.6591 146.959 30.0568 147.352 30.5682C147.745 31.0795 147.989 31.6761 148.084 32.358H146.408C146.28 31.8608 145.996 31.4205 145.555 31.0369C145.12 30.6487 144.533 30.4545 143.794 30.4545C143.141 30.4545 142.568 30.625 142.075 30.9659C141.588 31.3021 141.206 31.7779 140.932 32.3935C140.662 33.0043 140.527 33.7216 140.527 34.5455C140.527 35.3883 140.66 36.1222 140.925 36.7472C141.195 37.3722 141.573 37.8575 142.061 38.2031C142.554 38.5488 143.131 38.7216 143.794 38.7216C144.23 38.7216 144.625 38.6458 144.98 38.4943C145.335 38.3428 145.636 38.125 145.882 37.8409C146.128 37.5568 146.304 37.2159 146.408 36.8182H148.084C147.989 37.4621 147.755 38.0421 147.381 38.5582C147.011 39.0696 146.521 39.4768 145.911 39.7798C145.304 40.0781 144.599 40.2273 143.794 40.2273ZM154.966 40.2273C153.981 40.2273 153.117 39.9929 152.374 39.5241C151.635 39.0554 151.057 38.3996 150.641 37.5568C150.229 36.714 150.023 35.7292 150.023 34.6023C150.023 33.4659 150.229 32.474 150.641 31.6264C151.057 30.7789 151.635 30.1207 152.374 29.652C153.117 29.1832 153.981 28.9489 154.966 28.9489C155.951 28.9489 156.813 29.1832 157.551 29.652C158.295 30.1207 158.872 30.7789 159.284 31.6264C159.701 32.474 159.909 33.4659 159.909 34.6023C159.909 35.7292 159.701 36.714 159.284 37.5568C158.872 38.3996 158.295 39.0554 157.551 39.5241C156.813 39.9929 155.951 40.2273 154.966 40.2273ZM154.966 38.7216C155.714 38.7216 156.33 38.5298 156.812 38.1463C157.295 37.7628 157.653 37.2585 157.885 36.6335C158.117 36.0085 158.233 35.3314 158.233 34.6023C158.233 33.8731 158.117 33.1937 157.885 32.5639C157.653 31.9342 157.295 31.4252 156.812 31.0369C156.33 30.6487 155.714 30.4545 154.966 30.4545C154.218 30.4545 153.602 30.6487 153.119 31.0369C152.636 31.4252 152.279 31.9342 152.047 32.5639C151.815 33.1937 151.699 33.8731 151.699 34.6023C151.699 35.3314 151.815 36.0085 152.047 36.6335C152.279 37.2585 152.636 37.7628 153.119 38.1463C153.602 38.5298 154.218 38.7216 154.966 38.7216ZM162.695 40V25.4545H164.371V30.8239H164.513C164.636 30.6345 164.807 30.393 165.025 30.0994C165.247 29.8011 165.564 29.536 165.976 29.304C166.393 29.0672 166.956 28.9489 167.667 28.9489C168.585 28.9489 169.395 29.1785 170.096 29.6378C170.796 30.0971 171.343 30.7481 171.736 31.5909C172.129 32.4337 172.326 33.428 172.326 34.5739C172.326 35.7292 172.129 36.7306 171.736 37.5781C171.343 38.4209 170.799 39.0743 170.103 39.5384C169.407 39.9976 168.604 40.2273 167.695 40.2273C166.994 40.2273 166.433 40.1113 166.012 39.8793C165.59 39.6425 165.266 39.375 165.039 39.0767C164.811 38.7737 164.636 38.5227 164.513 38.3239H164.314V40H162.695ZM164.343 34.5455C164.343 35.3693 164.463 36.0961 164.705 36.7259C164.946 37.3509 165.299 37.8409 165.763 38.196C166.227 38.5464 166.795 38.7216 167.468 38.7216C168.168 38.7216 168.753 38.5369 169.222 38.1676C169.695 37.7936 170.051 37.2917 170.287 36.6619C170.529 36.0275 170.65 35.322 170.65 34.5455C170.65 33.7784 170.531 33.0871 170.294 32.4716C170.062 31.8513 169.71 31.3613 169.236 31.0014C168.767 30.6368 168.178 30.4545 167.468 30.4545C166.786 30.4545 166.213 30.6274 165.749 30.973C165.285 31.3139 164.935 31.7921 164.698 32.4077C164.461 33.0185 164.343 33.7311 164.343 34.5455ZM174.89 40V29.0909H176.509V30.7386H176.623C176.821 30.1989 177.181 29.7609 177.702 29.4247C178.223 29.0885 178.81 28.9205 179.463 28.9205C179.587 28.9205 179.74 28.9228 179.925 28.9276C180.11 28.9323 180.249 28.9394 180.344 28.9489V30.6534C180.287 30.6392 180.157 30.6179 179.953 30.5895C179.755 30.5563 179.544 30.5398 179.321 30.5398C178.791 30.5398 178.318 30.651 177.901 30.8736C177.489 31.0914 177.162 31.3944 176.921 31.7827C176.684 32.1662 176.566 32.6042 176.566 33.0966V40H174.89ZM185.541 40.2557C184.85 40.2557 184.223 40.1255 183.659 39.8651C183.096 39.5999 182.648 39.2188 182.317 38.7216C181.985 38.2197 181.82 37.6136 181.82 36.9034C181.82 36.2784 181.943 35.7718 182.189 35.3835C182.435 34.9905 182.764 34.6828 183.176 34.4602C183.588 34.2377 184.043 34.072 184.54 33.9631C185.042 33.8494 185.546 33.7595 186.053 33.6932C186.715 33.608 187.253 33.544 187.665 33.5014C188.081 33.4541 188.384 33.3759 188.574 33.267C188.768 33.1581 188.865 32.9687 188.865 32.6989V32.642C188.865 31.9413 188.673 31.3968 188.29 31.0085C187.911 30.6203 187.336 30.4261 186.564 30.4261C185.764 30.4261 185.136 30.6013 184.682 30.9517C184.227 31.3021 183.908 31.6761 183.723 32.0739L182.132 31.5057C182.416 30.8428 182.795 30.3267 183.268 29.9574C183.747 29.5833 184.268 29.3229 184.831 29.1761C185.399 29.0246 185.958 28.9489 186.507 28.9489C186.857 28.9489 187.26 28.9915 187.714 29.0767C188.174 29.1572 188.616 29.3253 189.043 29.581C189.473 29.8366 189.831 30.2225 190.115 30.7386C190.399 31.2547 190.541 31.946 190.541 32.8125V40H188.865V38.5227H188.78C188.666 38.7595 188.477 39.0128 188.212 39.2827C187.946 39.5526 187.594 39.7822 187.153 39.9716C186.713 40.161 186.176 40.2557 185.541 40.2557ZM185.797 38.75C186.46 38.75 187.018 38.6198 187.473 38.3594C187.932 38.099 188.278 37.7628 188.51 37.3509C188.747 36.9389 188.865 36.5057 188.865 36.0511V34.517C188.794 34.6023 188.638 34.6804 188.396 34.7514C188.16 34.8177 187.885 34.8769 187.572 34.929C187.265 34.9763 186.964 35.0189 186.67 35.0568C186.382 35.09 186.147 35.1184 185.967 35.142C185.532 35.1989 185.125 35.2912 184.746 35.419C184.372 35.5421 184.069 35.7292 183.837 35.9801C183.609 36.2263 183.496 36.5625 183.496 36.9886C183.496 37.571 183.711 38.0114 184.142 38.3097C184.578 38.6032 185.129 38.75 185.797 38.75ZM195.277 33.4375V40H193.6V29.0909H195.22V30.7955H195.362C195.618 30.2415 196.006 29.7964 196.527 29.4602C197.047 29.1193 197.72 28.9489 198.544 28.9489C199.282 28.9489 199.929 29.1004 200.483 29.4034C201.037 29.7017 201.467 30.1562 201.775 30.767C202.083 31.3731 202.237 32.1402 202.237 33.0682V40H200.561V33.1818C200.561 32.3248 200.338 31.6572 199.893 31.179C199.448 30.696 198.837 30.4545 198.061 30.4545C197.526 30.4545 197.047 30.5705 196.626 30.8026C196.209 31.0346 195.88 31.3731 195.639 31.8182C195.397 32.2633 195.277 32.803 195.277 33.4375ZM209.732 40.2273C208.709 40.2273 207.828 39.9858 207.089 39.5028C206.351 39.0199 205.783 38.3546 205.385 37.5071C204.987 36.6596 204.788 35.6913 204.788 34.6023C204.788 33.4943 204.992 32.5166 205.399 31.669C205.811 30.8168 206.384 30.1515 207.118 29.6733C207.857 29.1903 208.718 28.9489 209.703 28.9489C210.47 28.9489 211.161 29.0909 211.777 29.375C212.393 29.6591 212.897 30.0568 213.29 30.5682C213.683 31.0795 213.927 31.6761 214.021 32.358H212.345C212.217 31.8608 211.933 31.4205 211.493 31.0369C211.057 30.6487 210.47 30.4545 209.732 30.4545C209.078 30.4545 208.505 30.625 208.013 30.9659C207.525 31.3021 207.144 31.7779 206.869 32.3935C206.599 33.0043 206.464 33.7216 206.464 34.5455C206.464 35.3883 206.597 36.1222 206.862 36.7472C207.132 37.3722 207.511 37.8575 207.999 38.2031C208.491 38.5488 209.069 38.7216 209.732 38.7216C210.167 38.7216 210.562 38.6458 210.918 38.4943C211.273 38.3428 211.573 38.125 211.82 37.8409C212.066 37.5568 212.241 37.2159 212.345 36.8182H214.021C213.927 37.4621 213.692 38.0421 213.318 38.5582C212.949 39.0696 212.459 39.4768 211.848 39.7798C211.242 40.0781 210.536 40.2273 209.732 40.2273ZM208.936 39.9432H210.328L210.214 40.5114C210.584 40.5682 210.922 40.7221 211.23 40.973C211.538 41.2287 211.692 41.6335 211.692 42.1875C211.692 42.7983 211.438 43.2955 210.932 43.679C210.43 44.0672 209.689 44.2614 208.709 44.2614L208.652 43.1534C209.092 43.1534 209.457 43.0824 209.746 42.9403C210.039 42.803 210.186 42.571 210.186 42.2443C210.186 41.9176 210.065 41.6951 209.824 41.5767C209.582 41.4583 209.192 41.3778 208.652 41.3352L208.936 39.9432ZM219.682 40.2557C218.991 40.2557 218.363 40.1255 217.8 39.8651C217.236 39.5999 216.789 39.2188 216.457 38.7216C216.126 38.2197 215.96 37.6136 215.96 36.9034C215.96 36.2784 216.083 35.7718 216.33 35.3835C216.576 34.9905 216.905 34.6828 217.317 34.4602C217.729 34.2377 218.183 34.072 218.68 33.9631C219.182 33.8494 219.687 33.7595 220.193 33.6932C220.856 33.608 221.393 33.544 221.805 33.5014C222.222 33.4541 222.525 33.3759 222.714 33.267C222.909 33.1581 223.006 32.9687 223.006 32.6989V32.642C223.006 31.9413 222.814 31.3968 222.43 31.0085C222.052 30.6203 221.476 30.4261 220.705 30.4261C219.904 30.4261 219.277 30.6013 218.822 30.9517C218.368 31.3021 218.048 31.6761 217.864 32.0739L216.273 31.5057C216.557 30.8428 216.936 30.3267 217.409 29.9574C217.887 29.5833 218.408 29.3229 218.972 29.1761C219.54 29.0246 220.098 28.9489 220.648 28.9489C220.998 28.9489 221.401 28.9915 221.855 29.0767C222.314 29.1572 222.757 29.3253 223.183 29.581C223.614 29.8366 223.972 30.2225 224.256 30.7386C224.54 31.2547 224.682 31.946 224.682 32.8125V40H223.006V38.5227H222.92C222.807 38.7595 222.617 39.0128 222.352 39.2827C222.087 39.5526 221.734 39.7822 221.294 39.9716C220.854 40.161 220.316 40.2557 219.682 40.2557ZM219.938 38.75C220.6 38.75 221.159 38.6198 221.614 38.3594C222.073 38.099 222.419 37.7628 222.651 37.3509C222.887 36.9389 223.006 36.5057 223.006 36.0511V34.517C222.935 34.6023 222.778 34.6804 222.537 34.7514C222.3 34.8177 222.026 34.8769 221.713 34.929C221.405 34.9763 221.105 35.0189 220.811 35.0568C220.522 35.09 220.288 35.1184 220.108 35.142C219.672 35.1989 219.265 35.2912 218.886 35.419C218.512 35.5421 218.209 35.7292 217.977 35.9801C217.75 36.2263 217.636 36.5625 217.636 36.9886C217.636 37.571 217.852 38.0114 218.283 38.3097C218.718 38.6032 219.27 38.75 219.938 38.75Z" fill="black"/>
<defs>
<filter id="filter0_d_44_260" x="0" y="0" width="298" height="68" filterUnits="userSpaceOnUse" color-interpolation-filters="sRGB">
<feFlood flood-opacity="0" result="BackgroundImageFix"/>
<feColorMatrix in="SourceAlpha" type="matrix" values="0 0 0 0 0 0 0 0 0 0 0 0 0 0 0 0 0 0 127 0" result="hardAlpha"/>
<feOffset dy="1"/>
<feGaussianBlur stdDeviation="2"/>
<feComposite in2="hardAlpha" operator="out"/>
<feColorMatrix type="matrix" values="0 0 0 0 0 0 0 0 0 0 0 0 0 0 0 0 0 0 0.25 0"/>
<feBlend mode="normal" in2="BackgroundImageFix" result="effect1_dropShadow_44_260"/>
<feBlend mode="normal" in="SourceGraphic" in2="effect1_dropShadow_44_260" result="shape"/>
</filter>
</defs>
</svg>
