<svg width="298" height="68" viewBox="0 0 298 68" fill="none" xmlns="http://www.w3.org/2000/svg">
<g filter="url(#filter0_d_23_288)">
<rect x="4" y="3" width="290" height="60" rx="5" fill="#019DC9" fill-opacity="0.15" shape-rendering="crispEdges"/>
</g>
<path d="M116.761 39V24.4545H125.54V26.017H118.523V30.9318H125.085V32.4943H118.523V37.4375H125.653V39H116.761ZM130.163 32.4375V39H128.487V28.0909H130.107V29.7955H130.249C130.504 29.2415 130.893 28.7964 131.413 28.4602C131.934 28.1193 132.607 27.9489 133.43 27.9489C134.169 27.9489 134.815 28.1004 135.369 28.4034C135.923 28.7017 136.354 29.1562 136.662 29.767C136.97 30.3731 137.124 31.1402 137.124 32.0682V39H135.447V32.1818C135.447 31.3248 135.225 30.6572 134.78 30.179C134.335 29.696 133.724 29.4545 132.947 29.4545C132.412 29.4545 131.934 29.5705 131.513 29.8026C131.096 30.0346 130.767 30.3731 130.526 30.8182C130.284 31.2633 130.163 31.803 130.163 32.4375ZM148.716 28.0909L144.682 39H142.978L138.944 28.0909H140.762L143.773 36.7841H143.887L146.898 28.0909H148.716ZM150.929 39V28.0909H152.605V39H150.929ZM151.781 26.2727C151.454 26.2727 151.172 26.1615 150.936 25.9389C150.704 25.7164 150.588 25.4489 150.588 25.1364C150.588 24.8239 150.704 24.5563 150.936 24.3338C151.172 24.1113 151.454 24 151.781 24C152.108 24 152.387 24.1113 152.619 24.3338C152.856 24.5563 152.974 24.8239 152.974 25.1364C152.974 25.4489 152.856 25.7164 152.619 25.9389C152.387 26.1615 152.108 26.2727 151.781 26.2727ZM158.885 39.2557C158.194 39.2557 157.566 39.1255 157.003 38.8651C156.439 38.5999 155.992 38.2188 155.661 37.7216C155.329 37.2197 155.163 36.6136 155.163 35.9034C155.163 35.2784 155.286 34.7718 155.533 34.3835C155.779 33.9905 156.108 33.6828 156.52 33.4602C156.932 33.2377 157.386 33.072 157.884 32.9631C158.385 32.8494 158.89 32.7595 159.396 32.6932C160.059 32.608 160.597 32.544 161.009 32.5014C161.425 32.4541 161.728 32.3759 161.918 32.267C162.112 32.1581 162.209 31.9687 162.209 31.6989V31.642C162.209 30.9413 162.017 30.3968 161.634 30.0085C161.255 29.6203 160.679 29.4261 159.908 29.4261C159.107 29.4261 158.48 29.6013 158.026 29.9517C157.571 30.3021 157.251 30.6761 157.067 31.0739L155.476 30.5057C155.76 29.8428 156.139 29.3267 156.612 28.9574C157.09 28.5833 157.611 28.3229 158.175 28.1761C158.743 28.0246 159.302 27.9489 159.851 27.9489C160.201 27.9489 160.604 27.9915 161.058 28.0767C161.518 28.1572 161.96 28.3253 162.386 28.581C162.817 28.8366 163.175 29.2225 163.459 29.7386C163.743 30.2547 163.885 30.946 163.885 31.8125V39H162.209V37.5227H162.124C162.01 37.7595 161.821 38.0128 161.555 38.2827C161.29 38.5526 160.938 38.7822 160.497 38.9716C160.057 39.161 159.519 39.2557 158.885 39.2557ZM159.141 37.75C159.804 37.75 160.362 37.6198 160.817 37.3594C161.276 37.099 161.622 36.7628 161.854 36.3509C162.09 35.9389 162.209 35.5057 162.209 35.0511V33.517C162.138 33.6023 161.982 33.6804 161.74 33.7514C161.503 33.8177 161.229 33.8769 160.916 33.929C160.608 33.9763 160.308 34.0189 160.014 34.0568C159.725 34.09 159.491 34.1184 159.311 34.142C158.875 34.1989 158.468 34.2912 158.089 34.419C157.715 34.5421 157.412 34.7292 157.18 34.9801C156.953 35.2263 156.839 35.5625 156.839 35.9886C156.839 36.571 157.055 37.0114 157.486 37.3097C157.921 37.6032 158.473 37.75 159.141 37.75ZM166.944 39V28.0909H168.564V29.7386H168.677C168.876 29.1989 169.236 28.7609 169.757 28.4247C170.278 28.0885 170.865 27.9205 171.518 27.9205C171.641 27.9205 171.795 27.9228 171.98 27.9276C172.164 27.9323 172.304 27.9394 172.399 27.9489V29.6534C172.342 29.6392 172.212 29.6179 172.008 29.5895C171.809 29.5563 171.599 29.5398 171.376 29.5398C170.846 29.5398 170.372 29.651 169.956 29.8736C169.544 30.0914 169.217 30.3944 168.975 30.7827C168.739 31.1662 168.62 31.6042 168.62 32.0966V39H166.944Z" fill="black"/>
<path d="M266.214 20.3173C266.786 20.7137 267.086 21.3989 266.978 22.0842L263.353 45.6418C263.268 46.1911 262.934 46.6724 262.447 46.9442C261.96 47.2161 261.377 47.25 260.861 47.0348L254.087 44.2204L250.207 48.4166C249.703 48.9659 248.91 49.1471 248.213 48.8753C247.516 48.6035 247.063 47.9296 247.063 47.1821V42.4479C247.063 42.2214 247.148 42.0062 247.301 41.842L256.794 31.4846C257.123 31.1278 257.111 30.5785 256.772 30.2387C256.432 29.8989 255.882 29.8763 255.525 30.1991L244.005 40.4319L239.003 37.9289C238.403 37.6288 238.018 37.0285 238.001 36.3603C237.984 35.6921 238.335 35.0692 238.913 34.7351L264.288 20.2381C264.894 19.8926 265.642 19.9266 266.214 20.3173Z" fill="#019DC9"/>
<defs>
<filter id="filter0_d_23_288" x="0" y="0" width="298" height="68" filterUnits="userSpaceOnUse" color-interpolation-filters="sRGB">
<feFlood flood-opacity="0" result="BackgroundImageFix"/>
<feColorMatrix in="SourceAlpha" type="matrix" values="0 0 0 0 0 0 0 0 0 0 0 0 0 0 0 0 0 0 127 0" result="hardAlpha"/>
<feOffset dy="1"/>
<feGaussianBlur stdDeviation="2"/>
<feComposite in2="hardAlpha" operator="out"/>
<feColorMatrix type="matrix" values="0 0 0 0 0 0 0 0 0 0 0 0 0 0 0 0 0 0 0.25 0"/>
<feBlend mode="normal" in2="BackgroundImageFix" result="effect1_dropShadow_23_288"/>
<feBlend mode="normal" in="SourceGraphic" in2="effect1_dropShadow_23_288" result="shape"/>
</filter>
</defs>
</svg>
