<svg width="298" height="68" viewBox="0 0 298 68" fill="none" xmlns="http://www.w3.org/2000/svg">
<g filter="url(#filter0_d_32_389)">
<rect x="4" y="3" width="290" height="60" rx="5" fill="#D10085" fill-opacity="0.15" shape-rendering="crispEdges"/>
</g>
<path d="M115.466 31H113.705C113.6 30.4934 113.418 30.0483 113.158 29.6648C112.902 29.2812 112.589 28.9593 112.22 28.6989C111.856 28.4337 111.451 28.2348 111.006 28.1023C110.561 27.9697 110.097 27.9034 109.614 27.9034C108.733 27.9034 107.935 28.1259 107.22 28.571C106.51 29.0161 105.944 29.6719 105.523 30.5384C105.106 31.4048 104.898 32.4678 104.898 33.7273C104.898 34.9867 105.106 36.0497 105.523 36.9162C105.944 37.7827 106.51 38.4384 107.22 38.8835C107.935 39.3286 108.733 39.5511 109.614 39.5511C110.097 39.5511 110.561 39.4848 111.006 39.3523C111.451 39.2197 111.856 39.0232 112.22 38.7628C112.589 38.4976 112.902 38.1733 113.158 37.7898C113.418 37.4015 113.6 36.9564 113.705 36.4545H115.466C115.333 37.1979 115.092 37.8632 114.741 38.4503C114.391 39.0374 113.955 39.5369 113.435 39.9489C112.914 40.3561 112.329 40.6662 111.68 40.8793C111.036 41.0923 110.348 41.1989 109.614 41.1989C108.373 41.1989 107.27 40.8958 106.304 40.2898C105.338 39.6837 104.578 38.822 104.024 37.7045C103.47 36.5871 103.193 35.2614 103.193 33.7273C103.193 32.1932 103.47 30.8674 104.024 29.75C104.578 28.6326 105.338 27.7708 106.304 27.1648C107.27 26.5587 108.373 26.2557 109.614 26.2557C110.348 26.2557 111.036 26.3622 111.68 26.5753C112.329 26.7884 112.914 27.1009 113.435 27.5128C113.955 27.92 114.391 28.4171 114.741 29.0043C115.092 29.5866 115.333 30.2519 115.466 31ZM122.517 41.2273C121.532 41.2273 120.668 40.9929 119.924 40.5241C119.186 40.0554 118.608 39.3996 118.191 38.5568C117.779 37.714 117.574 36.7292 117.574 35.6023C117.574 34.4659 117.779 33.474 118.191 32.6264C118.608 31.7789 119.186 31.1207 119.924 30.652C120.668 30.1832 121.532 29.9489 122.517 29.9489C123.502 29.9489 124.363 30.1832 125.102 30.652C125.845 31.1207 126.423 31.7789 126.835 32.6264C127.252 33.474 127.46 34.4659 127.46 35.6023C127.46 36.7292 127.252 37.714 126.835 38.5568C126.423 39.3996 125.845 40.0554 125.102 40.5241C124.363 40.9929 123.502 41.2273 122.517 41.2273ZM122.517 39.7216C123.265 39.7216 123.88 39.5298 124.363 39.1463C124.846 38.7628 125.204 38.2585 125.436 37.6335C125.668 37.0085 125.784 36.3314 125.784 35.6023C125.784 34.8731 125.668 34.1937 125.436 33.5639C125.204 32.9342 124.846 32.4252 124.363 32.0369C123.88 31.6487 123.265 31.4545 122.517 31.4545C121.769 31.4545 121.153 31.6487 120.67 32.0369C120.187 32.4252 119.83 32.9342 119.598 33.5639C119.366 34.1937 119.25 34.8731 119.25 35.6023C119.25 36.3314 119.366 37.0085 119.598 37.6335C119.83 38.2585 120.187 38.7628 120.67 39.1463C121.153 39.5298 121.769 39.7216 122.517 39.7216ZM131.695 34.4375V41H130.018V30.0909H131.638V31.7955H131.78C132.036 31.2415 132.424 30.7964 132.945 30.4602C133.465 30.1193 134.138 29.9489 134.962 29.9489C135.7 29.9489 136.347 30.1004 136.901 30.4034C137.455 30.7017 137.885 31.1562 138.193 31.767C138.501 32.3731 138.655 33.1402 138.655 34.0682V41H136.979V34.1818C136.979 33.3248 136.756 32.6572 136.311 32.179C135.866 31.696 135.255 31.4545 134.479 31.4545C133.944 31.4545 133.465 31.5705 133.044 31.8026C132.627 32.0346 132.298 32.3731 132.057 32.8182C131.815 33.2633 131.695 33.803 131.695 34.4375ZM146.576 30.0909V31.5114H140.695V30.0909H146.576ZM142.456 41V28.5852C142.456 27.9602 142.603 27.4394 142.897 27.0227C143.19 26.6061 143.571 26.2936 144.04 26.0852C144.509 25.8769 145.004 25.7727 145.525 25.7727C145.936 25.7727 146.273 25.8059 146.533 25.8722C146.793 25.9384 146.988 26 147.115 26.0568L146.632 27.5057C146.547 27.4773 146.429 27.4418 146.277 27.3991C146.131 27.3565 145.936 27.3352 145.695 27.3352C145.141 27.3352 144.741 27.4749 144.495 27.7543C144.253 28.0336 144.132 28.4432 144.132 28.983V41H142.456ZM148.925 41V30.0909H150.601V41H148.925ZM149.777 28.2727C149.45 28.2727 149.169 28.1615 148.932 27.9389C148.7 27.7164 148.584 27.4489 148.584 27.1364C148.584 26.8239 148.7 26.5563 148.932 26.3338C149.169 26.1113 149.45 26 149.777 26C150.104 26 150.383 26.1113 150.615 26.3338C150.852 26.5563 150.97 26.8239 150.97 27.1364C150.97 27.4489 150.852 27.7164 150.615 27.9389C150.383 28.1615 150.104 28.2727 149.777 28.2727ZM153.671 41V30.0909H155.29V31.7386H155.404C155.603 31.1989 155.962 30.7609 156.483 30.4247C157.004 30.0885 157.591 29.9205 158.245 29.9205C158.368 29.9205 158.522 29.9228 158.706 29.9276C158.891 29.9323 159.031 29.9394 159.125 29.9489V31.6534C159.069 31.6392 158.938 31.6179 158.735 31.5895C158.536 31.5563 158.325 31.5398 158.103 31.5398C157.572 31.5398 157.099 31.651 156.682 31.8736C156.27 32.0914 155.944 32.3944 155.702 32.7827C155.465 33.1662 155.347 33.6042 155.347 34.0966V41H153.671ZM161.112 41V30.0909H162.732V31.7955H162.874C163.101 31.2131 163.468 30.7609 163.974 30.4389C164.481 30.1122 165.089 29.9489 165.8 29.9489C166.519 29.9489 167.118 30.1122 167.597 30.4389C168.08 30.7609 168.456 31.2131 168.726 31.7955H168.839C169.119 31.232 169.538 30.7846 170.097 30.4531C170.655 30.117 171.325 29.9489 172.107 29.9489C173.082 29.9489 173.88 30.2543 174.5 30.8651C175.12 31.4711 175.43 32.4157 175.43 33.6989V41H173.754V33.6989C173.754 32.8939 173.534 32.3187 173.094 31.973C172.653 31.6274 172.135 31.4545 171.538 31.4545C170.771 31.4545 170.177 31.6866 169.756 32.1506C169.334 32.6098 169.124 33.1922 169.124 33.8977V41H167.419V33.5284C167.419 32.9081 167.218 32.4086 166.815 32.0298C166.413 31.6463 165.894 31.4545 165.26 31.4545C164.824 31.4545 164.417 31.5705 164.038 31.8026C163.664 32.0346 163.361 32.3565 163.129 32.7685C162.902 33.1757 162.788 33.6468 162.788 34.1818V41H161.112ZM181.705 41.2557C181.014 41.2557 180.387 41.1255 179.823 40.8651C179.26 40.5999 178.812 40.2188 178.481 39.7216C178.149 39.2197 177.984 38.6136 177.984 37.9034C177.984 37.2784 178.107 36.7718 178.353 36.3835C178.599 35.9905 178.928 35.6828 179.34 35.4602C179.752 35.2377 180.207 35.072 180.704 34.9631C181.206 34.8494 181.71 34.7595 182.217 34.6932C182.879 34.608 183.417 34.544 183.829 34.5014C184.246 34.4541 184.549 34.3759 184.738 34.267C184.932 34.1581 185.029 33.9687 185.029 33.6989V33.642C185.029 32.9413 184.837 32.3968 184.454 32.0085C184.075 31.6203 183.5 31.4261 182.728 31.4261C181.928 31.4261 181.3 31.6013 180.846 31.9517C180.391 32.3021 180.072 32.6761 179.887 33.0739L178.296 32.5057C178.58 31.8428 178.959 31.3267 179.433 30.9574C179.911 30.5833 180.432 30.3229 180.995 30.1761C181.563 30.0246 182.122 29.9489 182.671 29.9489C183.022 29.9489 183.424 29.9915 183.879 30.0767C184.338 30.1572 184.781 30.3253 185.207 30.581C185.638 30.8366 185.995 31.2225 186.279 31.7386C186.563 32.2547 186.705 32.946 186.705 33.8125V41H185.029V39.5227H184.944C184.83 39.7595 184.641 40.0128 184.376 40.2827C184.111 40.5526 183.758 40.7822 183.317 40.9716C182.877 41.161 182.34 41.2557 181.705 41.2557ZM181.961 39.75C182.624 39.75 183.183 39.6198 183.637 39.3594C184.096 39.099 184.442 38.7628 184.674 38.3509C184.911 37.9389 185.029 37.5057 185.029 37.0511V35.517C184.958 35.6023 184.802 35.6804 184.56 35.7514C184.324 35.8177 184.049 35.8769 183.737 35.929C183.429 35.9763 183.128 36.0189 182.835 36.0568C182.546 36.09 182.311 36.1184 182.131 36.142C181.696 36.1989 181.289 36.2912 180.91 36.419C180.536 36.5421 180.233 36.7292 180.001 36.9801C179.773 37.2263 179.66 37.5625 179.66 37.9886C179.66 38.571 179.875 39.0114 180.306 39.3097C180.742 39.6032 181.293 39.75 181.961 39.75ZM189.765 41V30.0909H191.384V31.7386H191.498C191.696 31.1989 192.056 30.7609 192.577 30.4247C193.098 30.0885 193.685 29.9205 194.338 29.9205C194.462 29.9205 194.615 29.9228 194.8 29.9276C194.985 29.9323 195.124 29.9394 195.219 29.9489V31.6534C195.162 31.6392 195.032 31.6179 194.828 31.5895C194.63 31.5563 194.419 31.5398 194.196 31.5398C193.666 31.5398 193.193 31.651 192.776 31.8736C192.364 32.0914 192.037 32.3944 191.796 32.7827C191.559 33.1662 191.441 33.6042 191.441 34.0966V41H189.765Z" fill="black"/>
<path d="M246.75 21C244.682 21 243 22.6816 243 24.75V43.5C243 45.5684 244.682 47.25 246.75 47.25H269.25C271.318 47.25 273 45.5684 273 43.5V30.375C273 28.3066 271.318 26.625 269.25 26.625H247.688C247.172 26.625 246.75 26.2031 246.75 25.6875C246.75 25.1719 247.172 24.75 247.688 24.75H269.25C270.287 24.75 271.125 23.9121 271.125 22.875C271.125 21.8379 270.287 21 269.25 21H246.75ZM267.375 35.0625C267.872 35.0625 268.349 35.26 268.701 35.6117C269.052 35.9633 269.25 36.4402 269.25 36.9375C269.25 37.4348 269.052 37.9117 268.701 38.2633C268.349 38.615 267.872 38.8125 267.375 38.8125C266.878 38.8125 266.401 38.615 266.049 38.2633C265.698 37.9117 265.5 37.4348 265.5 36.9375C265.5 36.4402 265.698 35.9633 266.049 35.6117C266.401 35.26 266.878 35.0625 267.375 35.0625Z" fill="#D10085" fill-opacity="0.8"/>
<defs>
<filter id="filter0_d_32_389" x="0" y="0" width="298" height="68" filterUnits="userSpaceOnUse" color-interpolation-filters="sRGB">
<feFlood flood-opacity="0" result="BackgroundImageFix"/>
<feColorMatrix in="SourceAlpha" type="matrix" values="0 0 0 0 0 0 0 0 0 0 0 0 0 0 0 0 0 0 127 0" result="hardAlpha"/>
<feOffset dy="1"/>
<feGaussianBlur stdDeviation="2"/>
<feComposite in2="hardAlpha" operator="out"/>
<feColorMatrix type="matrix" values="0 0 0 0 0 0 0 0 0 0 0 0 0 0 0 0 0 0 0.25 0"/>
<feBlend mode="normal" in2="BackgroundImageFix" result="effect1_dropShadow_32_389"/>
<feBlend mode="normal" in="SourceGraphic" in2="effect1_dropShadow_32_389" result="shape"/>
</filter>
</defs>
</svg>
