<svg width="139" height="46" viewBox="0 0 139 46" fill="none" xmlns="http://www.w3.org/2000/svg">
<g filter="url(#filter0_d_57_126)">
<rect x="4" y="3" width="131" height="38" rx="5" fill="#640564"/>
</g>
<path d="M25.2592 19.6385H23.5973C23.5334 19.2834 23.4144 18.9709 23.2404 18.701C23.0664 18.4311 22.8533 18.2021 22.6012 18.0138C22.3491 17.8256 22.0668 17.6836 21.7543 17.5877C21.4453 17.4918 21.1168 17.4439 20.7688 17.4439C20.1403 17.4439 19.5774 17.6019 19.0803 17.918C18.5866 18.234 18.196 18.6974 17.9084 19.3082C17.6243 19.919 17.4822 20.6648 17.4822 21.5455C17.4822 22.4332 17.6243 23.1825 17.9084 23.7933C18.196 24.4041 18.5884 24.8658 19.0856 25.1783C19.5827 25.4908 20.142 25.647 20.7635 25.647C21.108 25.647 21.4347 25.6009 21.7436 25.5085C22.0561 25.4126 22.3384 25.2724 22.5906 25.0877C22.8427 24.9031 23.0558 24.6776 23.2298 24.4112C23.4073 24.1413 23.5298 23.8324 23.5973 23.4844L25.2592 23.4897C25.1705 24.0259 24.9982 24.5195 24.7425 24.9705C24.4904 25.418 24.1655 25.805 23.7678 26.1317C23.3736 26.4549 22.9226 26.7053 22.4148 26.8828C21.907 27.0604 21.353 27.1491 20.7528 27.1491C19.8082 27.1491 18.9666 26.9254 18.228 26.478C17.4893 26.027 16.907 25.3825 16.4808 24.5444C16.0582 23.7063 15.8469 22.7067 15.8469 21.5455C15.8469 20.3807 16.06 19.381 16.4862 18.5465C16.9123 17.7085 17.4947 17.0657 18.2333 16.6183C18.9719 16.1673 19.8118 15.9418 20.7528 15.9418C21.3317 15.9418 21.8714 16.0252 22.3722 16.1921C22.8764 16.3555 23.3292 16.5969 23.7305 16.9165C24.1317 17.2326 24.4638 17.6197 24.7266 18.0778C24.9893 18.5323 25.1669 19.0526 25.2592 19.6385ZM27.1009 27V18.8182H28.6404V20.1179H28.7256C28.8747 19.6776 29.1375 19.3313 29.5139 19.0792C29.8939 18.8235 30.3236 18.6957 30.803 18.6957C30.9024 18.6957 31.0196 18.6992 31.1546 18.7063C31.2931 18.7134 31.4014 18.7223 31.4795 18.733V20.2564C31.4156 20.2386 31.3019 20.2191 31.1386 20.1978C30.9752 20.1729 30.8119 20.1605 30.6485 20.1605C30.2721 20.1605 29.9365 20.2404 29.6418 20.4002C29.3506 20.5565 29.1198 20.7749 28.9493 21.0554C28.7789 21.3324 28.6936 21.6484 28.6936 22.0036V27H27.1009ZM32.8578 27V18.8182H34.4505V27H32.8578ZM33.6621 17.5558C33.3851 17.5558 33.1472 17.4634 32.9483 17.2788C32.753 17.0906 32.6554 16.8668 32.6554 16.6076C32.6554 16.3448 32.753 16.1211 32.9483 15.9364C33.1472 15.7482 33.3851 15.6541 33.6621 15.6541C33.9391 15.6541 34.1752 15.7482 34.3706 15.9364C34.5694 16.1211 34.6689 16.3448 34.6689 16.6076C34.6689 16.8668 34.5694 17.0906 34.3706 17.2788C34.1752 17.4634 33.9391 17.5558 33.6621 17.5558ZM38.9742 27.1811C38.4557 27.1811 37.9869 27.0852 37.5679 26.8935C37.1489 26.6982 36.8169 26.4158 36.5718 26.0465C36.3303 25.6772 36.2096 25.2244 36.2096 24.6882C36.2096 24.2266 36.2984 23.8466 36.4759 23.5483C36.6535 23.25 36.8932 23.0138 37.195 22.8398C37.4969 22.6658 37.8343 22.5344 38.2071 22.4457C38.58 22.3569 38.96 22.2894 39.347 22.2433C39.8371 22.1864 40.2348 22.1403 40.5402 22.1048C40.8456 22.0657 41.0676 22.0036 41.2061 21.9183C41.3445 21.8331 41.4138 21.6946 41.4138 21.5028V21.4656C41.4138 21.0004 41.2824 20.6399 41.0196 20.3842C40.7604 20.1286 40.3733 20.0007 39.8584 20.0007C39.3222 20.0007 38.8996 20.1197 38.5906 20.3576C38.2852 20.592 38.074 20.853 37.9568 21.1406L36.46 20.7997C36.6375 20.3026 36.8968 19.9013 37.2377 19.5959C37.5821 19.2869 37.9781 19.0632 38.4255 18.9247C38.873 18.7827 39.3435 18.7116 39.8371 18.7116C40.1638 18.7116 40.51 18.7507 40.8758 18.8288C41.2451 18.9034 41.5896 19.0419 41.9092 19.2443C42.2323 19.4467 42.4969 19.7362 42.7029 20.1126C42.9088 20.4854 43.0118 20.9702 43.0118 21.5668V27H41.4564V25.8814H41.3925C41.2895 26.0874 41.135 26.2898 40.9291 26.4886C40.7231 26.6875 40.4585 26.8526 40.1354 26.984C39.8122 27.1154 39.4252 27.1811 38.9742 27.1811ZM39.3204 25.9027C39.7607 25.9027 40.1372 25.8157 40.4497 25.6417C40.7657 25.4677 41.0054 25.2404 41.1688 24.9599C41.3357 24.6758 41.4191 24.3722 41.4191 24.049V22.9943C41.3623 23.0511 41.2522 23.1044 41.0889 23.1541C40.9291 23.2003 40.7462 23.2411 40.5402 23.2766C40.3343 23.3086 40.1336 23.3388 39.9383 23.3672C39.743 23.392 39.5796 23.4134 39.4482 23.4311C39.1393 23.4702 38.857 23.5359 38.6013 23.6282C38.3492 23.7205 38.1468 23.8537 37.9941 24.0277C37.8449 24.1982 37.7703 24.4254 37.7703 24.7095C37.7703 25.1037 37.9159 25.402 38.2071 25.6044C38.4983 25.8033 38.8694 25.9027 39.3204 25.9027ZM45.1332 27V18.8182H46.6726V20.1179H46.7578C46.907 19.6776 47.1697 19.3313 47.5462 19.0792C47.9261 18.8235 48.3558 18.6957 48.8352 18.6957C48.9347 18.6957 49.0518 18.6992 49.1868 18.7063C49.3253 18.7134 49.4336 18.7223 49.5117 18.733V20.2564C49.4478 20.2386 49.3342 20.2191 49.1708 20.1978C49.0075 20.1729 48.8441 20.1605 48.6808 20.1605C48.3043 20.1605 47.9688 20.2404 47.674 20.4002C47.3828 20.5565 47.152 20.7749 46.9815 21.0554C46.8111 21.3324 46.7259 21.6484 46.7259 22.0036V27H45.1332ZM58.3061 27.1651C57.5142 27.1651 56.8324 26.9858 56.2607 26.6271C55.6925 26.2649 55.2557 25.766 54.9503 25.1303C54.6449 24.4947 54.4922 23.7667 54.4922 22.9464C54.4922 22.1154 54.6484 21.3821 54.9609 20.7464C55.2734 20.1072 55.7138 19.6083 56.282 19.2496C56.8501 18.891 57.5195 18.7116 58.2901 18.7116C58.9116 18.7116 59.4656 18.8271 59.9521 19.0579C60.4386 19.2852 60.831 19.6048 61.1293 20.0167C61.4311 20.4286 61.6104 20.9098 61.6673 21.4602H60.1172C60.032 21.0767 59.8366 20.7464 59.5312 20.4695C59.2294 20.1925 58.8246 20.054 58.3168 20.054C57.8729 20.054 57.484 20.1712 57.1502 20.4055C56.82 20.6364 56.5625 20.9666 56.3778 21.3963C56.1932 21.8224 56.1009 22.3267 56.1009 22.9091C56.1009 23.5057 56.1914 24.0206 56.3725 24.4538C56.5536 24.8871 56.8093 25.2227 57.1396 25.4606C57.4734 25.6985 57.8658 25.8175 58.3168 25.8175C58.6186 25.8175 58.892 25.7624 59.1371 25.6523C59.3857 25.5387 59.5934 25.3771 59.7603 25.1676C59.9308 24.9581 60.0497 24.706 60.1172 24.4112H61.6673C61.6104 24.9403 61.4382 25.4126 61.1506 25.8281C60.8629 26.2436 60.4776 26.5703 59.9947 26.8082C59.5153 27.0462 58.9524 27.1651 58.3061 27.1651ZM66.8169 27.1651C66.0498 27.1651 65.3804 26.9893 64.8087 26.6378C64.2369 26.2862 63.7931 25.7944 63.477 25.1623C63.161 24.5302 63.0029 23.7915 63.0029 22.9464C63.0029 22.0977 63.161 21.3555 63.477 20.7198C63.7931 20.0842 64.2369 19.5906 64.8087 19.239C65.3804 18.8874 66.0498 18.7116 66.8169 18.7116C67.5839 18.7116 68.2533 18.8874 68.825 19.239C69.3968 19.5906 69.8406 20.0842 70.1567 20.7198C70.4727 21.3555 70.6308 22.0977 70.6308 22.9464C70.6308 23.7915 70.4727 24.5302 70.1567 25.1623C69.8406 25.7944 69.3968 26.2862 68.825 26.6378C68.2533 26.9893 67.5839 27.1651 66.8169 27.1651ZM66.8222 25.8281C67.3193 25.8281 67.7313 25.6967 68.058 25.4339C68.3847 25.1712 68.6262 24.8214 68.7824 24.3846C68.9422 23.9478 69.0221 23.4666 69.0221 22.9411C69.0221 22.419 68.9422 21.9396 68.7824 21.5028C68.6262 21.0625 68.3847 20.7092 68.058 20.4428C67.7313 20.1765 67.3193 20.0433 66.8222 20.0433C66.3215 20.0433 65.906 20.1765 65.5757 20.4428C65.249 20.7092 65.0058 21.0625 64.846 21.5028C64.6897 21.9396 64.6116 22.419 64.6116 22.9411C64.6116 23.4666 64.6897 23.9478 64.846 24.3846C65.0058 24.8214 65.249 25.1712 65.5757 25.4339C65.906 25.6967 66.3215 25.8281 66.8222 25.8281ZM74.0012 22.142V27H72.4086V18.8182H73.9373V20.1499H74.0385C74.2267 19.7166 74.5215 19.3686 74.9228 19.1058C75.3276 18.843 75.8372 18.7116 76.4515 18.7116C77.0091 18.7116 77.4973 18.8288 77.9164 19.0632C78.3354 19.294 78.6603 19.6385 78.8912 20.0966C79.122 20.5547 79.2374 21.1211 79.2374 21.7958V27H77.6447V21.9876C77.6447 21.3945 77.4902 20.9311 77.1813 20.5973C76.8723 20.2599 76.448 20.0913 75.9082 20.0913C75.5389 20.0913 75.2104 20.1712 74.9228 20.331C74.6387 20.4908 74.4132 20.7251 74.2463 21.0341C74.0829 21.3395 74.0012 21.7088 74.0012 22.142ZM85.1926 18.8182V20.0966H80.7235V18.8182H85.1926ZM81.9221 16.858H83.5147V24.5977C83.5147 24.9066 83.5609 25.1392 83.6532 25.2955C83.7456 25.4482 83.8645 25.5529 84.0101 25.6097C84.1593 25.663 84.3208 25.6896 84.4949 25.6896C84.6227 25.6896 84.7346 25.6808 84.8304 25.663C84.9263 25.6452 85.0009 25.631 85.0542 25.6204L85.3418 26.9361C85.2495 26.9716 85.1181 27.0071 84.9476 27.0426C84.7772 27.0817 84.5641 27.103 84.3084 27.1065C83.8894 27.1136 83.4988 27.0391 83.1365 26.8828C82.7743 26.7266 82.4814 26.4851 82.2576 26.1584C82.0339 25.8317 81.9221 25.4215 81.9221 24.9279V16.858ZM89.3355 27.1811C88.817 27.1811 88.3483 27.0852 87.9292 26.8935C87.5102 26.6982 87.1782 26.4158 86.9331 26.0465C86.6917 25.6772 86.5709 25.2244 86.5709 24.6882C86.5709 24.2266 86.6597 23.8466 86.8373 23.5483C87.0148 23.25 87.2545 23.0138 87.5564 22.8398C87.8582 22.6658 88.1956 22.5344 88.5684 22.4457C88.9413 22.3569 89.3213 22.2894 89.7084 22.2433C90.1984 22.1864 90.5961 22.1403 90.9015 22.1048C91.2069 22.0657 91.4289 22.0036 91.5674 21.9183C91.7059 21.8331 91.7751 21.6946 91.7751 21.5028V21.4656C91.7751 21.0004 91.6437 20.6399 91.3809 20.3842C91.1217 20.1286 90.7346 20.0007 90.2197 20.0007C89.6835 20.0007 89.2609 20.1197 88.952 20.3576C88.6466 20.592 88.4353 20.853 88.3181 21.1406L86.8213 20.7997C86.9988 20.3026 87.2581 19.9013 87.599 19.5959C87.9434 19.2869 88.3394 19.0632 88.7868 18.9247C89.2343 18.7827 89.7048 18.7116 90.1984 18.7116C90.5251 18.7116 90.8714 18.7507 91.2371 18.8288C91.6064 18.9034 91.9509 19.0419 92.2705 19.2443C92.5937 19.4467 92.8582 19.7362 93.0642 20.1126C93.2702 20.4854 93.3731 20.9702 93.3731 21.5668V27H91.8177V25.8814H91.7538C91.6508 26.0874 91.4964 26.2898 91.2904 26.4886C91.0844 26.6875 90.8199 26.8526 90.4967 26.984C90.1736 27.1154 89.7865 27.1811 89.3355 27.1811ZM89.6817 25.9027C90.1221 25.9027 90.4985 25.8157 90.811 25.6417C91.127 25.4677 91.3667 25.2404 91.5301 24.9599C91.697 24.6758 91.7805 24.3722 91.7805 24.049V22.9943C91.7236 23.0511 91.6135 23.1044 91.4502 23.1541C91.2904 23.2003 91.1075 23.2411 90.9015 23.2766C90.6956 23.3086 90.4949 23.3388 90.2996 23.3672C90.1043 23.392 89.941 23.4134 89.8096 23.4311C89.5006 23.4702 89.2183 23.5359 88.9626 23.6282C88.7105 23.7205 88.5081 23.8537 88.3554 24.0277C88.2062 24.1982 88.1317 24.4254 88.1317 24.7095C88.1317 25.1037 88.2773 25.402 88.5684 25.6044C88.8596 25.8033 89.2307 25.9027 89.6817 25.9027Z" fill="white"/>
<path d="M122.643 23.5719C123.118 23.0976 123.118 22.3273 122.643 21.853L116.572 15.7815C116.098 15.3072 115.327 15.3072 114.853 15.7815C114.379 16.2559 114.379 17.0262 114.853 17.5005L118.856 21.5001H107.214C106.543 21.5001 106 22.0427 106 22.7143C106 23.386 106.543 23.9286 107.214 23.9286H118.852L114.857 27.9282C114.382 28.4025 114.382 29.1728 114.857 29.6472C115.331 30.1215 116.101 30.1215 116.576 29.6472L122.647 23.5757L122.643 23.5719Z" fill="white"/>
<defs>
<filter id="filter0_d_57_126" x="0" y="0" width="139" height="46" filterUnits="userSpaceOnUse" color-interpolation-filters="sRGB">
<feFlood flood-opacity="0" result="BackgroundImageFix"/>
<feColorMatrix in="SourceAlpha" type="matrix" values="0 0 0 0 0 0 0 0 0 0 0 0 0 0 0 0 0 0 127 0" result="hardAlpha"/>
<feOffset dy="1"/>
<feGaussianBlur stdDeviation="2"/>
<feComposite in2="hardAlpha" operator="out"/>
<feColorMatrix type="matrix" values="0 0 0 0 0 0 0 0 0 0 0 0 0 0 0 0 0 0 0.25 0"/>
<feBlend mode="normal" in2="BackgroundImageFix" result="effect1_dropShadow_57_126"/>
<feBlend mode="normal" in="SourceGraphic" in2="effect1_dropShadow_57_126" result="shape"/>
</filter>
</defs>
</svg>
