<svg width="223" height="50" viewBox="0 0 223 50" fill="none" xmlns="http://www.w3.org/2000/svg">
<g filter="url(#filter0_d_66_239)">
<rect x="4" y="3" width="215" height="42" rx="5" fill="#FF0509"/>
</g>
<path d="M38.7614 31V16.4545H43.6761C44.8172 16.4545 45.75 16.6605 46.4744 17.0724C47.2036 17.4796 47.7434 18.0312 48.0938 18.7273C48.4441 19.4233 48.6193 20.1998 48.6193 21.0568C48.6193 21.9138 48.4441 22.6927 48.0938 23.3935C47.7481 24.0942 47.2131 24.6529 46.4886 25.0696C45.7642 25.4815 44.8362 25.6875 43.7045 25.6875H40.1818V24.125H43.6477C44.429 24.125 45.0563 23.9901 45.5298 23.7202C46.0033 23.4503 46.3466 23.0857 46.5597 22.6264C46.7775 22.1624 46.8864 21.6392 46.8864 21.0568C46.8864 20.4744 46.7775 19.9536 46.5597 19.4943C46.3466 19.035 46.0009 18.6752 45.5227 18.4148C45.0445 18.1496 44.41 18.017 43.6193 18.017H40.5227V31H38.7614ZM55.6861 31.2273C54.6349 31.2273 53.7282 30.9953 52.9659 30.5312C52.2083 30.0625 51.6236 29.4091 51.2116 28.571C50.8045 27.7282 50.6009 26.7481 50.6009 25.6307C50.6009 24.5133 50.8045 23.5284 51.2116 22.6761C51.6236 21.8191 52.1965 21.1515 52.9304 20.6733C53.669 20.1903 54.5308 19.9489 55.5156 19.9489C56.0838 19.9489 56.6449 20.0436 57.1989 20.233C57.7528 20.4223 58.2571 20.7301 58.7116 21.1562C59.1662 21.5777 59.5284 22.1364 59.7983 22.8324C60.0682 23.5284 60.2031 24.3854 60.2031 25.4034V26.1136H51.794V24.6648H58.4986C58.4986 24.0492 58.3755 23.5 58.1293 23.017C57.8878 22.5341 57.5421 22.1529 57.0923 21.8736C56.6473 21.5942 56.1217 21.4545 55.5156 21.4545C54.848 21.4545 54.2704 21.6203 53.7827 21.9517C53.2997 22.2784 52.928 22.7045 52.6676 23.2301C52.4072 23.7557 52.277 24.3191 52.277 24.9205V25.8864C52.277 26.7102 52.419 27.4086 52.7031 27.9815C52.992 28.5497 53.392 28.983 53.9034 29.2812C54.4148 29.5748 55.009 29.7216 55.6861 29.7216C56.1264 29.7216 56.5241 29.66 56.8793 29.5369C57.2391 29.4091 57.5492 29.2197 57.8097 28.9688C58.0701 28.7131 58.2713 28.3958 58.4134 28.017L60.0327 28.4716C59.8622 29.0208 59.5758 29.5038 59.1733 29.9205C58.7708 30.3324 58.2737 30.6544 57.6818 30.8864C57.09 31.1136 56.4247 31.2273 55.6861 31.2273ZM66.8722 31.2273C65.9631 31.2273 65.1605 30.9976 64.4645 30.5384C63.7685 30.0743 63.224 29.4209 62.831 28.5781C62.438 27.7306 62.2415 26.7292 62.2415 25.5739C62.2415 24.428 62.438 23.4337 62.831 22.5909C63.224 21.7481 63.7708 21.0971 64.4716 20.6378C65.1723 20.1785 65.982 19.9489 66.9006 19.9489C67.6108 19.9489 68.1719 20.0672 68.5838 20.304C69.0005 20.536 69.3177 20.8011 69.5355 21.0994C69.758 21.393 69.9309 21.6345 70.054 21.8239H70.196V16.4545H71.8722V31H70.2528V29.3239H70.054C69.9309 29.5227 69.7557 29.7737 69.5284 30.0767C69.3011 30.375 68.9768 30.6425 68.5554 30.8793C68.134 31.1113 67.5729 31.2273 66.8722 31.2273ZM67.0994 29.7216C67.7718 29.7216 68.34 29.5464 68.804 29.196C69.268 28.8409 69.6207 28.3509 69.8622 27.7259C70.1037 27.0961 70.2244 26.3693 70.2244 25.5455C70.2244 24.7311 70.1061 24.0185 69.8693 23.4077C69.6326 22.7921 69.2822 22.3139 68.8182 21.973C68.3542 21.6274 67.7813 21.4545 67.0994 21.4545C66.3892 21.4545 65.7973 21.6368 65.3239 22.0014C64.8551 22.3613 64.5024 22.8513 64.2656 23.4716C64.0336 24.0871 63.9176 24.7784 63.9176 25.5455C63.9176 26.322 64.036 27.0275 64.2727 27.6619C64.5142 28.2917 64.8693 28.7936 65.3381 29.1676C65.8116 29.5369 66.3987 29.7216 67.0994 29.7216ZM75.1747 31V20.0909H76.8509V31H75.1747ZM76.027 18.2727C75.7003 18.2727 75.4186 18.1615 75.1818 17.9389C74.9498 17.7164 74.8338 17.4489 74.8338 17.1364C74.8338 16.8239 74.9498 16.5563 75.1818 16.3338C75.4186 16.1113 75.7003 16 76.027 16C76.3537 16 76.633 16.1113 76.8651 16.3338C77.1018 16.5563 77.2202 16.8239 77.2202 17.1364C77.2202 17.4489 77.1018 17.7164 76.8651 17.9389C76.633 18.1615 76.3537 18.2727 76.027 18.2727ZM79.9208 31V20.0909H81.5401V21.7386H81.6538C81.8526 21.1989 82.2125 20.7609 82.7333 20.4247C83.2541 20.0885 83.8413 19.9205 84.4947 19.9205C84.6178 19.9205 84.7717 19.9228 84.9563 19.9276C85.141 19.9323 85.2807 19.9394 85.3754 19.9489V21.6534C85.3185 21.6392 85.1883 21.6179 84.9847 21.5895C84.7859 21.5563 84.5752 21.5398 84.3526 21.5398C83.8223 21.5398 83.3488 21.651 82.9322 21.8736C82.5202 22.0914 82.1935 22.3944 81.9521 22.7827C81.7153 23.1662 81.5969 23.6042 81.5969 24.0966V31H79.9208ZM96.1974 31.2557C95.5062 31.2557 94.8788 31.1255 94.3153 30.8651C93.7519 30.5999 93.3045 30.2188 92.973 29.7216C92.6416 29.2197 92.4759 28.6136 92.4759 27.9034C92.4759 27.2784 92.599 26.7718 92.8452 26.3835C93.0914 25.9905 93.4205 25.6828 93.8324 25.4602C94.2443 25.2377 94.6989 25.072 95.196 24.9631C95.6979 24.8494 96.2022 24.7595 96.7088 24.6932C97.3717 24.608 97.9091 24.544 98.321 24.5014C98.7377 24.4541 99.0407 24.3759 99.2301 24.267C99.4242 24.1581 99.5213 23.9687 99.5213 23.6989V23.642C99.5213 22.9413 99.3295 22.3968 98.946 22.0085C98.5672 21.6203 97.992 21.4261 97.2202 21.4261C96.42 21.4261 95.7926 21.6013 95.3381 21.9517C94.8835 22.3021 94.5639 22.6761 94.3793 23.0739L92.7884 22.5057C93.0724 21.8428 93.4512 21.3267 93.9247 20.9574C94.4029 20.5833 94.9238 20.3229 95.4872 20.1761C96.0554 20.0246 96.6141 19.9489 97.1634 19.9489C97.5137 19.9489 97.9162 19.9915 98.3707 20.0767C98.83 20.1572 99.2727 20.3253 99.6989 20.581C100.13 20.8366 100.487 21.2225 100.771 21.7386C101.055 22.2547 101.197 22.946 101.197 23.8125V31H99.5213V29.5227H99.4361C99.3224 29.7595 99.133 30.0128 98.8679 30.2827C98.6027 30.5526 98.25 30.7822 97.8097 30.9716C97.3693 31.161 96.8319 31.2557 96.1974 31.2557ZM96.4531 29.75C97.116 29.75 97.6747 29.6198 98.1293 29.3594C98.5885 29.099 98.9342 28.7628 99.1662 28.3509C99.4029 27.9389 99.5213 27.5057 99.5213 27.0511V25.517C99.4503 25.6023 99.294 25.6804 99.0526 25.7514C98.8158 25.8177 98.5412 25.8769 98.2287 25.929C97.9209 25.9763 97.6203 26.0189 97.3267 26.0568C97.0379 26.09 96.8035 26.1184 96.6236 26.142C96.188 26.1989 95.7808 26.2912 95.402 26.419C95.0279 26.5421 94.7249 26.7292 94.4929 26.9801C94.2656 27.2263 94.152 27.5625 94.152 27.9886C94.152 28.571 94.3674 29.0114 94.7983 29.3097C95.2339 29.6032 95.7855 29.75 96.4531 29.75ZM105.933 16.4545V31H104.257V16.4545H105.933ZM113.747 20.0909V21.5114H108.094V20.0909H113.747ZM109.741 17.4773H111.418V27.875C111.418 28.3485 111.486 28.7036 111.624 28.9403C111.766 29.1723 111.946 29.3286 112.163 29.4091C112.386 29.4848 112.62 29.5227 112.866 29.5227C113.051 29.5227 113.203 29.5133 113.321 29.4943C113.439 29.4706 113.534 29.4517 113.605 29.4375L113.946 30.9432C113.832 30.9858 113.674 31.0284 113.47 31.071C113.267 31.1184 113.009 31.142 112.696 31.142C112.223 31.142 111.759 31.0402 111.304 30.8366C110.854 30.633 110.48 30.3229 110.182 29.9062C109.888 29.4896 109.741 28.964 109.741 28.3295V17.4773ZM120.725 31.2273C119.674 31.2273 118.767 30.9953 118.005 30.5312C117.247 30.0625 116.663 29.4091 116.251 28.571C115.844 27.7282 115.64 26.7481 115.64 25.6307C115.64 24.5133 115.844 23.5284 116.251 22.6761C116.663 21.8191 117.236 21.1515 117.969 20.6733C118.708 20.1903 119.57 19.9489 120.555 19.9489C121.123 19.9489 121.684 20.0436 122.238 20.233C122.792 20.4223 123.296 20.7301 123.751 21.1562C124.205 21.5777 124.567 22.1364 124.837 22.8324C125.107 23.5284 125.242 24.3854 125.242 25.4034V26.1136H116.833V24.6648H123.538C123.538 24.0492 123.415 23.5 123.168 23.017C122.927 22.5341 122.581 22.1529 122.131 21.8736C121.686 21.5942 121.161 21.4545 120.555 21.4545C119.887 21.4545 119.309 21.6203 118.822 21.9517C118.339 22.2784 117.967 22.7045 117.707 23.2301C117.446 23.7557 117.316 24.3191 117.316 24.9205V25.8864C117.316 26.7102 117.458 27.4086 117.742 27.9815C118.031 28.5497 118.431 28.983 118.942 29.2812C119.454 29.5748 120.048 29.7216 120.725 29.7216C121.165 29.7216 121.563 29.66 121.918 29.5369C122.278 29.4091 122.588 29.2197 122.849 28.9688C123.109 28.7131 123.31 28.3958 123.452 28.017L125.072 28.4716C124.901 29.0208 124.615 29.5038 124.212 29.9205C123.81 30.3324 123.313 30.6544 122.721 30.8864C122.129 31.1136 121.464 31.2273 120.725 31.2273ZM127.792 31V20.0909H129.411V21.7386H129.525C129.724 21.1989 130.084 20.7609 130.604 20.4247C131.125 20.0885 131.712 19.9205 132.366 19.9205C132.489 19.9205 132.643 19.9228 132.827 19.9276C133.012 19.9323 133.152 19.9394 133.246 19.9489V21.6534C133.19 21.6392 133.059 21.6179 132.856 21.5895C132.657 21.5563 132.446 21.5398 132.224 21.5398C131.693 21.5398 131.22 21.651 130.803 21.8736C130.391 22.0914 130.065 22.3944 129.823 22.7827C129.586 23.1662 129.468 23.6042 129.468 24.0966V31H127.792ZM138.444 31.2557C137.752 31.2557 137.125 31.1255 136.561 30.8651C135.998 30.5999 135.551 30.2188 135.219 29.7216C134.888 29.2197 134.722 28.6136 134.722 27.9034C134.722 27.2784 134.845 26.7718 135.091 26.3835C135.337 25.9905 135.667 25.6828 136.078 25.4602C136.49 25.2377 136.945 25.072 137.442 24.9631C137.944 24.8494 138.448 24.7595 138.955 24.6932C139.618 24.608 140.155 24.544 140.567 24.5014C140.984 24.4541 141.287 24.3759 141.476 24.267C141.67 24.1581 141.767 23.9687 141.767 23.6989V23.642C141.767 22.9413 141.576 22.3968 141.192 22.0085C140.813 21.6203 140.238 21.4261 139.466 21.4261C138.666 21.4261 138.039 21.6013 137.584 21.9517C137.13 22.3021 136.81 22.6761 136.625 23.0739L135.034 22.5057C135.319 21.8428 135.697 21.3267 136.171 20.9574C136.649 20.5833 137.17 20.3229 137.733 20.1761C138.301 20.0246 138.86 19.9489 139.409 19.9489C139.76 19.9489 140.162 19.9915 140.617 20.0767C141.076 20.1572 141.519 20.3253 141.945 20.581C142.376 20.8366 142.733 21.2225 143.017 21.7386C143.301 22.2547 143.444 22.946 143.444 23.8125V31H141.767V29.5227H141.682C141.569 29.7595 141.379 30.0128 141.114 30.2827C140.849 30.5526 140.496 30.7822 140.056 30.9716C139.615 31.161 139.078 31.2557 138.444 31.2557ZM138.699 29.75C139.362 29.75 139.921 29.6198 140.375 29.3594C140.835 29.099 141.18 28.7628 141.412 28.3509C141.649 27.9389 141.767 27.5057 141.767 27.0511V25.517C141.696 25.6023 141.54 25.6804 141.299 25.7514C141.062 25.8177 140.787 25.8769 140.475 25.929C140.167 25.9763 139.866 26.0189 139.573 26.0568C139.284 26.09 139.05 26.1184 138.87 26.142C138.434 26.1989 138.027 26.2912 137.648 26.419C137.274 26.5421 136.971 26.7292 136.739 26.9801C136.512 27.2263 136.398 27.5625 136.398 27.9886C136.398 28.571 136.614 29.0114 137.044 29.3097C137.48 29.6032 138.032 29.75 138.699 29.75ZM150.935 31.2273C149.912 31.2273 149.031 30.9858 148.293 30.5028C147.554 30.0199 146.986 29.3546 146.588 28.5071C146.19 27.6596 145.991 26.6913 145.991 25.6023C145.991 24.4943 146.195 23.5166 146.602 22.669C147.014 21.8168 147.587 21.1515 148.321 20.6733C149.06 20.1903 149.921 19.9489 150.906 19.9489C151.673 19.9489 152.365 20.0909 152.98 20.375C153.596 20.6591 154.1 21.0568 154.493 21.5682C154.886 22.0795 155.13 22.6761 155.224 23.358H153.548C153.42 22.8608 153.136 22.4205 152.696 22.0369C152.26 21.6487 151.673 21.4545 150.935 21.4545C150.281 21.4545 149.708 21.625 149.216 21.9659C148.728 22.3021 148.347 22.7779 148.072 23.3935C147.803 24.0043 147.668 24.7216 147.668 25.5455C147.668 26.3883 147.8 27.1222 148.065 27.7472C148.335 28.3722 148.714 28.8575 149.202 29.2031C149.694 29.5488 150.272 29.7216 150.935 29.7216C151.37 29.7216 151.766 29.6458 152.121 29.4943C152.476 29.3428 152.777 29.125 153.023 28.8409C153.269 28.5568 153.444 28.2159 153.548 27.8182H155.224C155.13 28.4621 154.895 29.0421 154.521 29.5582C154.152 30.0696 153.662 30.4768 153.051 30.7798C152.445 31.0781 151.74 31.2273 150.935 31.2273ZM150.139 30.9432H151.531L151.418 31.5114C151.787 31.5682 152.125 31.7221 152.433 31.973C152.741 32.2287 152.895 32.6335 152.895 33.1875C152.895 33.7983 152.642 34.2955 152.135 34.679C151.633 35.0672 150.892 35.2614 149.912 35.2614L149.855 34.1534C150.295 34.1534 150.66 34.0824 150.949 33.9403C151.242 33.803 151.389 33.571 151.389 33.2443C151.389 32.9176 151.268 32.6951 151.027 32.5767C150.786 32.4583 150.395 32.3778 149.855 32.3352L150.139 30.9432ZM160.885 31.2557C160.194 31.2557 159.566 31.1255 159.003 30.8651C158.439 30.5999 157.992 30.2188 157.661 29.7216C157.329 29.2197 157.163 28.6136 157.163 27.9034C157.163 27.2784 157.286 26.7718 157.533 26.3835C157.779 25.9905 158.108 25.6828 158.52 25.4602C158.932 25.2377 159.386 25.072 159.884 24.9631C160.385 24.8494 160.89 24.7595 161.396 24.6932C162.059 24.608 162.597 24.544 163.009 24.5014C163.425 24.4541 163.728 24.3759 163.918 24.267C164.112 24.1581 164.209 23.9687 164.209 23.6989V23.642C164.209 22.9413 164.017 22.3968 163.634 22.0085C163.255 21.6203 162.679 21.4261 161.908 21.4261C161.107 21.4261 160.48 21.6013 160.026 21.9517C159.571 22.3021 159.251 22.6761 159.067 23.0739L157.476 22.5057C157.76 21.8428 158.139 21.3267 158.612 20.9574C159.09 20.5833 159.611 20.3229 160.175 20.1761C160.743 20.0246 161.302 19.9489 161.851 19.9489C162.201 19.9489 162.604 19.9915 163.058 20.0767C163.518 20.1572 163.96 20.3253 164.386 20.581C164.817 20.8366 165.175 21.2225 165.459 21.7386C165.743 22.2547 165.885 22.946 165.885 23.8125V31H164.209V29.5227H164.124C164.01 29.7595 163.821 30.0128 163.555 30.2827C163.29 30.5526 162.938 30.7822 162.497 30.9716C162.057 31.161 161.519 31.2557 160.885 31.2557ZM161.141 29.75C161.804 29.75 162.362 29.6198 162.817 29.3594C163.276 29.099 163.622 28.7628 163.854 28.3509C164.09 27.9389 164.209 27.5057 164.209 27.0511V25.517C164.138 25.6023 163.982 25.6804 163.74 25.7514C163.503 25.8177 163.229 25.8769 162.916 25.929C162.608 25.9763 162.308 26.0189 162.014 26.0568C161.725 26.09 161.491 26.1184 161.311 26.142C160.875 26.1989 160.468 26.2912 160.089 26.419C159.715 26.5421 159.412 26.7292 159.18 26.9801C158.953 27.2263 158.839 27.5625 158.839 27.9886C158.839 28.571 159.055 29.0114 159.486 29.3097C159.921 29.6032 160.473 29.75 161.141 29.75ZM159.777 18.7841L158.47 18.7273C158.47 18.0028 158.676 17.411 159.088 16.9517C159.505 16.4877 160.018 16.2557 160.629 16.2557C160.899 16.2557 161.138 16.303 161.347 16.3977C161.555 16.4877 161.754 16.5919 161.943 16.7102C162.133 16.8286 162.327 16.9351 162.526 17.0298C162.729 17.1198 162.959 17.1648 163.214 17.1648C163.484 17.1648 163.712 17.0606 163.896 16.8523C164.086 16.6392 164.18 16.3835 164.18 16.0852L165.459 16.1989C165.459 16.9375 165.25 17.5246 164.834 17.9602C164.422 18.3958 163.911 18.6136 163.3 18.6136C162.973 18.6136 162.703 18.5687 162.49 18.4787C162.277 18.384 162.088 18.2775 161.922 18.1591C161.756 18.0407 161.581 17.9366 161.396 17.8466C161.212 17.7519 160.984 17.7045 160.714 17.7045C160.445 17.7045 160.22 17.8111 160.04 18.0241C159.865 18.2325 159.777 18.4858 159.777 18.7841ZM173.376 31.2273C172.391 31.2273 171.527 30.9929 170.784 30.5241C170.045 30.0554 169.467 29.3996 169.051 28.5568C168.639 27.714 168.433 26.7292 168.433 25.6023C168.433 24.4659 168.639 23.474 169.051 22.6264C169.467 21.7789 170.045 21.1207 170.784 20.652C171.527 20.1832 172.391 19.9489 173.376 19.9489C174.361 19.9489 175.223 20.1832 175.961 20.652C176.705 21.1207 177.282 21.7789 177.694 22.6264C178.111 23.474 178.319 24.4659 178.319 25.6023C178.319 26.7292 178.111 27.714 177.694 28.5568C177.282 29.3996 176.705 30.0554 175.961 30.5241C175.223 30.9929 174.361 31.2273 173.376 31.2273ZM173.376 29.7216C174.124 29.7216 174.74 29.5298 175.223 29.1463C175.706 28.7628 176.063 28.2585 176.295 27.6335C176.527 27.0085 176.643 26.3314 176.643 25.6023C176.643 24.8731 176.527 24.1937 176.295 23.5639C176.063 22.9342 175.706 22.4252 175.223 22.0369C174.74 21.6487 174.124 21.4545 173.376 21.4545C172.628 21.4545 172.012 21.6487 171.529 22.0369C171.047 22.4252 170.689 22.9342 170.457 23.5639C170.225 24.1937 170.109 24.8731 170.109 25.6023C170.109 26.3314 170.225 27.0085 170.457 27.6335C170.689 28.2585 171.047 28.7628 171.529 29.1463C172.012 29.5298 172.628 29.7216 173.376 29.7216Z" fill="black"/>
<defs>
<filter id="filter0_d_66_239" x="0" y="0" width="223" height="50" filterUnits="userSpaceOnUse" color-interpolation-filters="sRGB">
<feFlood flood-opacity="0" result="BackgroundImageFix"/>
<feColorMatrix in="SourceAlpha" type="matrix" values="0 0 0 0 0 0 0 0 0 0 0 0 0 0 0 0 0 0 127 0" result="hardAlpha"/>
<feOffset dy="1"/>
<feGaussianBlur stdDeviation="2"/>
<feComposite in2="hardAlpha" operator="out"/>
<feColorMatrix type="matrix" values="0 0 0 0 0 0 0 0 0 0 0 0 0 0 0 0 0 0 0.25 0"/>
<feBlend mode="normal" in2="BackgroundImageFix" result="effect1_dropShadow_66_239"/>
<feBlend mode="normal" in="SourceGraphic" in2="effect1_dropShadow_66_239" result="shape"/>
</filter>
</defs>
</svg>
