<svg width="298" height="68" viewBox="0 0 298 68" fill="none" xmlns="http://www.w3.org/2000/svg">
<g filter="url(#filter0_d_44_360)">
<rect x="4" y="3" width="290" height="60" rx="5" fill="#EB9900" fill-opacity="0.15" shape-rendering="crispEdges"/>
</g>
<path d="M51.4659 30H49.7045C49.6004 29.4934 49.4181 29.0483 49.1577 28.6648C48.902 28.2812 48.5895 27.9593 48.2202 27.6989C47.8556 27.4337 47.4508 27.2348 47.0057 27.1023C46.5606 26.9697 46.0966 26.9034 45.6136 26.9034C44.733 26.9034 43.9351 27.1259 43.2202 27.571C42.5099 28.0161 41.9441 28.6719 41.5227 29.5384C41.1061 30.4048 40.8977 31.4678 40.8977 32.7273C40.8977 33.9867 41.1061 35.0497 41.5227 35.9162C41.9441 36.7827 42.5099 37.4384 43.2202 37.8835C43.9351 38.3286 44.733 38.5511 45.6136 38.5511C46.0966 38.5511 46.5606 38.4848 47.0057 38.3523C47.4508 38.2197 47.8556 38.0232 48.2202 37.7628C48.5895 37.4976 48.902 37.1733 49.1577 36.7898C49.4181 36.4015 49.6004 35.9564 49.7045 35.4545H51.4659C51.3333 36.1979 51.0919 36.8632 50.7415 37.4503C50.3911 38.0374 49.9555 38.5369 49.4347 38.9489C48.9138 39.3561 48.3291 39.6662 47.6804 39.8793C47.0365 40.0923 46.3475 40.1989 45.6136 40.1989C44.3731 40.1989 43.2699 39.8958 42.304 39.2898C41.3381 38.6837 40.5781 37.822 40.0241 36.7045C39.4702 35.5871 39.1932 34.2614 39.1932 32.7273C39.1932 31.1932 39.4702 29.8674 40.0241 28.75C40.5781 27.6326 41.3381 26.7708 42.304 26.1648C43.2699 25.5587 44.3731 25.2557 45.6136 25.2557C46.3475 25.2557 47.0365 25.3622 47.6804 25.5753C48.3291 25.7884 48.9138 26.1009 49.4347 26.5128C49.9555 26.92 50.3911 27.4171 50.7415 28.0043C51.0919 28.5866 51.3333 29.2519 51.4659 30ZM58.5167 40.2273C57.5318 40.2273 56.6677 39.9929 55.9244 39.5241C55.1857 39.0554 54.6081 38.3996 54.1914 37.5568C53.7795 36.714 53.5735 35.7292 53.5735 34.6023C53.5735 33.4659 53.7795 32.474 54.1914 31.6264C54.6081 30.7789 55.1857 30.1207 55.9244 29.652C56.6677 29.1832 57.5318 28.9489 58.5167 28.9489C59.5015 28.9489 60.3633 29.1832 61.1019 29.652C61.8453 30.1207 62.4229 30.7789 62.8349 31.6264C63.2515 32.474 63.4599 33.4659 63.4599 34.6023C63.4599 35.7292 63.2515 36.714 62.8349 37.5568C62.4229 38.3996 61.8453 39.0554 61.1019 39.5241C60.3633 39.9929 59.5015 40.2273 58.5167 40.2273ZM58.5167 38.7216C59.2648 38.7216 59.8803 38.5298 60.3633 38.1463C60.8462 37.7628 61.2037 37.2585 61.4357 36.6335C61.6677 36.0085 61.7837 35.3314 61.7837 34.6023C61.7837 33.8731 61.6677 33.1937 61.4357 32.5639C61.2037 31.9342 60.8462 31.4252 60.3633 31.0369C59.8803 30.6487 59.2648 30.4545 58.5167 30.4545C57.7686 30.4545 57.1531 30.6487 56.6701 31.0369C56.1871 31.4252 55.8297 31.9342 55.5977 32.5639C55.3656 33.1937 55.2496 33.8731 55.2496 34.6023C55.2496 35.3314 55.3656 36.0085 55.5977 36.6335C55.8297 37.2585 56.1871 37.7628 56.6701 38.1463C57.1531 38.5298 57.7686 38.7216 58.5167 38.7216ZM67.6946 33.4375V40H66.0185V29.0909H67.6378V30.7955H67.7798C68.0355 30.2415 68.4238 29.7964 68.9446 29.4602C69.4654 29.1193 70.1378 28.9489 70.9616 28.9489C71.7003 28.9489 72.3466 29.1004 72.9006 29.4034C73.4545 29.7017 73.8854 30.1562 74.1932 30.767C74.5009 31.3731 74.6548 32.1402 74.6548 33.0682V40H72.9787V33.1818C72.9787 32.3248 72.7562 31.6572 72.3111 31.179C71.866 30.696 71.2552 30.4545 70.4787 30.4545C69.9437 30.4545 69.4654 30.5705 69.044 30.8026C68.6274 31.0346 68.2983 31.3731 68.0568 31.8182C67.8153 32.2633 67.6946 32.803 67.6946 33.4375ZM82.5756 29.0909V30.5114H76.695V29.0909H82.5756ZM78.4563 40V27.5852C78.4563 26.9602 78.6031 26.4394 78.8967 26.0227C79.1902 25.6061 79.5714 25.2936 80.0401 25.0852C80.5089 24.8769 81.0037 24.7727 81.5245 24.7727C81.9364 24.7727 82.2726 24.8059 82.533 24.8722C82.7934 24.9384 82.9876 25 83.1154 25.0568L82.6325 26.5057C82.5472 26.4773 82.4289 26.4418 82.2773 26.3991C82.1306 26.3565 81.9364 26.3352 81.695 26.3352C81.141 26.3352 80.7409 26.4749 80.4947 26.7543C80.2532 27.0336 80.1325 27.4432 80.1325 27.983V40H78.4563ZM84.9247 40V29.0909H86.6009V40H84.9247ZM85.777 27.2727C85.4503 27.2727 85.1686 27.1615 84.9318 26.9389C84.6998 26.7164 84.5838 26.4489 84.5838 26.1364C84.5838 25.8239 84.6998 25.5563 84.9318 25.3338C85.1686 25.1113 85.4503 25 85.777 25C86.1037 25 86.383 25.1113 86.6151 25.3338C86.8518 25.5563 86.9702 25.8239 86.9702 26.1364C86.9702 26.4489 86.8518 26.7164 86.6151 26.9389C86.383 27.1615 86.1037 27.2727 85.777 27.2727ZM89.6708 40V29.0909H91.2901V30.7386H91.4038C91.6026 30.1989 91.9625 29.7609 92.4833 29.4247C93.0041 29.0885 93.5913 28.9205 94.2447 28.9205C94.3678 28.9205 94.5217 28.9228 94.7063 28.9276C94.891 28.9323 95.0307 28.9394 95.1254 28.9489V30.6534C95.0685 30.6392 94.9383 30.6179 94.7347 30.5895C94.5359 30.5563 94.3252 30.5398 94.1026 30.5398C93.5723 30.5398 93.0988 30.651 92.6822 30.8736C92.2702 31.0914 91.9435 31.3944 91.7021 31.7827C91.4653 32.1662 91.3469 32.6042 91.3469 33.0966V40H89.6708ZM97.1122 40V29.0909H98.7315V30.7955H98.8736C99.1009 30.2131 99.4678 29.7609 99.9744 29.4389C100.481 29.1122 101.089 28.9489 101.8 28.9489C102.519 28.9489 103.118 29.1122 103.597 29.4389C104.08 29.7609 104.456 30.2131 104.726 30.7955H104.839C105.119 30.232 105.538 29.7846 106.097 29.4531C106.655 29.117 107.325 28.9489 108.107 28.9489C109.082 28.9489 109.88 29.2543 110.5 29.8651C111.12 30.4711 111.43 31.4157 111.43 32.6989V40H109.754V32.6989C109.754 31.8939 109.534 31.3187 109.094 30.973C108.653 30.6274 108.135 30.4545 107.538 30.4545C106.771 30.4545 106.177 30.6866 105.756 31.1506C105.334 31.6098 105.124 32.1922 105.124 32.8977V40H103.419V32.5284C103.419 31.9081 103.218 31.4086 102.815 31.0298C102.413 30.6463 101.894 30.4545 101.26 30.4545C100.824 30.4545 100.417 30.5705 100.038 30.8026C99.6643 31.0346 99.3613 31.3565 99.1293 31.7685C98.902 32.1757 98.7884 32.6468 98.7884 33.1818V40H97.1122ZM117.705 40.2557C117.014 40.2557 116.387 40.1255 115.823 39.8651C115.26 39.5999 114.812 39.2188 114.481 38.7216C114.149 38.2197 113.984 37.6136 113.984 36.9034C113.984 36.2784 114.107 35.7718 114.353 35.3835C114.599 34.9905 114.928 34.6828 115.34 34.4602C115.752 34.2377 116.207 34.072 116.704 33.9631C117.206 33.8494 117.71 33.7595 118.217 33.6932C118.879 33.608 119.417 33.544 119.829 33.5014C120.246 33.4541 120.549 33.3759 120.738 33.267C120.932 33.1581 121.029 32.9687 121.029 32.6989V32.642C121.029 31.9413 120.837 31.3968 120.454 31.0085C120.075 30.6203 119.5 30.4261 118.728 30.4261C117.928 30.4261 117.3 30.6013 116.846 30.9517C116.391 31.3021 116.072 31.6761 115.887 32.0739L114.296 31.5057C114.58 30.8428 114.959 30.3267 115.433 29.9574C115.911 29.5833 116.432 29.3229 116.995 29.1761C117.563 29.0246 118.122 28.9489 118.671 28.9489C119.022 28.9489 119.424 28.9915 119.879 29.0767C120.338 29.1572 120.781 29.3253 121.207 29.581C121.638 29.8366 121.995 30.2225 122.279 30.7386C122.563 31.2547 122.705 31.946 122.705 32.8125V40H121.029V38.5227H120.944C120.83 38.7595 120.641 39.0128 120.376 39.2827C120.111 39.5526 119.758 39.7822 119.317 39.9716C118.877 40.161 118.34 40.2557 117.705 40.2557ZM117.961 38.75C118.624 38.75 119.183 38.6198 119.637 38.3594C120.096 38.099 120.442 37.7628 120.674 37.3509C120.911 36.9389 121.029 36.5057 121.029 36.0511V34.517C120.958 34.6023 120.802 34.6804 120.56 34.7514C120.324 34.8177 120.049 34.8769 119.737 34.929C119.429 34.9763 119.128 35.0189 118.835 35.0568C118.546 35.09 118.311 35.1184 118.131 35.142C117.696 35.1989 117.289 35.2912 116.91 35.419C116.536 35.5421 116.233 35.7292 116.001 35.9801C115.773 36.2263 115.66 36.5625 115.66 36.9886C115.66 37.571 115.875 38.0114 116.306 38.3097C116.742 38.6032 117.293 38.75 117.961 38.75ZM125.765 40V29.0909H127.384V30.7386H127.498C127.696 30.1989 128.056 29.7609 128.577 29.4247C129.098 29.0885 129.685 28.9205 130.338 28.9205C130.462 28.9205 130.615 28.9228 130.8 28.9276C130.985 28.9323 131.124 28.9394 131.219 28.9489V30.6534C131.162 30.6392 131.032 30.6179 130.828 30.5895C130.63 30.5563 130.419 30.5398 130.196 30.5398C129.666 30.5398 129.193 30.651 128.776 30.8736C128.364 31.0914 128.037 31.3944 127.796 31.7827C127.559 32.1662 127.441 32.6042 127.441 33.0966V40H125.765ZM142.041 40.2557C141.35 40.2557 140.723 40.1255 140.159 39.8651C139.596 39.5999 139.148 39.2188 138.817 38.7216C138.485 38.2197 138.32 37.6136 138.32 36.9034C138.32 36.2784 138.443 35.7718 138.689 35.3835C138.935 34.9905 139.264 34.6828 139.676 34.4602C140.088 34.2377 140.543 34.072 141.04 33.9631C141.542 33.8494 142.046 33.7595 142.553 33.6932C143.215 33.608 143.753 33.544 144.165 33.5014C144.581 33.4541 144.884 33.3759 145.074 33.267C145.268 33.1581 145.365 32.9687 145.365 32.6989V32.642C145.365 31.9413 145.173 31.3968 144.79 31.0085C144.411 30.6203 143.836 30.4261 143.064 30.4261C142.264 30.4261 141.636 30.6013 141.182 30.9517C140.727 31.3021 140.408 31.6761 140.223 32.0739L138.632 31.5057C138.916 30.8428 139.295 30.3267 139.768 29.9574C140.247 29.5833 140.768 29.3229 141.331 29.1761C141.899 29.0246 142.458 28.9489 143.007 28.9489C143.357 28.9489 143.76 28.9915 144.214 29.0767C144.674 29.1572 145.116 29.3253 145.543 29.581C145.973 29.8366 146.331 30.2225 146.615 30.7386C146.899 31.2547 147.041 31.946 147.041 32.8125V40H145.365V38.5227H145.28C145.166 38.7595 144.977 39.0128 144.712 39.2827C144.446 39.5526 144.094 39.7822 143.653 39.9716C143.213 40.161 142.676 40.2557 142.041 40.2557ZM142.297 38.75C142.96 38.75 143.518 38.6198 143.973 38.3594C144.432 38.099 144.778 37.7628 145.01 37.3509C145.247 36.9389 145.365 36.5057 145.365 36.0511V34.517C145.294 34.6023 145.138 34.6804 144.896 34.7514C144.66 34.8177 144.385 34.8769 144.072 34.929C143.765 34.9763 143.464 35.0189 143.17 35.0568C142.882 35.09 142.647 35.1184 142.467 35.142C142.032 35.1989 141.625 35.2912 141.246 35.419C140.872 35.5421 140.569 35.7292 140.337 35.9801C140.109 36.2263 139.996 36.5625 139.996 36.9886C139.996 37.571 140.211 38.0114 140.642 38.3097C141.078 38.6032 141.629 38.75 142.297 38.75ZM151.777 25.4545V40H150.1V25.4545H151.777ZM159.591 29.0909V30.5114H153.938V29.0909H159.591ZM155.585 26.4773H157.261V36.875C157.261 37.3485 157.33 37.7036 157.467 37.9403C157.609 38.1723 157.789 38.3286 158.007 38.4091C158.23 38.4848 158.464 38.5227 158.71 38.5227C158.895 38.5227 159.046 38.5133 159.165 38.4943C159.283 38.4706 159.378 38.4517 159.449 38.4375L159.79 39.9432C159.676 39.9858 159.518 40.0284 159.314 40.071C159.11 40.1184 158.852 40.142 158.54 40.142C158.066 40.142 157.602 40.0402 157.148 39.8366C156.698 39.633 156.324 39.3229 156.026 38.9062C155.732 38.4896 155.585 37.964 155.585 37.3295V26.4773ZM166.569 40.2273C165.518 40.2273 164.611 39.9953 163.849 39.5312C163.091 39.0625 162.506 38.4091 162.094 37.571C161.687 36.7282 161.484 35.7481 161.484 34.6307C161.484 33.5133 161.687 32.5284 162.094 31.6761C162.506 30.8191 163.079 30.1515 163.813 29.6733C164.552 29.1903 165.414 28.9489 166.398 28.9489C166.967 28.9489 167.528 29.0436 168.082 29.233C168.636 29.4223 169.14 29.7301 169.594 30.1562C170.049 30.5777 170.411 31.1364 170.681 31.8324C170.951 32.5284 171.086 33.3854 171.086 34.4034V35.1136H162.677V33.6648H169.381C169.381 33.0492 169.258 32.5 169.012 32.017C168.771 31.5341 168.425 31.1529 167.975 30.8736C167.53 30.5942 167.004 30.4545 166.398 30.4545C165.731 30.4545 165.153 30.6203 164.665 30.9517C164.183 31.2784 163.811 31.7045 163.55 32.2301C163.29 32.7557 163.16 33.3191 163.16 33.9205V34.8864C163.16 35.7102 163.302 36.4086 163.586 36.9815C163.875 37.5497 164.275 37.983 164.786 38.2812C165.298 38.5748 165.892 38.7216 166.569 38.7216C167.009 38.7216 167.407 38.66 167.762 38.5369C168.122 38.4091 168.432 38.2197 168.692 37.9688C168.953 37.7131 169.154 37.3958 169.296 37.017L170.915 37.4716C170.745 38.0208 170.459 38.5038 170.056 38.9205C169.654 39.3324 169.156 39.6544 168.565 39.8864C167.973 40.1136 167.308 40.2273 166.569 40.2273ZM173.636 40V29.0909H175.255V30.7386H175.369C175.567 30.1989 175.927 29.7609 176.448 29.4247C176.969 29.0885 177.556 28.9205 178.21 28.9205C178.333 28.9205 178.487 28.9228 178.671 28.9276C178.856 28.9323 178.996 28.9394 179.09 28.9489V30.6534C179.033 30.6392 178.903 30.6179 178.7 30.5895C178.501 30.5563 178.29 30.5398 178.067 30.5398C177.537 30.5398 177.064 30.651 176.647 30.8736C176.235 31.0914 175.908 31.3944 175.667 31.7827C175.43 32.1662 175.312 32.6042 175.312 33.0966V40H173.636ZM184.287 40.2557C183.596 40.2557 182.969 40.1255 182.405 39.8651C181.842 39.5999 181.394 39.2188 181.063 38.7216C180.731 38.2197 180.566 37.6136 180.566 36.9034C180.566 36.2784 180.689 35.7718 180.935 35.3835C181.181 34.9905 181.51 34.6828 181.922 34.4602C182.334 34.2377 182.789 34.072 183.286 33.9631C183.788 33.8494 184.292 33.7595 184.799 33.6932C185.462 33.608 185.999 33.544 186.411 33.5014C186.828 33.4541 187.131 33.3759 187.32 33.267C187.514 33.1581 187.611 32.9687 187.611 32.6989V32.642C187.611 31.9413 187.419 31.3968 187.036 31.0085C186.657 30.6203 186.082 30.4261 185.31 30.4261C184.51 30.4261 183.882 30.6013 183.428 30.9517C182.973 31.3021 182.654 31.6761 182.469 32.0739L180.878 31.5057C181.162 30.8428 181.541 30.3267 182.015 29.9574C182.493 29.5833 183.014 29.3229 183.577 29.1761C184.145 29.0246 184.704 28.9489 185.253 28.9489C185.604 28.9489 186.006 28.9915 186.461 29.0767C186.92 29.1572 187.363 29.3253 187.789 29.581C188.22 29.8366 188.577 30.2225 188.861 30.7386C189.145 31.2547 189.287 31.946 189.287 32.8125V40H187.611V38.5227H187.526C187.412 38.7595 187.223 39.0128 186.958 39.2827C186.693 39.5526 186.34 39.7822 185.9 39.9716C185.459 40.161 184.922 40.2557 184.287 40.2557ZM184.543 38.75C185.206 38.75 185.765 38.6198 186.219 38.3594C186.678 38.099 187.024 37.7628 187.256 37.3509C187.493 36.9389 187.611 36.5057 187.611 36.0511V34.517C187.54 34.6023 187.384 34.6804 187.142 34.7514C186.906 34.8177 186.631 34.8769 186.319 34.929C186.011 34.9763 185.71 35.0189 185.417 35.0568C185.128 35.09 184.893 35.1184 184.713 35.142C184.278 35.1989 183.871 35.2912 183.492 35.419C183.118 35.5421 182.815 35.7292 182.583 35.9801C182.355 36.2263 182.242 36.5625 182.242 36.9886C182.242 37.571 182.457 38.0114 182.888 38.3097C183.324 38.6032 183.875 38.75 184.543 38.75ZM196.778 40.2273C195.756 40.2273 194.875 39.9858 194.136 39.5028C193.398 39.0199 192.83 38.3546 192.432 37.5071C192.034 36.6596 191.835 35.6913 191.835 34.6023C191.835 33.4943 192.039 32.5166 192.446 31.669C192.858 30.8168 193.431 30.1515 194.165 29.6733C194.903 29.1903 195.765 28.9489 196.75 28.9489C197.517 28.9489 198.208 29.0909 198.824 29.375C199.439 29.6591 199.944 30.0568 200.337 30.5682C200.73 31.0795 200.973 31.6761 201.068 32.358H199.392C199.264 31.8608 198.98 31.4205 198.54 31.0369C198.104 30.6487 197.517 30.4545 196.778 30.4545C196.125 30.4545 195.552 30.625 195.06 30.9659C194.572 31.3021 194.191 31.7779 193.916 32.3935C193.646 33.0043 193.511 33.7216 193.511 34.5455C193.511 35.3883 193.644 36.1222 193.909 36.7472C194.179 37.3722 194.558 37.8575 195.045 38.2031C195.538 38.5488 196.116 38.7216 196.778 38.7216C197.214 38.7216 197.609 38.6458 197.964 38.4943C198.32 38.3428 198.62 38.125 198.866 37.8409C199.113 37.5568 199.288 37.2159 199.392 36.8182H201.068C200.973 37.4621 200.739 38.0421 200.365 38.5582C199.996 39.0696 199.506 39.4768 198.895 39.7798C198.289 40.0781 197.583 40.2273 196.778 40.2273ZM195.983 39.9432H197.375L197.261 40.5114C197.631 40.5682 197.969 40.7221 198.277 40.973C198.585 41.2287 198.739 41.6335 198.739 42.1875C198.739 42.7983 198.485 43.2955 197.979 43.679C197.477 44.0672 196.736 44.2614 195.756 44.2614L195.699 43.1534C196.139 43.1534 196.504 43.0824 196.793 42.9403C197.086 42.803 197.233 42.571 197.233 42.2443C197.233 41.9176 197.112 41.6951 196.871 41.5767C196.629 41.4583 196.239 41.3778 195.699 41.3352L195.983 39.9432ZM206.729 40.2557C206.037 40.2557 205.41 40.1255 204.847 39.8651C204.283 39.5999 203.836 39.2188 203.504 38.7216C203.173 38.2197 203.007 37.6136 203.007 36.9034C203.007 36.2784 203.13 35.7718 203.376 35.3835C203.623 34.9905 203.952 34.6828 204.364 34.4602C204.776 34.2377 205.23 34.072 205.727 33.9631C206.229 33.8494 206.733 33.7595 207.24 33.6932C207.903 33.608 208.44 33.544 208.852 33.5014C209.269 33.4541 209.572 33.3759 209.761 33.267C209.955 33.1581 210.053 32.9687 210.053 32.6989V32.642C210.053 31.9413 209.861 31.3968 209.477 31.0085C209.098 30.6203 208.523 30.4261 207.751 30.4261C206.951 30.4261 206.324 30.6013 205.869 30.9517C205.415 31.3021 205.095 31.6761 204.911 32.0739L203.32 31.5057C203.604 30.8428 203.982 30.3267 204.456 29.9574C204.934 29.5833 205.455 29.3229 206.018 29.1761C206.587 29.0246 207.145 28.9489 207.695 28.9489C208.045 28.9489 208.447 28.9915 208.902 29.0767C209.361 29.1572 209.804 29.3253 210.23 29.581C210.661 29.8366 211.018 30.2225 211.303 30.7386C211.587 31.2547 211.729 31.946 211.729 32.8125V40H210.053V38.5227H209.967C209.854 38.7595 209.664 39.0128 209.399 39.2827C209.134 39.5526 208.781 39.7822 208.341 39.9716C207.901 40.161 207.363 40.2557 206.729 40.2557ZM206.984 38.75C207.647 38.75 208.206 38.6198 208.661 38.3594C209.12 38.099 209.465 37.7628 209.697 37.3509C209.934 36.9389 210.053 36.5057 210.053 36.0511V34.517C209.982 34.6023 209.825 34.6804 209.584 34.7514C209.347 34.8177 209.072 34.8769 208.76 34.929C208.452 34.9763 208.152 35.0189 207.858 35.0568C207.569 35.09 207.335 35.1184 207.155 35.142C206.719 35.1989 206.312 35.2912 205.933 35.419C205.559 35.5421 205.256 35.7292 205.024 35.9801C204.797 36.2263 204.683 36.5625 204.683 36.9886C204.683 37.571 204.899 38.0114 205.33 38.3097C205.765 38.6032 206.317 38.75 206.984 38.75ZM205.621 27.7841L204.314 27.7273C204.314 27.0028 204.52 26.411 204.932 25.9517C205.348 25.4877 205.862 25.2557 206.473 25.2557C206.743 25.2557 206.982 25.303 207.19 25.3977C207.399 25.4877 207.598 25.5919 207.787 25.7102C207.976 25.8286 208.17 25.9351 208.369 26.0298C208.573 26.1198 208.803 26.1648 209.058 26.1648C209.328 26.1648 209.555 26.0606 209.74 25.8523C209.929 25.6392 210.024 25.3835 210.024 25.0852L211.303 25.1989C211.303 25.9375 211.094 26.5246 210.678 26.9602C210.266 27.3958 209.754 27.6136 209.143 27.6136C208.817 27.6136 208.547 27.5687 208.334 27.4787C208.121 27.384 207.931 27.2775 207.766 27.1591C207.6 27.0407 207.425 26.9366 207.24 26.8466C207.055 26.7519 206.828 26.7045 206.558 26.7045C206.288 26.7045 206.063 26.8111 205.884 27.0241C205.708 27.2325 205.621 27.4858 205.621 27.7841ZM219.22 40.2273C218.235 40.2273 217.371 39.9929 216.627 39.5241C215.889 39.0554 215.311 38.3996 214.895 37.5568C214.483 36.714 214.277 35.7292 214.277 34.6023C214.277 33.4659 214.483 32.474 214.895 31.6264C215.311 30.7789 215.889 30.1207 216.627 29.652C217.371 29.1832 218.235 28.9489 219.22 28.9489C220.205 28.9489 221.066 29.1832 221.805 29.652C222.548 30.1207 223.126 30.7789 223.538 31.6264C223.955 32.474 224.163 33.4659 224.163 34.6023C224.163 35.7292 223.955 36.714 223.538 37.5568C223.126 38.3996 222.548 39.0554 221.805 39.5241C221.066 39.9929 220.205 40.2273 219.22 40.2273ZM219.22 38.7216C219.968 38.7216 220.583 38.5298 221.066 38.1463C221.549 37.7628 221.907 37.2585 222.139 36.6335C222.371 36.0085 222.487 35.3314 222.487 34.6023C222.487 33.8731 222.371 33.1937 222.139 32.5639C221.907 31.9342 221.549 31.4252 221.066 31.0369C220.583 30.6487 219.968 30.4545 219.22 30.4545C218.472 30.4545 217.856 30.6487 217.373 31.0369C216.89 31.4252 216.533 31.9342 216.301 32.5639C216.069 33.1937 215.953 33.8731 215.953 34.6023C215.953 35.3314 216.069 36.0085 216.301 36.6335C216.533 37.2585 216.89 37.7628 217.373 38.1463C217.856 38.5298 218.472 38.7216 219.22 38.7216Z" fill="black"/>
<defs>
<filter id="filter0_d_44_360" x="0" y="0" width="298" height="68" filterUnits="userSpaceOnUse" color-interpolation-filters="sRGB">
<feFlood flood-opacity="0" result="BackgroundImageFix"/>
<feColorMatrix in="SourceAlpha" type="matrix" values="0 0 0 0 0 0 0 0 0 0 0 0 0 0 0 0 0 0 127 0" result="hardAlpha"/>
<feOffset dy="1"/>
<feGaussianBlur stdDeviation="2"/>
<feComposite in2="hardAlpha" operator="out"/>
<feColorMatrix type="matrix" values="0 0 0 0 0 0 0 0 0 0 0 0 0 0 0 0 0 0 0.25 0"/>
<feBlend mode="normal" in2="BackgroundImageFix" result="effect1_dropShadow_44_360"/>
<feBlend mode="normal" in="SourceGraphic" in2="effect1_dropShadow_44_360" result="shape"/>
</filter>
</defs>
</svg>
