<svg width="68" height="78" viewBox="0 0 68 78" fill="none" xmlns="http://www.w3.org/2000/svg">
<g filter="url(#filter0_d_16_64)">
<rect x="4" y="3" width="60" height="60" rx="5" fill="#EB9900" fill-opacity="0.15" shape-rendering="crispEdges"/>
</g>
<path d="M11.7045 76V70.1818H13.6705C14.1269 70.1818 14.5 70.2642 14.7898 70.429C15.0814 70.5919 15.2973 70.8125 15.4375 71.0909C15.5777 71.3693 15.6477 71.6799 15.6477 72.0227C15.6477 72.3655 15.5777 72.6771 15.4375 72.9574C15.2992 73.2377 15.0852 73.4612 14.7955 73.6278C14.5057 73.7926 14.1345 73.875 13.6818 73.875H12.2727V73.25H13.6591C13.9716 73.25 14.2225 73.196 14.4119 73.0881C14.6013 72.9801 14.7386 72.8343 14.8239 72.6506C14.911 72.465 14.9545 72.2557 14.9545 72.0227C14.9545 71.7898 14.911 71.5814 14.8239 71.3977C14.7386 71.214 14.6004 71.0701 14.4091 70.9659C14.2178 70.8598 13.964 70.8068 13.6477 70.8068H12.4091V76H11.7045ZM17.9759 76.1023C17.6993 76.1023 17.4484 76.0502 17.223 75.946C16.9976 75.84 16.8187 75.6875 16.6861 75.4886C16.5535 75.2879 16.4872 75.0455 16.4872 74.7614C16.4872 74.5114 16.5365 74.3087 16.6349 74.1534C16.7334 73.9962 16.8651 73.8731 17.0298 73.7841C17.1946 73.6951 17.3764 73.6288 17.5753 73.5852C17.776 73.5398 17.9777 73.5038 18.1804 73.4773C18.4455 73.4432 18.6605 73.4176 18.8253 73.4006C18.992 73.3816 19.1132 73.3504 19.1889 73.3068C19.2666 73.2633 19.3054 73.1875 19.3054 73.0795V73.0568C19.3054 72.7765 19.2287 72.5587 19.0753 72.4034C18.9238 72.2481 18.6937 72.1705 18.3849 72.1705C18.0649 72.1705 17.8139 72.2405 17.6321 72.3807C17.4503 72.5208 17.3224 72.6705 17.2486 72.8295L16.6122 72.6023C16.7259 72.3371 16.8774 72.1307 17.0668 71.983C17.258 71.8333 17.4664 71.7292 17.6918 71.6705C17.919 71.6098 18.1425 71.5795 18.3622 71.5795C18.5024 71.5795 18.6634 71.5966 18.8452 71.6307C19.0289 71.6629 19.206 71.7301 19.3764 71.8324C19.5488 71.9347 19.6918 72.089 19.8054 72.2955C19.919 72.5019 19.9759 72.7784 19.9759 73.125V76H19.3054V75.4091H19.2713C19.2259 75.5038 19.1501 75.6051 19.044 75.7131C18.938 75.821 18.7969 75.9129 18.6207 75.9886C18.4446 76.0644 18.2296 76.1023 17.9759 76.1023ZM18.0781 75.5C18.3433 75.5 18.5668 75.4479 18.7486 75.3438C18.9323 75.2396 19.0705 75.1051 19.1634 74.9403C19.258 74.7756 19.3054 74.6023 19.3054 74.4205V73.8068C19.277 73.8409 19.2145 73.8722 19.1179 73.9006C19.0232 73.9271 18.9134 73.9508 18.7884 73.9716C18.6652 73.9905 18.545 74.0076 18.4276 74.0227C18.312 74.036 18.2183 74.0473 18.1463 74.0568C17.9721 74.0795 17.8092 74.1165 17.6577 74.1676C17.508 74.2169 17.3868 74.2917 17.294 74.392C17.2031 74.4905 17.1577 74.625 17.1577 74.7955C17.1577 75.0284 17.2438 75.2045 17.4162 75.3239C17.5904 75.4413 17.8111 75.5 18.0781 75.5ZM22.9609 77.7273C22.6371 77.7273 22.3587 77.6856 22.1257 77.6023C21.8928 77.5208 21.6986 77.4129 21.5433 77.2784C21.3899 77.1458 21.2678 77.0038 21.1768 76.8523L21.7109 76.4773C21.7715 76.5568 21.8482 76.6477 21.9411 76.75C22.0339 76.8542 22.1607 76.9441 22.3217 77.0199C22.4846 77.0975 22.6977 77.1364 22.9609 77.1364C23.3132 77.1364 23.6039 77.0511 23.8331 76.8807C24.0623 76.7102 24.1768 76.4432 24.1768 76.0795V75.1932H24.12C24.0708 75.2727 24.0007 75.3712 23.9098 75.4886C23.8208 75.6042 23.692 75.7074 23.5234 75.7983C23.3568 75.8873 23.1314 75.9318 22.8473 75.9318C22.495 75.9318 22.1787 75.8485 21.8984 75.6818C21.62 75.5152 21.3994 75.2727 21.2365 74.9545C21.0755 74.6364 20.995 74.25 20.995 73.7955C20.995 73.3485 21.0736 72.9593 21.2308 72.6278C21.388 72.2945 21.6068 72.0369 21.8871 71.8551C22.1674 71.6714 22.4912 71.5795 22.8587 71.5795C23.1428 71.5795 23.3681 71.6269 23.5348 71.7216C23.7034 71.8144 23.8321 71.9205 23.9212 72.0398C24.0121 72.1572 24.0821 72.2538 24.1314 72.3295H24.1996V71.6364H24.8473V76.125C24.8473 76.5 24.7621 76.8049 24.5916 77.0398C24.4231 77.2765 24.1958 77.4498 23.9098 77.5597C23.6257 77.6714 23.3094 77.7273 22.9609 77.7273ZM22.9382 75.3295C23.2071 75.3295 23.4344 75.268 23.62 75.1449C23.8056 75.0218 23.9467 74.8447 24.0433 74.6136C24.1399 74.3826 24.1882 74.1061 24.1882 73.7841C24.1882 73.4697 24.1409 73.1922 24.0462 72.9517C23.9515 72.7112 23.8113 72.5227 23.6257 72.3864C23.4401 72.25 23.2109 72.1818 22.9382 72.1818C22.6541 72.1818 22.4174 72.2538 22.228 72.3977C22.0405 72.5417 21.8994 72.7348 21.8047 72.9773C21.7119 73.2197 21.6655 73.4886 21.6655 73.7841C21.6655 74.0871 21.7128 74.3551 21.8075 74.5881C21.9041 74.8191 22.0462 75.0009 22.2337 75.1335C22.4231 75.2642 22.6579 75.3295 22.9382 75.3295ZM27.3587 76.1023C27.0821 76.1023 26.8312 76.0502 26.6058 75.946C26.3804 75.84 26.2015 75.6875 26.0689 75.4886C25.9363 75.2879 25.87 75.0455 25.87 74.7614C25.87 74.5114 25.9193 74.3087 26.0178 74.1534C26.1162 73.9962 26.2479 73.8731 26.4126 73.7841C26.5774 73.6951 26.7592 73.6288 26.9581 73.5852C27.1589 73.5398 27.3606 73.5038 27.5632 73.4773C27.8284 73.4432 28.0433 73.4176 28.2081 73.4006C28.3748 73.3816 28.496 73.3504 28.5717 73.3068C28.6494 73.2633 28.6882 73.1875 28.6882 73.0795V73.0568C28.6882 72.7765 28.6115 72.5587 28.4581 72.4034C28.3066 72.2481 28.0765 72.1705 27.7678 72.1705C27.4477 72.1705 27.1967 72.2405 27.0149 72.3807C26.8331 72.5208 26.7053 72.6705 26.6314 72.8295L25.995 72.6023C26.1087 72.3371 26.2602 72.1307 26.4496 71.983C26.6409 71.8333 26.8492 71.7292 27.0746 71.6705C27.3018 71.6098 27.5253 71.5795 27.745 71.5795C27.8852 71.5795 28.0462 71.5966 28.228 71.6307C28.4117 71.6629 28.5888 71.7301 28.7592 71.8324C28.9316 71.9347 29.0746 72.089 29.1882 72.2955C29.3018 72.5019 29.3587 72.7784 29.3587 73.125V76H28.6882V75.4091H28.6541C28.6087 75.5038 28.5329 75.6051 28.4268 75.7131C28.3208 75.821 28.1797 75.9129 28.0036 75.9886C27.8274 76.0644 27.6125 76.1023 27.3587 76.1023ZM27.4609 75.5C27.7261 75.5 27.9496 75.4479 28.1314 75.3438C28.3151 75.2396 28.4534 75.1051 28.5462 74.9403C28.6409 74.7756 28.6882 74.6023 28.6882 74.4205V73.8068C28.6598 73.8409 28.5973 73.8722 28.5007 73.9006C28.406 73.9271 28.2962 73.9508 28.1712 73.9716C28.0481 73.9905 27.9278 74.0076 27.8104 74.0227C27.6948 74.036 27.6011 74.0473 27.5291 74.0568C27.3549 74.0795 27.192 74.1165 27.0405 74.1676C26.8909 74.2169 26.7696 74.2917 26.6768 74.392C26.5859 74.4905 26.5405 74.625 26.5405 74.7955C26.5405 75.0284 26.6267 75.2045 26.799 75.3239C26.9732 75.4413 27.1939 75.5 27.4609 75.5ZM30.5824 76V71.6364H31.2301V72.3182H31.2869C31.3778 72.0852 31.5246 71.9044 31.7273 71.7756C31.9299 71.6449 32.1733 71.5795 32.4574 71.5795C32.7453 71.5795 32.9848 71.6449 33.1761 71.7756C33.3693 71.9044 33.5199 72.0852 33.6278 72.3182H33.6733C33.785 72.0928 33.9527 71.9138 34.1761 71.7812C34.3996 71.6468 34.6676 71.5795 34.9801 71.5795C35.3703 71.5795 35.6894 71.7017 35.9375 71.946C36.1856 72.1884 36.3097 72.5663 36.3097 73.0795V76H35.6392V73.0795C35.6392 72.7576 35.5511 72.5275 35.375 72.3892C35.1989 72.2509 34.9915 72.1818 34.7528 72.1818C34.446 72.1818 34.2083 72.2746 34.0398 72.4602C33.8712 72.6439 33.7869 72.8769 33.7869 73.1591V76H33.1051V73.0114C33.1051 72.7633 33.0246 72.5634 32.8636 72.4119C32.7027 72.2585 32.4953 72.1818 32.2415 72.1818C32.0672 72.1818 31.9044 72.2282 31.7528 72.321C31.6032 72.4138 31.482 72.5426 31.3892 72.7074C31.2983 72.8703 31.2528 73.0587 31.2528 73.2727V76H30.5824ZM39.3651 76.0909C38.9446 76.0909 38.5819 75.9981 38.277 75.8125C37.974 75.625 37.7401 75.3636 37.5753 75.0284C37.4124 74.6913 37.331 74.2992 37.331 73.8523C37.331 73.4053 37.4124 73.0114 37.5753 72.6705C37.7401 72.3277 37.9692 72.0606 38.2628 71.8693C38.5582 71.6761 38.9029 71.5795 39.2969 71.5795C39.5241 71.5795 39.7486 71.6174 39.9702 71.6932C40.1918 71.7689 40.3935 71.892 40.5753 72.0625C40.7571 72.2311 40.902 72.4545 41.0099 72.733C41.1179 73.0114 41.1719 73.3542 41.1719 73.7614V74.0455H37.8082V73.4659H40.4901C40.4901 73.2197 40.4408 73 40.3423 72.8068C40.2457 72.6136 40.1075 72.4612 39.9276 72.3494C39.7495 72.2377 39.5393 72.1818 39.2969 72.1818C39.0298 72.1818 38.7988 72.2481 38.6037 72.3807C38.4105 72.5114 38.2618 72.6818 38.1577 72.892C38.0535 73.1023 38.0014 73.3277 38.0014 73.5682V73.9545C38.0014 74.2841 38.0582 74.5634 38.1719 74.7926C38.2874 75.0199 38.4474 75.1932 38.652 75.3125C38.8565 75.4299 39.0942 75.4886 39.3651 75.4886C39.5412 75.4886 39.7003 75.464 39.8423 75.4148C39.9863 75.3636 40.1103 75.2879 40.2145 75.1875C40.3187 75.0852 40.3991 74.9583 40.456 74.8068L41.1037 74.9886C41.0355 75.2083 40.9209 75.4015 40.7599 75.5682C40.599 75.733 40.4001 75.8617 40.1634 75.9545C39.9266 76.0455 39.6605 76.0909 39.3651 76.0909ZM42.8622 73.375V76H42.1918V71.6364H42.8395V72.3182H42.8963C42.9986 72.0966 43.1539 71.9186 43.3622 71.7841C43.5705 71.6477 43.8395 71.5795 44.169 71.5795C44.4645 71.5795 44.723 71.6402 44.9446 71.7614C45.1662 71.8807 45.3385 72.0625 45.4616 72.3068C45.5848 72.5492 45.6463 72.8561 45.6463 73.2273V76H44.9759V73.2727C44.9759 72.9299 44.8868 72.6629 44.7088 72.4716C44.5308 72.2784 44.2865 72.1818 43.9759 72.1818C43.7618 72.1818 43.5705 72.2282 43.402 72.321C43.2353 72.4138 43.1037 72.5492 43.0071 72.7273C42.9105 72.9053 42.8622 73.1212 42.8622 73.375ZM48.7692 71.6364V72.2045H46.5078V71.6364H48.7692ZM47.1669 70.5909H47.8374V74.75C47.8374 74.9394 47.8648 75.0814 47.9197 75.1761C47.9766 75.2689 48.0485 75.3314 48.1357 75.3636C48.2247 75.3939 48.3184 75.4091 48.4169 75.4091C48.4908 75.4091 48.5514 75.4053 48.5987 75.3977C48.6461 75.3883 48.6839 75.3807 48.7124 75.375L48.8487 75.9773C48.8033 75.9943 48.7398 76.0114 48.6584 76.0284C48.5769 76.0473 48.4737 76.0568 48.3487 76.0568C48.1593 76.0568 47.9737 76.0161 47.7919 75.9347C47.612 75.8532 47.4624 75.7292 47.343 75.5625C47.2256 75.3958 47.1669 75.1856 47.1669 74.9318V70.5909ZM51.5036 76.0909C51.1096 76.0909 50.764 75.9972 50.4666 75.8097C50.1712 75.6222 49.9401 75.3598 49.7734 75.0227C49.6087 74.6856 49.5263 74.2917 49.5263 73.8409C49.5263 73.3864 49.6087 72.9896 49.7734 72.6506C49.9401 72.3116 50.1712 72.0483 50.4666 71.8608C50.764 71.6733 51.1096 71.5795 51.5036 71.5795C51.8975 71.5795 52.2422 71.6733 52.5376 71.8608C52.835 72.0483 53.0661 72.3116 53.2308 72.6506C53.3975 72.9896 53.4808 73.3864 53.4808 73.8409C53.4808 74.2917 53.3975 74.6856 53.2308 75.0227C53.0661 75.3598 52.835 75.6222 52.5376 75.8097C52.2422 75.9972 51.8975 76.0909 51.5036 76.0909ZM51.5036 75.4886C51.8028 75.4886 52.049 75.4119 52.2422 75.2585C52.4354 75.1051 52.5784 74.9034 52.6712 74.6534C52.764 74.4034 52.8104 74.1326 52.8104 73.8409C52.8104 73.5492 52.764 73.2775 52.6712 73.0256C52.5784 72.7737 52.4354 72.5701 52.2422 72.4148C52.049 72.2595 51.8028 72.1818 51.5036 72.1818C51.2043 72.1818 50.9581 72.2595 50.7649 72.4148C50.5717 72.5701 50.4287 72.7737 50.3359 73.0256C50.2431 73.2775 50.1967 73.5492 50.1967 73.8409C50.1967 74.1326 50.2431 74.4034 50.3359 74.6534C50.4287 74.9034 50.5717 75.1051 50.7649 75.2585C50.9581 75.4119 51.2043 75.4886 51.5036 75.4886ZM57.5952 72.6136L56.9929 72.7841C56.955 72.6837 56.8991 72.5862 56.8253 72.4915C56.7533 72.3949 56.6548 72.3153 56.5298 72.2528C56.4048 72.1903 56.2448 72.1591 56.0497 72.1591C55.7827 72.1591 55.5601 72.2206 55.3821 72.3438C55.206 72.465 55.1179 72.6193 55.1179 72.8068C55.1179 72.9735 55.1785 73.1051 55.2997 73.2017C55.4209 73.2983 55.6103 73.3788 55.8679 73.4432L56.5156 73.6023C56.9058 73.697 57.1965 73.8419 57.3878 74.0369C57.5791 74.2301 57.6747 74.4792 57.6747 74.7841C57.6747 75.0341 57.6027 75.2576 57.4588 75.4545C57.3168 75.6515 57.1179 75.8068 56.8622 75.9205C56.6065 76.0341 56.3092 76.0909 55.9702 76.0909C55.5251 76.0909 55.1567 75.9943 54.8651 75.8011C54.5734 75.608 54.3887 75.3258 54.3111 74.9545L54.9474 74.7955C55.008 75.0303 55.1226 75.2064 55.2912 75.3239C55.4616 75.4413 55.6842 75.5 55.9588 75.5C56.2713 75.5 56.5194 75.4337 56.7031 75.3011C56.8887 75.1667 56.9815 75.0057 56.9815 74.8182C56.9815 74.6667 56.9285 74.5398 56.8224 74.4375C56.7164 74.3333 56.5535 74.2557 56.3338 74.2045L55.6065 74.0341C55.2069 73.9394 54.9134 73.7926 54.7259 73.5938C54.5402 73.393 54.4474 73.142 54.4474 72.8409C54.4474 72.5947 54.5166 72.3769 54.6548 72.1875C54.795 71.9981 54.9853 71.8494 55.2259 71.7415C55.4683 71.6335 55.7429 71.5795 56.0497 71.5795C56.4815 71.5795 56.8205 71.6742 57.0668 71.8636C57.3149 72.053 57.491 72.303 57.5952 72.6136Z" fill="black"/>
<path d="M22.75 21C20.6816 21 19 22.6816 19 24.75V43.5C19 45.5684 20.6816 47.25 22.75 47.25H45.25C47.3184 47.25 49 45.5684 49 43.5V30.375C49 28.3066 47.3184 26.625 45.25 26.625H23.6875C23.1719 26.625 22.75 26.2031 22.75 25.6875C22.75 25.1719 23.1719 24.75 23.6875 24.75H45.25C46.2871 24.75 47.125 23.9121 47.125 22.875C47.125 21.8379 46.2871 21 45.25 21H22.75ZM43.375 35.0625C43.8723 35.0625 44.3492 35.26 44.7008 35.6117C45.0525 35.9633 45.25 36.4402 45.25 36.9375C45.25 37.4348 45.0525 37.9117 44.7008 38.2633C44.3492 38.615 43.8723 38.8125 43.375 38.8125C42.8777 38.8125 42.4008 38.615 42.0492 38.2633C41.6975 37.9117 41.5 37.4348 41.5 36.9375C41.5 36.4402 41.6975 35.9633 42.0492 35.6117C42.4008 35.26 42.8777 35.0625 43.375 35.0625Z" fill="#EB9900" fill-opacity="0.8"/>
<defs>
<filter id="filter0_d_16_64" x="0" y="0" width="68" height="68" filterUnits="userSpaceOnUse" color-interpolation-filters="sRGB">
<feFlood flood-opacity="0" result="BackgroundImageFix"/>
<feColorMatrix in="SourceAlpha" type="matrix" values="0 0 0 0 0 0 0 0 0 0 0 0 0 0 0 0 0 0 127 0" result="hardAlpha"/>
<feOffset dy="1"/>
<feGaussianBlur stdDeviation="2"/>
<feComposite in2="hardAlpha" operator="out"/>
<feColorMatrix type="matrix" values="0 0 0 0 0 0 0 0 0 0 0 0 0 0 0 0 0 0 0.25 0"/>
<feBlend mode="normal" in2="BackgroundImageFix" result="effect1_dropShadow_16_64"/>
<feBlend mode="normal" in="SourceGraphic" in2="effect1_dropShadow_16_64" result="shape"/>
</filter>
</defs>
</svg>
