<svg width="115" height="46" viewBox="0 0 115 46" fill="none" xmlns="http://www.w3.org/2000/svg">
<g filter="url(#filter0_d_57_200)">
<rect x="4" y="3" width="107" height="38" rx="5" fill="#640564"/>
</g>
<path d="M16.12 27H14.3729L18.2987 16.0909H20.2003L24.1261 27H22.3789L19.2947 18.0724H19.2095L16.12 27ZM16.413 22.728H22.0806V24.1129H16.413V22.728ZM31.5475 18.8182L28.5805 27H26.876L23.9037 18.8182H25.6135L27.6856 25.1143H27.7709L29.8376 18.8182H31.5475ZM35.191 27.1811C34.6725 27.1811 34.2037 27.0852 33.7847 26.8935C33.3657 26.6982 33.0336 26.4158 32.7886 26.0465C32.5471 25.6772 32.4264 25.2244 32.4264 24.6882C32.4264 24.2266 32.5152 23.8466 32.6927 23.5483C32.8703 23.25 33.11 23.0138 33.4118 22.8398C33.7137 22.6658 34.051 22.5344 34.4239 22.4457C34.7968 22.3569 35.1768 22.2894 35.5638 22.2433C36.0539 22.1864 36.4516 22.1403 36.757 22.1048C37.0624 22.0657 37.2844 22.0036 37.4229 21.9183C37.5613 21.8331 37.6306 21.6946 37.6306 21.5028V21.4656C37.6306 21.0004 37.4992 20.6399 37.2364 20.3842C36.9772 20.1286 36.5901 20.0007 36.0752 20.0007C35.539 20.0007 35.1164 20.1197 34.8074 20.3576C34.502 20.592 34.2907 20.853 34.1736 21.1406L32.6768 20.7997C32.8543 20.3026 33.1135 19.9013 33.4545 19.5959C33.7989 19.2869 34.1949 19.0632 34.6423 18.9247C35.0898 18.7827 35.5603 18.7116 36.0539 18.7116C36.3806 18.7116 36.7268 18.7507 37.0926 18.8288C37.4619 18.9034 37.8064 19.0419 38.126 19.2443C38.4491 19.4467 38.7137 19.7362 38.9197 20.1126C39.1256 20.4854 39.2286 20.9702 39.2286 21.5668V27H37.6732V25.8814H37.6093C37.5063 26.0874 37.3518 26.2898 37.1459 26.4886C36.9399 26.6875 36.6753 26.8526 36.3522 26.984C36.029 27.1154 35.642 27.1811 35.191 27.1811ZM35.5372 25.9027C35.9775 25.9027 36.354 25.8157 36.6665 25.6417C36.9825 25.4677 37.2222 25.2404 37.3856 24.9599C37.5525 24.6758 37.6359 24.3722 37.6359 24.049V22.9943C37.5791 23.0511 37.469 23.1044 37.3057 23.1541C37.1459 23.2003 36.963 23.2411 36.757 23.2766C36.551 23.3086 36.3504 23.3388 36.1551 23.3672C35.9598 23.392 35.7964 23.4134 35.665 23.4311C35.3561 23.4702 35.0738 23.5359 34.8181 23.6282C34.566 23.7205 34.3635 23.8537 34.2108 24.0277C34.0617 24.1982 33.9871 24.4254 33.9871 24.7095C33.9871 25.1037 34.1327 25.402 34.4239 25.6044C34.7151 25.8033 35.0862 25.9027 35.5372 25.9027ZM42.9426 22.142V27H41.35V18.8182H42.8787V20.1499H42.9799C43.1681 19.7166 43.4629 19.3686 43.8642 19.1058C44.269 18.843 44.7786 18.7116 45.3929 18.7116C45.9505 18.7116 46.4387 18.8288 46.8578 19.0632C47.2768 19.294 47.6017 19.6385 47.8326 20.0966C48.0634 20.5547 48.1788 21.1211 48.1788 21.7958V27H46.5861V21.9876C46.5861 21.3945 46.4316 20.9311 46.1227 20.5973C45.8137 20.2599 45.3894 20.0913 44.8496 20.0913C44.4803 20.0913 44.1518 20.1712 43.8642 20.331C43.5801 20.4908 43.3546 20.7251 43.1877 21.0341C43.0243 21.3395 42.9426 21.7088 42.9426 22.142ZM53.7612 27.1651C52.9693 27.1651 52.2875 26.9858 51.7157 26.6271C51.1475 26.2649 50.7108 25.766 50.4054 25.1303C50.1 24.4947 49.9473 23.7667 49.9473 22.9464C49.9473 22.1154 50.1035 21.3821 50.416 20.7464C50.7285 20.1072 51.1689 19.6083 51.737 19.2496C52.3052 18.891 52.9746 18.7116 53.7452 18.7116C54.3667 18.7116 54.9206 18.8271 55.4071 19.0579C55.8936 19.2852 56.286 19.6048 56.5843 20.0167C56.8862 20.4286 57.0655 20.9098 57.1223 21.4602H55.5723C55.487 21.0767 55.2917 20.7464 54.9863 20.4695C54.6845 20.1925 54.2797 20.054 53.7718 20.054C53.3279 20.054 52.9391 20.1712 52.6053 20.4055C52.275 20.6364 52.0176 20.9666 51.8329 21.3963C51.6483 21.8224 51.5559 22.3267 51.5559 22.9091C51.5559 23.5057 51.6465 24.0206 51.8276 24.4538C52.0087 24.8871 52.2644 25.2227 52.5946 25.4606C52.9284 25.6985 53.3208 25.8175 53.7718 25.8175C54.0737 25.8175 54.3471 25.7624 54.5922 25.6523C54.8407 25.5387 55.0485 25.3771 55.2154 25.1676C55.3858 24.9581 55.5048 24.706 55.5723 24.4112H57.1223C57.0655 24.9403 56.8933 25.4126 56.6056 25.8281C56.318 26.2436 55.9327 26.5703 55.4498 26.8082C54.9703 27.0462 54.4075 27.1651 53.7612 27.1651ZM53.1859 26.9574H54.2299L54.1447 27.3942C54.4537 27.4439 54.7235 27.5682 54.9544 27.767C55.1852 27.9659 55.3006 28.266 55.3006 28.6673C55.3042 29.1467 55.0964 29.5355 54.6774 29.8338C54.2619 30.1321 53.66 30.2812 52.8716 30.2812L52.8397 29.3917C53.209 29.3917 53.5073 29.3384 53.7346 29.2319C53.9654 29.1254 54.0826 28.9531 54.0861 28.7152C54.0897 28.4773 54.0009 28.3104 53.8198 28.2145C53.6422 28.1186 53.3581 28.0511 52.9675 28.0121L53.1859 26.9574ZM61.2066 27.1811C60.6881 27.1811 60.2194 27.0852 59.8003 26.8935C59.3813 26.6982 59.0493 26.4158 58.8042 26.0465C58.5628 25.6772 58.442 25.2244 58.442 24.6882C58.442 24.2266 58.5308 23.8466 58.7084 23.5483C58.8859 23.25 59.1256 23.0138 59.4275 22.8398C59.7293 22.6658 60.0667 22.5344 60.4395 22.4457C60.8124 22.3569 61.1924 22.2894 61.5795 22.2433C62.0695 22.1864 62.4672 22.1403 62.7726 22.1048C63.078 22.0657 63.3 22.0036 63.4385 21.9183C63.577 21.8331 63.6462 21.6946 63.6462 21.5028V21.4656C63.6462 21.0004 63.5148 20.6399 63.252 20.3842C62.9928 20.1286 62.6057 20.0007 62.0908 20.0007C61.5546 20.0007 61.132 20.1197 60.8231 20.3576C60.5177 20.592 60.3064 20.853 60.1892 21.1406L58.6924 20.7997C58.8699 20.3026 59.1292 19.9013 59.4701 19.5959C59.8145 19.2869 60.2105 19.0632 60.6579 18.9247C61.1054 18.7827 61.5759 18.7116 62.0695 18.7116C62.3962 18.7116 62.7425 18.7507 63.1082 18.8288C63.4775 18.9034 63.822 19.0419 64.1416 19.2443C64.4648 19.4467 64.7293 19.7362 64.9353 20.1126C65.1412 20.4854 65.2442 20.9702 65.2442 21.5668V27H63.6888V25.8814H63.6249C63.5219 26.0874 63.3675 26.2898 63.1615 26.4886C62.9555 26.6875 62.691 26.8526 62.3678 26.984C62.0447 27.1154 61.6576 27.1811 61.2066 27.1811ZM61.5528 25.9027C61.9932 25.9027 62.3696 25.8157 62.6821 25.6417C62.9981 25.4677 63.2378 25.2404 63.4012 24.9599C63.5681 24.6758 63.6515 24.3722 63.6515 24.049V22.9943C63.5947 23.0511 63.4846 23.1044 63.3213 23.1541C63.1615 23.2003 62.9786 23.2411 62.7726 23.2766C62.5667 23.3086 62.366 23.3388 62.1707 23.3672C61.9754 23.392 61.8121 23.4134 61.6807 23.4311C61.3717 23.4702 61.0894 23.5359 60.8337 23.6282C60.5816 23.7205 60.3792 23.8537 60.2265 24.0277C60.0773 24.1982 60.0028 24.4254 60.0028 24.7095C60.0028 25.1037 60.1483 25.402 60.4395 25.6044C60.7307 25.8033 61.1018 25.9027 61.5528 25.9027ZM67.3656 27V18.8182H68.905V20.1179H68.9902C69.1394 19.6776 69.4022 19.3313 69.7786 19.0792C70.1586 18.8235 70.5882 18.6957 71.0676 18.6957C71.1671 18.6957 71.2843 18.6992 71.4192 18.7063C71.5577 18.7134 71.666 18.7223 71.7441 18.733V20.2564C71.6802 20.2386 71.5666 20.2191 71.4032 20.1978C71.2399 20.1729 71.0765 20.1605 70.9132 20.1605C70.5368 20.1605 70.2012 20.2404 69.9064 20.4002C69.6152 20.5565 69.3844 20.7749 69.214 21.0554C69.0435 21.3324 68.9583 21.6484 68.9583 22.0036V27H67.3656Z" fill="white"/>
<path d="M98.6433 23.5719C99.1176 23.0976 99.1176 22.3273 98.6433 21.853L92.5719 15.7815C92.0975 15.3072 91.3272 15.3072 90.8529 15.7815C90.3786 16.2559 90.3786 17.0262 90.8529 17.5005L94.8562 21.5001H83.2143C82.5426 21.5001 82 22.0427 82 22.7143C82 23.386 82.5426 23.9286 83.2143 23.9286H94.8525L90.8567 27.9282C90.3824 28.4025 90.3824 29.1728 90.8567 29.6472C91.331 30.1215 92.1013 30.1215 92.5757 29.6472L98.6471 23.5757L98.6433 23.5719Z" fill="white"/>
<defs>
<filter id="filter0_d_57_200" x="0" y="0" width="115" height="46" filterUnits="userSpaceOnUse" color-interpolation-filters="sRGB">
<feFlood flood-opacity="0" result="BackgroundImageFix"/>
<feColorMatrix in="SourceAlpha" type="matrix" values="0 0 0 0 0 0 0 0 0 0 0 0 0 0 0 0 0 0 127 0" result="hardAlpha"/>
<feOffset dy="1"/>
<feGaussianBlur stdDeviation="2"/>
<feComposite in2="hardAlpha" operator="out"/>
<feColorMatrix type="matrix" values="0 0 0 0 0 0 0 0 0 0 0 0 0 0 0 0 0 0 0.25 0"/>
<feBlend mode="normal" in2="BackgroundImageFix" result="effect1_dropShadow_57_200"/>
<feBlend mode="normal" in="SourceGraphic" in2="effect1_dropShadow_57_200" result="shape"/>
</filter>
</defs>
</svg>
