<svg width="68" height="78" viewBox="0 0 68 78" fill="none" xmlns="http://www.w3.org/2000/svg">
<g filter="url(#filter0_d_333_9)">
<rect x="4" y="3" width="60" height="60" rx="5" fill="#A72608" fill-opacity="0.15" shape-rendering="crispEdges"/>
</g>
<path d="M19.8182 74.1818H20.5909L21.2386 75.0341L21.4091 75.2614L22.375 76.5455H21.6023L20.9659 75.6932L20.8068 75.4773L19.8182 74.1818ZM22.6136 73.0909C22.6136 73.7045 22.5028 74.2348 22.2812 74.6818C22.0597 75.1288 21.7557 75.4735 21.3693 75.7159C20.983 75.9583 20.5417 76.0795 20.0455 76.0795C19.5492 76.0795 19.108 75.9583 18.7216 75.7159C18.3352 75.4735 18.0313 75.1288 17.8097 74.6818C17.5881 74.2348 17.4773 73.7045 17.4773 73.0909C17.4773 72.4773 17.5881 71.947 17.8097 71.5C18.0313 71.053 18.3352 70.7083 18.7216 70.4659C19.108 70.2235 19.5492 70.1023 20.0455 70.1023C20.5417 70.1023 20.983 70.2235 21.3693 70.4659C21.7557 70.7083 22.0597 71.053 22.2812 71.5C22.5028 71.947 22.6136 72.4773 22.6136 73.0909ZM21.9318 73.0909C21.9318 72.5871 21.8475 72.1619 21.679 71.8153C21.5123 71.4688 21.286 71.2064 21 71.0284C20.7159 70.8504 20.3977 70.7614 20.0455 70.7614C19.6932 70.7614 19.3741 70.8504 19.0881 71.0284C18.804 71.2064 18.5777 71.4688 18.4091 71.8153C18.2424 72.1619 18.1591 72.5871 18.1591 73.0909C18.1591 73.5947 18.2424 74.0199 18.4091 74.3665C18.5777 74.7131 18.804 74.9754 19.0881 75.1534C19.3741 75.3314 19.6932 75.4205 20.0455 75.4205C20.3977 75.4205 20.7159 75.3314 21 75.1534C21.286 74.9754 21.5123 74.7131 21.679 74.3665C21.8475 74.0199 21.9318 73.5947 21.9318 73.0909ZM23.7983 76V70.1818H25.7642C26.2188 70.1818 26.5919 70.2595 26.8835 70.4148C27.1752 70.5682 27.3911 70.7794 27.5312 71.0483C27.6714 71.3172 27.7415 71.6231 27.7415 71.9659C27.7415 72.3087 27.6714 72.6127 27.5312 72.8778C27.3911 73.143 27.1761 73.3513 26.8864 73.5028C26.5966 73.6525 26.2263 73.7273 25.7756 73.7273H24.1847V73.0909H25.7528C26.0634 73.0909 26.3134 73.0455 26.5028 72.9545C26.6941 72.8636 26.8324 72.7348 26.9176 72.5682C27.0047 72.3996 27.0483 72.1989 27.0483 71.9659C27.0483 71.733 27.0047 71.5294 26.9176 71.3551C26.8305 71.1809 26.6913 71.0464 26.5 70.9517C26.3087 70.8551 26.0559 70.8068 25.7415 70.8068H24.5028V76H23.7983ZM26.5369 73.3864L27.9688 76H27.1506L25.7415 73.3864H26.5369ZM35.8473 72H35.1428C35.1011 71.7973 35.0282 71.6193 34.924 71.4659C34.8217 71.3125 34.6967 71.1837 34.549 71.0795C34.4032 70.9735 34.2412 70.8939 34.0632 70.8409C33.8852 70.7879 33.6996 70.7614 33.5064 70.7614C33.1541 70.7614 32.835 70.8504 32.549 71.0284C32.2649 71.2064 32.0386 71.4688 31.87 71.8153C31.7034 72.1619 31.62 72.5871 31.62 73.0909C31.62 73.5947 31.7034 74.0199 31.87 74.3665C32.0386 74.7131 32.2649 74.9754 32.549 75.1534C32.835 75.3314 33.1541 75.4205 33.5064 75.4205C33.6996 75.4205 33.8852 75.3939 34.0632 75.3409C34.2412 75.2879 34.4032 75.2093 34.549 75.1051C34.6967 74.9991 34.8217 74.8693 34.924 74.7159C35.0282 74.5606 35.1011 74.3826 35.1428 74.1818H35.8473C35.7943 74.4792 35.6977 74.7453 35.5575 74.9801C35.4174 75.215 35.2431 75.4148 35.0348 75.5795C34.8265 75.7424 34.5926 75.8665 34.3331 75.9517C34.0755 76.0369 33.8 76.0795 33.5064 76.0795C33.0102 76.0795 32.5689 75.9583 32.1825 75.7159C31.7962 75.4735 31.4922 75.1288 31.2706 74.6818C31.049 74.2348 30.9382 73.7045 30.9382 73.0909C30.9382 72.4773 31.049 71.947 31.2706 71.5C31.4922 71.053 31.7962 70.7083 32.1825 70.4659C32.5689 70.2235 33.0102 70.1023 33.5064 70.1023C33.8 70.1023 34.0755 70.1449 34.3331 70.2301C34.5926 70.3153 34.8265 70.4403 35.0348 70.6051C35.2431 70.768 35.4174 70.9669 35.5575 71.2017C35.6977 71.4347 35.7943 71.7008 35.8473 72ZM38.6676 76.0909C38.2737 76.0909 37.928 75.9972 37.6307 75.8097C37.3352 75.6222 37.1042 75.3598 36.9375 75.0227C36.7727 74.6856 36.6903 74.2917 36.6903 73.8409C36.6903 73.3864 36.7727 72.9896 36.9375 72.6506C37.1042 72.3116 37.3352 72.0483 37.6307 71.8608C37.928 71.6733 38.2737 71.5795 38.6676 71.5795C39.0616 71.5795 39.4063 71.6733 39.7017 71.8608C39.9991 72.0483 40.2301 72.3116 40.3949 72.6506C40.5616 72.9896 40.6449 73.3864 40.6449 73.8409C40.6449 74.2917 40.5616 74.6856 40.3949 75.0227C40.2301 75.3598 39.9991 75.6222 39.7017 75.8097C39.4063 75.9972 39.0616 76.0909 38.6676 76.0909ZM38.6676 75.4886C38.9669 75.4886 39.2131 75.4119 39.4062 75.2585C39.5994 75.1051 39.7424 74.9034 39.8352 74.6534C39.928 74.4034 39.9744 74.1326 39.9744 73.8409C39.9744 73.5492 39.928 73.2775 39.8352 73.0256C39.7424 72.7737 39.5994 72.5701 39.4062 72.4148C39.2131 72.2595 38.9669 72.1818 38.6676 72.1818C38.3684 72.1818 38.1222 72.2595 37.929 72.4148C37.7358 72.5701 37.5928 72.7737 37.5 73.0256C37.4072 73.2775 37.3608 73.5492 37.3608 73.8409C37.3608 74.1326 37.4072 74.4034 37.5 74.6534C37.5928 74.9034 37.7358 75.1051 37.929 75.2585C38.1222 75.4119 38.3684 75.4886 38.6676 75.4886ZM43.3161 76.0909C42.9524 76.0909 42.6314 75.9991 42.353 75.8153C42.0746 75.6297 41.8568 75.3684 41.6996 75.0312C41.5424 74.6922 41.4638 74.2917 41.4638 73.8295C41.4638 73.3712 41.5424 72.9735 41.6996 72.6364C41.8568 72.2992 42.0755 72.0388 42.3558 71.8551C42.6361 71.6714 42.96 71.5795 43.3274 71.5795C43.6115 71.5795 43.8359 71.6269 44.0007 71.7216C44.1674 71.8144 44.2943 71.9205 44.3814 72.0398C44.4704 72.1572 44.5395 72.2538 44.5888 72.3295H44.6456V70.1818H45.3161V76H44.6683V75.3295H44.5888C44.5395 75.4091 44.4695 75.5095 44.3786 75.6307C44.2876 75.75 44.1579 75.857 43.9893 75.9517C43.8208 76.0445 43.5964 76.0909 43.3161 76.0909ZM43.407 75.4886C43.6759 75.4886 43.9032 75.4186 44.0888 75.2784C44.2744 75.1364 44.4155 74.9403 44.5121 74.6903C44.6087 74.4384 44.657 74.1477 44.657 73.8182C44.657 73.4924 44.6096 73.2074 44.5149 72.9631C44.4202 72.7169 44.2801 72.5256 44.0945 72.3892C43.9089 72.2509 43.6797 72.1818 43.407 72.1818C43.1229 72.1818 42.8861 72.2547 42.6967 72.4006C42.5092 72.5445 42.3681 72.7405 42.2734 72.9886C42.1806 73.2348 42.1342 73.5114 42.1342 73.8182C42.1342 74.1288 42.1816 74.411 42.2763 74.6648C42.3729 74.9167 42.5149 75.1174 42.7024 75.267C42.8918 75.4148 43.1267 75.4886 43.407 75.4886ZM48.4666 76.0909C48.0462 76.0909 47.6835 75.9981 47.3786 75.8125C47.0755 75.625 46.8416 75.3636 46.6768 75.0284C46.514 74.6913 46.4325 74.2992 46.4325 73.8523C46.4325 73.4053 46.514 73.0114 46.6768 72.6705C46.8416 72.3277 47.0708 72.0606 47.3643 71.8693C47.6598 71.6761 48.0045 71.5795 48.3984 71.5795C48.6257 71.5795 48.8501 71.6174 49.0717 71.6932C49.2933 71.7689 49.495 71.892 49.6768 72.0625C49.8587 72.2311 50.0036 72.4545 50.1115 72.733C50.2195 73.0114 50.2734 73.3542 50.2734 73.7614V74.0455H46.9098V73.4659H49.5916C49.5916 73.2197 49.5424 73 49.4439 72.8068C49.3473 72.6136 49.209 72.4612 49.0291 72.3494C48.8511 72.2377 48.6409 72.1818 48.3984 72.1818C48.1314 72.1818 47.9003 72.2481 47.7053 72.3807C47.5121 72.5114 47.3634 72.6818 47.2592 72.892C47.1551 73.1023 47.103 73.3277 47.103 73.5682V73.9545C47.103 74.2841 47.1598 74.5634 47.2734 74.7926C47.389 75.0199 47.549 75.1932 47.7536 75.3125C47.9581 75.4299 48.1958 75.4886 48.4666 75.4886C48.6428 75.4886 48.8018 75.464 48.9439 75.4148C49.0878 75.3636 49.2119 75.2879 49.3161 75.1875C49.4202 75.0852 49.5007 74.9583 49.5575 74.8068L50.2053 74.9886C50.1371 75.2083 50.0225 75.4015 49.8615 75.5682C49.7005 75.733 49.5017 75.8617 49.2649 75.9545C49.0282 76.0455 48.7621 76.0909 48.4666 76.0909Z" fill="black"/>
<path d="M19 23.5312C19 22.0303 20.3917 20.8125 22.1071 20.8125H28.3214C30.0368 20.8125 31.4286 22.0303 31.4286 23.5312V28.9688C31.4286 30.4697 30.0368 31.6875 28.3214 31.6875H22.1071C20.3917 31.6875 19 30.4697 19 28.9688V23.5312ZM23.1429 24.4375V28.0625H27.2857V24.4375H23.1429ZM19 38.0312C19 36.5303 20.3917 35.3125 22.1071 35.3125H28.3214C30.0368 35.3125 31.4286 36.5303 31.4286 38.0312V43.4688C31.4286 44.9697 30.0368 46.1875 28.3214 46.1875H22.1071C20.3917 46.1875 19 44.9697 19 43.4688V38.0312ZM23.1429 38.9375V42.5625H27.2857V38.9375H23.1429ZM38.6786 20.8125H44.8929C46.6083 20.8125 48 22.0303 48 23.5312V28.9688C48 30.4697 46.6083 31.6875 44.8929 31.6875H38.6786C36.9632 31.6875 35.5714 30.4697 35.5714 28.9688V23.5312C35.5714 22.0303 36.9632 20.8125 38.6786 20.8125ZM43.8571 24.4375H39.7143V28.0625H43.8571V24.4375ZM35.5714 36.2188C35.5714 35.7203 36.0375 35.3125 36.6071 35.3125H40.75C41.3196 35.3125 41.7857 35.7203 41.7857 36.2188C41.7857 36.7172 42.2518 37.125 42.8214 37.125H44.8929C45.4625 37.125 45.9286 36.7172 45.9286 36.2188C45.9286 35.7203 46.3946 35.3125 46.9643 35.3125C47.5339 35.3125 48 35.7203 48 36.2188V41.6562C48 42.1547 47.5339 42.5625 46.9643 42.5625H42.8214C42.2518 42.5625 41.7857 42.1547 41.7857 41.6562C41.7857 41.1578 41.3196 40.75 40.75 40.75C40.1804 40.75 39.7143 41.1578 39.7143 41.6562V45.2812C39.7143 45.7797 39.2482 46.1875 38.6786 46.1875H36.6071C36.0375 46.1875 35.5714 45.7797 35.5714 45.2812V36.2188ZM42.8214 46.1875C42.5467 46.1875 42.2833 46.092 42.0891 45.9221C41.8948 45.7521 41.7857 45.5216 41.7857 45.2812C41.7857 45.0409 41.8948 44.8104 42.0891 44.6404C42.2833 44.4705 42.5467 44.375 42.8214 44.375C43.0961 44.375 43.3596 44.4705 43.5538 44.6404C43.748 44.8104 43.8571 45.0409 43.8571 45.2812C43.8571 45.5216 43.748 45.7521 43.5538 45.9221C43.3596 46.092 43.0961 46.1875 42.8214 46.1875ZM46.9643 46.1875C46.6896 46.1875 46.4262 46.092 46.2319 45.9221C46.0377 45.7521 45.9286 45.5216 45.9286 45.2812C45.9286 45.0409 46.0377 44.8104 46.2319 44.6404C46.4262 44.4705 46.6896 44.375 46.9643 44.375C47.239 44.375 47.5024 44.4705 47.6966 44.6404C47.8909 44.8104 48 45.0409 48 45.2812C48 45.5216 47.8909 45.7521 47.6966 45.9221C47.5024 46.092 47.239 46.1875 46.9643 46.1875Z" fill="#A72608"/>
<defs>
<filter id="filter0_d_333_9" x="0" y="0" width="68" height="68" filterUnits="userSpaceOnUse" color-interpolation-filters="sRGB">
<feFlood flood-opacity="0" result="BackgroundImageFix"/>
<feColorMatrix in="SourceAlpha" type="matrix" values="0 0 0 0 0 0 0 0 0 0 0 0 0 0 0 0 0 0 127 0" result="hardAlpha"/>
<feOffset dy="1"/>
<feGaussianBlur stdDeviation="2"/>
<feComposite in2="hardAlpha" operator="out"/>
<feColorMatrix type="matrix" values="0 0 0 0 0 0 0 0 0 0 0 0 0 0 0 0 0 0 0.25 0"/>
<feBlend mode="normal" in2="BackgroundImageFix" result="effect1_dropShadow_333_9"/>
<feBlend mode="normal" in="SourceGraphic" in2="effect1_dropShadow_333_9" result="shape"/>
</filter>
</defs>
</svg>
