<svg width="66" height="56" viewBox="0 0 66 56" fill="none" xmlns="http://www.w3.org/2000/svg">
<g filter="url(#filter0_d_340_2)">
<rect x="19.5" y="3.5" width="27" height="27" rx="13.5" stroke="#640564" stroke-opacity="0.15" shape-rendering="crispEdges"/>
</g>
<path d="M11.9567 40H11.2521C11.2105 39.7973 11.1375 39.6193 11.0334 39.4659C10.9311 39.3125 10.8061 39.1837 10.6584 39.0795C10.5125 38.9735 10.3506 38.8939 10.1726 38.8409C9.99456 38.7879 9.80895 38.7614 9.61577 38.7614C9.26349 38.7614 8.94437 38.8504 8.65838 39.0284C8.37429 39.2064 8.14796 39.4688 7.9794 39.8153C7.81274 40.1619 7.7294 40.5871 7.7294 41.0909C7.7294 41.5947 7.81274 42.0199 7.9794 42.3665C8.14796 42.7131 8.37429 42.9754 8.65838 43.1534C8.94437 43.3314 9.26349 43.4205 9.61577 43.4205C9.80895 43.4205 9.99456 43.3939 10.1726 43.3409C10.3506 43.2879 10.5125 43.2093 10.6584 43.1051C10.8061 42.9991 10.9311 42.8693 11.0334 42.7159C11.1375 42.5606 11.2105 42.3826 11.2521 42.1818H11.9567C11.9036 42.4792 11.8071 42.7453 11.6669 42.9801C11.5268 43.215 11.3525 43.4148 11.1442 43.5795C10.9358 43.7424 10.7019 43.8665 10.4425 43.9517C10.1849 44.0369 9.90933 44.0795 9.61577 44.0795C9.11956 44.0795 8.67827 43.9583 8.2919 43.7159C7.90554 43.4735 7.60156 43.1288 7.37997 42.6818C7.15838 42.2348 7.04759 41.7045 7.04759 41.0909C7.04759 40.4773 7.15838 39.947 7.37997 39.5C7.60156 39.053 7.90554 38.7083 8.2919 38.4659C8.67827 38.2235 9.11956 38.1023 9.61577 38.1023C9.90933 38.1023 10.1849 38.1449 10.4425 38.2301C10.7019 38.3153 10.9358 38.4403 11.1442 38.6051C11.3525 38.768 11.5268 38.9669 11.6669 39.2017C11.8071 39.4347 11.9036 39.7008 11.9567 40ZM14.777 44.0909C14.383 44.0909 14.0374 43.9972 13.7401 43.8097C13.4446 43.6222 13.2135 43.3598 13.0469 43.0227C12.8821 42.6856 12.7997 42.2917 12.7997 41.8409C12.7997 41.3864 12.8821 40.9896 13.0469 40.6506C13.2135 40.3116 13.4446 40.0483 13.7401 39.8608C14.0374 39.6733 14.383 39.5795 14.777 39.5795C15.1709 39.5795 15.5156 39.6733 15.8111 39.8608C16.1084 40.0483 16.3395 40.3116 16.5043 40.6506C16.6709 40.9896 16.7543 41.3864 16.7543 41.8409C16.7543 42.2917 16.6709 42.6856 16.5043 43.0227C16.3395 43.3598 16.1084 43.6222 15.8111 43.8097C15.5156 43.9972 15.1709 44.0909 14.777 44.0909ZM14.777 43.4886C15.0762 43.4886 15.3224 43.4119 15.5156 43.2585C15.7088 43.1051 15.8518 42.9034 15.9446 42.6534C16.0374 42.4034 16.0838 42.1326 16.0838 41.8409C16.0838 41.5492 16.0374 41.2775 15.9446 41.0256C15.8518 40.7737 15.7088 40.5701 15.5156 40.4148C15.3224 40.2595 15.0762 40.1818 14.777 40.1818C14.4777 40.1818 14.2315 40.2595 14.0384 40.4148C13.8452 40.5701 13.7022 40.7737 13.6094 41.0256C13.5166 41.2775 13.4702 41.5492 13.4702 41.8409C13.4702 42.1326 13.5166 42.4034 13.6094 42.6534C13.7022 42.9034 13.8452 43.1051 14.0384 43.2585C14.2315 43.4119 14.4777 43.4886 14.777 43.4886ZM17.7777 45.6364V39.6364H18.4254V40.3295H18.505C18.5542 40.2538 18.6224 40.1572 18.7095 40.0398C18.7985 39.9205 18.9254 39.8144 19.0902 39.7216C19.2569 39.6269 19.4822 39.5795 19.7663 39.5795C20.1338 39.5795 20.4576 39.6714 20.7379 39.8551C21.0182 40.0388 21.237 40.2992 21.3942 40.6364C21.5514 40.9735 21.63 41.3712 21.63 41.8295C21.63 42.2917 21.5514 42.6922 21.3942 43.0312C21.237 43.3684 21.0192 43.6297 20.7408 43.8153C20.4624 43.9991 20.1413 44.0909 19.7777 44.0909C19.4974 44.0909 19.273 44.0445 19.1044 43.9517C18.9358 43.857 18.8061 43.75 18.7152 43.6307C18.6243 43.5095 18.5542 43.4091 18.505 43.3295H18.4482V45.6364H17.7777ZM18.4368 41.8182C18.4368 42.1477 18.4851 42.4384 18.5817 42.6903C18.6783 42.9403 18.8194 43.1364 19.005 43.2784C19.1906 43.4186 19.4179 43.4886 19.6868 43.4886C19.9671 43.4886 20.201 43.4148 20.3885 43.267C20.5779 43.1174 20.7199 42.9167 20.8146 42.6648C20.9112 42.411 20.9595 42.1288 20.9595 41.8182C20.9595 41.5114 20.9122 41.2348 20.8175 40.9886C20.7247 40.7405 20.5836 40.5445 20.3942 40.4006C20.2067 40.2547 19.9709 40.1818 19.6868 40.1818C19.4141 40.1818 19.1849 40.2509 18.9993 40.3892C18.8137 40.5256 18.6735 40.7169 18.5788 40.9631C18.4841 41.2074 18.4368 41.4924 18.4368 41.8182ZM22.6527 44V39.6364H23.3232V44H22.6527ZM22.9936 38.9091C22.8629 38.9091 22.7502 38.8646 22.6555 38.7756C22.5627 38.6866 22.5163 38.5795 22.5163 38.4545C22.5163 38.3295 22.5627 38.2225 22.6555 38.1335C22.7502 38.0445 22.8629 38 22.9936 38C23.1243 38 23.236 38.0445 23.3288 38.1335C23.4235 38.2225 23.4709 38.3295 23.4709 38.4545C23.4709 38.5795 23.4235 38.6866 23.3288 38.7756C23.236 38.8646 23.1243 38.9091 22.9936 38.9091ZM25.8352 44.1023C25.5587 44.1023 25.3078 44.0502 25.0824 43.946C24.857 43.84 24.678 43.6875 24.5455 43.4886C24.4129 43.2879 24.3466 43.0455 24.3466 42.7614C24.3466 42.5114 24.3958 42.3087 24.4943 42.1534C24.5928 41.9962 24.7244 41.8731 24.8892 41.7841C25.054 41.6951 25.2358 41.6288 25.4347 41.5852C25.6354 41.5398 25.8371 41.5038 26.0398 41.4773C26.3049 41.4432 26.5199 41.4176 26.6847 41.4006C26.8513 41.3816 26.9725 41.3504 27.0483 41.3068C27.1259 41.2633 27.1648 41.1875 27.1648 41.0795V41.0568C27.1648 40.7765 27.0881 40.5587 26.9347 40.4034C26.7831 40.2481 26.553 40.1705 26.2443 40.1705C25.9242 40.1705 25.6733 40.2405 25.4915 40.3807C25.3097 40.5208 25.1818 40.6705 25.108 40.8295L24.4716 40.6023C24.5852 40.3371 24.7367 40.1307 24.9261 39.983C25.1174 39.8333 25.3258 39.7292 25.5511 39.6705C25.7784 39.6098 26.0019 39.5795 26.2216 39.5795C26.3617 39.5795 26.5227 39.5966 26.7045 39.6307C26.8883 39.6629 27.0653 39.7301 27.2358 39.8324C27.4081 39.9347 27.5511 40.089 27.6648 40.2955C27.7784 40.5019 27.8352 40.7784 27.8352 41.125V44H27.1648V43.4091H27.1307C27.0852 43.5038 27.0095 43.6051 26.9034 43.7131C26.7973 43.821 26.6563 43.9129 26.4801 43.9886C26.304 44.0644 26.089 44.1023 25.8352 44.1023ZM25.9375 43.5C26.2027 43.5 26.4261 43.4479 26.608 43.3438C26.7917 43.2396 26.9299 43.1051 27.0227 42.9403C27.1174 42.7756 27.1648 42.6023 27.1648 42.4205V41.8068C27.1364 41.8409 27.0739 41.8722 26.9773 41.9006C26.8826 41.9271 26.7727 41.9508 26.6477 41.9716C26.5246 41.9905 26.4044 42.0076 26.2869 42.0227C26.1714 42.036 26.0777 42.0473 26.0057 42.0568C25.8314 42.0795 25.6686 42.1165 25.517 42.1676C25.3674 42.2169 25.2462 42.2917 25.1534 42.392C25.0625 42.4905 25.017 42.625 25.017 42.7955C25.017 43.0284 25.1032 43.2045 25.2756 43.3239C25.4498 43.4413 25.6705 43.5 25.9375 43.5ZM29.0589 44V39.6364H29.7067V40.2955H29.7521C29.8317 40.0795 29.9756 39.9044 30.1839 39.7699C30.3923 39.6354 30.6271 39.5682 30.8885 39.5682C30.9377 39.5682 30.9993 39.5691 31.0732 39.571C31.147 39.5729 31.2029 39.5758 31.2408 39.5795V40.2614C31.218 40.2557 31.166 40.2472 31.0845 40.2358C31.005 40.2225 30.9207 40.2159 30.8317 40.2159C30.6196 40.2159 30.4302 40.2604 30.2635 40.3494C30.0987 40.4366 29.968 40.5578 29.8714 40.7131C29.7768 40.8665 29.7294 41.0417 29.7294 41.2386V44H29.0589ZM36.0582 44.0909C35.6491 44.0909 35.2969 43.9943 35.0014 43.8011C34.706 43.608 34.4787 43.3419 34.3196 43.0028C34.1605 42.6638 34.081 42.2765 34.081 41.8409C34.081 41.3977 34.1624 41.0066 34.3253 40.6676C34.4901 40.3267 34.7192 40.0606 35.0128 39.8693C35.3082 39.6761 35.6529 39.5795 36.0469 39.5795C36.3537 39.5795 36.6302 39.6364 36.8764 39.75C37.1226 39.8636 37.3243 40.0227 37.4815 40.2273C37.6387 40.4318 37.7363 40.6705 37.7741 40.9432H37.1037C37.0526 40.7443 36.9389 40.5682 36.7628 40.4148C36.5885 40.2595 36.3537 40.1818 36.0582 40.1818C35.7969 40.1818 35.5677 40.25 35.3707 40.3864C35.1757 40.5208 35.0232 40.7112 34.9134 40.9574C34.8054 41.2017 34.7514 41.4886 34.7514 41.8182C34.7514 42.1553 34.8045 42.4489 34.9105 42.6989C35.0185 42.9489 35.17 43.143 35.3651 43.2812C35.562 43.4195 35.7931 43.4886 36.0582 43.4886C36.2325 43.4886 36.3906 43.4583 36.5327 43.3977C36.6747 43.3371 36.795 43.25 36.8935 43.1364C36.992 43.0227 37.062 42.8864 37.1037 42.7273H37.7741C37.7363 42.9848 37.6425 43.2169 37.4929 43.4233C37.3452 43.6278 37.1491 43.7907 36.9048 43.9119C36.6624 44.0312 36.3802 44.0909 36.0582 44.0909ZM40.527 44.0909C40.133 44.0909 39.7874 43.9972 39.4901 43.8097C39.1946 43.6222 38.9635 43.3598 38.7969 43.0227C38.6321 42.6856 38.5497 42.2917 38.5497 41.8409C38.5497 41.3864 38.6321 40.9896 38.7969 40.6506C38.9635 40.3116 39.1946 40.0483 39.4901 39.8608C39.7874 39.6733 40.133 39.5795 40.527 39.5795C40.9209 39.5795 41.2656 39.6733 41.5611 39.8608C41.8584 40.0483 42.0895 40.3116 42.2543 40.6506C42.4209 40.9896 42.5043 41.3864 42.5043 41.8409C42.5043 42.2917 42.4209 42.6856 42.2543 43.0227C42.0895 43.3598 41.8584 43.6222 41.5611 43.8097C41.2656 43.9972 40.9209 44.0909 40.527 44.0909ZM40.527 43.4886C40.8262 43.4886 41.0724 43.4119 41.2656 43.2585C41.4588 43.1051 41.6018 42.9034 41.6946 42.6534C41.7874 42.4034 41.8338 42.1326 41.8338 41.8409C41.8338 41.5492 41.7874 41.2775 41.6946 41.0256C41.6018 40.7737 41.4588 40.5701 41.2656 40.4148C41.0724 40.2595 40.8262 40.1818 40.527 40.1818C40.2277 40.1818 39.9815 40.2595 39.7884 40.4148C39.5952 40.5701 39.4522 40.7737 39.3594 41.0256C39.2666 41.2775 39.2202 41.5492 39.2202 41.8409C39.2202 42.1326 39.2666 42.4034 39.3594 42.6534C39.4522 42.9034 39.5952 43.1051 39.7884 43.2585C39.9815 43.4119 40.2277 43.4886 40.527 43.4886ZM40.2202 39.0455L40.9134 37.7273H41.6974L40.8111 39.0455H40.2202ZM45.1754 44.0909C44.8118 44.0909 44.4908 43.9991 44.2124 43.8153C43.9339 43.6297 43.7161 43.3684 43.5589 43.0312C43.4018 42.6922 43.3232 42.2917 43.3232 41.8295C43.3232 41.3712 43.4018 40.9735 43.5589 40.6364C43.7161 40.2992 43.9349 40.0388 44.2152 39.8551C44.4955 39.6714 44.8194 39.5795 45.1868 39.5795C45.4709 39.5795 45.6953 39.6269 45.8601 39.7216C46.0268 39.8144 46.1536 39.9205 46.2408 40.0398C46.3298 40.1572 46.3989 40.2538 46.4482 40.3295H46.505V38.1818H47.1754V44H46.5277V43.3295H46.4482C46.3989 43.4091 46.3288 43.5095 46.2379 43.6307C46.147 43.75 46.0173 43.857 45.8487 43.9517C45.6802 44.0445 45.4557 44.0909 45.1754 44.0909ZM45.2663 43.4886C45.5353 43.4886 45.7625 43.4186 45.9482 43.2784C46.1338 43.1364 46.2749 42.9403 46.3714 42.6903C46.468 42.4384 46.5163 42.1477 46.5163 41.8182C46.5163 41.4924 46.469 41.2074 46.3743 40.9631C46.2796 40.7169 46.1394 40.5256 45.9538 40.3892C45.7682 40.2509 45.5391 40.1818 45.2663 40.1818C44.9822 40.1818 44.7455 40.2547 44.5561 40.4006C44.3686 40.5445 44.2275 40.7405 44.1328 40.9886C44.04 41.2348 43.9936 41.5114 43.9936 41.8182C43.9936 42.1288 44.041 42.411 44.1357 42.6648C44.2322 42.9167 44.3743 43.1174 44.5618 43.267C44.7512 43.4148 44.986 43.4886 45.2663 43.4886ZM48.4964 44V39.6364H49.1669V44H48.4964ZM48.8374 38.9091C48.7067 38.9091 48.594 38.8646 48.4993 38.7756C48.4065 38.6866 48.3601 38.5795 48.3601 38.4545C48.3601 38.3295 48.4065 38.2225 48.4993 38.1335C48.594 38.0445 48.7067 38 48.8374 38C48.968 38 49.0798 38.0445 49.1726 38.1335C49.2673 38.2225 49.3146 38.3295 49.3146 38.4545C49.3146 38.5795 49.2673 38.6866 49.1726 38.7756C49.0798 38.8646 48.968 38.9091 48.8374 38.9091ZM52.1562 45.7273C51.8324 45.7273 51.554 45.6856 51.321 45.6023C51.0881 45.5208 50.8939 45.4129 50.7386 45.2784C50.5852 45.1458 50.4631 45.0038 50.3722 44.8523L50.9062 44.4773C50.9669 44.5568 51.0436 44.6477 51.1364 44.75C51.2292 44.8542 51.3561 44.9441 51.517 45.0199C51.6799 45.0975 51.893 45.1364 52.1562 45.1364C52.5085 45.1364 52.7992 45.0511 53.0284 44.8807C53.2576 44.7102 53.3722 44.4432 53.3722 44.0795V43.1932H53.3153C53.2661 43.2727 53.196 43.3712 53.1051 43.4886C53.0161 43.6042 52.8873 43.7074 52.7188 43.7983C52.5521 43.8873 52.3267 43.9318 52.0426 43.9318C51.6903 43.9318 51.3741 43.8485 51.0938 43.6818C50.8153 43.5152 50.5947 43.2727 50.4318 42.9545C50.2708 42.6364 50.1903 42.25 50.1903 41.7955C50.1903 41.3485 50.2689 40.9593 50.4261 40.6278C50.5833 40.2945 50.8021 40.0369 51.0824 39.8551C51.3627 39.6714 51.6866 39.5795 52.054 39.5795C52.3381 39.5795 52.5634 39.6269 52.7301 39.7216C52.8987 39.8144 53.0275 39.9205 53.1165 40.0398C53.2074 40.1572 53.2775 40.2538 53.3267 40.3295H53.3949V39.6364H54.0426V44.125C54.0426 44.5 53.9574 44.8049 53.7869 45.0398C53.6184 45.2765 53.3911 45.4498 53.1051 45.5597C52.821 45.6714 52.5047 45.7273 52.1562 45.7273ZM52.1335 43.3295C52.4025 43.3295 52.6297 43.268 52.8153 43.1449C53.0009 43.0218 53.142 42.8447 53.2386 42.6136C53.3352 42.3826 53.3835 42.1061 53.3835 41.7841C53.3835 41.4697 53.3362 41.1922 53.2415 40.9517C53.1468 40.7112 53.0066 40.5227 52.821 40.3864C52.6354 40.25 52.4063 40.1818 52.1335 40.1818C51.8494 40.1818 51.6127 40.2538 51.4233 40.3977C51.2358 40.5417 51.0947 40.7348 51 40.9773C50.9072 41.2197 50.8608 41.4886 50.8608 41.7841C50.8608 42.0871 50.9081 42.3551 51.0028 42.5881C51.0994 42.8191 51.2415 43.0009 51.429 43.1335C51.6184 43.2642 51.8532 43.3295 52.1335 43.3295ZM57.0426 44.0909C56.6487 44.0909 56.303 43.9972 56.0057 43.8097C55.7102 43.6222 55.4792 43.3598 55.3125 43.0227C55.1477 42.6856 55.0653 42.2917 55.0653 41.8409C55.0653 41.3864 55.1477 40.9896 55.3125 40.6506C55.4792 40.3116 55.7102 40.0483 56.0057 39.8608C56.303 39.6733 56.6487 39.5795 57.0426 39.5795C57.4366 39.5795 57.7813 39.6733 58.0767 39.8608C58.3741 40.0483 58.6051 40.3116 58.7699 40.6506C58.9366 40.9896 59.0199 41.3864 59.0199 41.8409C59.0199 42.2917 58.9366 42.6856 58.7699 43.0227C58.6051 43.3598 58.3741 43.6222 58.0767 43.8097C57.7813 43.9972 57.4366 44.0909 57.0426 44.0909ZM57.0426 43.4886C57.3419 43.4886 57.5881 43.4119 57.7812 43.2585C57.9744 43.1051 58.1174 42.9034 58.2102 42.6534C58.303 42.4034 58.3494 42.1326 58.3494 41.8409C58.3494 41.5492 58.303 41.2775 58.2102 41.0256C58.1174 40.7737 57.9744 40.5701 57.7812 40.4148C57.5881 40.2595 57.3419 40.1818 57.0426 40.1818C56.7434 40.1818 56.4972 40.2595 56.304 40.4148C56.1108 40.5701 55.9678 40.7737 55.875 41.0256C55.7822 41.2775 55.7358 41.5492 55.7358 41.8409C55.7358 42.1326 55.7822 42.4034 55.875 42.6534C55.9678 42.9034 56.1108 43.1051 56.304 43.2585C56.4972 43.4119 56.7434 43.4886 57.0426 43.4886ZM6.45348 55.6364V49.6364H7.10121V50.3295H7.18075C7.23 50.2538 7.29818 50.1572 7.3853 50.0398C7.47431 49.9205 7.60121 49.8144 7.76598 49.7216C7.93265 49.6269 8.15803 49.5795 8.44212 49.5795C8.80954 49.5795 9.1334 49.6714 9.41371 49.8551C9.69401 50.0388 9.91276 50.2992 10.07 50.6364C10.2272 50.9735 10.3058 51.3712 10.3058 51.8295C10.3058 52.2917 10.2272 52.6922 10.07 53.0312C9.91276 53.3684 9.69496 53.6297 9.41655 53.8153C9.13814 53.9991 8.81712 54.0909 8.45348 54.0909C8.17318 54.0909 7.94875 54.0445 7.78018 53.9517C7.61162 53.857 7.48189 53.75 7.39098 53.6307C7.30007 53.5095 7.23 53.4091 7.18075 53.3295H7.12393V55.6364H6.45348ZM7.11257 51.8182C7.11257 52.1477 7.16087 52.4384 7.25746 52.6903C7.35405 52.9403 7.49515 53.1364 7.68075 53.2784C7.86636 53.4186 8.09363 53.4886 8.36257 53.4886C8.64287 53.4886 8.87678 53.4148 9.06428 53.267C9.25367 53.1174 9.39571 52.9167 9.49041 52.6648C9.587 52.411 9.6353 52.1288 9.6353 51.8182C9.6353 51.5114 9.58795 51.2348 9.49325 50.9886C9.40045 50.7405 9.25935 50.5445 9.06996 50.4006C8.88246 50.2547 8.64666 50.1818 8.36257 50.1818C8.08984 50.1818 7.86068 50.2509 7.67507 50.3892C7.48947 50.5256 7.34931 50.7169 7.25462 50.9631C7.15992 51.2074 7.11257 51.4924 7.11257 51.8182ZM12.6126 54.1023C12.3361 54.1023 12.0851 54.0502 11.8597 53.946C11.6344 53.84 11.4554 53.6875 11.3228 53.4886C11.1902 53.2879 11.1239 53.0455 11.1239 52.7614C11.1239 52.5114 11.1732 52.3087 11.2717 52.1534C11.3701 51.9962 11.5018 51.8731 11.6665 51.7841C11.8313 51.6951 12.0131 51.6288 12.212 51.5852C12.4128 51.5398 12.6145 51.5038 12.8171 51.4773C13.0823 51.4432 13.2972 51.4176 13.462 51.4006C13.6287 51.3816 13.7499 51.3504 13.8256 51.3068C13.9033 51.2633 13.9421 51.1875 13.9421 51.0795V51.0568C13.9421 50.7765 13.8654 50.5587 13.712 50.4034C13.5605 50.2481 13.3304 50.1705 13.0217 50.1705C12.7016 50.1705 12.4506 50.2405 12.2688 50.3807C12.087 50.5208 11.9592 50.6705 11.8853 50.8295L11.2489 50.6023C11.3626 50.3371 11.5141 50.1307 11.7035 49.983C11.8948 49.8333 12.1031 49.7292 12.3285 49.6705C12.5558 49.6098 12.7792 49.5795 12.9989 49.5795C13.1391 49.5795 13.3001 49.5966 13.4819 49.6307C13.6656 49.6629 13.8427 49.7301 14.0131 49.8324C14.1855 49.9347 14.3285 50.089 14.4421 50.2955C14.5558 50.5019 14.6126 50.7784 14.6126 51.125V54H13.9421V53.4091H13.908C13.8626 53.5038 13.7868 53.6051 13.6808 53.7131C13.5747 53.821 13.4336 53.9129 13.2575 53.9886C13.0813 54.0644 12.8664 54.1023 12.6126 54.1023ZM12.7148 53.5C12.98 53.5 13.2035 53.4479 13.3853 53.3438C13.569 53.2396 13.7073 53.1051 13.8001 52.9403C13.8948 52.7756 13.9421 52.6023 13.9421 52.4205V51.8068C13.9137 51.8409 13.8512 51.8722 13.7546 51.9006C13.6599 51.9271 13.5501 51.9508 13.4251 51.9716C13.302 51.9905 13.1817 52.0076 13.0643 52.0227C12.9487 52.036 12.855 52.0473 12.783 52.0568C12.6088 52.0795 12.4459 52.1165 12.2944 52.1676C12.1448 52.2169 12.0236 52.2917 11.9308 52.392C11.8398 52.4905 11.7944 52.625 11.7944 52.7955C11.7944 53.0284 11.8806 53.2045 12.0529 53.3239C12.2272 53.4413 12.4478 53.5 12.7148 53.5ZM15.8363 54V49.6364H16.484V50.2955H16.5295C16.609 50.0795 16.753 49.9044 16.9613 49.7699C17.1696 49.6354 17.4045 49.5682 17.6658 49.5682C17.7151 49.5682 17.7766 49.5691 17.8505 49.571C17.9244 49.5729 17.9802 49.5758 18.0181 49.5795V50.2614C17.9954 50.2557 17.9433 50.2472 17.8619 50.2358C17.7823 50.2225 17.698 50.2159 17.609 50.2159C17.3969 50.2159 17.2075 50.2604 17.0408 50.3494C16.8761 50.4366 16.7454 50.5578 16.6488 50.7131C16.5541 50.8665 16.5067 51.0417 16.5067 51.2386V54H15.8363ZM20.0969 54.1023C19.8204 54.1023 19.5695 54.0502 19.3441 53.946C19.1187 53.84 18.9397 53.6875 18.8072 53.4886C18.6746 53.2879 18.6083 53.0455 18.6083 52.7614C18.6083 52.5114 18.6576 52.3087 18.756 52.1534C18.8545 51.9962 18.9862 51.8731 19.1509 51.7841C19.3157 51.6951 19.4975 51.6288 19.6964 51.5852C19.8971 51.5398 20.0988 51.5038 20.3015 51.4773C20.5666 51.4432 20.7816 51.4176 20.9464 51.4006C21.113 51.3816 21.2343 51.3504 21.31 51.3068C21.3877 51.2633 21.4265 51.1875 21.4265 51.0795V51.0568C21.4265 50.7765 21.3498 50.5587 21.1964 50.4034C21.0449 50.2481 20.8147 50.1705 20.506 50.1705C20.186 50.1705 19.935 50.2405 19.7532 50.3807C19.5714 50.5208 19.4435 50.6705 19.3697 50.8295L18.7333 50.6023C18.8469 50.3371 18.9985 50.1307 19.1879 49.983C19.3791 49.8333 19.5875 49.7292 19.8129 49.6705C20.0401 49.6098 20.2636 49.5795 20.4833 49.5795C20.6235 49.5795 20.7844 49.5966 20.9663 49.6307C21.15 49.6629 21.3271 49.7301 21.4975 49.8324C21.6699 49.9347 21.8129 50.089 21.9265 50.2955C22.0401 50.5019 22.0969 50.7784 22.0969 51.125V54H21.4265V53.4091H21.3924C21.3469 53.5038 21.2712 53.6051 21.1651 53.7131C21.0591 53.821 20.918 53.9129 20.7418 53.9886C20.5657 54.0644 20.3507 54.1023 20.0969 54.1023ZM20.1992 53.5C20.4644 53.5 20.6879 53.4479 20.8697 53.3438C21.0534 53.2396 21.1916 53.1051 21.2844 52.9403C21.3791 52.7756 21.4265 52.6023 21.4265 52.4205V51.8068C21.3981 51.8409 21.3356 51.8722 21.239 51.9006C21.1443 51.9271 21.0344 51.9508 20.9094 51.9716C20.7863 51.9905 20.6661 52.0076 20.5487 52.0227C20.4331 52.036 20.3394 52.0473 20.2674 52.0568C20.0932 52.0795 19.9303 52.1165 19.7788 52.1676C19.6291 52.2169 19.5079 52.2917 19.4151 52.392C19.3242 52.4905 19.2788 52.625 19.2788 52.7955C19.2788 53.0284 19.3649 53.2045 19.5373 53.3239C19.7115 53.4413 19.9322 53.5 20.1992 53.5ZM27.3434 54.0909C26.9343 54.0909 26.582 53.9943 26.2866 53.8011C25.9911 53.608 25.7638 53.3419 25.6048 53.0028C25.4457 52.6638 25.3661 52.2765 25.3661 51.8409C25.3661 51.3977 25.4476 51.0066 25.6104 50.6676C25.7752 50.3267 26.0044 50.0606 26.2979 49.8693C26.5934 49.6761 26.9381 49.5795 27.332 49.5795C27.6388 49.5795 27.9154 49.6364 28.1616 49.75C28.4078 49.8636 28.6095 50.0227 28.7667 50.2273C28.9239 50.4318 29.0214 50.6705 29.0593 50.9432H28.3888C28.3377 50.7443 28.2241 50.5682 28.0479 50.4148C27.8737 50.2595 27.6388 50.1818 27.3434 50.1818C27.082 50.1818 26.8529 50.25 26.6559 50.3864C26.4608 50.5208 26.3084 50.7112 26.1985 50.9574C26.0906 51.2017 26.0366 51.4886 26.0366 51.8182C26.0366 52.1553 26.0896 52.4489 26.1957 52.6989C26.3036 52.9489 26.4551 53.143 26.6502 53.2812C26.8472 53.4195 27.0782 53.4886 27.3434 53.4886C27.5176 53.4886 27.6758 53.4583 27.8178 53.3977C27.9599 53.3371 28.0801 53.25 28.1786 53.1364C28.2771 53.0227 28.3472 52.8864 28.3888 52.7273H29.0593C29.0214 52.9848 28.9277 53.2169 28.7781 53.4233C28.6303 53.6278 28.4343 53.7907 28.19 53.9119C27.9476 54.0312 27.6654 54.0909 27.3434 54.0909ZM30.7099 48.1818V54H30.0394V48.1818H30.7099ZM31.9379 54V49.6364H32.6083V54H31.9379ZM32.2788 48.9091C32.1481 48.9091 32.0354 48.8646 31.9407 48.7756C31.8479 48.6866 31.8015 48.5795 31.8015 48.4545C31.8015 48.3295 31.8479 48.2225 31.9407 48.1335C32.0354 48.0445 32.1481 48 32.2788 48C32.4094 48 32.5212 48.0445 32.614 48.1335C32.7087 48.2225 32.756 48.3295 32.756 48.4545C32.756 48.5795 32.7087 48.6866 32.614 48.7756C32.5212 48.8646 32.4094 48.9091 32.2788 48.9091ZM33.8363 55.6364V49.6364H34.484V50.3295H34.5636C34.6128 50.2538 34.681 50.1572 34.7681 50.0398C34.8571 49.9205 34.984 49.8144 35.1488 49.7216C35.3155 49.6269 35.5408 49.5795 35.8249 49.5795C36.1924 49.5795 36.5162 49.6714 36.7965 49.8551C37.0768 50.0388 37.2956 50.2992 37.4528 50.6364C37.61 50.9735 37.6886 51.3712 37.6886 51.8295C37.6886 52.2917 37.61 52.6922 37.4528 53.0312C37.2956 53.3684 37.0778 53.6297 36.7994 53.8153C36.521 53.9991 36.1999 54.0909 35.8363 54.0909C35.556 54.0909 35.3316 54.0445 35.163 53.9517C34.9944 53.857 34.8647 53.75 34.7738 53.6307C34.6829 53.5095 34.6128 53.4091 34.5636 53.3295H34.5067V55.6364H33.8363ZM34.4954 51.8182C34.4954 52.1477 34.5437 52.4384 34.6403 52.6903C34.7369 52.9403 34.878 53.1364 35.0636 53.2784C35.2492 53.4186 35.4764 53.4886 35.7454 53.4886C36.0257 53.4886 36.2596 53.4148 36.4471 53.267C36.6365 53.1174 36.7785 52.9167 36.8732 52.6648C36.9698 52.411 37.0181 52.1288 37.0181 51.8182C37.0181 51.5114 36.9708 51.2348 36.8761 50.9886C36.7833 50.7405 36.6422 50.5445 36.4528 50.4006C36.2653 50.2547 36.0295 50.1818 35.7454 50.1818C35.4727 50.1818 35.2435 50.2509 35.0579 50.3892C34.8723 50.5256 34.7321 50.7169 34.6374 50.9631C34.5427 51.2074 34.4954 51.4924 34.4954 51.8182ZM38.8022 54V48.1818H39.4727V50.3295H39.5295C39.5787 50.2538 39.6469 50.1572 39.734 50.0398C39.823 49.9205 39.9499 49.8144 40.1147 49.7216C40.2814 49.6269 40.5067 49.5795 40.7908 49.5795C41.1583 49.5795 41.4821 49.6714 41.7624 49.8551C42.0427 50.0388 42.2615 50.2992 42.4187 50.6364C42.5759 50.9735 42.6545 51.3712 42.6545 51.8295C42.6545 52.2917 42.5759 52.6922 42.4187 53.0312C42.2615 53.3684 42.0437 53.6297 41.7653 53.8153C41.4869 53.9991 41.1658 54.0909 40.8022 54.0909C40.5219 54.0909 40.2975 54.0445 40.1289 53.9517C39.9603 53.857 39.8306 53.75 39.7397 53.6307C39.6488 53.5095 39.5787 53.4091 39.5295 53.3295H39.4499V54H38.8022ZM39.4613 51.8182C39.4613 52.1477 39.5096 52.4384 39.6062 52.6903C39.7028 52.9403 39.8439 53.1364 40.0295 53.2784C40.2151 53.4186 40.4424 53.4886 40.7113 53.4886C40.9916 53.4886 41.2255 53.4148 41.413 53.267C41.6024 53.1174 41.7444 52.9167 41.8391 52.6648C41.9357 52.411 41.984 52.1288 41.984 51.8182C41.984 51.5114 41.9367 51.2348 41.842 50.9886C41.7492 50.7405 41.6081 50.5445 41.4187 50.4006C41.2312 50.2547 40.9954 50.1818 40.7113 50.1818C40.4386 50.1818 40.2094 50.2509 40.0238 50.3892C39.8382 50.5256 39.698 50.7169 39.6033 50.9631C39.5086 51.2074 39.4613 51.4924 39.4613 51.8182ZM45.4528 54.0909C45.0588 54.0909 44.7132 53.9972 44.4158 53.8097C44.1204 53.6222 43.8893 53.3598 43.7227 53.0227C43.5579 52.6856 43.4755 52.2917 43.4755 51.8409C43.4755 51.3864 43.5579 50.9896 43.7227 50.6506C43.8893 50.3116 44.1204 50.0483 44.4158 49.8608C44.7132 49.6733 45.0588 49.5795 45.4528 49.5795C45.8467 49.5795 46.1914 49.6733 46.4869 49.8608C46.7842 50.0483 47.0153 50.3116 47.18 50.6506C47.3467 50.9896 47.43 51.3864 47.43 51.8409C47.43 52.2917 47.3467 52.6856 47.18 53.0227C47.0153 53.3598 46.7842 53.6222 46.4869 53.8097C46.1914 53.9972 45.8467 54.0909 45.4528 54.0909ZM45.4528 53.4886C45.752 53.4886 45.9982 53.4119 46.1914 53.2585C46.3846 53.1051 46.5276 52.9034 46.6204 52.6534C46.7132 52.4034 46.7596 52.1326 46.7596 51.8409C46.7596 51.5492 46.7132 51.2775 46.6204 51.0256C46.5276 50.7737 46.3846 50.5701 46.1914 50.4148C45.9982 50.2595 45.752 50.1818 45.4528 50.1818C45.1535 50.1818 44.9073 50.2595 44.7141 50.4148C44.521 50.5701 44.378 50.7737 44.2852 51.0256C44.1924 51.2775 44.146 51.5492 44.146 51.8409C44.146 52.1326 44.1924 52.4034 44.2852 52.6534C44.378 52.9034 44.521 53.1051 44.7141 53.2585C44.9073 53.4119 45.1535 53.4886 45.4528 53.4886ZM49.7376 54.1023C49.4611 54.1023 49.2101 54.0502 48.9847 53.946C48.7594 53.84 48.5804 53.6875 48.4478 53.4886C48.3152 53.2879 48.2489 53.0455 48.2489 52.7614C48.2489 52.5114 48.2982 52.3087 48.3967 52.1534C48.4951 51.9962 48.6268 51.8731 48.7915 51.7841C48.9563 51.6951 49.1381 51.6288 49.337 51.5852C49.5378 51.5398 49.7395 51.5038 49.9421 51.4773C50.2073 51.4432 50.4222 51.4176 50.587 51.4006C50.7537 51.3816 50.8749 51.3504 50.9506 51.3068C51.0283 51.2633 51.0671 51.1875 51.0671 51.0795V51.0568C51.0671 50.7765 50.9904 50.5587 50.837 50.4034C50.6855 50.2481 50.4554 50.1705 50.1467 50.1705C49.8266 50.1705 49.5756 50.2405 49.3938 50.3807C49.212 50.5208 49.0842 50.6705 49.0103 50.8295L48.3739 50.6023C48.4876 50.3371 48.6391 50.1307 48.8285 49.983C49.0198 49.8333 49.2281 49.7292 49.4535 49.6705C49.6808 49.6098 49.9042 49.5795 50.1239 49.5795C50.2641 49.5795 50.4251 49.5966 50.6069 49.6307C50.7906 49.6629 50.9677 49.7301 51.1381 49.8324C51.3105 49.9347 51.4535 50.089 51.5671 50.2955C51.6808 50.5019 51.7376 50.7784 51.7376 51.125V54H51.0671V53.4091H51.033C50.9876 53.5038 50.9118 53.6051 50.8058 53.7131C50.6997 53.821 50.5586 53.9129 50.3825 53.9886C50.2063 54.0644 49.9914 54.1023 49.7376 54.1023ZM49.8398 53.5C50.105 53.5 50.3285 53.4479 50.5103 53.3438C50.694 53.2396 50.8323 53.1051 50.9251 52.9403C51.0198 52.7756 51.0671 52.6023 51.0671 52.4205V51.8068C51.0387 51.8409 50.9762 51.8722 50.8796 51.9006C50.7849 51.9271 50.6751 51.9508 50.5501 51.9716C50.427 51.9905 50.3067 52.0076 50.1893 52.0227C50.0737 52.036 49.98 52.0473 49.908 52.0568C49.7338 52.0795 49.5709 52.1165 49.4194 52.1676C49.2698 52.2169 49.1486 52.2917 49.0558 52.392C48.9648 52.4905 48.9194 52.625 48.9194 52.7955C48.9194 53.0284 49.0056 53.2045 49.1779 53.3239C49.3522 53.4413 49.5728 53.5 49.8398 53.5ZM52.9613 54V49.6364H53.609V50.2955H53.6545C53.734 50.0795 53.878 49.9044 54.0863 49.7699C54.2946 49.6354 54.5295 49.5682 54.7908 49.5682C54.8401 49.5682 54.9016 49.5691 54.9755 49.571C55.0494 49.5729 55.1052 49.5758 55.1431 49.5795V50.2614C55.1204 50.2557 55.0683 50.2472 54.9869 50.2358C54.9073 50.2225 54.823 50.2159 54.734 50.2159C54.5219 50.2159 54.3325 50.2604 54.1658 50.3494C54.0011 50.4366 53.8704 50.5578 53.7738 50.7131C53.6791 50.8665 53.6317 51.0417 53.6317 51.2386V54H52.9613ZM57.4528 54.0909C57.0891 54.0909 56.7681 53.9991 56.4897 53.8153C56.2113 53.6297 55.9935 53.3684 55.8363 53.0312C55.6791 52.6922 55.6005 52.2917 55.6005 51.8295C55.6005 51.3712 55.6791 50.9735 55.8363 50.6364C55.9935 50.2992 56.2122 50.0388 56.4925 49.8551C56.7728 49.6714 57.0967 49.5795 57.4641 49.5795C57.7482 49.5795 57.9727 49.6269 58.1374 49.7216C58.3041 49.8144 58.431 49.9205 58.5181 50.0398C58.6071 50.1572 58.6763 50.2538 58.7255 50.3295H58.7823V48.1818H59.4528V54H58.805V53.3295H58.7255C58.6763 53.4091 58.6062 53.5095 58.5153 53.6307C58.4244 53.75 58.2946 53.857 58.1261 53.9517C57.9575 54.0445 57.7331 54.0909 57.4528 54.0909ZM57.5437 53.4886C57.8126 53.4886 58.0399 53.4186 58.2255 53.2784C58.4111 53.1364 58.5522 52.9403 58.6488 52.6903C58.7454 52.4384 58.7937 52.1477 58.7937 51.8182C58.7937 51.4924 58.7463 51.2074 58.6516 50.9631C58.5569 50.7169 58.4168 50.5256 58.2312 50.3892C58.0456 50.2509 57.8164 50.1818 57.5437 50.1818C57.2596 50.1818 57.0228 50.2547 56.8335 50.4006C56.646 50.5445 56.5049 50.7405 56.4102 50.9886C56.3174 51.2348 56.271 51.5114 56.271 51.8182C56.271 52.1288 56.3183 52.411 56.413 52.6648C56.5096 52.9167 56.6516 53.1174 56.8391 53.267C57.0285 53.4148 57.2634 53.4886 57.5437 53.4886Z" fill="#640564"/>
<g clip-path="url(#clip0_340_2)">
<path d="M38.1429 19.1875H32.5714C32.3161 19.1875 32.1071 18.9906 32.1071 18.75V11.75C32.1071 11.5094 32.3161 11.3125 32.5714 11.3125H36.6368L38.6071 13.1691V18.75C38.6071 18.9906 38.3982 19.1875 38.1429 19.1875ZM32.5714 20.5H38.1429C39.1672 20.5 40 19.7152 40 18.75V13.1691C40 12.8219 39.852 12.4883 39.5908 12.2422L37.6234 10.3855C37.3623 10.1395 37.0083 10 36.6397 10H32.5714C31.5471 10 30.7143 10.7848 30.7143 11.75V18.75C30.7143 19.7152 31.5471 20.5 32.5714 20.5ZM28.8571 13.5C27.8328 13.5 27 14.2848 27 15.25V22.25C27 23.2152 27.8328 24 28.8571 24H34.4286C35.4529 24 36.2857 23.2152 36.2857 22.25V21.375H34.8929V22.25C34.8929 22.4906 34.6839 22.6875 34.4286 22.6875H28.8571C28.6018 22.6875 28.3929 22.4906 28.3929 22.25V15.25C28.3929 15.0094 28.6018 14.8125 28.8571 14.8125H29.7857V13.5H28.8571Z" fill="#640564"/>
</g>
<defs>
<filter id="filter0_d_340_2" x="15" y="0" width="36" height="36" filterUnits="userSpaceOnUse" color-interpolation-filters="sRGB">
<feFlood flood-opacity="0" result="BackgroundImageFix"/>
<feColorMatrix in="SourceAlpha" type="matrix" values="0 0 0 0 0 0 0 0 0 0 0 0 0 0 0 0 0 0 127 0" result="hardAlpha"/>
<feOffset dy="1"/>
<feGaussianBlur stdDeviation="2"/>
<feComposite in2="hardAlpha" operator="out"/>
<feColorMatrix type="matrix" values="0 0 0 0 0 0 0 0 0 0 0 0 0 0 0 0 0 0 0.25 0"/>
<feBlend mode="normal" in2="BackgroundImageFix" result="effect1_dropShadow_340_2"/>
<feBlend mode="normal" in="SourceGraphic" in2="effect1_dropShadow_340_2" result="shape"/>
</filter>
<clipPath id="clip0_340_2">
<rect width="13" height="14" fill="white" transform="translate(27 10)"/>
</clipPath>
</defs>
</svg>
